G04 EAGLE Gerber RS-274X export*
G75*
%MOMM*%
%FSLAX34Y34*%
%LPD*%
%INMechanical*%
%IPPOS*%
%AMOC8*
5,1,8,0,0,1.08239X$1,22.5*%
G01*
%ADD10C,0.254000*%
%ADD11C,0.000000*%
%ADD12C,0.254000*%


D10*
X975360Y533400D02*
X990600Y518160D01*
X990600Y403860D02*
X1016000Y378460D01*
X1016000Y50800D01*
X990600Y25400D01*
X990600Y10000D01*
X990597Y9758D01*
X990588Y9517D01*
X990574Y9276D01*
X990553Y9035D01*
X990527Y8795D01*
X990495Y8555D01*
X990457Y8316D01*
X990414Y8079D01*
X990364Y7842D01*
X990309Y7607D01*
X990249Y7373D01*
X990182Y7141D01*
X990111Y6910D01*
X990033Y6681D01*
X989950Y6454D01*
X989862Y6229D01*
X989768Y6006D01*
X989669Y5786D01*
X989564Y5568D01*
X989455Y5353D01*
X989340Y5140D01*
X989220Y4930D01*
X989095Y4724D01*
X988965Y4520D01*
X988830Y4319D01*
X988690Y4122D01*
X988546Y3928D01*
X988397Y3738D01*
X988243Y3552D01*
X988085Y3369D01*
X987923Y3190D01*
X987756Y3015D01*
X987585Y2844D01*
X987410Y2677D01*
X987231Y2515D01*
X987048Y2357D01*
X986862Y2203D01*
X986672Y2054D01*
X986478Y1910D01*
X986281Y1770D01*
X986080Y1635D01*
X985876Y1505D01*
X985670Y1380D01*
X985460Y1260D01*
X985247Y1145D01*
X985032Y1036D01*
X984814Y931D01*
X984594Y832D01*
X984371Y738D01*
X984146Y650D01*
X983919Y567D01*
X983690Y489D01*
X983459Y418D01*
X983227Y351D01*
X982993Y291D01*
X982758Y236D01*
X982521Y186D01*
X982284Y143D01*
X982045Y105D01*
X981805Y73D01*
X981565Y47D01*
X981324Y26D01*
X981083Y12D01*
X980842Y3D01*
X980600Y0D01*
X10000Y0D01*
X9758Y3D01*
X9517Y12D01*
X9276Y26D01*
X9035Y47D01*
X8795Y73D01*
X8555Y105D01*
X8316Y143D01*
X8079Y186D01*
X7842Y236D01*
X7607Y291D01*
X7373Y351D01*
X7141Y418D01*
X6910Y489D01*
X6681Y567D01*
X6454Y650D01*
X6229Y738D01*
X6006Y832D01*
X5786Y931D01*
X5568Y1036D01*
X5353Y1145D01*
X5140Y1260D01*
X4930Y1380D01*
X4724Y1505D01*
X4520Y1635D01*
X4319Y1770D01*
X4122Y1910D01*
X3928Y2054D01*
X3738Y2203D01*
X3552Y2357D01*
X3369Y2515D01*
X3190Y2677D01*
X3015Y2844D01*
X2844Y3015D01*
X2677Y3190D01*
X2515Y3369D01*
X2357Y3552D01*
X2203Y3738D01*
X2054Y3928D01*
X1910Y4122D01*
X1770Y4319D01*
X1635Y4520D01*
X1505Y4724D01*
X1380Y4930D01*
X1260Y5140D01*
X1145Y5353D01*
X1036Y5568D01*
X931Y5786D01*
X832Y6006D01*
X738Y6229D01*
X650Y6454D01*
X567Y6681D01*
X489Y6910D01*
X418Y7141D01*
X351Y7373D01*
X291Y7607D01*
X236Y7842D01*
X186Y8079D01*
X143Y8316D01*
X105Y8555D01*
X73Y8795D01*
X47Y9035D01*
X26Y9276D01*
X12Y9517D01*
X3Y9758D01*
X0Y10000D01*
X0Y523400D01*
X3Y523642D01*
X12Y523883D01*
X26Y524124D01*
X47Y524365D01*
X73Y524605D01*
X105Y524845D01*
X143Y525084D01*
X186Y525321D01*
X236Y525558D01*
X291Y525793D01*
X351Y526027D01*
X418Y526259D01*
X489Y526490D01*
X567Y526719D01*
X650Y526946D01*
X738Y527171D01*
X832Y527394D01*
X931Y527614D01*
X1036Y527832D01*
X1145Y528047D01*
X1260Y528260D01*
X1380Y528470D01*
X1505Y528676D01*
X1635Y528880D01*
X1770Y529081D01*
X1910Y529278D01*
X2054Y529472D01*
X2203Y529662D01*
X2357Y529848D01*
X2515Y530031D01*
X2677Y530210D01*
X2844Y530385D01*
X3015Y530556D01*
X3190Y530723D01*
X3369Y530885D01*
X3552Y531043D01*
X3738Y531197D01*
X3928Y531346D01*
X4122Y531490D01*
X4319Y531630D01*
X4520Y531765D01*
X4724Y531895D01*
X4930Y532020D01*
X5140Y532140D01*
X5353Y532255D01*
X5568Y532364D01*
X5786Y532469D01*
X6006Y532568D01*
X6229Y532662D01*
X6454Y532750D01*
X6681Y532833D01*
X6910Y532911D01*
X7141Y532982D01*
X7373Y533049D01*
X7607Y533109D01*
X7842Y533164D01*
X8079Y533214D01*
X8316Y533257D01*
X8555Y533295D01*
X8795Y533327D01*
X9035Y533353D01*
X9276Y533374D01*
X9517Y533388D01*
X9758Y533397D01*
X10000Y533400D01*
X975360Y533400D01*
X990600Y518160D02*
X990600Y403860D01*
D11*
X949200Y25400D02*
X949205Y25793D01*
X949219Y26185D01*
X949243Y26577D01*
X949277Y26968D01*
X949320Y27359D01*
X949373Y27748D01*
X949436Y28135D01*
X949507Y28521D01*
X949589Y28906D01*
X949679Y29288D01*
X949780Y29667D01*
X949889Y30045D01*
X950008Y30419D01*
X950135Y30790D01*
X950272Y31158D01*
X950418Y31523D01*
X950573Y31884D01*
X950736Y32241D01*
X950908Y32594D01*
X951089Y32942D01*
X951279Y33286D01*
X951476Y33626D01*
X951682Y33960D01*
X951896Y34289D01*
X952119Y34613D01*
X952349Y34931D01*
X952586Y35244D01*
X952832Y35550D01*
X953085Y35851D01*
X953345Y36145D01*
X953612Y36433D01*
X953886Y36714D01*
X954167Y36988D01*
X954455Y37255D01*
X954749Y37515D01*
X955050Y37768D01*
X955356Y38014D01*
X955669Y38251D01*
X955987Y38481D01*
X956311Y38704D01*
X956640Y38918D01*
X956974Y39124D01*
X957314Y39321D01*
X957658Y39511D01*
X958006Y39692D01*
X958359Y39864D01*
X958716Y40027D01*
X959077Y40182D01*
X959442Y40328D01*
X959810Y40465D01*
X960181Y40592D01*
X960555Y40711D01*
X960933Y40820D01*
X961312Y40921D01*
X961694Y41011D01*
X962079Y41093D01*
X962465Y41164D01*
X962852Y41227D01*
X963241Y41280D01*
X963632Y41323D01*
X964023Y41357D01*
X964415Y41381D01*
X964807Y41395D01*
X965200Y41400D01*
X965593Y41395D01*
X965985Y41381D01*
X966377Y41357D01*
X966768Y41323D01*
X967159Y41280D01*
X967548Y41227D01*
X967935Y41164D01*
X968321Y41093D01*
X968706Y41011D01*
X969088Y40921D01*
X969467Y40820D01*
X969845Y40711D01*
X970219Y40592D01*
X970590Y40465D01*
X970958Y40328D01*
X971323Y40182D01*
X971684Y40027D01*
X972041Y39864D01*
X972394Y39692D01*
X972742Y39511D01*
X973086Y39321D01*
X973426Y39124D01*
X973760Y38918D01*
X974089Y38704D01*
X974413Y38481D01*
X974731Y38251D01*
X975044Y38014D01*
X975350Y37768D01*
X975651Y37515D01*
X975945Y37255D01*
X976233Y36988D01*
X976514Y36714D01*
X976788Y36433D01*
X977055Y36145D01*
X977315Y35851D01*
X977568Y35550D01*
X977814Y35244D01*
X978051Y34931D01*
X978281Y34613D01*
X978504Y34289D01*
X978718Y33960D01*
X978924Y33626D01*
X979121Y33286D01*
X979311Y32942D01*
X979492Y32594D01*
X979664Y32241D01*
X979827Y31884D01*
X979982Y31523D01*
X980128Y31158D01*
X980265Y30790D01*
X980392Y30419D01*
X980511Y30045D01*
X980620Y29667D01*
X980721Y29288D01*
X980811Y28906D01*
X980893Y28521D01*
X980964Y28135D01*
X981027Y27748D01*
X981080Y27359D01*
X981123Y26968D01*
X981157Y26577D01*
X981181Y26185D01*
X981195Y25793D01*
X981200Y25400D01*
X981195Y25007D01*
X981181Y24615D01*
X981157Y24223D01*
X981123Y23832D01*
X981080Y23441D01*
X981027Y23052D01*
X980964Y22665D01*
X980893Y22279D01*
X980811Y21894D01*
X980721Y21512D01*
X980620Y21133D01*
X980511Y20755D01*
X980392Y20381D01*
X980265Y20010D01*
X980128Y19642D01*
X979982Y19277D01*
X979827Y18916D01*
X979664Y18559D01*
X979492Y18206D01*
X979311Y17858D01*
X979121Y17514D01*
X978924Y17174D01*
X978718Y16840D01*
X978504Y16511D01*
X978281Y16187D01*
X978051Y15869D01*
X977814Y15556D01*
X977568Y15250D01*
X977315Y14949D01*
X977055Y14655D01*
X976788Y14367D01*
X976514Y14086D01*
X976233Y13812D01*
X975945Y13545D01*
X975651Y13285D01*
X975350Y13032D01*
X975044Y12786D01*
X974731Y12549D01*
X974413Y12319D01*
X974089Y12096D01*
X973760Y11882D01*
X973426Y11676D01*
X973086Y11479D01*
X972742Y11289D01*
X972394Y11108D01*
X972041Y10936D01*
X971684Y10773D01*
X971323Y10618D01*
X970958Y10472D01*
X970590Y10335D01*
X970219Y10208D01*
X969845Y10089D01*
X969467Y9980D01*
X969088Y9879D01*
X968706Y9789D01*
X968321Y9707D01*
X967935Y9636D01*
X967548Y9573D01*
X967159Y9520D01*
X966768Y9477D01*
X966377Y9443D01*
X965985Y9419D01*
X965593Y9405D01*
X965200Y9400D01*
X964807Y9405D01*
X964415Y9419D01*
X964023Y9443D01*
X963632Y9477D01*
X963241Y9520D01*
X962852Y9573D01*
X962465Y9636D01*
X962079Y9707D01*
X961694Y9789D01*
X961312Y9879D01*
X960933Y9980D01*
X960555Y10089D01*
X960181Y10208D01*
X959810Y10335D01*
X959442Y10472D01*
X959077Y10618D01*
X958716Y10773D01*
X958359Y10936D01*
X958006Y11108D01*
X957658Y11289D01*
X957314Y11479D01*
X956974Y11676D01*
X956640Y11882D01*
X956311Y12096D01*
X955987Y12319D01*
X955669Y12549D01*
X955356Y12786D01*
X955050Y13032D01*
X954749Y13285D01*
X954455Y13545D01*
X954167Y13812D01*
X953886Y14086D01*
X953612Y14367D01*
X953345Y14655D01*
X953085Y14949D01*
X952832Y15250D01*
X952586Y15556D01*
X952349Y15869D01*
X952119Y16187D01*
X951896Y16511D01*
X951682Y16840D01*
X951476Y17174D01*
X951279Y17514D01*
X951089Y17858D01*
X950908Y18206D01*
X950736Y18559D01*
X950573Y18916D01*
X950418Y19277D01*
X950272Y19642D01*
X950135Y20010D01*
X950008Y20381D01*
X949889Y20755D01*
X949780Y21133D01*
X949679Y21512D01*
X949589Y21894D01*
X949507Y22279D01*
X949436Y22665D01*
X949373Y23052D01*
X949320Y23441D01*
X949277Y23832D01*
X949243Y24223D01*
X949219Y24615D01*
X949205Y25007D01*
X949200Y25400D01*
X136400Y508000D02*
X136405Y508393D01*
X136419Y508785D01*
X136443Y509177D01*
X136477Y509568D01*
X136520Y509959D01*
X136573Y510348D01*
X136636Y510735D01*
X136707Y511121D01*
X136789Y511506D01*
X136879Y511888D01*
X136980Y512267D01*
X137089Y512645D01*
X137208Y513019D01*
X137335Y513390D01*
X137472Y513758D01*
X137618Y514123D01*
X137773Y514484D01*
X137936Y514841D01*
X138108Y515194D01*
X138289Y515542D01*
X138479Y515886D01*
X138676Y516226D01*
X138882Y516560D01*
X139096Y516889D01*
X139319Y517213D01*
X139549Y517531D01*
X139786Y517844D01*
X140032Y518150D01*
X140285Y518451D01*
X140545Y518745D01*
X140812Y519033D01*
X141086Y519314D01*
X141367Y519588D01*
X141655Y519855D01*
X141949Y520115D01*
X142250Y520368D01*
X142556Y520614D01*
X142869Y520851D01*
X143187Y521081D01*
X143511Y521304D01*
X143840Y521518D01*
X144174Y521724D01*
X144514Y521921D01*
X144858Y522111D01*
X145206Y522292D01*
X145559Y522464D01*
X145916Y522627D01*
X146277Y522782D01*
X146642Y522928D01*
X147010Y523065D01*
X147381Y523192D01*
X147755Y523311D01*
X148133Y523420D01*
X148512Y523521D01*
X148894Y523611D01*
X149279Y523693D01*
X149665Y523764D01*
X150052Y523827D01*
X150441Y523880D01*
X150832Y523923D01*
X151223Y523957D01*
X151615Y523981D01*
X152007Y523995D01*
X152400Y524000D01*
X152793Y523995D01*
X153185Y523981D01*
X153577Y523957D01*
X153968Y523923D01*
X154359Y523880D01*
X154748Y523827D01*
X155135Y523764D01*
X155521Y523693D01*
X155906Y523611D01*
X156288Y523521D01*
X156667Y523420D01*
X157045Y523311D01*
X157419Y523192D01*
X157790Y523065D01*
X158158Y522928D01*
X158523Y522782D01*
X158884Y522627D01*
X159241Y522464D01*
X159594Y522292D01*
X159942Y522111D01*
X160286Y521921D01*
X160626Y521724D01*
X160960Y521518D01*
X161289Y521304D01*
X161613Y521081D01*
X161931Y520851D01*
X162244Y520614D01*
X162550Y520368D01*
X162851Y520115D01*
X163145Y519855D01*
X163433Y519588D01*
X163714Y519314D01*
X163988Y519033D01*
X164255Y518745D01*
X164515Y518451D01*
X164768Y518150D01*
X165014Y517844D01*
X165251Y517531D01*
X165481Y517213D01*
X165704Y516889D01*
X165918Y516560D01*
X166124Y516226D01*
X166321Y515886D01*
X166511Y515542D01*
X166692Y515194D01*
X166864Y514841D01*
X167027Y514484D01*
X167182Y514123D01*
X167328Y513758D01*
X167465Y513390D01*
X167592Y513019D01*
X167711Y512645D01*
X167820Y512267D01*
X167921Y511888D01*
X168011Y511506D01*
X168093Y511121D01*
X168164Y510735D01*
X168227Y510348D01*
X168280Y509959D01*
X168323Y509568D01*
X168357Y509177D01*
X168381Y508785D01*
X168395Y508393D01*
X168400Y508000D01*
X168395Y507607D01*
X168381Y507215D01*
X168357Y506823D01*
X168323Y506432D01*
X168280Y506041D01*
X168227Y505652D01*
X168164Y505265D01*
X168093Y504879D01*
X168011Y504494D01*
X167921Y504112D01*
X167820Y503733D01*
X167711Y503355D01*
X167592Y502981D01*
X167465Y502610D01*
X167328Y502242D01*
X167182Y501877D01*
X167027Y501516D01*
X166864Y501159D01*
X166692Y500806D01*
X166511Y500458D01*
X166321Y500114D01*
X166124Y499774D01*
X165918Y499440D01*
X165704Y499111D01*
X165481Y498787D01*
X165251Y498469D01*
X165014Y498156D01*
X164768Y497850D01*
X164515Y497549D01*
X164255Y497255D01*
X163988Y496967D01*
X163714Y496686D01*
X163433Y496412D01*
X163145Y496145D01*
X162851Y495885D01*
X162550Y495632D01*
X162244Y495386D01*
X161931Y495149D01*
X161613Y494919D01*
X161289Y494696D01*
X160960Y494482D01*
X160626Y494276D01*
X160286Y494079D01*
X159942Y493889D01*
X159594Y493708D01*
X159241Y493536D01*
X158884Y493373D01*
X158523Y493218D01*
X158158Y493072D01*
X157790Y492935D01*
X157419Y492808D01*
X157045Y492689D01*
X156667Y492580D01*
X156288Y492479D01*
X155906Y492389D01*
X155521Y492307D01*
X155135Y492236D01*
X154748Y492173D01*
X154359Y492120D01*
X153968Y492077D01*
X153577Y492043D01*
X153185Y492019D01*
X152793Y492005D01*
X152400Y492000D01*
X152007Y492005D01*
X151615Y492019D01*
X151223Y492043D01*
X150832Y492077D01*
X150441Y492120D01*
X150052Y492173D01*
X149665Y492236D01*
X149279Y492307D01*
X148894Y492389D01*
X148512Y492479D01*
X148133Y492580D01*
X147755Y492689D01*
X147381Y492808D01*
X147010Y492935D01*
X146642Y493072D01*
X146277Y493218D01*
X145916Y493373D01*
X145559Y493536D01*
X145206Y493708D01*
X144858Y493889D01*
X144514Y494079D01*
X144174Y494276D01*
X143840Y494482D01*
X143511Y494696D01*
X143187Y494919D01*
X142869Y495149D01*
X142556Y495386D01*
X142250Y495632D01*
X141949Y495885D01*
X141655Y496145D01*
X141367Y496412D01*
X141086Y496686D01*
X140812Y496967D01*
X140545Y497255D01*
X140285Y497549D01*
X140032Y497850D01*
X139786Y498156D01*
X139549Y498469D01*
X139319Y498787D01*
X139096Y499111D01*
X138882Y499440D01*
X138676Y499774D01*
X138479Y500114D01*
X138289Y500458D01*
X138108Y500806D01*
X137936Y501159D01*
X137773Y501516D01*
X137618Y501877D01*
X137472Y502242D01*
X137335Y502610D01*
X137208Y502981D01*
X137089Y503355D01*
X136980Y503733D01*
X136879Y504112D01*
X136789Y504494D01*
X136707Y504879D01*
X136636Y505265D01*
X136573Y505652D01*
X136520Y506041D01*
X136477Y506432D01*
X136443Y506823D01*
X136419Y507215D01*
X136405Y507607D01*
X136400Y508000D01*
X885700Y508000D02*
X885705Y508393D01*
X885719Y508785D01*
X885743Y509177D01*
X885777Y509568D01*
X885820Y509959D01*
X885873Y510348D01*
X885936Y510735D01*
X886007Y511121D01*
X886089Y511506D01*
X886179Y511888D01*
X886280Y512267D01*
X886389Y512645D01*
X886508Y513019D01*
X886635Y513390D01*
X886772Y513758D01*
X886918Y514123D01*
X887073Y514484D01*
X887236Y514841D01*
X887408Y515194D01*
X887589Y515542D01*
X887779Y515886D01*
X887976Y516226D01*
X888182Y516560D01*
X888396Y516889D01*
X888619Y517213D01*
X888849Y517531D01*
X889086Y517844D01*
X889332Y518150D01*
X889585Y518451D01*
X889845Y518745D01*
X890112Y519033D01*
X890386Y519314D01*
X890667Y519588D01*
X890955Y519855D01*
X891249Y520115D01*
X891550Y520368D01*
X891856Y520614D01*
X892169Y520851D01*
X892487Y521081D01*
X892811Y521304D01*
X893140Y521518D01*
X893474Y521724D01*
X893814Y521921D01*
X894158Y522111D01*
X894506Y522292D01*
X894859Y522464D01*
X895216Y522627D01*
X895577Y522782D01*
X895942Y522928D01*
X896310Y523065D01*
X896681Y523192D01*
X897055Y523311D01*
X897433Y523420D01*
X897812Y523521D01*
X898194Y523611D01*
X898579Y523693D01*
X898965Y523764D01*
X899352Y523827D01*
X899741Y523880D01*
X900132Y523923D01*
X900523Y523957D01*
X900915Y523981D01*
X901307Y523995D01*
X901700Y524000D01*
X902093Y523995D01*
X902485Y523981D01*
X902877Y523957D01*
X903268Y523923D01*
X903659Y523880D01*
X904048Y523827D01*
X904435Y523764D01*
X904821Y523693D01*
X905206Y523611D01*
X905588Y523521D01*
X905967Y523420D01*
X906345Y523311D01*
X906719Y523192D01*
X907090Y523065D01*
X907458Y522928D01*
X907823Y522782D01*
X908184Y522627D01*
X908541Y522464D01*
X908894Y522292D01*
X909242Y522111D01*
X909586Y521921D01*
X909926Y521724D01*
X910260Y521518D01*
X910589Y521304D01*
X910913Y521081D01*
X911231Y520851D01*
X911544Y520614D01*
X911850Y520368D01*
X912151Y520115D01*
X912445Y519855D01*
X912733Y519588D01*
X913014Y519314D01*
X913288Y519033D01*
X913555Y518745D01*
X913815Y518451D01*
X914068Y518150D01*
X914314Y517844D01*
X914551Y517531D01*
X914781Y517213D01*
X915004Y516889D01*
X915218Y516560D01*
X915424Y516226D01*
X915621Y515886D01*
X915811Y515542D01*
X915992Y515194D01*
X916164Y514841D01*
X916327Y514484D01*
X916482Y514123D01*
X916628Y513758D01*
X916765Y513390D01*
X916892Y513019D01*
X917011Y512645D01*
X917120Y512267D01*
X917221Y511888D01*
X917311Y511506D01*
X917393Y511121D01*
X917464Y510735D01*
X917527Y510348D01*
X917580Y509959D01*
X917623Y509568D01*
X917657Y509177D01*
X917681Y508785D01*
X917695Y508393D01*
X917700Y508000D01*
X917695Y507607D01*
X917681Y507215D01*
X917657Y506823D01*
X917623Y506432D01*
X917580Y506041D01*
X917527Y505652D01*
X917464Y505265D01*
X917393Y504879D01*
X917311Y504494D01*
X917221Y504112D01*
X917120Y503733D01*
X917011Y503355D01*
X916892Y502981D01*
X916765Y502610D01*
X916628Y502242D01*
X916482Y501877D01*
X916327Y501516D01*
X916164Y501159D01*
X915992Y500806D01*
X915811Y500458D01*
X915621Y500114D01*
X915424Y499774D01*
X915218Y499440D01*
X915004Y499111D01*
X914781Y498787D01*
X914551Y498469D01*
X914314Y498156D01*
X914068Y497850D01*
X913815Y497549D01*
X913555Y497255D01*
X913288Y496967D01*
X913014Y496686D01*
X912733Y496412D01*
X912445Y496145D01*
X912151Y495885D01*
X911850Y495632D01*
X911544Y495386D01*
X911231Y495149D01*
X910913Y494919D01*
X910589Y494696D01*
X910260Y494482D01*
X909926Y494276D01*
X909586Y494079D01*
X909242Y493889D01*
X908894Y493708D01*
X908541Y493536D01*
X908184Y493373D01*
X907823Y493218D01*
X907458Y493072D01*
X907090Y492935D01*
X906719Y492808D01*
X906345Y492689D01*
X905967Y492580D01*
X905588Y492479D01*
X905206Y492389D01*
X904821Y492307D01*
X904435Y492236D01*
X904048Y492173D01*
X903659Y492120D01*
X903268Y492077D01*
X902877Y492043D01*
X902485Y492019D01*
X902093Y492005D01*
X901700Y492000D01*
X901307Y492005D01*
X900915Y492019D01*
X900523Y492043D01*
X900132Y492077D01*
X899741Y492120D01*
X899352Y492173D01*
X898965Y492236D01*
X898579Y492307D01*
X898194Y492389D01*
X897812Y492479D01*
X897433Y492580D01*
X897055Y492689D01*
X896681Y492808D01*
X896310Y492935D01*
X895942Y493072D01*
X895577Y493218D01*
X895216Y493373D01*
X894859Y493536D01*
X894506Y493708D01*
X894158Y493889D01*
X893814Y494079D01*
X893474Y494276D01*
X893140Y494482D01*
X892811Y494696D01*
X892487Y494919D01*
X892169Y495149D01*
X891856Y495386D01*
X891550Y495632D01*
X891249Y495885D01*
X890955Y496145D01*
X890667Y496412D01*
X890386Y496686D01*
X890112Y496967D01*
X889845Y497255D01*
X889585Y497549D01*
X889332Y497850D01*
X889086Y498156D01*
X888849Y498469D01*
X888619Y498787D01*
X888396Y499111D01*
X888182Y499440D01*
X887976Y499774D01*
X887779Y500114D01*
X887589Y500458D01*
X887408Y500806D01*
X887236Y501159D01*
X887073Y501516D01*
X886918Y501877D01*
X886772Y502242D01*
X886635Y502610D01*
X886508Y502981D01*
X886389Y503355D01*
X886280Y503733D01*
X886179Y504112D01*
X886089Y504494D01*
X886007Y504879D01*
X885936Y505265D01*
X885873Y505652D01*
X885820Y506041D01*
X885777Y506432D01*
X885743Y506823D01*
X885719Y507215D01*
X885705Y507607D01*
X885700Y508000D01*
X123700Y25400D02*
X123705Y25793D01*
X123719Y26185D01*
X123743Y26577D01*
X123777Y26968D01*
X123820Y27359D01*
X123873Y27748D01*
X123936Y28135D01*
X124007Y28521D01*
X124089Y28906D01*
X124179Y29288D01*
X124280Y29667D01*
X124389Y30045D01*
X124508Y30419D01*
X124635Y30790D01*
X124772Y31158D01*
X124918Y31523D01*
X125073Y31884D01*
X125236Y32241D01*
X125408Y32594D01*
X125589Y32942D01*
X125779Y33286D01*
X125976Y33626D01*
X126182Y33960D01*
X126396Y34289D01*
X126619Y34613D01*
X126849Y34931D01*
X127086Y35244D01*
X127332Y35550D01*
X127585Y35851D01*
X127845Y36145D01*
X128112Y36433D01*
X128386Y36714D01*
X128667Y36988D01*
X128955Y37255D01*
X129249Y37515D01*
X129550Y37768D01*
X129856Y38014D01*
X130169Y38251D01*
X130487Y38481D01*
X130811Y38704D01*
X131140Y38918D01*
X131474Y39124D01*
X131814Y39321D01*
X132158Y39511D01*
X132506Y39692D01*
X132859Y39864D01*
X133216Y40027D01*
X133577Y40182D01*
X133942Y40328D01*
X134310Y40465D01*
X134681Y40592D01*
X135055Y40711D01*
X135433Y40820D01*
X135812Y40921D01*
X136194Y41011D01*
X136579Y41093D01*
X136965Y41164D01*
X137352Y41227D01*
X137741Y41280D01*
X138132Y41323D01*
X138523Y41357D01*
X138915Y41381D01*
X139307Y41395D01*
X139700Y41400D01*
X140093Y41395D01*
X140485Y41381D01*
X140877Y41357D01*
X141268Y41323D01*
X141659Y41280D01*
X142048Y41227D01*
X142435Y41164D01*
X142821Y41093D01*
X143206Y41011D01*
X143588Y40921D01*
X143967Y40820D01*
X144345Y40711D01*
X144719Y40592D01*
X145090Y40465D01*
X145458Y40328D01*
X145823Y40182D01*
X146184Y40027D01*
X146541Y39864D01*
X146894Y39692D01*
X147242Y39511D01*
X147586Y39321D01*
X147926Y39124D01*
X148260Y38918D01*
X148589Y38704D01*
X148913Y38481D01*
X149231Y38251D01*
X149544Y38014D01*
X149850Y37768D01*
X150151Y37515D01*
X150445Y37255D01*
X150733Y36988D01*
X151014Y36714D01*
X151288Y36433D01*
X151555Y36145D01*
X151815Y35851D01*
X152068Y35550D01*
X152314Y35244D01*
X152551Y34931D01*
X152781Y34613D01*
X153004Y34289D01*
X153218Y33960D01*
X153424Y33626D01*
X153621Y33286D01*
X153811Y32942D01*
X153992Y32594D01*
X154164Y32241D01*
X154327Y31884D01*
X154482Y31523D01*
X154628Y31158D01*
X154765Y30790D01*
X154892Y30419D01*
X155011Y30045D01*
X155120Y29667D01*
X155221Y29288D01*
X155311Y28906D01*
X155393Y28521D01*
X155464Y28135D01*
X155527Y27748D01*
X155580Y27359D01*
X155623Y26968D01*
X155657Y26577D01*
X155681Y26185D01*
X155695Y25793D01*
X155700Y25400D01*
X155695Y25007D01*
X155681Y24615D01*
X155657Y24223D01*
X155623Y23832D01*
X155580Y23441D01*
X155527Y23052D01*
X155464Y22665D01*
X155393Y22279D01*
X155311Y21894D01*
X155221Y21512D01*
X155120Y21133D01*
X155011Y20755D01*
X154892Y20381D01*
X154765Y20010D01*
X154628Y19642D01*
X154482Y19277D01*
X154327Y18916D01*
X154164Y18559D01*
X153992Y18206D01*
X153811Y17858D01*
X153621Y17514D01*
X153424Y17174D01*
X153218Y16840D01*
X153004Y16511D01*
X152781Y16187D01*
X152551Y15869D01*
X152314Y15556D01*
X152068Y15250D01*
X151815Y14949D01*
X151555Y14655D01*
X151288Y14367D01*
X151014Y14086D01*
X150733Y13812D01*
X150445Y13545D01*
X150151Y13285D01*
X149850Y13032D01*
X149544Y12786D01*
X149231Y12549D01*
X148913Y12319D01*
X148589Y12096D01*
X148260Y11882D01*
X147926Y11676D01*
X147586Y11479D01*
X147242Y11289D01*
X146894Y11108D01*
X146541Y10936D01*
X146184Y10773D01*
X145823Y10618D01*
X145458Y10472D01*
X145090Y10335D01*
X144719Y10208D01*
X144345Y10089D01*
X143967Y9980D01*
X143588Y9879D01*
X143206Y9789D01*
X142821Y9707D01*
X142435Y9636D01*
X142048Y9573D01*
X141659Y9520D01*
X141268Y9477D01*
X140877Y9443D01*
X140485Y9419D01*
X140093Y9405D01*
X139700Y9400D01*
X139307Y9405D01*
X138915Y9419D01*
X138523Y9443D01*
X138132Y9477D01*
X137741Y9520D01*
X137352Y9573D01*
X136965Y9636D01*
X136579Y9707D01*
X136194Y9789D01*
X135812Y9879D01*
X135433Y9980D01*
X135055Y10089D01*
X134681Y10208D01*
X134310Y10335D01*
X133942Y10472D01*
X133577Y10618D01*
X133216Y10773D01*
X132859Y10936D01*
X132506Y11108D01*
X132158Y11289D01*
X131814Y11479D01*
X131474Y11676D01*
X131140Y11882D01*
X130811Y12096D01*
X130487Y12319D01*
X130169Y12549D01*
X129856Y12786D01*
X129550Y13032D01*
X129249Y13285D01*
X128955Y13545D01*
X128667Y13812D01*
X128386Y14086D01*
X128112Y14367D01*
X127845Y14655D01*
X127585Y14949D01*
X127332Y15250D01*
X127086Y15556D01*
X126849Y15869D01*
X126619Y16187D01*
X126396Y16511D01*
X126182Y16840D01*
X125976Y17174D01*
X125779Y17514D01*
X125589Y17858D01*
X125408Y18206D01*
X125236Y18559D01*
X125073Y18916D01*
X124918Y19277D01*
X124772Y19642D01*
X124635Y20010D01*
X124508Y20381D01*
X124389Y20755D01*
X124280Y21133D01*
X124179Y21512D01*
X124089Y21894D01*
X124007Y22279D01*
X123936Y22665D01*
X123873Y23052D01*
X123820Y23441D01*
X123777Y23832D01*
X123743Y24223D01*
X123719Y24615D01*
X123705Y25007D01*
X123700Y25400D01*
X9720Y404750D02*
X9722Y404880D01*
X9728Y405010D01*
X9738Y405140D01*
X9752Y405270D01*
X9770Y405399D01*
X9792Y405527D01*
X9817Y405655D01*
X9847Y405782D01*
X9881Y405908D01*
X9918Y406032D01*
X9959Y406156D01*
X10004Y406278D01*
X10053Y406399D01*
X10105Y406518D01*
X10161Y406636D01*
X10221Y406752D01*
X10284Y406866D01*
X10351Y406978D01*
X10421Y407087D01*
X10494Y407195D01*
X10570Y407300D01*
X10650Y407403D01*
X10733Y407504D01*
X10819Y407602D01*
X10908Y407697D01*
X11000Y407790D01*
X11094Y407879D01*
X11191Y407966D01*
X11291Y408049D01*
X11394Y408130D01*
X11498Y408207D01*
X11605Y408281D01*
X11715Y408352D01*
X11826Y408420D01*
X11940Y408484D01*
X12055Y408544D01*
X12172Y408601D01*
X12291Y408654D01*
X12412Y408704D01*
X12533Y408750D01*
X12657Y408792D01*
X12781Y408830D01*
X12907Y408865D01*
X13033Y408896D01*
X13161Y408922D01*
X13289Y408945D01*
X13418Y408964D01*
X13547Y408979D01*
X13677Y408990D01*
X13807Y408997D01*
X13937Y409000D01*
X14068Y408999D01*
X14198Y408994D01*
X14328Y408985D01*
X14457Y408972D01*
X14587Y408955D01*
X14715Y408934D01*
X14843Y408909D01*
X14970Y408881D01*
X15096Y408848D01*
X15221Y408812D01*
X15345Y408771D01*
X15468Y408727D01*
X15589Y408680D01*
X15709Y408628D01*
X15827Y408573D01*
X15943Y408514D01*
X16057Y408452D01*
X16170Y408386D01*
X16280Y408317D01*
X16388Y408245D01*
X16494Y408169D01*
X16598Y408090D01*
X16699Y408008D01*
X16798Y407923D01*
X16894Y407835D01*
X16987Y407744D01*
X17077Y407650D01*
X17164Y407553D01*
X17249Y407454D01*
X17330Y407352D01*
X17408Y407248D01*
X17483Y407142D01*
X17555Y407033D01*
X17623Y406922D01*
X17688Y406809D01*
X17749Y406694D01*
X17807Y406577D01*
X17861Y406459D01*
X17912Y406339D01*
X17959Y406217D01*
X18002Y406094D01*
X18041Y405970D01*
X18077Y405845D01*
X18108Y405718D01*
X18136Y405591D01*
X18160Y405463D01*
X18180Y405334D01*
X18196Y405205D01*
X18208Y405075D01*
X18216Y404945D01*
X18220Y404815D01*
X18220Y404685D01*
X18216Y404555D01*
X18208Y404425D01*
X18196Y404295D01*
X18180Y404166D01*
X18160Y404037D01*
X18136Y403909D01*
X18108Y403782D01*
X18077Y403655D01*
X18041Y403530D01*
X18002Y403406D01*
X17959Y403283D01*
X17912Y403161D01*
X17861Y403041D01*
X17807Y402923D01*
X17749Y402806D01*
X17688Y402691D01*
X17623Y402578D01*
X17555Y402467D01*
X17483Y402358D01*
X17408Y402252D01*
X17330Y402148D01*
X17249Y402046D01*
X17164Y401947D01*
X17077Y401850D01*
X16987Y401756D01*
X16894Y401665D01*
X16798Y401577D01*
X16699Y401492D01*
X16598Y401410D01*
X16494Y401331D01*
X16388Y401255D01*
X16280Y401183D01*
X16170Y401114D01*
X16057Y401048D01*
X15943Y400986D01*
X15827Y400927D01*
X15709Y400872D01*
X15589Y400820D01*
X15468Y400773D01*
X15345Y400729D01*
X15221Y400688D01*
X15096Y400652D01*
X14970Y400619D01*
X14843Y400591D01*
X14715Y400566D01*
X14587Y400545D01*
X14457Y400528D01*
X14328Y400515D01*
X14198Y400506D01*
X14068Y400501D01*
X13937Y400500D01*
X13807Y400503D01*
X13677Y400510D01*
X13547Y400521D01*
X13418Y400536D01*
X13289Y400555D01*
X13161Y400578D01*
X13033Y400604D01*
X12907Y400635D01*
X12781Y400670D01*
X12657Y400708D01*
X12533Y400750D01*
X12412Y400796D01*
X12291Y400846D01*
X12172Y400899D01*
X12055Y400956D01*
X11940Y401016D01*
X11826Y401080D01*
X11715Y401148D01*
X11605Y401219D01*
X11498Y401293D01*
X11394Y401370D01*
X11291Y401451D01*
X11191Y401534D01*
X11094Y401621D01*
X11000Y401710D01*
X10908Y401803D01*
X10819Y401898D01*
X10733Y401996D01*
X10650Y402097D01*
X10570Y402200D01*
X10494Y402305D01*
X10421Y402413D01*
X10351Y402522D01*
X10284Y402634D01*
X10221Y402748D01*
X10161Y402864D01*
X10105Y402982D01*
X10053Y403101D01*
X10004Y403222D01*
X9959Y403344D01*
X9918Y403468D01*
X9881Y403592D01*
X9847Y403718D01*
X9817Y403845D01*
X9792Y403973D01*
X9770Y404101D01*
X9752Y404230D01*
X9738Y404360D01*
X9728Y404490D01*
X9722Y404620D01*
X9720Y404750D01*
X9720Y357250D02*
X9722Y357380D01*
X9728Y357510D01*
X9738Y357640D01*
X9752Y357770D01*
X9770Y357899D01*
X9792Y358027D01*
X9817Y358155D01*
X9847Y358282D01*
X9881Y358408D01*
X9918Y358532D01*
X9959Y358656D01*
X10004Y358778D01*
X10053Y358899D01*
X10105Y359018D01*
X10161Y359136D01*
X10221Y359252D01*
X10284Y359366D01*
X10351Y359478D01*
X10421Y359587D01*
X10494Y359695D01*
X10570Y359800D01*
X10650Y359903D01*
X10733Y360004D01*
X10819Y360102D01*
X10908Y360197D01*
X11000Y360290D01*
X11094Y360379D01*
X11191Y360466D01*
X11291Y360549D01*
X11394Y360630D01*
X11498Y360707D01*
X11605Y360781D01*
X11715Y360852D01*
X11826Y360920D01*
X11940Y360984D01*
X12055Y361044D01*
X12172Y361101D01*
X12291Y361154D01*
X12412Y361204D01*
X12533Y361250D01*
X12657Y361292D01*
X12781Y361330D01*
X12907Y361365D01*
X13033Y361396D01*
X13161Y361422D01*
X13289Y361445D01*
X13418Y361464D01*
X13547Y361479D01*
X13677Y361490D01*
X13807Y361497D01*
X13937Y361500D01*
X14068Y361499D01*
X14198Y361494D01*
X14328Y361485D01*
X14457Y361472D01*
X14587Y361455D01*
X14715Y361434D01*
X14843Y361409D01*
X14970Y361381D01*
X15096Y361348D01*
X15221Y361312D01*
X15345Y361271D01*
X15468Y361227D01*
X15589Y361180D01*
X15709Y361128D01*
X15827Y361073D01*
X15943Y361014D01*
X16057Y360952D01*
X16170Y360886D01*
X16280Y360817D01*
X16388Y360745D01*
X16494Y360669D01*
X16598Y360590D01*
X16699Y360508D01*
X16798Y360423D01*
X16894Y360335D01*
X16987Y360244D01*
X17077Y360150D01*
X17164Y360053D01*
X17249Y359954D01*
X17330Y359852D01*
X17408Y359748D01*
X17483Y359642D01*
X17555Y359533D01*
X17623Y359422D01*
X17688Y359309D01*
X17749Y359194D01*
X17807Y359077D01*
X17861Y358959D01*
X17912Y358839D01*
X17959Y358717D01*
X18002Y358594D01*
X18041Y358470D01*
X18077Y358345D01*
X18108Y358218D01*
X18136Y358091D01*
X18160Y357963D01*
X18180Y357834D01*
X18196Y357705D01*
X18208Y357575D01*
X18216Y357445D01*
X18220Y357315D01*
X18220Y357185D01*
X18216Y357055D01*
X18208Y356925D01*
X18196Y356795D01*
X18180Y356666D01*
X18160Y356537D01*
X18136Y356409D01*
X18108Y356282D01*
X18077Y356155D01*
X18041Y356030D01*
X18002Y355906D01*
X17959Y355783D01*
X17912Y355661D01*
X17861Y355541D01*
X17807Y355423D01*
X17749Y355306D01*
X17688Y355191D01*
X17623Y355078D01*
X17555Y354967D01*
X17483Y354858D01*
X17408Y354752D01*
X17330Y354648D01*
X17249Y354546D01*
X17164Y354447D01*
X17077Y354350D01*
X16987Y354256D01*
X16894Y354165D01*
X16798Y354077D01*
X16699Y353992D01*
X16598Y353910D01*
X16494Y353831D01*
X16388Y353755D01*
X16280Y353683D01*
X16170Y353614D01*
X16057Y353548D01*
X15943Y353486D01*
X15827Y353427D01*
X15709Y353372D01*
X15589Y353320D01*
X15468Y353273D01*
X15345Y353229D01*
X15221Y353188D01*
X15096Y353152D01*
X14970Y353119D01*
X14843Y353091D01*
X14715Y353066D01*
X14587Y353045D01*
X14457Y353028D01*
X14328Y353015D01*
X14198Y353006D01*
X14068Y353001D01*
X13937Y353000D01*
X13807Y353003D01*
X13677Y353010D01*
X13547Y353021D01*
X13418Y353036D01*
X13289Y353055D01*
X13161Y353078D01*
X13033Y353104D01*
X12907Y353135D01*
X12781Y353170D01*
X12657Y353208D01*
X12533Y353250D01*
X12412Y353296D01*
X12291Y353346D01*
X12172Y353399D01*
X12055Y353456D01*
X11940Y353516D01*
X11826Y353580D01*
X11715Y353648D01*
X11605Y353719D01*
X11498Y353793D01*
X11394Y353870D01*
X11291Y353951D01*
X11191Y354034D01*
X11094Y354121D01*
X11000Y354210D01*
X10908Y354303D01*
X10819Y354398D01*
X10733Y354496D01*
X10650Y354597D01*
X10570Y354700D01*
X10494Y354805D01*
X10421Y354913D01*
X10351Y355022D01*
X10284Y355134D01*
X10221Y355248D01*
X10161Y355364D01*
X10105Y355482D01*
X10053Y355601D01*
X10004Y355722D01*
X9959Y355844D01*
X9918Y355968D01*
X9881Y356092D01*
X9847Y356218D01*
X9817Y356345D01*
X9792Y356473D01*
X9770Y356601D01*
X9752Y356730D01*
X9738Y356860D01*
X9728Y356990D01*
X9722Y357120D01*
X9720Y357250D01*
X-4280Y404750D02*
X-4278Y404880D01*
X-4272Y405010D01*
X-4262Y405140D01*
X-4248Y405270D01*
X-4230Y405399D01*
X-4208Y405527D01*
X-4183Y405655D01*
X-4153Y405782D01*
X-4119Y405908D01*
X-4082Y406032D01*
X-4041Y406156D01*
X-3996Y406278D01*
X-3947Y406399D01*
X-3895Y406518D01*
X-3839Y406636D01*
X-3779Y406752D01*
X-3716Y406866D01*
X-3649Y406978D01*
X-3579Y407087D01*
X-3506Y407195D01*
X-3430Y407300D01*
X-3350Y407403D01*
X-3267Y407504D01*
X-3181Y407602D01*
X-3092Y407697D01*
X-3000Y407790D01*
X-2906Y407879D01*
X-2809Y407966D01*
X-2709Y408049D01*
X-2606Y408130D01*
X-2502Y408207D01*
X-2395Y408281D01*
X-2285Y408352D01*
X-2174Y408420D01*
X-2060Y408484D01*
X-1945Y408544D01*
X-1828Y408601D01*
X-1709Y408654D01*
X-1588Y408704D01*
X-1467Y408750D01*
X-1343Y408792D01*
X-1219Y408830D01*
X-1093Y408865D01*
X-967Y408896D01*
X-839Y408922D01*
X-711Y408945D01*
X-582Y408964D01*
X-453Y408979D01*
X-323Y408990D01*
X-193Y408997D01*
X-63Y409000D01*
X68Y408999D01*
X198Y408994D01*
X328Y408985D01*
X457Y408972D01*
X587Y408955D01*
X715Y408934D01*
X843Y408909D01*
X970Y408881D01*
X1096Y408848D01*
X1221Y408812D01*
X1345Y408771D01*
X1468Y408727D01*
X1589Y408680D01*
X1709Y408628D01*
X1827Y408573D01*
X1943Y408514D01*
X2057Y408452D01*
X2170Y408386D01*
X2280Y408317D01*
X2388Y408245D01*
X2494Y408169D01*
X2598Y408090D01*
X2699Y408008D01*
X2798Y407923D01*
X2894Y407835D01*
X2987Y407744D01*
X3077Y407650D01*
X3164Y407553D01*
X3249Y407454D01*
X3330Y407352D01*
X3408Y407248D01*
X3483Y407142D01*
X3555Y407033D01*
X3623Y406922D01*
X3688Y406809D01*
X3749Y406694D01*
X3807Y406577D01*
X3861Y406459D01*
X3912Y406339D01*
X3959Y406217D01*
X4002Y406094D01*
X4041Y405970D01*
X4077Y405845D01*
X4108Y405718D01*
X4136Y405591D01*
X4160Y405463D01*
X4180Y405334D01*
X4196Y405205D01*
X4208Y405075D01*
X4216Y404945D01*
X4220Y404815D01*
X4220Y404685D01*
X4216Y404555D01*
X4208Y404425D01*
X4196Y404295D01*
X4180Y404166D01*
X4160Y404037D01*
X4136Y403909D01*
X4108Y403782D01*
X4077Y403655D01*
X4041Y403530D01*
X4002Y403406D01*
X3959Y403283D01*
X3912Y403161D01*
X3861Y403041D01*
X3807Y402923D01*
X3749Y402806D01*
X3688Y402691D01*
X3623Y402578D01*
X3555Y402467D01*
X3483Y402358D01*
X3408Y402252D01*
X3330Y402148D01*
X3249Y402046D01*
X3164Y401947D01*
X3077Y401850D01*
X2987Y401756D01*
X2894Y401665D01*
X2798Y401577D01*
X2699Y401492D01*
X2598Y401410D01*
X2494Y401331D01*
X2388Y401255D01*
X2280Y401183D01*
X2170Y401114D01*
X2057Y401048D01*
X1943Y400986D01*
X1827Y400927D01*
X1709Y400872D01*
X1589Y400820D01*
X1468Y400773D01*
X1345Y400729D01*
X1221Y400688D01*
X1096Y400652D01*
X970Y400619D01*
X843Y400591D01*
X715Y400566D01*
X587Y400545D01*
X457Y400528D01*
X328Y400515D01*
X198Y400506D01*
X68Y400501D01*
X-63Y400500D01*
X-193Y400503D01*
X-323Y400510D01*
X-453Y400521D01*
X-582Y400536D01*
X-711Y400555D01*
X-839Y400578D01*
X-967Y400604D01*
X-1093Y400635D01*
X-1219Y400670D01*
X-1343Y400708D01*
X-1467Y400750D01*
X-1588Y400796D01*
X-1709Y400846D01*
X-1828Y400899D01*
X-1945Y400956D01*
X-2060Y401016D01*
X-2174Y401080D01*
X-2285Y401148D01*
X-2395Y401219D01*
X-2502Y401293D01*
X-2606Y401370D01*
X-2709Y401451D01*
X-2809Y401534D01*
X-2906Y401621D01*
X-3000Y401710D01*
X-3092Y401803D01*
X-3181Y401898D01*
X-3267Y401996D01*
X-3350Y402097D01*
X-3430Y402200D01*
X-3506Y402305D01*
X-3579Y402413D01*
X-3649Y402522D01*
X-3716Y402634D01*
X-3779Y402748D01*
X-3839Y402864D01*
X-3895Y402982D01*
X-3947Y403101D01*
X-3996Y403222D01*
X-4041Y403344D01*
X-4082Y403468D01*
X-4119Y403592D01*
X-4153Y403718D01*
X-4183Y403845D01*
X-4208Y403973D01*
X-4230Y404101D01*
X-4248Y404230D01*
X-4262Y404360D01*
X-4272Y404490D01*
X-4278Y404620D01*
X-4280Y404750D01*
X-4280Y357250D02*
X-4278Y357380D01*
X-4272Y357510D01*
X-4262Y357640D01*
X-4248Y357770D01*
X-4230Y357899D01*
X-4208Y358027D01*
X-4183Y358155D01*
X-4153Y358282D01*
X-4119Y358408D01*
X-4082Y358532D01*
X-4041Y358656D01*
X-3996Y358778D01*
X-3947Y358899D01*
X-3895Y359018D01*
X-3839Y359136D01*
X-3779Y359252D01*
X-3716Y359366D01*
X-3649Y359478D01*
X-3579Y359587D01*
X-3506Y359695D01*
X-3430Y359800D01*
X-3350Y359903D01*
X-3267Y360004D01*
X-3181Y360102D01*
X-3092Y360197D01*
X-3000Y360290D01*
X-2906Y360379D01*
X-2809Y360466D01*
X-2709Y360549D01*
X-2606Y360630D01*
X-2502Y360707D01*
X-2395Y360781D01*
X-2285Y360852D01*
X-2174Y360920D01*
X-2060Y360984D01*
X-1945Y361044D01*
X-1828Y361101D01*
X-1709Y361154D01*
X-1588Y361204D01*
X-1467Y361250D01*
X-1343Y361292D01*
X-1219Y361330D01*
X-1093Y361365D01*
X-967Y361396D01*
X-839Y361422D01*
X-711Y361445D01*
X-582Y361464D01*
X-453Y361479D01*
X-323Y361490D01*
X-193Y361497D01*
X-63Y361500D01*
X68Y361499D01*
X198Y361494D01*
X328Y361485D01*
X457Y361472D01*
X587Y361455D01*
X715Y361434D01*
X843Y361409D01*
X970Y361381D01*
X1096Y361348D01*
X1221Y361312D01*
X1345Y361271D01*
X1468Y361227D01*
X1589Y361180D01*
X1709Y361128D01*
X1827Y361073D01*
X1943Y361014D01*
X2057Y360952D01*
X2170Y360886D01*
X2280Y360817D01*
X2388Y360745D01*
X2494Y360669D01*
X2598Y360590D01*
X2699Y360508D01*
X2798Y360423D01*
X2894Y360335D01*
X2987Y360244D01*
X3077Y360150D01*
X3164Y360053D01*
X3249Y359954D01*
X3330Y359852D01*
X3408Y359748D01*
X3483Y359642D01*
X3555Y359533D01*
X3623Y359422D01*
X3688Y359309D01*
X3749Y359194D01*
X3807Y359077D01*
X3861Y358959D01*
X3912Y358839D01*
X3959Y358717D01*
X4002Y358594D01*
X4041Y358470D01*
X4077Y358345D01*
X4108Y358218D01*
X4136Y358091D01*
X4160Y357963D01*
X4180Y357834D01*
X4196Y357705D01*
X4208Y357575D01*
X4216Y357445D01*
X4220Y357315D01*
X4220Y357185D01*
X4216Y357055D01*
X4208Y356925D01*
X4196Y356795D01*
X4180Y356666D01*
X4160Y356537D01*
X4136Y356409D01*
X4108Y356282D01*
X4077Y356155D01*
X4041Y356030D01*
X4002Y355906D01*
X3959Y355783D01*
X3912Y355661D01*
X3861Y355541D01*
X3807Y355423D01*
X3749Y355306D01*
X3688Y355191D01*
X3623Y355078D01*
X3555Y354967D01*
X3483Y354858D01*
X3408Y354752D01*
X3330Y354648D01*
X3249Y354546D01*
X3164Y354447D01*
X3077Y354350D01*
X2987Y354256D01*
X2894Y354165D01*
X2798Y354077D01*
X2699Y353992D01*
X2598Y353910D01*
X2494Y353831D01*
X2388Y353755D01*
X2280Y353683D01*
X2170Y353614D01*
X2057Y353548D01*
X1943Y353486D01*
X1827Y353427D01*
X1709Y353372D01*
X1589Y353320D01*
X1468Y353273D01*
X1345Y353229D01*
X1221Y353188D01*
X1096Y353152D01*
X970Y353119D01*
X843Y353091D01*
X715Y353066D01*
X587Y353045D01*
X457Y353028D01*
X328Y353015D01*
X198Y353006D01*
X68Y353001D01*
X-63Y353000D01*
X-193Y353003D01*
X-323Y353010D01*
X-453Y353021D01*
X-582Y353036D01*
X-711Y353055D01*
X-839Y353078D01*
X-967Y353104D01*
X-1093Y353135D01*
X-1219Y353170D01*
X-1343Y353208D01*
X-1467Y353250D01*
X-1588Y353296D01*
X-1709Y353346D01*
X-1828Y353399D01*
X-1945Y353456D01*
X-2060Y353516D01*
X-2174Y353580D01*
X-2285Y353648D01*
X-2395Y353719D01*
X-2502Y353793D01*
X-2606Y353870D01*
X-2709Y353951D01*
X-2809Y354034D01*
X-2906Y354121D01*
X-3000Y354210D01*
X-3092Y354303D01*
X-3181Y354398D01*
X-3267Y354496D01*
X-3350Y354597D01*
X-3430Y354700D01*
X-3506Y354805D01*
X-3579Y354913D01*
X-3649Y355022D01*
X-3716Y355134D01*
X-3779Y355248D01*
X-3839Y355364D01*
X-3895Y355482D01*
X-3947Y355601D01*
X-3996Y355722D01*
X-4041Y355844D01*
X-4082Y355968D01*
X-4119Y356092D01*
X-4153Y356218D01*
X-4183Y356345D01*
X-4208Y356473D01*
X-4230Y356601D01*
X-4248Y356730D01*
X-4262Y356860D01*
X-4272Y356990D01*
X-4278Y357120D01*
X-4280Y357250D01*
X5720Y404750D02*
X5722Y404880D01*
X5728Y405010D01*
X5738Y405140D01*
X5752Y405270D01*
X5770Y405399D01*
X5792Y405527D01*
X5817Y405655D01*
X5847Y405782D01*
X5881Y405908D01*
X5918Y406032D01*
X5959Y406156D01*
X6004Y406278D01*
X6053Y406399D01*
X6105Y406518D01*
X6161Y406636D01*
X6221Y406752D01*
X6284Y406866D01*
X6351Y406978D01*
X6421Y407087D01*
X6494Y407195D01*
X6570Y407300D01*
X6650Y407403D01*
X6733Y407504D01*
X6819Y407602D01*
X6908Y407697D01*
X7000Y407790D01*
X7094Y407879D01*
X7191Y407966D01*
X7291Y408049D01*
X7394Y408130D01*
X7498Y408207D01*
X7605Y408281D01*
X7715Y408352D01*
X7826Y408420D01*
X7940Y408484D01*
X8055Y408544D01*
X8172Y408601D01*
X8291Y408654D01*
X8412Y408704D01*
X8533Y408750D01*
X8657Y408792D01*
X8781Y408830D01*
X8907Y408865D01*
X9033Y408896D01*
X9161Y408922D01*
X9289Y408945D01*
X9418Y408964D01*
X9547Y408979D01*
X9677Y408990D01*
X9807Y408997D01*
X9937Y409000D01*
X10068Y408999D01*
X10198Y408994D01*
X10328Y408985D01*
X10457Y408972D01*
X10587Y408955D01*
X10715Y408934D01*
X10843Y408909D01*
X10970Y408881D01*
X11096Y408848D01*
X11221Y408812D01*
X11345Y408771D01*
X11468Y408727D01*
X11589Y408680D01*
X11709Y408628D01*
X11827Y408573D01*
X11943Y408514D01*
X12057Y408452D01*
X12170Y408386D01*
X12280Y408317D01*
X12388Y408245D01*
X12494Y408169D01*
X12598Y408090D01*
X12699Y408008D01*
X12798Y407923D01*
X12894Y407835D01*
X12987Y407744D01*
X13077Y407650D01*
X13164Y407553D01*
X13249Y407454D01*
X13330Y407352D01*
X13408Y407248D01*
X13483Y407142D01*
X13555Y407033D01*
X13623Y406922D01*
X13688Y406809D01*
X13749Y406694D01*
X13807Y406577D01*
X13861Y406459D01*
X13912Y406339D01*
X13959Y406217D01*
X14002Y406094D01*
X14041Y405970D01*
X14077Y405845D01*
X14108Y405718D01*
X14136Y405591D01*
X14160Y405463D01*
X14180Y405334D01*
X14196Y405205D01*
X14208Y405075D01*
X14216Y404945D01*
X14220Y404815D01*
X14220Y404685D01*
X14216Y404555D01*
X14208Y404425D01*
X14196Y404295D01*
X14180Y404166D01*
X14160Y404037D01*
X14136Y403909D01*
X14108Y403782D01*
X14077Y403655D01*
X14041Y403530D01*
X14002Y403406D01*
X13959Y403283D01*
X13912Y403161D01*
X13861Y403041D01*
X13807Y402923D01*
X13749Y402806D01*
X13688Y402691D01*
X13623Y402578D01*
X13555Y402467D01*
X13483Y402358D01*
X13408Y402252D01*
X13330Y402148D01*
X13249Y402046D01*
X13164Y401947D01*
X13077Y401850D01*
X12987Y401756D01*
X12894Y401665D01*
X12798Y401577D01*
X12699Y401492D01*
X12598Y401410D01*
X12494Y401331D01*
X12388Y401255D01*
X12280Y401183D01*
X12170Y401114D01*
X12057Y401048D01*
X11943Y400986D01*
X11827Y400927D01*
X11709Y400872D01*
X11589Y400820D01*
X11468Y400773D01*
X11345Y400729D01*
X11221Y400688D01*
X11096Y400652D01*
X10970Y400619D01*
X10843Y400591D01*
X10715Y400566D01*
X10587Y400545D01*
X10457Y400528D01*
X10328Y400515D01*
X10198Y400506D01*
X10068Y400501D01*
X9937Y400500D01*
X9807Y400503D01*
X9677Y400510D01*
X9547Y400521D01*
X9418Y400536D01*
X9289Y400555D01*
X9161Y400578D01*
X9033Y400604D01*
X8907Y400635D01*
X8781Y400670D01*
X8657Y400708D01*
X8533Y400750D01*
X8412Y400796D01*
X8291Y400846D01*
X8172Y400899D01*
X8055Y400956D01*
X7940Y401016D01*
X7826Y401080D01*
X7715Y401148D01*
X7605Y401219D01*
X7498Y401293D01*
X7394Y401370D01*
X7291Y401451D01*
X7191Y401534D01*
X7094Y401621D01*
X7000Y401710D01*
X6908Y401803D01*
X6819Y401898D01*
X6733Y401996D01*
X6650Y402097D01*
X6570Y402200D01*
X6494Y402305D01*
X6421Y402413D01*
X6351Y402522D01*
X6284Y402634D01*
X6221Y402748D01*
X6161Y402864D01*
X6105Y402982D01*
X6053Y403101D01*
X6004Y403222D01*
X5959Y403344D01*
X5918Y403468D01*
X5881Y403592D01*
X5847Y403718D01*
X5817Y403845D01*
X5792Y403973D01*
X5770Y404101D01*
X5752Y404230D01*
X5738Y404360D01*
X5728Y404490D01*
X5722Y404620D01*
X5720Y404750D01*
X5720Y357250D02*
X5722Y357380D01*
X5728Y357510D01*
X5738Y357640D01*
X5752Y357770D01*
X5770Y357899D01*
X5792Y358027D01*
X5817Y358155D01*
X5847Y358282D01*
X5881Y358408D01*
X5918Y358532D01*
X5959Y358656D01*
X6004Y358778D01*
X6053Y358899D01*
X6105Y359018D01*
X6161Y359136D01*
X6221Y359252D01*
X6284Y359366D01*
X6351Y359478D01*
X6421Y359587D01*
X6494Y359695D01*
X6570Y359800D01*
X6650Y359903D01*
X6733Y360004D01*
X6819Y360102D01*
X6908Y360197D01*
X7000Y360290D01*
X7094Y360379D01*
X7191Y360466D01*
X7291Y360549D01*
X7394Y360630D01*
X7498Y360707D01*
X7605Y360781D01*
X7715Y360852D01*
X7826Y360920D01*
X7940Y360984D01*
X8055Y361044D01*
X8172Y361101D01*
X8291Y361154D01*
X8412Y361204D01*
X8533Y361250D01*
X8657Y361292D01*
X8781Y361330D01*
X8907Y361365D01*
X9033Y361396D01*
X9161Y361422D01*
X9289Y361445D01*
X9418Y361464D01*
X9547Y361479D01*
X9677Y361490D01*
X9807Y361497D01*
X9937Y361500D01*
X10068Y361499D01*
X10198Y361494D01*
X10328Y361485D01*
X10457Y361472D01*
X10587Y361455D01*
X10715Y361434D01*
X10843Y361409D01*
X10970Y361381D01*
X11096Y361348D01*
X11221Y361312D01*
X11345Y361271D01*
X11468Y361227D01*
X11589Y361180D01*
X11709Y361128D01*
X11827Y361073D01*
X11943Y361014D01*
X12057Y360952D01*
X12170Y360886D01*
X12280Y360817D01*
X12388Y360745D01*
X12494Y360669D01*
X12598Y360590D01*
X12699Y360508D01*
X12798Y360423D01*
X12894Y360335D01*
X12987Y360244D01*
X13077Y360150D01*
X13164Y360053D01*
X13249Y359954D01*
X13330Y359852D01*
X13408Y359748D01*
X13483Y359642D01*
X13555Y359533D01*
X13623Y359422D01*
X13688Y359309D01*
X13749Y359194D01*
X13807Y359077D01*
X13861Y358959D01*
X13912Y358839D01*
X13959Y358717D01*
X14002Y358594D01*
X14041Y358470D01*
X14077Y358345D01*
X14108Y358218D01*
X14136Y358091D01*
X14160Y357963D01*
X14180Y357834D01*
X14196Y357705D01*
X14208Y357575D01*
X14216Y357445D01*
X14220Y357315D01*
X14220Y357185D01*
X14216Y357055D01*
X14208Y356925D01*
X14196Y356795D01*
X14180Y356666D01*
X14160Y356537D01*
X14136Y356409D01*
X14108Y356282D01*
X14077Y356155D01*
X14041Y356030D01*
X14002Y355906D01*
X13959Y355783D01*
X13912Y355661D01*
X13861Y355541D01*
X13807Y355423D01*
X13749Y355306D01*
X13688Y355191D01*
X13623Y355078D01*
X13555Y354967D01*
X13483Y354858D01*
X13408Y354752D01*
X13330Y354648D01*
X13249Y354546D01*
X13164Y354447D01*
X13077Y354350D01*
X12987Y354256D01*
X12894Y354165D01*
X12798Y354077D01*
X12699Y353992D01*
X12598Y353910D01*
X12494Y353831D01*
X12388Y353755D01*
X12280Y353683D01*
X12170Y353614D01*
X12057Y353548D01*
X11943Y353486D01*
X11827Y353427D01*
X11709Y353372D01*
X11589Y353320D01*
X11468Y353273D01*
X11345Y353229D01*
X11221Y353188D01*
X11096Y353152D01*
X10970Y353119D01*
X10843Y353091D01*
X10715Y353066D01*
X10587Y353045D01*
X10457Y353028D01*
X10328Y353015D01*
X10198Y353006D01*
X10068Y353001D01*
X9937Y353000D01*
X9807Y353003D01*
X9677Y353010D01*
X9547Y353021D01*
X9418Y353036D01*
X9289Y353055D01*
X9161Y353078D01*
X9033Y353104D01*
X8907Y353135D01*
X8781Y353170D01*
X8657Y353208D01*
X8533Y353250D01*
X8412Y353296D01*
X8291Y353346D01*
X8172Y353399D01*
X8055Y353456D01*
X7940Y353516D01*
X7826Y353580D01*
X7715Y353648D01*
X7605Y353719D01*
X7498Y353793D01*
X7394Y353870D01*
X7291Y353951D01*
X7191Y354034D01*
X7094Y354121D01*
X7000Y354210D01*
X6908Y354303D01*
X6819Y354398D01*
X6733Y354496D01*
X6650Y354597D01*
X6570Y354700D01*
X6494Y354805D01*
X6421Y354913D01*
X6351Y355022D01*
X6284Y355134D01*
X6221Y355248D01*
X6161Y355364D01*
X6105Y355482D01*
X6053Y355601D01*
X6004Y355722D01*
X5959Y355844D01*
X5918Y355968D01*
X5881Y356092D01*
X5847Y356218D01*
X5817Y356345D01*
X5792Y356473D01*
X5770Y356601D01*
X5752Y356730D01*
X5738Y356860D01*
X5728Y356990D01*
X5722Y357120D01*
X5720Y357250D01*
X1720Y357250D02*
X1722Y357380D01*
X1728Y357510D01*
X1738Y357640D01*
X1752Y357770D01*
X1770Y357899D01*
X1792Y358027D01*
X1817Y358155D01*
X1847Y358282D01*
X1881Y358408D01*
X1918Y358532D01*
X1959Y358656D01*
X2004Y358778D01*
X2053Y358899D01*
X2105Y359018D01*
X2161Y359136D01*
X2221Y359252D01*
X2284Y359366D01*
X2351Y359478D01*
X2421Y359587D01*
X2494Y359695D01*
X2570Y359800D01*
X2650Y359903D01*
X2733Y360004D01*
X2819Y360102D01*
X2908Y360197D01*
X3000Y360290D01*
X3094Y360379D01*
X3191Y360466D01*
X3291Y360549D01*
X3394Y360630D01*
X3498Y360707D01*
X3605Y360781D01*
X3715Y360852D01*
X3826Y360920D01*
X3940Y360984D01*
X4055Y361044D01*
X4172Y361101D01*
X4291Y361154D01*
X4412Y361204D01*
X4533Y361250D01*
X4657Y361292D01*
X4781Y361330D01*
X4907Y361365D01*
X5033Y361396D01*
X5161Y361422D01*
X5289Y361445D01*
X5418Y361464D01*
X5547Y361479D01*
X5677Y361490D01*
X5807Y361497D01*
X5937Y361500D01*
X6068Y361499D01*
X6198Y361494D01*
X6328Y361485D01*
X6457Y361472D01*
X6587Y361455D01*
X6715Y361434D01*
X6843Y361409D01*
X6970Y361381D01*
X7096Y361348D01*
X7221Y361312D01*
X7345Y361271D01*
X7468Y361227D01*
X7589Y361180D01*
X7709Y361128D01*
X7827Y361073D01*
X7943Y361014D01*
X8057Y360952D01*
X8170Y360886D01*
X8280Y360817D01*
X8388Y360745D01*
X8494Y360669D01*
X8598Y360590D01*
X8699Y360508D01*
X8798Y360423D01*
X8894Y360335D01*
X8987Y360244D01*
X9077Y360150D01*
X9164Y360053D01*
X9249Y359954D01*
X9330Y359852D01*
X9408Y359748D01*
X9483Y359642D01*
X9555Y359533D01*
X9623Y359422D01*
X9688Y359309D01*
X9749Y359194D01*
X9807Y359077D01*
X9861Y358959D01*
X9912Y358839D01*
X9959Y358717D01*
X10002Y358594D01*
X10041Y358470D01*
X10077Y358345D01*
X10108Y358218D01*
X10136Y358091D01*
X10160Y357963D01*
X10180Y357834D01*
X10196Y357705D01*
X10208Y357575D01*
X10216Y357445D01*
X10220Y357315D01*
X10220Y357185D01*
X10216Y357055D01*
X10208Y356925D01*
X10196Y356795D01*
X10180Y356666D01*
X10160Y356537D01*
X10136Y356409D01*
X10108Y356282D01*
X10077Y356155D01*
X10041Y356030D01*
X10002Y355906D01*
X9959Y355783D01*
X9912Y355661D01*
X9861Y355541D01*
X9807Y355423D01*
X9749Y355306D01*
X9688Y355191D01*
X9623Y355078D01*
X9555Y354967D01*
X9483Y354858D01*
X9408Y354752D01*
X9330Y354648D01*
X9249Y354546D01*
X9164Y354447D01*
X9077Y354350D01*
X8987Y354256D01*
X8894Y354165D01*
X8798Y354077D01*
X8699Y353992D01*
X8598Y353910D01*
X8494Y353831D01*
X8388Y353755D01*
X8280Y353683D01*
X8170Y353614D01*
X8057Y353548D01*
X7943Y353486D01*
X7827Y353427D01*
X7709Y353372D01*
X7589Y353320D01*
X7468Y353273D01*
X7345Y353229D01*
X7221Y353188D01*
X7096Y353152D01*
X6970Y353119D01*
X6843Y353091D01*
X6715Y353066D01*
X6587Y353045D01*
X6457Y353028D01*
X6328Y353015D01*
X6198Y353006D01*
X6068Y353001D01*
X5937Y353000D01*
X5807Y353003D01*
X5677Y353010D01*
X5547Y353021D01*
X5418Y353036D01*
X5289Y353055D01*
X5161Y353078D01*
X5033Y353104D01*
X4907Y353135D01*
X4781Y353170D01*
X4657Y353208D01*
X4533Y353250D01*
X4412Y353296D01*
X4291Y353346D01*
X4172Y353399D01*
X4055Y353456D01*
X3940Y353516D01*
X3826Y353580D01*
X3715Y353648D01*
X3605Y353719D01*
X3498Y353793D01*
X3394Y353870D01*
X3291Y353951D01*
X3191Y354034D01*
X3094Y354121D01*
X3000Y354210D01*
X2908Y354303D01*
X2819Y354398D01*
X2733Y354496D01*
X2650Y354597D01*
X2570Y354700D01*
X2494Y354805D01*
X2421Y354913D01*
X2351Y355022D01*
X2284Y355134D01*
X2221Y355248D01*
X2161Y355364D01*
X2105Y355482D01*
X2053Y355601D01*
X2004Y355722D01*
X1959Y355844D01*
X1918Y355968D01*
X1881Y356092D01*
X1847Y356218D01*
X1817Y356345D01*
X1792Y356473D01*
X1770Y356601D01*
X1752Y356730D01*
X1738Y356860D01*
X1728Y356990D01*
X1722Y357120D01*
X1720Y357250D01*
X1720Y404750D02*
X1722Y404880D01*
X1728Y405010D01*
X1738Y405140D01*
X1752Y405270D01*
X1770Y405399D01*
X1792Y405527D01*
X1817Y405655D01*
X1847Y405782D01*
X1881Y405908D01*
X1918Y406032D01*
X1959Y406156D01*
X2004Y406278D01*
X2053Y406399D01*
X2105Y406518D01*
X2161Y406636D01*
X2221Y406752D01*
X2284Y406866D01*
X2351Y406978D01*
X2421Y407087D01*
X2494Y407195D01*
X2570Y407300D01*
X2650Y407403D01*
X2733Y407504D01*
X2819Y407602D01*
X2908Y407697D01*
X3000Y407790D01*
X3094Y407879D01*
X3191Y407966D01*
X3291Y408049D01*
X3394Y408130D01*
X3498Y408207D01*
X3605Y408281D01*
X3715Y408352D01*
X3826Y408420D01*
X3940Y408484D01*
X4055Y408544D01*
X4172Y408601D01*
X4291Y408654D01*
X4412Y408704D01*
X4533Y408750D01*
X4657Y408792D01*
X4781Y408830D01*
X4907Y408865D01*
X5033Y408896D01*
X5161Y408922D01*
X5289Y408945D01*
X5418Y408964D01*
X5547Y408979D01*
X5677Y408990D01*
X5807Y408997D01*
X5937Y409000D01*
X6068Y408999D01*
X6198Y408994D01*
X6328Y408985D01*
X6457Y408972D01*
X6587Y408955D01*
X6715Y408934D01*
X6843Y408909D01*
X6970Y408881D01*
X7096Y408848D01*
X7221Y408812D01*
X7345Y408771D01*
X7468Y408727D01*
X7589Y408680D01*
X7709Y408628D01*
X7827Y408573D01*
X7943Y408514D01*
X8057Y408452D01*
X8170Y408386D01*
X8280Y408317D01*
X8388Y408245D01*
X8494Y408169D01*
X8598Y408090D01*
X8699Y408008D01*
X8798Y407923D01*
X8894Y407835D01*
X8987Y407744D01*
X9077Y407650D01*
X9164Y407553D01*
X9249Y407454D01*
X9330Y407352D01*
X9408Y407248D01*
X9483Y407142D01*
X9555Y407033D01*
X9623Y406922D01*
X9688Y406809D01*
X9749Y406694D01*
X9807Y406577D01*
X9861Y406459D01*
X9912Y406339D01*
X9959Y406217D01*
X10002Y406094D01*
X10041Y405970D01*
X10077Y405845D01*
X10108Y405718D01*
X10136Y405591D01*
X10160Y405463D01*
X10180Y405334D01*
X10196Y405205D01*
X10208Y405075D01*
X10216Y404945D01*
X10220Y404815D01*
X10220Y404685D01*
X10216Y404555D01*
X10208Y404425D01*
X10196Y404295D01*
X10180Y404166D01*
X10160Y404037D01*
X10136Y403909D01*
X10108Y403782D01*
X10077Y403655D01*
X10041Y403530D01*
X10002Y403406D01*
X9959Y403283D01*
X9912Y403161D01*
X9861Y403041D01*
X9807Y402923D01*
X9749Y402806D01*
X9688Y402691D01*
X9623Y402578D01*
X9555Y402467D01*
X9483Y402358D01*
X9408Y402252D01*
X9330Y402148D01*
X9249Y402046D01*
X9164Y401947D01*
X9077Y401850D01*
X8987Y401756D01*
X8894Y401665D01*
X8798Y401577D01*
X8699Y401492D01*
X8598Y401410D01*
X8494Y401331D01*
X8388Y401255D01*
X8280Y401183D01*
X8170Y401114D01*
X8057Y401048D01*
X7943Y400986D01*
X7827Y400927D01*
X7709Y400872D01*
X7589Y400820D01*
X7468Y400773D01*
X7345Y400729D01*
X7221Y400688D01*
X7096Y400652D01*
X6970Y400619D01*
X6843Y400591D01*
X6715Y400566D01*
X6587Y400545D01*
X6457Y400528D01*
X6328Y400515D01*
X6198Y400506D01*
X6068Y400501D01*
X5937Y400500D01*
X5807Y400503D01*
X5677Y400510D01*
X5547Y400521D01*
X5418Y400536D01*
X5289Y400555D01*
X5161Y400578D01*
X5033Y400604D01*
X4907Y400635D01*
X4781Y400670D01*
X4657Y400708D01*
X4533Y400750D01*
X4412Y400796D01*
X4291Y400846D01*
X4172Y400899D01*
X4055Y400956D01*
X3940Y401016D01*
X3826Y401080D01*
X3715Y401148D01*
X3605Y401219D01*
X3498Y401293D01*
X3394Y401370D01*
X3291Y401451D01*
X3191Y401534D01*
X3094Y401621D01*
X3000Y401710D01*
X2908Y401803D01*
X2819Y401898D01*
X2733Y401996D01*
X2650Y402097D01*
X2570Y402200D01*
X2494Y402305D01*
X2421Y402413D01*
X2351Y402522D01*
X2284Y402634D01*
X2221Y402748D01*
X2161Y402864D01*
X2105Y402982D01*
X2053Y403101D01*
X2004Y403222D01*
X1959Y403344D01*
X1918Y403468D01*
X1881Y403592D01*
X1847Y403718D01*
X1817Y403845D01*
X1792Y403973D01*
X1770Y404101D01*
X1752Y404230D01*
X1738Y404360D01*
X1728Y404490D01*
X1722Y404620D01*
X1720Y404750D01*
D12*
X0Y10000D02*
X38Y9128D01*
X152Y8264D01*
X341Y7412D01*
X603Y6580D01*
X937Y5774D01*
X1340Y5000D01*
X1808Y4264D01*
X2340Y3572D01*
X2929Y2929D01*
X3572Y2340D01*
X4264Y1808D01*
X5000Y1340D01*
X5774Y937D01*
X6580Y603D01*
X7412Y341D01*
X8264Y152D01*
X9128Y38D01*
X10000Y0D01*
X980600Y0D01*
X981472Y38D01*
X982336Y152D01*
X983188Y341D01*
X984020Y603D01*
X984826Y937D01*
X985600Y1340D01*
X986336Y1808D01*
X987028Y2340D01*
X987671Y2929D01*
X988260Y3572D01*
X988792Y4264D01*
X989260Y5000D01*
X989663Y5774D01*
X989997Y6580D01*
X990259Y7412D01*
X990448Y8264D01*
X990562Y9128D01*
X990600Y10000D01*
X990600Y25400D01*
X1016000Y50800D01*
X1016000Y378460D01*
X990600Y403860D01*
X990600Y518160D01*
X975360Y533400D01*
X10000Y533400D01*
X9128Y533362D01*
X8264Y533248D01*
X7412Y533059D01*
X6580Y532797D01*
X5774Y532463D01*
X5000Y532060D01*
X4264Y531592D01*
X3572Y531060D01*
X2929Y530471D01*
X2340Y529828D01*
X1808Y529136D01*
X1340Y528400D01*
X937Y527626D01*
X603Y526820D01*
X341Y525988D01*
X152Y525136D01*
X38Y524272D01*
X0Y523400D01*
X0Y10000D01*
X981200Y24876D02*
X981132Y23831D01*
X980995Y22792D01*
X980790Y21765D01*
X980519Y20753D01*
X980183Y19761D01*
X979782Y18793D01*
X979318Y17854D01*
X978795Y16946D01*
X978213Y16075D01*
X977575Y15244D01*
X976884Y14457D01*
X976143Y13716D01*
X975356Y13025D01*
X974525Y12388D01*
X973654Y11806D01*
X972746Y11282D01*
X971807Y10818D01*
X970839Y10417D01*
X969847Y10081D01*
X968835Y9810D01*
X967808Y9605D01*
X966769Y9469D01*
X965724Y9400D01*
X964676Y9400D01*
X963631Y9469D01*
X962592Y9605D01*
X961565Y9810D01*
X960553Y10081D01*
X959561Y10417D01*
X958593Y10818D01*
X957654Y11282D01*
X956746Y11806D01*
X955875Y12388D01*
X955044Y13025D01*
X954257Y13716D01*
X953516Y14457D01*
X952825Y15244D01*
X952188Y16075D01*
X951606Y16946D01*
X951082Y17854D01*
X950618Y18793D01*
X950217Y19761D01*
X949881Y20753D01*
X949610Y21765D01*
X949405Y22792D01*
X949269Y23831D01*
X949200Y24876D01*
X949200Y25924D01*
X949269Y26969D01*
X949405Y28008D01*
X949610Y29035D01*
X949881Y30047D01*
X950217Y31039D01*
X950618Y32007D01*
X951082Y32946D01*
X951606Y33854D01*
X952188Y34725D01*
X952825Y35556D01*
X953516Y36343D01*
X954257Y37084D01*
X955044Y37775D01*
X955875Y38413D01*
X956746Y38995D01*
X957654Y39518D01*
X958593Y39982D01*
X959561Y40383D01*
X960553Y40719D01*
X961565Y40990D01*
X962592Y41195D01*
X963631Y41332D01*
X964676Y41400D01*
X965724Y41400D01*
X966769Y41332D01*
X967808Y41195D01*
X968835Y40990D01*
X969847Y40719D01*
X970839Y40383D01*
X971807Y39982D01*
X972746Y39518D01*
X973654Y38995D01*
X974525Y38413D01*
X975356Y37775D01*
X976143Y37084D01*
X976884Y36343D01*
X977575Y35556D01*
X978213Y34725D01*
X978795Y33854D01*
X979318Y32946D01*
X979782Y32007D01*
X980183Y31039D01*
X980519Y30047D01*
X980790Y29035D01*
X980995Y28008D01*
X981132Y26969D01*
X981200Y25924D01*
X981200Y24876D01*
X168400Y507476D02*
X168332Y506431D01*
X168195Y505392D01*
X167990Y504365D01*
X167719Y503353D01*
X167383Y502361D01*
X166982Y501393D01*
X166518Y500454D01*
X165995Y499546D01*
X165413Y498675D01*
X164775Y497844D01*
X164084Y497057D01*
X163343Y496316D01*
X162556Y495625D01*
X161725Y494988D01*
X160854Y494406D01*
X159946Y493882D01*
X159007Y493418D01*
X158039Y493017D01*
X157047Y492681D01*
X156035Y492410D01*
X155008Y492205D01*
X153969Y492069D01*
X152924Y492000D01*
X151876Y492000D01*
X150831Y492069D01*
X149792Y492205D01*
X148765Y492410D01*
X147753Y492681D01*
X146761Y493017D01*
X145793Y493418D01*
X144854Y493882D01*
X143946Y494406D01*
X143075Y494988D01*
X142244Y495625D01*
X141457Y496316D01*
X140716Y497057D01*
X140025Y497844D01*
X139388Y498675D01*
X138806Y499546D01*
X138282Y500454D01*
X137818Y501393D01*
X137417Y502361D01*
X137081Y503353D01*
X136810Y504365D01*
X136605Y505392D01*
X136469Y506431D01*
X136400Y507476D01*
X136400Y508524D01*
X136469Y509569D01*
X136605Y510608D01*
X136810Y511635D01*
X137081Y512647D01*
X137417Y513639D01*
X137818Y514607D01*
X138282Y515546D01*
X138806Y516454D01*
X139388Y517325D01*
X140025Y518156D01*
X140716Y518943D01*
X141457Y519684D01*
X142244Y520375D01*
X143075Y521013D01*
X143946Y521595D01*
X144854Y522118D01*
X145793Y522582D01*
X146761Y522983D01*
X147753Y523319D01*
X148765Y523590D01*
X149792Y523795D01*
X150831Y523932D01*
X151876Y524000D01*
X152924Y524000D01*
X153969Y523932D01*
X155008Y523795D01*
X156035Y523590D01*
X157047Y523319D01*
X158039Y522983D01*
X159007Y522582D01*
X159946Y522118D01*
X160854Y521595D01*
X161725Y521013D01*
X162556Y520375D01*
X163343Y519684D01*
X164084Y518943D01*
X164775Y518156D01*
X165413Y517325D01*
X165995Y516454D01*
X166518Y515546D01*
X166982Y514607D01*
X167383Y513639D01*
X167719Y512647D01*
X167990Y511635D01*
X168195Y510608D01*
X168332Y509569D01*
X168400Y508524D01*
X168400Y507476D01*
X917700Y507476D02*
X917632Y506431D01*
X917495Y505392D01*
X917290Y504365D01*
X917019Y503353D01*
X916683Y502361D01*
X916282Y501393D01*
X915818Y500454D01*
X915295Y499546D01*
X914713Y498675D01*
X914075Y497844D01*
X913384Y497057D01*
X912643Y496316D01*
X911856Y495625D01*
X911025Y494988D01*
X910154Y494406D01*
X909246Y493882D01*
X908307Y493418D01*
X907339Y493017D01*
X906347Y492681D01*
X905335Y492410D01*
X904308Y492205D01*
X903269Y492069D01*
X902224Y492000D01*
X901176Y492000D01*
X900131Y492069D01*
X899092Y492205D01*
X898065Y492410D01*
X897053Y492681D01*
X896061Y493017D01*
X895093Y493418D01*
X894154Y493882D01*
X893246Y494406D01*
X892375Y494988D01*
X891544Y495625D01*
X890757Y496316D01*
X890016Y497057D01*
X889325Y497844D01*
X888688Y498675D01*
X888106Y499546D01*
X887582Y500454D01*
X887118Y501393D01*
X886717Y502361D01*
X886381Y503353D01*
X886110Y504365D01*
X885905Y505392D01*
X885769Y506431D01*
X885700Y507476D01*
X885700Y508524D01*
X885769Y509569D01*
X885905Y510608D01*
X886110Y511635D01*
X886381Y512647D01*
X886717Y513639D01*
X887118Y514607D01*
X887582Y515546D01*
X888106Y516454D01*
X888688Y517325D01*
X889325Y518156D01*
X890016Y518943D01*
X890757Y519684D01*
X891544Y520375D01*
X892375Y521013D01*
X893246Y521595D01*
X894154Y522118D01*
X895093Y522582D01*
X896061Y522983D01*
X897053Y523319D01*
X898065Y523590D01*
X899092Y523795D01*
X900131Y523932D01*
X901176Y524000D01*
X902224Y524000D01*
X903269Y523932D01*
X904308Y523795D01*
X905335Y523590D01*
X906347Y523319D01*
X907339Y522983D01*
X908307Y522582D01*
X909246Y522118D01*
X910154Y521595D01*
X911025Y521013D01*
X911856Y520375D01*
X912643Y519684D01*
X913384Y518943D01*
X914075Y518156D01*
X914713Y517325D01*
X915295Y516454D01*
X915818Y515546D01*
X916282Y514607D01*
X916683Y513639D01*
X917019Y512647D01*
X917290Y511635D01*
X917495Y510608D01*
X917632Y509569D01*
X917700Y508524D01*
X917700Y507476D01*
X155700Y24876D02*
X155632Y23831D01*
X155495Y22792D01*
X155290Y21765D01*
X155019Y20753D01*
X154683Y19761D01*
X154282Y18793D01*
X153818Y17854D01*
X153295Y16946D01*
X152713Y16075D01*
X152075Y15244D01*
X151384Y14457D01*
X150643Y13716D01*
X149856Y13025D01*
X149025Y12388D01*
X148154Y11806D01*
X147246Y11282D01*
X146307Y10818D01*
X145339Y10417D01*
X144347Y10081D01*
X143335Y9810D01*
X142308Y9605D01*
X141269Y9469D01*
X140224Y9400D01*
X139176Y9400D01*
X138131Y9469D01*
X137092Y9605D01*
X136065Y9810D01*
X135053Y10081D01*
X134061Y10417D01*
X133093Y10818D01*
X132154Y11282D01*
X131246Y11806D01*
X130375Y12388D01*
X129544Y13025D01*
X128757Y13716D01*
X128016Y14457D01*
X127325Y15244D01*
X126688Y16075D01*
X126106Y16946D01*
X125582Y17854D01*
X125118Y18793D01*
X124717Y19761D01*
X124381Y20753D01*
X124110Y21765D01*
X123905Y22792D01*
X123769Y23831D01*
X123700Y24876D01*
X123700Y25924D01*
X123769Y26969D01*
X123905Y28008D01*
X124110Y29035D01*
X124381Y30047D01*
X124717Y31039D01*
X125118Y32007D01*
X125582Y32946D01*
X126106Y33854D01*
X126688Y34725D01*
X127325Y35556D01*
X128016Y36343D01*
X128757Y37084D01*
X129544Y37775D01*
X130375Y38413D01*
X131246Y38995D01*
X132154Y39518D01*
X133093Y39982D01*
X134061Y40383D01*
X135053Y40719D01*
X136065Y40990D01*
X137092Y41195D01*
X138131Y41332D01*
X139176Y41400D01*
X140224Y41400D01*
X141269Y41332D01*
X142308Y41195D01*
X143335Y40990D01*
X144347Y40719D01*
X145339Y40383D01*
X146307Y39982D01*
X147246Y39518D01*
X148154Y38995D01*
X149025Y38413D01*
X149856Y37775D01*
X150643Y37084D01*
X151384Y36343D01*
X152075Y35556D01*
X152713Y34725D01*
X153295Y33854D01*
X153818Y32946D01*
X154282Y32007D01*
X154683Y31039D01*
X155019Y30047D01*
X155290Y29035D01*
X155495Y28008D01*
X155632Y26969D01*
X155700Y25924D01*
X155700Y24876D01*
X13691Y400500D02*
X13139Y400573D01*
X12601Y400717D01*
X12086Y400930D01*
X11604Y401209D01*
X11162Y401548D01*
X10768Y401942D01*
X10429Y402384D01*
X10150Y402866D01*
X9937Y403381D01*
X9793Y403919D01*
X9720Y404471D01*
X9720Y405029D01*
X9793Y405581D01*
X9937Y406119D01*
X10150Y406634D01*
X10429Y407116D01*
X10768Y407558D01*
X11162Y407952D01*
X11604Y408291D01*
X12086Y408570D01*
X12601Y408783D01*
X13139Y408927D01*
X13691Y409000D01*
X14249Y409000D01*
X14801Y408927D01*
X15339Y408783D01*
X15854Y408570D01*
X16336Y408291D01*
X16778Y407952D01*
X17172Y407558D01*
X17511Y407116D01*
X17790Y406634D01*
X18003Y406119D01*
X18147Y405581D01*
X18220Y405029D01*
X18220Y404471D01*
X18147Y403919D01*
X18003Y403381D01*
X17790Y402866D01*
X17511Y402384D01*
X17172Y401942D01*
X16778Y401548D01*
X16336Y401209D01*
X15854Y400930D01*
X15339Y400717D01*
X14801Y400573D01*
X14249Y400500D01*
X13691Y400500D01*
X13691Y353000D02*
X13139Y353073D01*
X12601Y353217D01*
X12086Y353430D01*
X11604Y353709D01*
X11162Y354048D01*
X10768Y354442D01*
X10429Y354884D01*
X10150Y355366D01*
X9937Y355881D01*
X9793Y356419D01*
X9720Y356971D01*
X9720Y357529D01*
X9793Y358081D01*
X9937Y358619D01*
X10150Y359134D01*
X10429Y359616D01*
X10768Y360058D01*
X11162Y360452D01*
X11604Y360791D01*
X12086Y361070D01*
X12601Y361283D01*
X13139Y361427D01*
X13691Y361500D01*
X14249Y361500D01*
X14801Y361427D01*
X15339Y361283D01*
X15854Y361070D01*
X16336Y360791D01*
X16778Y360452D01*
X17172Y360058D01*
X17511Y359616D01*
X17790Y359134D01*
X18003Y358619D01*
X18147Y358081D01*
X18220Y357529D01*
X18220Y356971D01*
X18147Y356419D01*
X18003Y355881D01*
X17790Y355366D01*
X17511Y354884D01*
X17172Y354442D01*
X16778Y354048D01*
X16336Y353709D01*
X15854Y353430D01*
X15339Y353217D01*
X14801Y353073D01*
X14249Y353000D01*
X13691Y353000D01*
X-309Y400500D02*
X-861Y400573D01*
X-1399Y400717D01*
X-1914Y400930D01*
X-2396Y401209D01*
X-2838Y401548D01*
X-3232Y401942D01*
X-3571Y402384D01*
X-3850Y402866D01*
X-4063Y403381D01*
X-4207Y403919D01*
X-4280Y404471D01*
X-4280Y405029D01*
X-4207Y405581D01*
X-4063Y406119D01*
X-3850Y406634D01*
X-3571Y407116D01*
X-3232Y407558D01*
X-2838Y407952D01*
X-2396Y408291D01*
X-1914Y408570D01*
X-1399Y408783D01*
X-861Y408927D01*
X-309Y409000D01*
X249Y409000D01*
X801Y408927D01*
X1339Y408783D01*
X1854Y408570D01*
X2336Y408291D01*
X2778Y407952D01*
X3172Y407558D01*
X3511Y407116D01*
X3790Y406634D01*
X4003Y406119D01*
X4147Y405581D01*
X4220Y405029D01*
X4220Y404471D01*
X4147Y403919D01*
X4003Y403381D01*
X3790Y402866D01*
X3511Y402384D01*
X3172Y401942D01*
X2778Y401548D01*
X2336Y401209D01*
X1854Y400930D01*
X1339Y400717D01*
X801Y400573D01*
X249Y400500D01*
X-309Y400500D01*
X-309Y353000D02*
X-861Y353073D01*
X-1399Y353217D01*
X-1914Y353430D01*
X-2396Y353709D01*
X-2838Y354048D01*
X-3232Y354442D01*
X-3571Y354884D01*
X-3850Y355366D01*
X-4063Y355881D01*
X-4207Y356419D01*
X-4280Y356971D01*
X-4280Y357529D01*
X-4207Y358081D01*
X-4063Y358619D01*
X-3850Y359134D01*
X-3571Y359616D01*
X-3232Y360058D01*
X-2838Y360452D01*
X-2396Y360791D01*
X-1914Y361070D01*
X-1399Y361283D01*
X-861Y361427D01*
X-309Y361500D01*
X249Y361500D01*
X801Y361427D01*
X1339Y361283D01*
X1854Y361070D01*
X2336Y360791D01*
X2778Y360452D01*
X3172Y360058D01*
X3511Y359616D01*
X3790Y359134D01*
X4003Y358619D01*
X4147Y358081D01*
X4220Y357529D01*
X4220Y356971D01*
X4147Y356419D01*
X4003Y355881D01*
X3790Y355366D01*
X3511Y354884D01*
X3172Y354442D01*
X2778Y354048D01*
X2336Y353709D01*
X1854Y353430D01*
X1339Y353217D01*
X801Y353073D01*
X249Y353000D01*
X-309Y353000D01*
X9691Y400500D02*
X9139Y400573D01*
X8601Y400717D01*
X8086Y400930D01*
X7604Y401209D01*
X7162Y401548D01*
X6768Y401942D01*
X6429Y402384D01*
X6150Y402866D01*
X5937Y403381D01*
X5793Y403919D01*
X5720Y404471D01*
X5720Y405029D01*
X5793Y405581D01*
X5937Y406119D01*
X6150Y406634D01*
X6429Y407116D01*
X6768Y407558D01*
X7162Y407952D01*
X7604Y408291D01*
X8086Y408570D01*
X8601Y408783D01*
X9139Y408927D01*
X9691Y409000D01*
X10249Y409000D01*
X10801Y408927D01*
X11339Y408783D01*
X11854Y408570D01*
X12336Y408291D01*
X12778Y407952D01*
X13172Y407558D01*
X13511Y407116D01*
X13790Y406634D01*
X14003Y406119D01*
X14147Y405581D01*
X14220Y405029D01*
X14220Y404471D01*
X14147Y403919D01*
X14003Y403381D01*
X13790Y402866D01*
X13511Y402384D01*
X13172Y401942D01*
X12778Y401548D01*
X12336Y401209D01*
X11854Y400930D01*
X11339Y400717D01*
X10801Y400573D01*
X10249Y400500D01*
X9691Y400500D01*
X9691Y353000D02*
X9139Y353073D01*
X8601Y353217D01*
X8086Y353430D01*
X7604Y353709D01*
X7162Y354048D01*
X6768Y354442D01*
X6429Y354884D01*
X6150Y355366D01*
X5937Y355881D01*
X5793Y356419D01*
X5720Y356971D01*
X5720Y357529D01*
X5793Y358081D01*
X5937Y358619D01*
X6150Y359134D01*
X6429Y359616D01*
X6768Y360058D01*
X7162Y360452D01*
X7604Y360791D01*
X8086Y361070D01*
X8601Y361283D01*
X9139Y361427D01*
X9691Y361500D01*
X10249Y361500D01*
X10801Y361427D01*
X11339Y361283D01*
X11854Y361070D01*
X12336Y360791D01*
X12778Y360452D01*
X13172Y360058D01*
X13511Y359616D01*
X13790Y359134D01*
X14003Y358619D01*
X14147Y358081D01*
X14220Y357529D01*
X14220Y356971D01*
X14147Y356419D01*
X14003Y355881D01*
X13790Y355366D01*
X13511Y354884D01*
X13172Y354442D01*
X12778Y354048D01*
X12336Y353709D01*
X11854Y353430D01*
X11339Y353217D01*
X10801Y353073D01*
X10249Y353000D01*
X9691Y353000D01*
X5691Y353000D02*
X5139Y353073D01*
X4601Y353217D01*
X4086Y353430D01*
X3604Y353709D01*
X3162Y354048D01*
X2768Y354442D01*
X2429Y354884D01*
X2150Y355366D01*
X1937Y355881D01*
X1793Y356419D01*
X1720Y356971D01*
X1720Y357529D01*
X1793Y358081D01*
X1937Y358619D01*
X2150Y359134D01*
X2429Y359616D01*
X2768Y360058D01*
X3162Y360452D01*
X3604Y360791D01*
X4086Y361070D01*
X4601Y361283D01*
X5139Y361427D01*
X5691Y361500D01*
X6249Y361500D01*
X6801Y361427D01*
X7339Y361283D01*
X7854Y361070D01*
X8336Y360791D01*
X8778Y360452D01*
X9172Y360058D01*
X9511Y359616D01*
X9790Y359134D01*
X10003Y358619D01*
X10147Y358081D01*
X10220Y357529D01*
X10220Y356971D01*
X10147Y356419D01*
X10003Y355881D01*
X9790Y355366D01*
X9511Y354884D01*
X9172Y354442D01*
X8778Y354048D01*
X8336Y353709D01*
X7854Y353430D01*
X7339Y353217D01*
X6801Y353073D01*
X6249Y353000D01*
X5691Y353000D01*
X5691Y400500D02*
X5139Y400573D01*
X4601Y400717D01*
X4086Y400930D01*
X3604Y401209D01*
X3162Y401548D01*
X2768Y401942D01*
X2429Y402384D01*
X2150Y402866D01*
X1937Y403381D01*
X1793Y403919D01*
X1720Y404471D01*
X1720Y405029D01*
X1793Y405581D01*
X1937Y406119D01*
X2150Y406634D01*
X2429Y407116D01*
X2768Y407558D01*
X3162Y407952D01*
X3604Y408291D01*
X4086Y408570D01*
X4601Y408783D01*
X5139Y408927D01*
X5691Y409000D01*
X6249Y409000D01*
X6801Y408927D01*
X7339Y408783D01*
X7854Y408570D01*
X8336Y408291D01*
X8778Y407952D01*
X9172Y407558D01*
X9511Y407116D01*
X9790Y406634D01*
X10003Y406119D01*
X10147Y405581D01*
X10220Y405029D01*
X10220Y404471D01*
X10147Y403919D01*
X10003Y403381D01*
X9790Y402866D01*
X9511Y402384D01*
X9172Y401942D01*
X8778Y401548D01*
X8336Y401209D01*
X7854Y400930D01*
X7339Y400717D01*
X6801Y400573D01*
X6249Y400500D01*
X5691Y400500D01*
M02*
