M48
;GenerationSoftware,Autodesk,EAGLE,9.6.2*%
;CreationDate,2020-08-31T17:08:58Z*%
FMAT,2
ICI,OFF
METRIC,TZ,000.000
T10C0.406
T9C0.600
T8C0.610
T7C0.800
T6C0.850
T5C0.950
T4C1.000
T3C1.016
T2C1.300
T1C3.200
%
G90
M71
T1
X15240Y50800
X13970Y2540
X90170Y50800
X96520Y2540
T2
X11684Y8306
X5690Y8306
X8687Y3302
X11684Y9068
X9449Y3302
X11684Y7544
X5690Y9068
X5690Y7544
X7925Y3302
T3
X63627Y25400
X66167Y25400
X23519Y17272
X63627Y30480
X66167Y30480
X63627Y27940
X26059Y17272
X23519Y14732
X26059Y14732
X23519Y12192
X26059Y12192
X66167Y27940
T4
X28575Y43485
X31115Y43485
X33655Y43485
X26035Y43485
T5
X18036Y13767
X20576Y11227
X96520Y7620
X93980Y7620
X96520Y10160
X93980Y10160
X96520Y12700
X93980Y12700
X96520Y15240
X93980Y15240
X96520Y17780
X93980Y17780
X96520Y40640
X93980Y40640
X96520Y43180
X93980Y43180
X96520Y45720
X93980Y45720
X96520Y48260
X93980Y48260
X96520Y50800
X93980Y50800
X18036Y11227
X96520Y30480
X93980Y27940
X96520Y27940
X93980Y25400
X96520Y25400
X93980Y22860
X96520Y22860
X93980Y20320
X93980Y30480
X20576Y13767
X96520Y20320
X96520Y33020
X93980Y33020
X96520Y35560
X93980Y35560
X93980Y38100
X96520Y38100
T6
X91440Y2540
X58420Y50800
X1397Y40475
X1397Y35725
X-3Y40475
X-3Y35725
X997Y40475
X997Y35725
X597Y35725
X597Y40475
X63500Y50800
X60960Y50800
X55880Y50800
X53340Y50800
X50800Y50800
X48260Y50800
X45720Y50800
X41656Y50800
X39116Y50800
X36576Y50800
X34036Y50800
X31496Y50800
X28956Y50800
X26416Y50800
X23876Y50800
X21336Y50800
X18796Y50800
X27940Y2540
X30480Y2540
X33020Y2540
X35560Y2540
X38100Y2540
X40640Y2540
X43180Y2540
X45720Y2540
X50800Y2540
X53340Y2540
X55880Y2540
X58420Y2540
X60960Y2540
X63500Y2540
X66040Y2540
X68580Y2540
X68580Y50800
X71120Y50800
X73660Y50800
X76200Y50800
X78740Y50800
X81280Y50800
X83820Y50800
X86360Y50800
X73660Y2540
X76200Y2540
X78740Y2540
X81280Y2540
X83820Y2540
X86360Y2540
X88900Y2540
T7
X1194Y42275
X1753Y42275
X1753Y33925
X1473Y42275
X1473Y33925
X1194Y33925
X4547Y40450
X4247Y40450
X4547Y35750
X4247Y35750
X1143Y25730
X4089Y24841
X4089Y24587
X1651Y25730
X1651Y18720
X1143Y18720
X4089Y19863
X4089Y19609
T8
X62179Y28600
X86563Y32207
X57810Y25502
X75235Y31902
X82601Y31902
X86563Y33426
X75895Y35560
X40323Y24930
X40234Y22352
X36017Y11786
X4572Y33630
X33528Y26975
X15646Y31394
X15443Y28194
X30988Y38202
X76454Y31902
X32004Y6604
X27432Y13310
X27229Y18288
X31090Y9246
X45720Y6604
X80518Y22250
X29210Y5385
X92050Y40437
X10516Y24333
X35763Y43586
X51105Y23571
X35662Y21742
X49987Y24486
X51714Y25603
X90932Y40437
X23673Y24892
X17170Y25705
X75540Y29616
X32817Y40843
X78384Y28194
X78334Y29566
X76911Y29566
X36373Y30480
X36373Y25298
X74778Y34747
X6807Y33833
X16967Y41656
X86563Y34646
X8838Y48768
X82601Y33477
X82601Y35001
X81534Y39827
X61773Y36170
X44094Y31090
T9
X22987Y35966
X22987Y38506
X21717Y38506
X22987Y39776
X21717Y39776
X22987Y41046
X21717Y41046
X21717Y35966
X22987Y37236
X21717Y37236
T10
X65227Y14427
X9830Y38075
X36576Y33731
X35154Y44907
X8636Y43231
X40538Y26822
X36678Y45110
X5791Y44907
X2845Y35662
X39421Y33122
X38405Y37541
X42570Y18085
X45618Y27737
X43383Y13716
X43383Y5283
X44145Y16662
X47346Y4572
X44907Y17374
X48666Y4877
X44399Y13716
X44399Y5283
X45644Y16662
X47752Y6096
X46634Y13513
X48565Y6807
X62509Y33376
X57709Y28042
X46990Y27737
X46990Y18390
X85954Y38405
X45974Y18390
X45974Y23063
X55575Y23978
X67564Y34265
X81585Y37694
X49479Y38405
X50089Y46634
X49378Y35154
X50089Y47650
X58826Y38710
X70612Y47650
X54458Y35052
X54762Y47041
X60655Y39421
X71628Y47244
X52832Y34747
X52934Y48463
X20015Y48260
X32410Y17882
X29718Y49505
X67462Y18085
X68580Y18085
X70002Y27534
X72593Y28854
X69596Y18085
X53543Y31090
X56490Y18898
X48057Y38506
X48463Y44907
X39319Y45517
X47955Y35154
X47244Y49276
X41453Y28854
X62230Y49581
X45110Y30378
X57810Y30480
X56388Y48666
X61062Y34544
X51105Y30683
X48666Y34341
X49073Y47854
X13379Y16403
X19972Y52238
X56693Y35052
X57404Y48666
X14732Y16851
X50800Y16967
X51740Y11455
X43078Y16662
X42266Y5283
X47650Y12294
X47854Y2642
X47650Y16662
X50190Y7823
X47650Y13310
X49174Y8230
X49581Y13614
X61316Y8357
X29108Y12090
X29312Y18745
X27026Y22860
X15443Y22250
X4318Y15088
X13310Y17777
X53442Y38202
X80741Y31618
X63094Y39649
X55067Y19202
X39421Y9550
X39421Y15011
X35357Y33579
X34849Y38151
X26416Y31496
X27838Y26721
X30582Y25197
X42367Y26518
X36678Y17678
X33325Y17069
X40335Y30582
X32410Y49581
X62078Y5893
X34239Y5791
X34036Y18491
X25451Y18999
X31090Y41453
X30785Y17678
X45720Y12294
X46025Y8839
X46838Y35154
X48362Y30785
X55474Y31801
X59436Y15646
X86258Y11989
X85446Y11074
X59436Y14630
X54458Y32207
X45720Y35154
X47244Y30785
X61062Y33528
X61671Y42367
X86868Y41453
X91237Y8941
X46025Y11278
X46939Y8230
X60655Y38405
X72644Y46838
X48463Y18390
X50902Y10262
X48463Y17374
X60274Y7925
X38913Y47752
X46330Y48158
X43383Y18796
X56490Y31801
X22962Y28263
X30785Y18796
X89611Y46025
X46634Y38506
X47650Y47854
X49784Y40234
X50267Y42520
X52019Y43993
X50394Y35154
X60249Y37389
X66040Y46228
X45212Y38202
X45822Y47142
X88697Y45314
X89002Y38608
X46736Y39522
X47142Y45618
X51003Y44399
X50495Y39421
X59639Y39421
X69596Y47346
X22555Y22454
X20726Y16866
X20726Y15748
X18898Y15545
X6655Y27686
X23673Y22454
X28092Y16002
X10566Y26111
X12192Y24384
X12090Y26213
X49987Y34036
X62382Y27026
X36383Y9545
X2235Y4877
X2235Y10973
X13767Y10617
X7668Y44447
X99162Y11608
X99162Y19177
X99162Y26924
X99162Y34442
X4978Y42367
X33325Y32715
X36411Y14420
X71222Y2438
X34950Y24181
X83972Y41148
X6096Y4877
X30886Y32106
X27940Y31496
X41986Y23470
X11278Y4877
X7620Y19355
X7112Y16053
X7823Y26010
X20066Y30429
X21844Y29769
X25095Y28042
X28956Y29058
X21133Y7925
X25603Y7925
X27668Y36589
X8202Y42106
X18796Y47752
X11887Y46838
X20625Y25400
X29566Y24028
X19507Y20828
X31133Y21869
X57302Y16967
X31633Y26439
X62662Y24333
X66142Y50800
X14935Y14021
X12192Y38710
X47981Y23571
X22606Y51714
X87681Y48463
X16866Y18186
X22149Y32004
X59690Y1524
X29210Y3607
X43586Y50800
X88087Y15697
X40640Y31902
X72746Y38557
X77470Y52121
X87681Y25959
X97790Y21590
X87630Y3556
X69494Y6706
X37795Y45009
X57709Y13411
X70612Y24613
X67869Y24079
X84836Y22301
X84074Y27737
X79096Y24536
X79096Y23470
X75921Y23495
X27838Y29159
X75895Y38710
X12192Y42215
X51816Y34341
X56134Y17170
X1829Y43993
X18186Y42164
X11989Y14529
X34747Y15748
X21844Y25298
X22962Y26619
X18593Y29159
X54864Y13919
X32309Y15748
X44907Y18390
X6807Y29769
X8026Y30683
X29159Y8534
X6782Y38329
X42570Y29769
X42469Y38405
X41961Y47346
X19507Y46228
X19507Y35916
X28092Y47193
X43891Y35154
X44399Y46126
X20320Y45415
X20015Y37236
X30683Y46431
X21031Y46330
X42977Y46736
X43180Y34341
X43688Y39319
X43282Y48768
X22047Y48158
X51918Y10262
X49581Y18390
X51816Y13614
X52934Y11278
X52222Y16866
X64211Y14834
X53746Y16764
X59334Y12192
X39929Y17780
X40030Y28651
X57404Y41351
X85344Y42367
X55677Y28753
X85954Y37287
X58369Y20269
X61468Y20625
X92456Y21641
X57099Y21133
X62484Y21133
X68402Y32614
X61366Y31902
X56794Y22555
X91338Y29566
X71323Y26314
X58115Y23876
X67869Y25400
X56693Y28346
X57404Y42367
X88290Y42266
X88290Y37795
X51359Y38202
X51511Y46634
X54254Y44399
X54254Y38913
X42469Y35154
X44399Y47142
X87579Y45314
X87579Y36170
X56794Y23978
X68885Y29362
X58115Y22860
X64313Y22250
X58115Y21742
X63246Y21844
X58318Y19202
X61112Y19355
X52832Y18390
X63398Y16662
X51765Y18390
X62586Y15138
X50698Y18390
M30