G04 EAGLE Gerber RS-274X export*
G75*
%MOMM*%
%FSLAX34Y34*%
%LPD*%
%INTop Paste*%
%IPPOS*%
%AMOC8*
5,1,8,0,0,1.08239X$1,22.5*%
G01*
%ADD10R,1.247600X2.847600*%
%ADD11R,1.047600X1.047600*%
%ADD12C,0.863600*%
%ADD13R,1.710000X3.210000*%
%ADD14R,0.635000X0.736600*%
%ADD15C,0.305816*%
%ADD16R,0.497600X0.347600*%
%ADD17R,0.889000X0.762000*%
%ADD18C,0.062378*%
%ADD19R,1.047600X0.147600*%
%ADD20R,1.647600X0.947600*%
%ADD21R,2.082800X1.066800*%
%ADD22R,1.980000X3.380000*%
%ADD23R,0.847600X0.847600*%
%ADD24C,0.566959*%
%ADD25R,0.897600X1.147600*%
%ADD26R,1.047600X0.847600*%
%ADD27R,0.747600X0.547600*%
%ADD28R,2.240000X1.440000*%
%ADD29R,0.147600X1.047600*%
%ADD30R,1.440000X2.240000*%
%ADD31R,0.863600X1.828800*%
%ADD32R,1.247600X0.847600*%
%ADD33R,0.847600X1.047600*%
%ADD34R,0.347600X0.497600*%
%ADD35C,0.075000*%
%ADD36R,1.197600X0.247600*%
%ADD37R,1.800000X2.700000*%
%ADD38C,0.367231*%
%ADD39C,0.296472*%
%ADD40R,3.210000X1.710000*%
%ADD41R,1.270000X1.270000*%
%ADD42C,0.071453*%
%ADD43R,1.647600X1.247600*%
%ADD44R,0.247600X0.547600*%
%ADD45R,0.736600X0.635000*%
%ADD46R,1.147600X0.897600*%
%ADD47R,2.413000X2.286000*%
%ADD48R,0.609600X1.117600*%
%ADD49R,1.847600X0.947600*%
%ADD50R,0.647600X0.647600*%
%ADD51R,0.547600X0.097600*%
%ADD52R,0.947600X0.097600*%
%ADD53R,0.097600X0.547600*%
%ADD54R,0.097600X0.947600*%
%ADD55R,0.447600X1.797600*%
%ADD56R,1.193800X0.254000*%
%ADD57C,0.163447*%
%ADD58C,0.860550*%
%ADD59R,1.371600X1.473200*%


D10*
X230378Y35944D03*
X230378Y83944D03*
D11*
X115910Y276860D03*
X94910Y276860D03*
D12*
X899160Y326804D03*
X26670Y24130D03*
X62230Y487680D03*
D11*
X115910Y333248D03*
X94910Y333248D03*
X115910Y314452D03*
X94910Y314452D03*
D13*
X144976Y407924D03*
X105976Y407924D03*
D11*
X115910Y295656D03*
X94910Y295656D03*
D14*
X141986Y284226D03*
X151638Y263906D03*
X132334Y263906D03*
D15*
X189870Y306573D02*
X190368Y306573D01*
X190368Y303535D01*
X189870Y303535D01*
X189870Y306573D01*
X189870Y306440D02*
X190368Y306440D01*
X181478Y306573D02*
X180980Y306573D01*
X181478Y306573D02*
X181478Y303535D01*
X180980Y303535D01*
X180980Y306573D01*
X180980Y306440D02*
X181478Y306440D01*
X183637Y245994D02*
X183637Y245496D01*
X180599Y245496D01*
X180599Y245994D01*
X183637Y245994D01*
X183637Y254386D02*
X183637Y254884D01*
X183637Y254386D02*
X180599Y254386D01*
X180599Y254884D01*
X183637Y254884D01*
D16*
X240138Y316800D03*
X240138Y308800D03*
X240138Y300800D03*
X240138Y292800D03*
X253638Y292800D03*
X253638Y300800D03*
X253638Y308800D03*
X253638Y316800D03*
X132188Y321372D03*
X132188Y313372D03*
X132188Y305372D03*
X132188Y297372D03*
X145688Y297372D03*
X145688Y305372D03*
X145688Y313372D03*
X145688Y321372D03*
D12*
X931926Y44958D03*
D17*
X19685Y487680D03*
D18*
X13304Y504254D02*
X27156Y504254D01*
X13304Y504254D02*
X13304Y516106D01*
X27156Y516106D01*
X27156Y504254D01*
X27156Y504847D02*
X13304Y504847D01*
X13304Y505440D02*
X27156Y505440D01*
X27156Y506033D02*
X13304Y506033D01*
X13304Y506626D02*
X27156Y506626D01*
X27156Y507219D02*
X13304Y507219D01*
X13304Y507812D02*
X27156Y507812D01*
X27156Y508405D02*
X13304Y508405D01*
X13304Y508998D02*
X27156Y508998D01*
X27156Y509591D02*
X13304Y509591D01*
X13304Y510184D02*
X27156Y510184D01*
X27156Y510777D02*
X13304Y510777D01*
X13304Y511370D02*
X27156Y511370D01*
X27156Y511963D02*
X13304Y511963D01*
X13304Y512556D02*
X27156Y512556D01*
X27156Y513149D02*
X13304Y513149D01*
X13304Y513742D02*
X27156Y513742D01*
X27156Y514335D02*
X13304Y514335D01*
X13304Y514928D02*
X27156Y514928D01*
X27156Y515521D02*
X13304Y515521D01*
X97304Y504254D02*
X111156Y504254D01*
X97304Y504254D02*
X97304Y516106D01*
X111156Y516106D01*
X111156Y504254D01*
X111156Y504847D02*
X97304Y504847D01*
X97304Y505440D02*
X111156Y505440D01*
X111156Y506033D02*
X97304Y506033D01*
X97304Y506626D02*
X111156Y506626D01*
X111156Y507219D02*
X97304Y507219D01*
X97304Y507812D02*
X111156Y507812D01*
X111156Y508405D02*
X97304Y508405D01*
X97304Y508998D02*
X111156Y508998D01*
X111156Y509591D02*
X97304Y509591D01*
X97304Y510184D02*
X111156Y510184D01*
X111156Y510777D02*
X97304Y510777D01*
X97304Y511370D02*
X111156Y511370D01*
X111156Y511963D02*
X97304Y511963D01*
X97304Y512556D02*
X111156Y512556D01*
X111156Y513149D02*
X97304Y513149D01*
X97304Y513742D02*
X111156Y513742D01*
X111156Y514335D02*
X97304Y514335D01*
X97304Y514928D02*
X111156Y514928D01*
X111156Y515521D02*
X97304Y515521D01*
X27156Y459254D02*
X13304Y459254D01*
X13304Y471106D01*
X27156Y471106D01*
X27156Y459254D01*
X27156Y459847D02*
X13304Y459847D01*
X13304Y460440D02*
X27156Y460440D01*
X27156Y461033D02*
X13304Y461033D01*
X13304Y461626D02*
X27156Y461626D01*
X27156Y462219D02*
X13304Y462219D01*
X13304Y462812D02*
X27156Y462812D01*
X27156Y463405D02*
X13304Y463405D01*
X13304Y463998D02*
X27156Y463998D01*
X27156Y464591D02*
X13304Y464591D01*
X13304Y465184D02*
X27156Y465184D01*
X27156Y465777D02*
X13304Y465777D01*
X13304Y466370D02*
X27156Y466370D01*
X27156Y466963D02*
X13304Y466963D01*
X13304Y467556D02*
X27156Y467556D01*
X27156Y468149D02*
X13304Y468149D01*
X13304Y468742D02*
X27156Y468742D01*
X27156Y469335D02*
X13304Y469335D01*
X13304Y469928D02*
X27156Y469928D01*
X27156Y470521D02*
X13304Y470521D01*
X97304Y459254D02*
X111156Y459254D01*
X97304Y459254D02*
X97304Y471106D01*
X111156Y471106D01*
X111156Y459254D01*
X111156Y459847D02*
X97304Y459847D01*
X97304Y460440D02*
X111156Y460440D01*
X111156Y461033D02*
X97304Y461033D01*
X97304Y461626D02*
X111156Y461626D01*
X111156Y462219D02*
X97304Y462219D01*
X97304Y462812D02*
X111156Y462812D01*
X111156Y463405D02*
X97304Y463405D01*
X97304Y463998D02*
X111156Y463998D01*
X111156Y464591D02*
X97304Y464591D01*
X97304Y465184D02*
X111156Y465184D01*
X111156Y465777D02*
X97304Y465777D01*
X97304Y466370D02*
X111156Y466370D01*
X111156Y466963D02*
X97304Y466963D01*
X97304Y467556D02*
X111156Y467556D01*
X111156Y468149D02*
X97304Y468149D01*
X97304Y468742D02*
X111156Y468742D01*
X111156Y469335D02*
X97304Y469335D01*
X97304Y469928D02*
X111156Y469928D01*
X111156Y470521D02*
X97304Y470521D01*
D16*
X194202Y387288D03*
X194202Y395288D03*
X194202Y403288D03*
X194202Y411288D03*
X180702Y411288D03*
X180702Y403288D03*
X180702Y395288D03*
X180702Y387288D03*
D19*
X214678Y269640D03*
X214678Y276140D03*
X214678Y282640D03*
X214678Y289140D03*
X172428Y289140D03*
X172428Y282640D03*
X172428Y276140D03*
X172428Y269640D03*
D20*
X312928Y277108D03*
X312928Y308108D03*
D15*
X295270Y279903D02*
X294772Y279903D01*
X295270Y279903D02*
X295270Y276865D01*
X294772Y276865D01*
X294772Y279903D01*
X294772Y279770D02*
X295270Y279770D01*
X286380Y279903D02*
X285882Y279903D01*
X286380Y279903D02*
X286380Y276865D01*
X285882Y276865D01*
X285882Y279903D01*
X285882Y279770D02*
X286380Y279770D01*
X294772Y306319D02*
X295270Y306319D01*
X295270Y303281D01*
X294772Y303281D01*
X294772Y306319D01*
X294772Y306186D02*
X295270Y306186D01*
X286380Y306319D02*
X285882Y306319D01*
X286380Y306319D02*
X286380Y303281D01*
X285882Y303281D01*
X285882Y306319D01*
X285882Y306186D02*
X286380Y306186D01*
D21*
X785368Y357886D03*
X785368Y334772D03*
X785368Y311658D03*
D22*
X847346Y334772D03*
D15*
X351023Y403738D02*
X351023Y404236D01*
X351023Y403738D02*
X347985Y403738D01*
X347985Y404236D01*
X351023Y404236D01*
X351023Y412628D02*
X351023Y413126D01*
X351023Y412628D02*
X347985Y412628D01*
X347985Y413126D01*
X351023Y413126D01*
X403855Y408300D02*
X403855Y407802D01*
X400817Y407802D01*
X400817Y408300D01*
X403855Y408300D01*
X403855Y416692D02*
X403855Y417190D01*
X403855Y416692D02*
X400817Y416692D01*
X400817Y417190D01*
X403855Y417190D01*
D23*
X79248Y373728D03*
X79248Y353728D03*
X79248Y390304D03*
X79248Y410304D03*
D24*
X265047Y358781D02*
X265047Y356991D01*
X261241Y356991D01*
X261241Y358781D01*
X265047Y358781D01*
X265047Y374771D02*
X265047Y376561D01*
X265047Y374771D02*
X261241Y374771D01*
X261241Y376561D01*
X265047Y376561D01*
D15*
X292740Y373883D02*
X293238Y373883D01*
X293238Y370845D01*
X292740Y370845D01*
X292740Y373883D01*
X292740Y373750D02*
X293238Y373750D01*
X284348Y373883D02*
X283850Y373883D01*
X284348Y373883D02*
X284348Y370845D01*
X283850Y370845D01*
X283850Y373883D01*
X283850Y373750D02*
X284348Y373750D01*
D25*
X365908Y416630D03*
X365908Y393630D03*
X384408Y393630D03*
X384408Y416630D03*
D26*
X313612Y120904D03*
X335612Y120904D03*
D15*
X409951Y118740D02*
X409951Y118242D01*
X406913Y118242D01*
X406913Y118740D01*
X409951Y118740D01*
X409951Y127132D02*
X409951Y127630D01*
X409951Y127132D02*
X406913Y127132D01*
X406913Y127630D01*
X409951Y127630D01*
D27*
X281432Y218336D03*
X281432Y205336D03*
X281432Y192336D03*
D15*
X282951Y194442D02*
X282951Y194940D01*
X282951Y194442D02*
X279913Y194442D01*
X279913Y194940D01*
X282951Y194940D01*
X282951Y203332D02*
X282951Y203830D01*
X282951Y203332D02*
X279913Y203332D01*
X279913Y203830D01*
X282951Y203830D01*
D16*
X171050Y375474D03*
X171050Y367474D03*
X171050Y359474D03*
X171050Y351474D03*
X184550Y351474D03*
X184550Y359474D03*
X184550Y367474D03*
X184550Y375474D03*
D28*
X725424Y320280D03*
X725424Y350280D03*
D15*
X371343Y358018D02*
X371343Y358516D01*
X371343Y358018D02*
X368305Y358018D01*
X368305Y358516D01*
X371343Y358516D01*
X371343Y366908D02*
X371343Y367406D01*
X371343Y366908D02*
X368305Y366908D01*
X368305Y367406D01*
X371343Y367406D01*
X342905Y354706D02*
X342905Y354208D01*
X342905Y354706D02*
X345943Y354706D01*
X345943Y354208D01*
X342905Y354208D01*
X342905Y345816D02*
X342905Y345318D01*
X342905Y345816D02*
X345943Y345816D01*
X345943Y345318D01*
X342905Y345318D01*
X342260Y280929D02*
X341762Y280929D01*
X341762Y283967D01*
X342260Y283967D01*
X342260Y280929D01*
X342260Y283834D02*
X341762Y283834D01*
X350652Y280929D02*
X351150Y280929D01*
X350652Y280929D02*
X350652Y283967D01*
X351150Y283967D01*
X351150Y280929D01*
X351150Y283834D02*
X350652Y283834D01*
D29*
X576450Y368350D03*
X571450Y368350D03*
X566450Y368350D03*
X561450Y368350D03*
X556450Y368350D03*
X551450Y368350D03*
X546450Y368350D03*
X541450Y368350D03*
X536450Y368350D03*
X531450Y368350D03*
X526450Y368350D03*
X521450Y368350D03*
X516450Y368350D03*
X511450Y368350D03*
X506450Y368350D03*
X501450Y368350D03*
X496450Y368350D03*
X491450Y368350D03*
X486450Y368350D03*
X481450Y368350D03*
X476450Y368350D03*
X471450Y368350D03*
X466450Y368350D03*
X461450Y368350D03*
X456450Y368350D03*
X451450Y368350D03*
X446450Y368350D03*
X441450Y368350D03*
X436450Y368350D03*
X431450Y368350D03*
X426450Y368350D03*
X421450Y368350D03*
X416450Y368350D03*
X411450Y368350D03*
X406450Y368350D03*
X401450Y368350D03*
D19*
X380950Y347850D03*
X380950Y342850D03*
X380950Y337850D03*
X380950Y332850D03*
X380950Y327850D03*
X380950Y322850D03*
X380950Y317850D03*
X380950Y312850D03*
X380950Y307850D03*
X380950Y302850D03*
X380950Y297850D03*
X380950Y292850D03*
X380950Y287850D03*
X380950Y282850D03*
X380950Y277850D03*
X380950Y272850D03*
X380950Y267850D03*
X380950Y262850D03*
X380950Y257850D03*
X380950Y252850D03*
X380950Y247850D03*
X380950Y242850D03*
X380950Y237850D03*
X380950Y232850D03*
X380950Y227850D03*
X380950Y222850D03*
X380950Y217850D03*
X380950Y212850D03*
X380950Y207850D03*
X380950Y202850D03*
X380950Y197850D03*
X380950Y192850D03*
X380950Y187850D03*
X380950Y182850D03*
X380950Y177850D03*
X380950Y172850D03*
D29*
X401450Y152350D03*
X406450Y152350D03*
X411450Y152350D03*
X416450Y152350D03*
X421450Y152350D03*
X426450Y152350D03*
X431450Y152350D03*
X436450Y152350D03*
X441450Y152350D03*
X446450Y152350D03*
X451450Y152350D03*
X456450Y152350D03*
X461450Y152350D03*
X466450Y152350D03*
X471450Y152350D03*
X476450Y152350D03*
X481450Y152350D03*
X486450Y152350D03*
X491450Y152350D03*
X496450Y152350D03*
X501450Y152350D03*
X506450Y152350D03*
X511450Y152350D03*
X516450Y152350D03*
X521450Y152350D03*
X526450Y152350D03*
X531450Y152350D03*
X536450Y152350D03*
X541450Y152350D03*
X546450Y152350D03*
X551450Y152350D03*
X556450Y152350D03*
X561450Y152350D03*
X566450Y152350D03*
X571450Y152350D03*
X576450Y152350D03*
D19*
X596950Y172850D03*
X596950Y177850D03*
X596950Y182850D03*
X596950Y187850D03*
X596950Y192850D03*
X596950Y197850D03*
X596950Y202850D03*
X596950Y207850D03*
X596950Y212850D03*
X596950Y217850D03*
X596950Y222850D03*
X596950Y227850D03*
X596950Y232850D03*
X596950Y237850D03*
X596950Y242850D03*
X596950Y247850D03*
X596950Y252850D03*
X596950Y257850D03*
X596950Y262850D03*
X596950Y267850D03*
X596950Y272850D03*
X596950Y277850D03*
X596950Y282850D03*
X596950Y287850D03*
X596950Y292850D03*
X596950Y297850D03*
X596950Y302850D03*
X596950Y307850D03*
X596950Y312850D03*
X596950Y317850D03*
X596950Y322850D03*
X596950Y327850D03*
X596950Y332850D03*
X596950Y337850D03*
X596950Y342850D03*
X596950Y347850D03*
D30*
X348728Y95504D03*
X378728Y95504D03*
D15*
X355468Y202697D02*
X354970Y202697D01*
X354970Y205735D01*
X355468Y205735D01*
X355468Y202697D01*
X355468Y205602D02*
X354970Y205602D01*
X363860Y202697D02*
X364358Y202697D01*
X363860Y202697D02*
X363860Y205735D01*
X364358Y205735D01*
X364358Y202697D01*
X364358Y205602D02*
X363860Y205602D01*
D30*
X327674Y218694D03*
X297674Y218694D03*
D15*
X343911Y204084D02*
X343911Y203586D01*
X340873Y203586D01*
X340873Y204084D01*
X343911Y204084D01*
X343911Y212476D02*
X343911Y212974D01*
X343911Y212476D02*
X340873Y212476D01*
X340873Y212974D01*
X343911Y212974D01*
X540009Y411612D02*
X540009Y412110D01*
X543047Y412110D01*
X543047Y411612D01*
X540009Y411612D01*
X540009Y403220D02*
X540009Y402722D01*
X540009Y403220D02*
X543047Y403220D01*
X543047Y402722D01*
X540009Y402722D01*
X342260Y303281D02*
X341762Y303281D01*
X341762Y306319D01*
X342260Y306319D01*
X342260Y303281D01*
X342260Y306186D02*
X341762Y306186D01*
X350652Y303281D02*
X351150Y303281D01*
X350652Y303281D02*
X350652Y306319D01*
X351150Y306319D01*
X351150Y303281D01*
X351150Y306186D02*
X350652Y306186D01*
X342260Y252481D02*
X341762Y252481D01*
X341762Y255519D01*
X342260Y255519D01*
X342260Y252481D01*
X342260Y255386D02*
X341762Y255386D01*
X350652Y252481D02*
X351150Y252481D01*
X350652Y252481D02*
X350652Y255519D01*
X351150Y255519D01*
X351150Y252481D01*
X351150Y255386D02*
X350652Y255386D01*
X554223Y121026D02*
X554223Y120528D01*
X551185Y120528D01*
X551185Y121026D01*
X554223Y121026D01*
X554223Y129418D02*
X554223Y129916D01*
X554223Y129418D02*
X551185Y129418D01*
X551185Y129916D01*
X554223Y129916D01*
X617215Y228986D02*
X617215Y229484D01*
X617215Y228986D02*
X614177Y228986D01*
X614177Y229484D01*
X617215Y229484D01*
X617215Y237876D02*
X617215Y238374D01*
X617215Y237876D02*
X614177Y237876D01*
X614177Y238374D01*
X617215Y238374D01*
X383383Y119451D02*
X382885Y119451D01*
X383383Y119451D02*
X383383Y116413D01*
X382885Y116413D01*
X382885Y119451D01*
X382885Y119318D02*
X383383Y119318D01*
X374493Y119451D02*
X373995Y119451D01*
X374493Y119451D02*
X374493Y116413D01*
X373995Y116413D01*
X373995Y119451D01*
X373995Y119318D02*
X374493Y119318D01*
X519689Y411612D02*
X519689Y412110D01*
X522727Y412110D01*
X522727Y411612D01*
X519689Y411612D01*
X519689Y403220D02*
X519689Y402722D01*
X519689Y403220D02*
X522727Y403220D01*
X522727Y402722D01*
X519689Y402722D01*
X345308Y228097D02*
X344810Y228097D01*
X344810Y231135D01*
X345308Y231135D01*
X345308Y228097D01*
X345308Y231002D02*
X344810Y231002D01*
X353700Y228097D02*
X354198Y228097D01*
X353700Y228097D02*
X353700Y231135D01*
X354198Y231135D01*
X354198Y228097D01*
X354198Y231002D02*
X353700Y231002D01*
X566669Y120772D02*
X566669Y120274D01*
X563631Y120274D01*
X563631Y120772D01*
X566669Y120772D01*
X566669Y129164D02*
X566669Y129662D01*
X566669Y129164D02*
X563631Y129164D01*
X563631Y129662D01*
X566669Y129662D01*
X613161Y264292D02*
X613161Y264790D01*
X616199Y264790D01*
X616199Y264292D01*
X613161Y264292D01*
X613161Y255900D02*
X613161Y255402D01*
X613161Y255900D02*
X616199Y255900D01*
X616199Y255402D01*
X613161Y255402D01*
X345308Y324617D02*
X344810Y324617D01*
X344810Y327655D01*
X345308Y327655D01*
X345308Y324617D01*
X345308Y327522D02*
X344810Y327522D01*
X353700Y324617D02*
X354198Y324617D01*
X353700Y324617D02*
X353700Y327655D01*
X354198Y327655D01*
X354198Y324617D01*
X354198Y327522D02*
X353700Y327522D01*
X376423Y145156D02*
X376423Y144658D01*
X373385Y144658D01*
X373385Y145156D01*
X376423Y145156D01*
X376423Y153548D02*
X376423Y154046D01*
X376423Y153548D02*
X373385Y153548D01*
X373385Y154046D01*
X376423Y154046D01*
D26*
X314120Y140208D03*
X336120Y140208D03*
X333072Y394208D03*
X311072Y394208D03*
D30*
X409688Y95504D03*
X439688Y95504D03*
X291098Y404368D03*
X261098Y404368D03*
D26*
X372032Y437896D03*
X394032Y437896D03*
D15*
X427868Y406903D02*
X428366Y406903D01*
X428366Y403865D01*
X427868Y403865D01*
X427868Y406903D01*
X427868Y406770D02*
X428366Y406770D01*
X419476Y406903D02*
X418978Y406903D01*
X419476Y406903D02*
X419476Y403865D01*
X418978Y403865D01*
X418978Y406903D01*
X418978Y406770D02*
X419476Y406770D01*
D30*
X421880Y428752D03*
X451880Y428752D03*
D31*
X746760Y387096D03*
X706755Y387096D03*
D32*
X265000Y258216D03*
X265000Y277216D03*
X243000Y267716D03*
D15*
X294772Y255519D02*
X295270Y255519D01*
X295270Y252481D01*
X294772Y252481D01*
X294772Y255519D01*
X294772Y255386D02*
X295270Y255386D01*
X286380Y255519D02*
X285882Y255519D01*
X286380Y255519D02*
X286380Y252481D01*
X285882Y252481D01*
X285882Y255519D01*
X285882Y255386D02*
X286380Y255386D01*
D33*
X146304Y67740D03*
X146304Y89740D03*
D15*
X300868Y198623D02*
X301366Y198623D01*
X301366Y195585D01*
X300868Y195585D01*
X300868Y198623D01*
X300868Y198490D02*
X301366Y198490D01*
X292476Y198623D02*
X291978Y198623D01*
X292476Y198623D02*
X292476Y195585D01*
X291978Y195585D01*
X291978Y198623D01*
X291978Y198490D02*
X292476Y198490D01*
X231135Y428122D02*
X231135Y428620D01*
X231135Y428122D02*
X228097Y428122D01*
X228097Y428620D01*
X231135Y428620D01*
X231135Y437012D02*
X231135Y437510D01*
X231135Y437012D02*
X228097Y437012D01*
X228097Y437510D01*
X231135Y437510D01*
X27046Y451607D02*
X26548Y451607D01*
X27046Y451607D02*
X27046Y448569D01*
X26548Y448569D01*
X26548Y451607D01*
X26548Y451474D02*
X27046Y451474D01*
X18156Y451607D02*
X17658Y451607D01*
X18156Y451607D02*
X18156Y448569D01*
X17658Y448569D01*
X17658Y451607D01*
X17658Y451474D02*
X18156Y451474D01*
X330332Y255519D02*
X330830Y255519D01*
X330830Y252481D01*
X330332Y252481D01*
X330332Y255519D01*
X330332Y255386D02*
X330830Y255386D01*
X321940Y255519D02*
X321442Y255519D01*
X321940Y255519D02*
X321940Y252481D01*
X321442Y252481D01*
X321442Y255519D01*
X321442Y255386D02*
X321940Y255386D01*
D28*
X169672Y436104D03*
X169672Y466104D03*
X137160Y436104D03*
X137160Y466104D03*
D34*
X799400Y393846D03*
X791400Y393846D03*
X783400Y393846D03*
X775400Y393846D03*
X775400Y380346D03*
X783400Y380346D03*
X791400Y380346D03*
X799400Y380346D03*
D35*
X19220Y419000D02*
X8720Y419000D01*
D36*
X40970Y394000D03*
X40970Y387500D03*
X40970Y381000D03*
X40970Y374500D03*
X40970Y368000D03*
D37*
X13970Y381000D03*
D38*
X38568Y401098D02*
X49372Y401098D01*
X38568Y401098D02*
X38568Y408902D01*
X49372Y408902D01*
X49372Y401098D01*
X49372Y404586D02*
X38568Y404586D01*
X38568Y408074D02*
X49372Y408074D01*
X49372Y353098D02*
X38568Y353098D01*
X38568Y360902D01*
X49372Y360902D01*
X49372Y353098D01*
X49372Y356586D02*
X38568Y356586D01*
X38568Y360074D02*
X49372Y360074D01*
D39*
X20726Y417494D02*
X7214Y417494D01*
X7214Y428006D01*
X20726Y428006D01*
X20726Y417494D01*
X20726Y420311D02*
X7214Y420311D01*
X7214Y423128D02*
X20726Y423128D01*
X20726Y425945D02*
X7214Y425945D01*
X7214Y333994D02*
X20726Y333994D01*
X7214Y333994D02*
X7214Y344506D01*
X20726Y344506D01*
X20726Y333994D01*
X20726Y336811D02*
X7214Y336811D01*
X7214Y339628D02*
X20726Y339628D01*
X20726Y342445D02*
X7214Y342445D01*
D15*
X18791Y310764D02*
X18791Y310266D01*
X15753Y310266D01*
X15753Y310764D01*
X18791Y310764D01*
X18791Y319156D02*
X18791Y319654D01*
X18791Y319156D02*
X15753Y319156D01*
X15753Y319654D01*
X18791Y319654D01*
D11*
X32172Y168656D03*
X53172Y168656D03*
X33188Y134112D03*
X54188Y134112D03*
D40*
X42672Y318204D03*
X42672Y279204D03*
D15*
X139695Y187828D02*
X139695Y187330D01*
X136657Y187330D01*
X136657Y187828D01*
X139695Y187828D01*
X139695Y196220D02*
X139695Y196718D01*
X139695Y196220D02*
X136657Y196220D01*
X136657Y196718D01*
X139695Y196718D01*
X197607Y245242D02*
X197607Y245740D01*
X197607Y245242D02*
X194569Y245242D01*
X194569Y245740D01*
X197607Y245740D01*
X197607Y254132D02*
X197607Y254630D01*
X197607Y254132D02*
X194569Y254132D01*
X194569Y254630D01*
X197607Y254630D01*
D41*
X181864Y195072D03*
D42*
X159745Y212291D02*
X159745Y212853D01*
X159745Y212291D02*
X154983Y212291D01*
X154983Y212853D01*
X159745Y212853D01*
X159745Y207853D02*
X159745Y207291D01*
X154983Y207291D01*
X154983Y207853D01*
X159745Y207853D01*
X159745Y202853D02*
X159745Y202291D01*
X154983Y202291D01*
X154983Y202853D01*
X159745Y202853D01*
X159745Y197853D02*
X159745Y197291D01*
X154983Y197291D01*
X154983Y197853D01*
X159745Y197853D01*
X159745Y192853D02*
X159745Y192291D01*
X154983Y192291D01*
X154983Y192853D01*
X159745Y192853D01*
X159745Y187853D02*
X159745Y187291D01*
X154983Y187291D01*
X154983Y187853D01*
X159745Y187853D01*
X159745Y182853D02*
X159745Y182291D01*
X154983Y182291D01*
X154983Y182853D01*
X159745Y182853D01*
X159745Y177853D02*
X159745Y177291D01*
X154983Y177291D01*
X154983Y177853D01*
X159745Y177853D01*
X164083Y172953D02*
X164645Y172953D01*
X164645Y168191D01*
X164083Y168191D01*
X164083Y172953D01*
X164083Y168870D02*
X164645Y168870D01*
X164645Y169549D02*
X164083Y169549D01*
X164083Y170228D02*
X164645Y170228D01*
X164645Y170907D02*
X164083Y170907D01*
X164083Y171586D02*
X164645Y171586D01*
X164645Y172265D02*
X164083Y172265D01*
X164083Y172944D02*
X164645Y172944D01*
X169083Y172953D02*
X169645Y172953D01*
X169645Y168191D01*
X169083Y168191D01*
X169083Y172953D01*
X169083Y168870D02*
X169645Y168870D01*
X169645Y169549D02*
X169083Y169549D01*
X169083Y170228D02*
X169645Y170228D01*
X169645Y170907D02*
X169083Y170907D01*
X169083Y171586D02*
X169645Y171586D01*
X169645Y172265D02*
X169083Y172265D01*
X169083Y172944D02*
X169645Y172944D01*
X174083Y172953D02*
X174645Y172953D01*
X174645Y168191D01*
X174083Y168191D01*
X174083Y172953D01*
X174083Y168870D02*
X174645Y168870D01*
X174645Y169549D02*
X174083Y169549D01*
X174083Y170228D02*
X174645Y170228D01*
X174645Y170907D02*
X174083Y170907D01*
X174083Y171586D02*
X174645Y171586D01*
X174645Y172265D02*
X174083Y172265D01*
X174083Y172944D02*
X174645Y172944D01*
X179083Y172953D02*
X179645Y172953D01*
X179645Y168191D01*
X179083Y168191D01*
X179083Y172953D01*
X179083Y168870D02*
X179645Y168870D01*
X179645Y169549D02*
X179083Y169549D01*
X179083Y170228D02*
X179645Y170228D01*
X179645Y170907D02*
X179083Y170907D01*
X179083Y171586D02*
X179645Y171586D01*
X179645Y172265D02*
X179083Y172265D01*
X179083Y172944D02*
X179645Y172944D01*
X184083Y172953D02*
X184645Y172953D01*
X184645Y168191D01*
X184083Y168191D01*
X184083Y172953D01*
X184083Y168870D02*
X184645Y168870D01*
X184645Y169549D02*
X184083Y169549D01*
X184083Y170228D02*
X184645Y170228D01*
X184645Y170907D02*
X184083Y170907D01*
X184083Y171586D02*
X184645Y171586D01*
X184645Y172265D02*
X184083Y172265D01*
X184083Y172944D02*
X184645Y172944D01*
X189083Y172953D02*
X189645Y172953D01*
X189645Y168191D01*
X189083Y168191D01*
X189083Y172953D01*
X189083Y168870D02*
X189645Y168870D01*
X189645Y169549D02*
X189083Y169549D01*
X189083Y170228D02*
X189645Y170228D01*
X189645Y170907D02*
X189083Y170907D01*
X189083Y171586D02*
X189645Y171586D01*
X189645Y172265D02*
X189083Y172265D01*
X189083Y172944D02*
X189645Y172944D01*
X194083Y172953D02*
X194645Y172953D01*
X194645Y168191D01*
X194083Y168191D01*
X194083Y172953D01*
X194083Y168870D02*
X194645Y168870D01*
X194645Y169549D02*
X194083Y169549D01*
X194083Y170228D02*
X194645Y170228D01*
X194645Y170907D02*
X194083Y170907D01*
X194083Y171586D02*
X194645Y171586D01*
X194645Y172265D02*
X194083Y172265D01*
X194083Y172944D02*
X194645Y172944D01*
X199083Y172953D02*
X199645Y172953D01*
X199645Y168191D01*
X199083Y168191D01*
X199083Y172953D01*
X199083Y168870D02*
X199645Y168870D01*
X199645Y169549D02*
X199083Y169549D01*
X199083Y170228D02*
X199645Y170228D01*
X199645Y170907D02*
X199083Y170907D01*
X199083Y171586D02*
X199645Y171586D01*
X199645Y172265D02*
X199083Y172265D01*
X199083Y172944D02*
X199645Y172944D01*
X208745Y177291D02*
X208745Y177853D01*
X208745Y177291D02*
X203983Y177291D01*
X203983Y177853D01*
X208745Y177853D01*
X208745Y182291D02*
X208745Y182853D01*
X208745Y182291D02*
X203983Y182291D01*
X203983Y182853D01*
X208745Y182853D01*
X208745Y187291D02*
X208745Y187853D01*
X208745Y187291D02*
X203983Y187291D01*
X203983Y187853D01*
X208745Y187853D01*
X208745Y192291D02*
X208745Y192853D01*
X208745Y192291D02*
X203983Y192291D01*
X203983Y192853D01*
X208745Y192853D01*
X208745Y197291D02*
X208745Y197853D01*
X208745Y197291D02*
X203983Y197291D01*
X203983Y197853D01*
X208745Y197853D01*
X208745Y202291D02*
X208745Y202853D01*
X208745Y202291D02*
X203983Y202291D01*
X203983Y202853D01*
X208745Y202853D01*
X208745Y207291D02*
X208745Y207853D01*
X208745Y207291D02*
X203983Y207291D01*
X203983Y207853D01*
X208745Y207853D01*
X208745Y212291D02*
X208745Y212853D01*
X208745Y212291D02*
X203983Y212291D01*
X203983Y212853D01*
X208745Y212853D01*
X199645Y221953D02*
X199083Y221953D01*
X199645Y221953D02*
X199645Y217191D01*
X199083Y217191D01*
X199083Y221953D01*
X199083Y217870D02*
X199645Y217870D01*
X199645Y218549D02*
X199083Y218549D01*
X199083Y219228D02*
X199645Y219228D01*
X199645Y219907D02*
X199083Y219907D01*
X199083Y220586D02*
X199645Y220586D01*
X199645Y221265D02*
X199083Y221265D01*
X199083Y221944D02*
X199645Y221944D01*
X194645Y221953D02*
X194083Y221953D01*
X194645Y221953D02*
X194645Y217191D01*
X194083Y217191D01*
X194083Y221953D01*
X194083Y217870D02*
X194645Y217870D01*
X194645Y218549D02*
X194083Y218549D01*
X194083Y219228D02*
X194645Y219228D01*
X194645Y219907D02*
X194083Y219907D01*
X194083Y220586D02*
X194645Y220586D01*
X194645Y221265D02*
X194083Y221265D01*
X194083Y221944D02*
X194645Y221944D01*
X189645Y221953D02*
X189083Y221953D01*
X189645Y221953D02*
X189645Y217191D01*
X189083Y217191D01*
X189083Y221953D01*
X189083Y217870D02*
X189645Y217870D01*
X189645Y218549D02*
X189083Y218549D01*
X189083Y219228D02*
X189645Y219228D01*
X189645Y219907D02*
X189083Y219907D01*
X189083Y220586D02*
X189645Y220586D01*
X189645Y221265D02*
X189083Y221265D01*
X189083Y221944D02*
X189645Y221944D01*
X184645Y221953D02*
X184083Y221953D01*
X184645Y221953D02*
X184645Y217191D01*
X184083Y217191D01*
X184083Y221953D01*
X184083Y217870D02*
X184645Y217870D01*
X184645Y218549D02*
X184083Y218549D01*
X184083Y219228D02*
X184645Y219228D01*
X184645Y219907D02*
X184083Y219907D01*
X184083Y220586D02*
X184645Y220586D01*
X184645Y221265D02*
X184083Y221265D01*
X184083Y221944D02*
X184645Y221944D01*
X179645Y221953D02*
X179083Y221953D01*
X179645Y221953D02*
X179645Y217191D01*
X179083Y217191D01*
X179083Y221953D01*
X179083Y217870D02*
X179645Y217870D01*
X179645Y218549D02*
X179083Y218549D01*
X179083Y219228D02*
X179645Y219228D01*
X179645Y219907D02*
X179083Y219907D01*
X179083Y220586D02*
X179645Y220586D01*
X179645Y221265D02*
X179083Y221265D01*
X179083Y221944D02*
X179645Y221944D01*
X174645Y221953D02*
X174083Y221953D01*
X174645Y221953D02*
X174645Y217191D01*
X174083Y217191D01*
X174083Y221953D01*
X174083Y217870D02*
X174645Y217870D01*
X174645Y218549D02*
X174083Y218549D01*
X174083Y219228D02*
X174645Y219228D01*
X174645Y219907D02*
X174083Y219907D01*
X174083Y220586D02*
X174645Y220586D01*
X174645Y221265D02*
X174083Y221265D01*
X174083Y221944D02*
X174645Y221944D01*
X169645Y221953D02*
X169083Y221953D01*
X169645Y221953D02*
X169645Y217191D01*
X169083Y217191D01*
X169083Y221953D01*
X169083Y217870D02*
X169645Y217870D01*
X169645Y218549D02*
X169083Y218549D01*
X169083Y219228D02*
X169645Y219228D01*
X169645Y219907D02*
X169083Y219907D01*
X169083Y220586D02*
X169645Y220586D01*
X169645Y221265D02*
X169083Y221265D01*
X169083Y221944D02*
X169645Y221944D01*
X164645Y221953D02*
X164083Y221953D01*
X164645Y221953D02*
X164645Y217191D01*
X164083Y217191D01*
X164083Y221953D01*
X164083Y217870D02*
X164645Y217870D01*
X164645Y218549D02*
X164083Y218549D01*
X164083Y219228D02*
X164645Y219228D01*
X164645Y219907D02*
X164083Y219907D01*
X164083Y220586D02*
X164645Y220586D01*
X164645Y221265D02*
X164083Y221265D01*
X164083Y221944D02*
X164645Y221944D01*
D23*
X66040Y256888D03*
X66040Y236888D03*
X58928Y197264D03*
X58928Y217264D03*
D15*
X90810Y181869D02*
X91308Y181869D01*
X90810Y181869D02*
X90810Y184907D01*
X91308Y184907D01*
X91308Y181869D01*
X91308Y184774D02*
X90810Y184774D01*
X99700Y181869D02*
X100198Y181869D01*
X99700Y181869D02*
X99700Y184907D01*
X100198Y184907D01*
X100198Y181869D01*
X100198Y184774D02*
X99700Y184774D01*
X84196Y135017D02*
X83698Y135017D01*
X83698Y138055D01*
X84196Y138055D01*
X84196Y135017D01*
X84196Y137922D02*
X83698Y137922D01*
X92588Y135017D02*
X93086Y135017D01*
X92588Y135017D02*
X92588Y138055D01*
X93086Y138055D01*
X93086Y135017D01*
X93086Y137922D02*
X92588Y137922D01*
X110114Y181869D02*
X110612Y181869D01*
X110114Y181869D02*
X110114Y184907D01*
X110612Y184907D01*
X110612Y181869D01*
X110612Y184774D02*
X110114Y184774D01*
X119004Y181869D02*
X119502Y181869D01*
X119004Y181869D02*
X119004Y184907D01*
X119502Y184907D01*
X119502Y181869D01*
X119502Y184774D02*
X119004Y184774D01*
D43*
X251968Y203472D03*
X251968Y237472D03*
D15*
X226436Y236733D02*
X225938Y236733D01*
X225938Y239771D01*
X226436Y239771D01*
X226436Y236733D01*
X226436Y239638D02*
X225938Y239638D01*
X234828Y236733D02*
X235326Y236733D01*
X234828Y236733D02*
X234828Y239771D01*
X235326Y239771D01*
X235326Y236733D01*
X235326Y239638D02*
X234828Y239638D01*
X32009Y156078D02*
X32009Y155580D01*
X32009Y156078D02*
X35047Y156078D01*
X35047Y155580D01*
X32009Y155580D01*
X32009Y147188D02*
X32009Y146690D01*
X32009Y147188D02*
X35047Y147188D01*
X35047Y146690D01*
X32009Y146690D01*
X21839Y146690D02*
X21839Y147188D01*
X21839Y146690D02*
X18801Y146690D01*
X18801Y147188D01*
X21839Y147188D01*
X21839Y155580D02*
X21839Y156078D01*
X21839Y155580D02*
X18801Y155580D01*
X18801Y156078D01*
X21839Y156078D01*
X160053Y119262D02*
X160053Y118764D01*
X160053Y119262D02*
X163091Y119262D01*
X163091Y118764D01*
X160053Y118764D01*
X160053Y110372D02*
X160053Y109874D01*
X160053Y110372D02*
X163091Y110372D01*
X163091Y109874D01*
X160053Y109874D01*
X149982Y242311D02*
X149484Y242311D01*
X149982Y242311D02*
X149982Y239273D01*
X149484Y239273D01*
X149484Y242311D01*
X149484Y242178D02*
X149982Y242178D01*
X141092Y242311D02*
X140594Y242311D01*
X141092Y242311D02*
X141092Y239273D01*
X140594Y239273D01*
X140594Y242311D01*
X140594Y242178D02*
X141092Y242178D01*
X149484Y253487D02*
X149982Y253487D01*
X149982Y250449D01*
X149484Y250449D01*
X149484Y253487D01*
X149484Y253354D02*
X149982Y253354D01*
X141092Y253487D02*
X140594Y253487D01*
X141092Y253487D02*
X141092Y250449D01*
X140594Y250449D01*
X140594Y253487D01*
X140594Y253354D02*
X141092Y253354D01*
X210815Y235580D02*
X210815Y235082D01*
X207777Y235082D01*
X207777Y235580D01*
X210815Y235580D01*
X210815Y243972D02*
X210815Y244470D01*
X210815Y243972D02*
X207777Y243972D01*
X207777Y244470D01*
X210815Y244470D01*
D44*
X126132Y137500D03*
X132632Y137500D03*
X139132Y137500D03*
X139132Y154500D03*
X126132Y154500D03*
D15*
X200284Y430271D02*
X200782Y430271D01*
X200782Y427233D01*
X200284Y427233D01*
X200284Y430271D01*
X200284Y430138D02*
X200782Y430138D01*
X191892Y430271D02*
X191394Y430271D01*
X191892Y430271D02*
X191892Y427233D01*
X191394Y427233D01*
X191394Y430271D01*
X191394Y430138D02*
X191892Y430138D01*
X224922Y199649D02*
X225420Y199649D01*
X224922Y199649D02*
X224922Y202687D01*
X225420Y202687D01*
X225420Y199649D01*
X225420Y202554D02*
X224922Y202554D01*
X233812Y199649D02*
X234310Y199649D01*
X233812Y199649D02*
X233812Y202687D01*
X234310Y202687D01*
X234310Y199649D01*
X234310Y202554D02*
X233812Y202554D01*
D23*
X34704Y435864D03*
X54704Y435864D03*
D45*
X94488Y220980D03*
X114808Y230632D03*
X114808Y211328D03*
D46*
X84004Y150262D03*
X107004Y150262D03*
X107004Y168762D03*
X84004Y168762D03*
D15*
X109860Y441447D02*
X110358Y441447D01*
X110358Y438409D01*
X109860Y438409D01*
X109860Y441447D01*
X109860Y441314D02*
X110358Y441314D01*
X101468Y441447D02*
X100970Y441447D01*
X101468Y441447D02*
X101468Y438409D01*
X100970Y438409D01*
X100970Y441447D01*
X100970Y441314D02*
X101468Y441314D01*
X111084Y138055D02*
X111582Y138055D01*
X111582Y135017D01*
X111084Y135017D01*
X111084Y138055D01*
X111084Y137922D02*
X111582Y137922D01*
X102692Y138055D02*
X102194Y138055D01*
X102692Y138055D02*
X102692Y135017D01*
X102194Y135017D01*
X102194Y138055D01*
X102194Y137922D02*
X102692Y137922D01*
D45*
X311404Y156210D03*
X291084Y146558D03*
X291084Y165862D03*
D47*
X182260Y81280D03*
D48*
X158760Y81280D03*
D15*
X284983Y173614D02*
X284983Y174112D01*
X284983Y173614D02*
X281945Y173614D01*
X281945Y174112D01*
X284983Y174112D01*
X284983Y182504D02*
X284983Y183002D01*
X284983Y182504D02*
X281945Y182504D01*
X281945Y183002D01*
X284983Y183002D01*
D49*
X185816Y58928D03*
D50*
X166816Y58928D03*
D15*
X82418Y184907D02*
X81920Y184907D01*
X82418Y184907D02*
X82418Y181869D01*
X81920Y181869D01*
X81920Y184907D01*
X81920Y184774D02*
X82418Y184774D01*
X73528Y184907D02*
X73030Y184907D01*
X73528Y184907D02*
X73528Y181869D01*
X73030Y181869D01*
X73030Y184907D01*
X73030Y184774D02*
X73528Y184774D01*
D24*
X75051Y203329D02*
X76841Y203329D01*
X75051Y203329D02*
X75051Y207135D01*
X76841Y207135D01*
X76841Y203329D01*
X92831Y203329D02*
X94621Y203329D01*
X92831Y203329D02*
X92831Y207135D01*
X94621Y207135D01*
X94621Y203329D01*
D30*
X773952Y229362D03*
X743952Y229362D03*
X773952Y258572D03*
X743952Y258572D03*
D24*
X767963Y279529D02*
X767963Y283335D01*
X769753Y283335D01*
X769753Y279529D01*
X767963Y279529D01*
X750183Y279529D02*
X750183Y283335D01*
X751973Y283335D01*
X751973Y279529D01*
X750183Y279529D01*
D51*
X829840Y252724D03*
D52*
X827840Y259224D03*
X827840Y265724D03*
D51*
X829840Y272224D03*
X829840Y280724D03*
X829840Y289224D03*
X800840Y289224D03*
X800840Y280724D03*
X800840Y272224D03*
D52*
X802840Y265724D03*
X802840Y259224D03*
D51*
X800840Y252724D03*
D53*
X802840Y243724D03*
X807840Y243724D03*
D54*
X812840Y245724D03*
X817840Y245724D03*
D53*
X822840Y243724D03*
X827840Y243724D03*
D55*
X825340Y280724D03*
X805340Y280724D03*
D24*
X866769Y288669D02*
X868559Y288669D01*
X868559Y284863D01*
X866769Y284863D01*
X866769Y288669D01*
X850779Y288669D02*
X848989Y288669D01*
X850779Y288669D02*
X850779Y284863D01*
X848989Y284863D01*
X848989Y288669D01*
X866769Y269873D02*
X868559Y269873D01*
X868559Y266067D01*
X866769Y266067D01*
X866769Y269873D01*
X850779Y269873D02*
X848989Y269873D01*
X850779Y269873D02*
X850779Y266067D01*
X848989Y266067D01*
X848989Y269873D01*
X867023Y238377D02*
X868813Y238377D01*
X868813Y234571D01*
X867023Y234571D01*
X867023Y238377D01*
X851033Y238377D02*
X849243Y238377D01*
X851033Y238377D02*
X851033Y234571D01*
X849243Y234571D01*
X849243Y238377D01*
X866515Y253363D02*
X868305Y253363D01*
X868305Y249557D01*
X866515Y249557D01*
X866515Y253363D01*
X850525Y253363D02*
X848735Y253363D01*
X850525Y253363D02*
X850525Y249557D01*
X848735Y249557D01*
X848735Y253363D01*
X819461Y224458D02*
X819461Y220652D01*
X817671Y220652D01*
X817671Y224458D01*
X819461Y224458D01*
X837241Y224458D02*
X837241Y220652D01*
X835451Y220652D01*
X835451Y224458D01*
X837241Y224458D01*
D56*
X40894Y235458D03*
X40894Y228854D03*
X40894Y222250D03*
X40894Y215646D03*
X40894Y209042D03*
D57*
X7358Y248023D02*
X7358Y262517D01*
X20582Y262517D01*
X20582Y248023D01*
X7358Y248023D01*
X7358Y249575D02*
X20582Y249575D01*
X20582Y251127D02*
X7358Y251127D01*
X7358Y252679D02*
X20582Y252679D01*
X20582Y254231D02*
X7358Y254231D01*
X7358Y255783D02*
X20582Y255783D01*
X20582Y257335D02*
X7358Y257335D01*
X7358Y258887D02*
X20582Y258887D01*
X20582Y260439D02*
X7358Y260439D01*
X7358Y261991D02*
X20582Y261991D01*
X7358Y196477D02*
X7358Y181983D01*
X7358Y196477D02*
X20582Y196477D01*
X20582Y181983D01*
X7358Y181983D01*
X7358Y183535D02*
X20582Y183535D01*
X20582Y185087D02*
X7358Y185087D01*
X7358Y186639D02*
X20582Y186639D01*
X20582Y188191D02*
X7358Y188191D01*
X7358Y189743D02*
X20582Y189743D01*
X20582Y191295D02*
X7358Y191295D01*
X7358Y192847D02*
X20582Y192847D01*
X20582Y194399D02*
X7358Y194399D01*
X7358Y195951D02*
X20582Y195951D01*
D58*
X39609Y244587D02*
X39609Y249697D01*
X42179Y249697D01*
X42179Y244587D01*
X39609Y244587D01*
X39609Y199913D02*
X39609Y194803D01*
X39609Y199913D02*
X42179Y199913D01*
X42179Y194803D01*
X39609Y194803D01*
D59*
X13970Y232410D03*
X13970Y212090D03*
M02*
