G04 EAGLE Gerber RS-274X export*
G75*
%MOMM*%
%FSLAX34Y34*%
%LPD*%
%INMechanical*%
%IPPOS*%
%AMOC8*
5,1,8,0,0,1.08239X$1,22.5*%
G01*
%ADD10C,0.000000*%
%ADD11C,0.254000*%
%ADD12C,0.254000*%


D10*
X38180Y709070D02*
X38182Y709211D01*
X38188Y709352D01*
X38198Y709492D01*
X38212Y709632D01*
X38230Y709772D01*
X38251Y709911D01*
X38277Y710050D01*
X38306Y710188D01*
X38340Y710324D01*
X38377Y710460D01*
X38418Y710595D01*
X38463Y710729D01*
X38512Y710861D01*
X38564Y710992D01*
X38620Y711121D01*
X38680Y711248D01*
X38743Y711374D01*
X38809Y711498D01*
X38880Y711621D01*
X38953Y711741D01*
X39030Y711859D01*
X39110Y711975D01*
X39194Y712088D01*
X39280Y712199D01*
X39370Y712308D01*
X39463Y712414D01*
X39558Y712517D01*
X39657Y712618D01*
X39758Y712716D01*
X39862Y712811D01*
X39969Y712903D01*
X40078Y712992D01*
X40190Y713077D01*
X40304Y713160D01*
X40420Y713240D01*
X40539Y713316D01*
X40660Y713388D01*
X40782Y713458D01*
X40907Y713523D01*
X41033Y713586D01*
X41161Y713644D01*
X41291Y713699D01*
X41422Y713751D01*
X41555Y713798D01*
X41689Y713842D01*
X41824Y713883D01*
X41960Y713919D01*
X42097Y713951D01*
X42235Y713980D01*
X42373Y714005D01*
X42513Y714025D01*
X42653Y714042D01*
X42793Y714055D01*
X42934Y714064D01*
X43074Y714069D01*
X43215Y714070D01*
X43356Y714067D01*
X43497Y714060D01*
X43637Y714049D01*
X43777Y714034D01*
X43917Y714015D01*
X44056Y713993D01*
X44194Y713966D01*
X44332Y713936D01*
X44468Y713901D01*
X44604Y713863D01*
X44738Y713821D01*
X44872Y713775D01*
X45004Y713726D01*
X45134Y713672D01*
X45263Y713615D01*
X45390Y713555D01*
X45516Y713491D01*
X45639Y713423D01*
X45761Y713352D01*
X45881Y713278D01*
X45998Y713200D01*
X46113Y713119D01*
X46226Y713035D01*
X46337Y712948D01*
X46445Y712857D01*
X46550Y712764D01*
X46653Y712667D01*
X46753Y712568D01*
X46850Y712466D01*
X46944Y712361D01*
X47035Y712254D01*
X47123Y712144D01*
X47208Y712032D01*
X47290Y711917D01*
X47369Y711800D01*
X47444Y711681D01*
X47516Y711560D01*
X47584Y711437D01*
X47649Y711312D01*
X47711Y711185D01*
X47768Y711056D01*
X47823Y710926D01*
X47873Y710795D01*
X47920Y710662D01*
X47963Y710528D01*
X48002Y710392D01*
X48037Y710256D01*
X48069Y710119D01*
X48096Y709981D01*
X48120Y709842D01*
X48140Y709702D01*
X48156Y709562D01*
X48168Y709422D01*
X48176Y709281D01*
X48180Y709140D01*
X48180Y709000D01*
X48176Y708859D01*
X48168Y708718D01*
X48156Y708578D01*
X48140Y708438D01*
X48120Y708298D01*
X48096Y708159D01*
X48069Y708021D01*
X48037Y707884D01*
X48002Y707748D01*
X47963Y707612D01*
X47920Y707478D01*
X47873Y707345D01*
X47823Y707214D01*
X47768Y707084D01*
X47711Y706955D01*
X47649Y706828D01*
X47584Y706703D01*
X47516Y706580D01*
X47444Y706459D01*
X47369Y706340D01*
X47290Y706223D01*
X47208Y706108D01*
X47123Y705996D01*
X47035Y705886D01*
X46944Y705779D01*
X46850Y705674D01*
X46753Y705572D01*
X46653Y705473D01*
X46550Y705376D01*
X46445Y705283D01*
X46337Y705192D01*
X46226Y705105D01*
X46113Y705021D01*
X45998Y704940D01*
X45881Y704862D01*
X45761Y704788D01*
X45639Y704717D01*
X45516Y704649D01*
X45390Y704585D01*
X45263Y704525D01*
X45134Y704468D01*
X45004Y704414D01*
X44872Y704365D01*
X44738Y704319D01*
X44604Y704277D01*
X44468Y704239D01*
X44332Y704204D01*
X44194Y704174D01*
X44056Y704147D01*
X43917Y704125D01*
X43777Y704106D01*
X43637Y704091D01*
X43497Y704080D01*
X43356Y704073D01*
X43215Y704070D01*
X43074Y704071D01*
X42934Y704076D01*
X42793Y704085D01*
X42653Y704098D01*
X42513Y704115D01*
X42373Y704135D01*
X42235Y704160D01*
X42097Y704189D01*
X41960Y704221D01*
X41824Y704257D01*
X41689Y704298D01*
X41555Y704342D01*
X41422Y704389D01*
X41291Y704441D01*
X41161Y704496D01*
X41033Y704554D01*
X40907Y704617D01*
X40782Y704682D01*
X40660Y704752D01*
X40539Y704824D01*
X40420Y704900D01*
X40304Y704980D01*
X40190Y705063D01*
X40078Y705148D01*
X39969Y705237D01*
X39862Y705329D01*
X39758Y705424D01*
X39657Y705522D01*
X39558Y705623D01*
X39463Y705726D01*
X39370Y705832D01*
X39280Y705941D01*
X39194Y706052D01*
X39110Y706165D01*
X39030Y706281D01*
X38953Y706399D01*
X38880Y706519D01*
X38809Y706642D01*
X38743Y706766D01*
X38680Y706892D01*
X38620Y707019D01*
X38564Y707148D01*
X38512Y707279D01*
X38463Y707411D01*
X38418Y707545D01*
X38377Y707680D01*
X38340Y707816D01*
X38306Y707952D01*
X38277Y708090D01*
X38251Y708229D01*
X38230Y708368D01*
X38212Y708508D01*
X38198Y708648D01*
X38188Y708788D01*
X38182Y708929D01*
X38180Y709070D01*
X38180Y665070D02*
X38182Y665211D01*
X38188Y665352D01*
X38198Y665492D01*
X38212Y665632D01*
X38230Y665772D01*
X38251Y665911D01*
X38277Y666050D01*
X38306Y666188D01*
X38340Y666324D01*
X38377Y666460D01*
X38418Y666595D01*
X38463Y666729D01*
X38512Y666861D01*
X38564Y666992D01*
X38620Y667121D01*
X38680Y667248D01*
X38743Y667374D01*
X38809Y667498D01*
X38880Y667621D01*
X38953Y667741D01*
X39030Y667859D01*
X39110Y667975D01*
X39194Y668088D01*
X39280Y668199D01*
X39370Y668308D01*
X39463Y668414D01*
X39558Y668517D01*
X39657Y668618D01*
X39758Y668716D01*
X39862Y668811D01*
X39969Y668903D01*
X40078Y668992D01*
X40190Y669077D01*
X40304Y669160D01*
X40420Y669240D01*
X40539Y669316D01*
X40660Y669388D01*
X40782Y669458D01*
X40907Y669523D01*
X41033Y669586D01*
X41161Y669644D01*
X41291Y669699D01*
X41422Y669751D01*
X41555Y669798D01*
X41689Y669842D01*
X41824Y669883D01*
X41960Y669919D01*
X42097Y669951D01*
X42235Y669980D01*
X42373Y670005D01*
X42513Y670025D01*
X42653Y670042D01*
X42793Y670055D01*
X42934Y670064D01*
X43074Y670069D01*
X43215Y670070D01*
X43356Y670067D01*
X43497Y670060D01*
X43637Y670049D01*
X43777Y670034D01*
X43917Y670015D01*
X44056Y669993D01*
X44194Y669966D01*
X44332Y669936D01*
X44468Y669901D01*
X44604Y669863D01*
X44738Y669821D01*
X44872Y669775D01*
X45004Y669726D01*
X45134Y669672D01*
X45263Y669615D01*
X45390Y669555D01*
X45516Y669491D01*
X45639Y669423D01*
X45761Y669352D01*
X45881Y669278D01*
X45998Y669200D01*
X46113Y669119D01*
X46226Y669035D01*
X46337Y668948D01*
X46445Y668857D01*
X46550Y668764D01*
X46653Y668667D01*
X46753Y668568D01*
X46850Y668466D01*
X46944Y668361D01*
X47035Y668254D01*
X47123Y668144D01*
X47208Y668032D01*
X47290Y667917D01*
X47369Y667800D01*
X47444Y667681D01*
X47516Y667560D01*
X47584Y667437D01*
X47649Y667312D01*
X47711Y667185D01*
X47768Y667056D01*
X47823Y666926D01*
X47873Y666795D01*
X47920Y666662D01*
X47963Y666528D01*
X48002Y666392D01*
X48037Y666256D01*
X48069Y666119D01*
X48096Y665981D01*
X48120Y665842D01*
X48140Y665702D01*
X48156Y665562D01*
X48168Y665422D01*
X48176Y665281D01*
X48180Y665140D01*
X48180Y665000D01*
X48176Y664859D01*
X48168Y664718D01*
X48156Y664578D01*
X48140Y664438D01*
X48120Y664298D01*
X48096Y664159D01*
X48069Y664021D01*
X48037Y663884D01*
X48002Y663748D01*
X47963Y663612D01*
X47920Y663478D01*
X47873Y663345D01*
X47823Y663214D01*
X47768Y663084D01*
X47711Y662955D01*
X47649Y662828D01*
X47584Y662703D01*
X47516Y662580D01*
X47444Y662459D01*
X47369Y662340D01*
X47290Y662223D01*
X47208Y662108D01*
X47123Y661996D01*
X47035Y661886D01*
X46944Y661779D01*
X46850Y661674D01*
X46753Y661572D01*
X46653Y661473D01*
X46550Y661376D01*
X46445Y661283D01*
X46337Y661192D01*
X46226Y661105D01*
X46113Y661021D01*
X45998Y660940D01*
X45881Y660862D01*
X45761Y660788D01*
X45639Y660717D01*
X45516Y660649D01*
X45390Y660585D01*
X45263Y660525D01*
X45134Y660468D01*
X45004Y660414D01*
X44872Y660365D01*
X44738Y660319D01*
X44604Y660277D01*
X44468Y660239D01*
X44332Y660204D01*
X44194Y660174D01*
X44056Y660147D01*
X43917Y660125D01*
X43777Y660106D01*
X43637Y660091D01*
X43497Y660080D01*
X43356Y660073D01*
X43215Y660070D01*
X43074Y660071D01*
X42934Y660076D01*
X42793Y660085D01*
X42653Y660098D01*
X42513Y660115D01*
X42373Y660135D01*
X42235Y660160D01*
X42097Y660189D01*
X41960Y660221D01*
X41824Y660257D01*
X41689Y660298D01*
X41555Y660342D01*
X41422Y660389D01*
X41291Y660441D01*
X41161Y660496D01*
X41033Y660554D01*
X40907Y660617D01*
X40782Y660682D01*
X40660Y660752D01*
X40539Y660824D01*
X40420Y660900D01*
X40304Y660980D01*
X40190Y661063D01*
X40078Y661148D01*
X39969Y661237D01*
X39862Y661329D01*
X39758Y661424D01*
X39657Y661522D01*
X39558Y661623D01*
X39463Y661726D01*
X39370Y661832D01*
X39280Y661941D01*
X39194Y662052D01*
X39110Y662165D01*
X39030Y662281D01*
X38953Y662399D01*
X38880Y662519D01*
X38809Y662642D01*
X38743Y662766D01*
X38680Y662892D01*
X38620Y663019D01*
X38564Y663148D01*
X38512Y663279D01*
X38463Y663411D01*
X38418Y663545D01*
X38377Y663680D01*
X38340Y663816D01*
X38306Y663952D01*
X38277Y664090D01*
X38251Y664229D01*
X38230Y664368D01*
X38212Y664508D01*
X38198Y664648D01*
X38188Y664788D01*
X38182Y664929D01*
X38180Y665070D01*
X1126840Y541500D02*
X1126843Y541733D01*
X1126851Y541966D01*
X1126866Y542199D01*
X1126886Y542431D01*
X1126911Y542663D01*
X1126943Y542894D01*
X1126980Y543124D01*
X1127023Y543353D01*
X1127071Y543581D01*
X1127125Y543808D01*
X1127184Y544034D01*
X1127249Y544258D01*
X1127319Y544480D01*
X1127395Y544700D01*
X1127477Y544919D01*
X1127563Y545135D01*
X1127655Y545350D01*
X1127752Y545562D01*
X1127854Y545771D01*
X1127962Y545978D01*
X1128074Y546183D01*
X1128192Y546384D01*
X1128314Y546582D01*
X1128441Y546778D01*
X1128573Y546970D01*
X1128710Y547159D01*
X1128851Y547345D01*
X1128996Y547527D01*
X1129147Y547705D01*
X1129301Y547880D01*
X1129460Y548051D01*
X1129622Y548218D01*
X1129789Y548380D01*
X1129960Y548539D01*
X1130135Y548693D01*
X1130313Y548844D01*
X1130495Y548989D01*
X1130681Y549130D01*
X1130870Y549267D01*
X1131062Y549399D01*
X1131258Y549526D01*
X1131456Y549648D01*
X1131657Y549766D01*
X1131862Y549878D01*
X1132069Y549986D01*
X1132278Y550088D01*
X1132490Y550185D01*
X1132705Y550277D01*
X1132921Y550363D01*
X1133140Y550445D01*
X1133360Y550521D01*
X1133582Y550591D01*
X1133806Y550656D01*
X1134032Y550715D01*
X1134259Y550769D01*
X1134487Y550817D01*
X1134716Y550860D01*
X1134946Y550897D01*
X1135177Y550929D01*
X1135409Y550954D01*
X1135641Y550974D01*
X1135874Y550989D01*
X1136107Y550997D01*
X1136340Y551000D01*
X1136573Y550997D01*
X1136806Y550989D01*
X1137039Y550974D01*
X1137271Y550954D01*
X1137503Y550929D01*
X1137734Y550897D01*
X1137964Y550860D01*
X1138193Y550817D01*
X1138421Y550769D01*
X1138648Y550715D01*
X1138874Y550656D01*
X1139098Y550591D01*
X1139320Y550521D01*
X1139540Y550445D01*
X1139759Y550363D01*
X1139975Y550277D01*
X1140190Y550185D01*
X1140402Y550088D01*
X1140611Y549986D01*
X1140818Y549878D01*
X1141023Y549766D01*
X1141224Y549648D01*
X1141422Y549526D01*
X1141618Y549399D01*
X1141810Y549267D01*
X1141999Y549130D01*
X1142185Y548989D01*
X1142367Y548844D01*
X1142545Y548693D01*
X1142720Y548539D01*
X1142891Y548380D01*
X1143058Y548218D01*
X1143220Y548051D01*
X1143379Y547880D01*
X1143533Y547705D01*
X1143684Y547527D01*
X1143829Y547345D01*
X1143970Y547159D01*
X1144107Y546970D01*
X1144239Y546778D01*
X1144366Y546582D01*
X1144488Y546384D01*
X1144606Y546183D01*
X1144718Y545978D01*
X1144826Y545771D01*
X1144928Y545562D01*
X1145025Y545350D01*
X1145117Y545135D01*
X1145203Y544919D01*
X1145285Y544700D01*
X1145361Y544480D01*
X1145431Y544258D01*
X1145496Y544034D01*
X1145555Y543808D01*
X1145609Y543581D01*
X1145657Y543353D01*
X1145700Y543124D01*
X1145737Y542894D01*
X1145769Y542663D01*
X1145794Y542431D01*
X1145814Y542199D01*
X1145829Y541966D01*
X1145837Y541733D01*
X1145840Y541500D01*
X1145837Y541267D01*
X1145829Y541034D01*
X1145814Y540801D01*
X1145794Y540569D01*
X1145769Y540337D01*
X1145737Y540106D01*
X1145700Y539876D01*
X1145657Y539647D01*
X1145609Y539419D01*
X1145555Y539192D01*
X1145496Y538966D01*
X1145431Y538742D01*
X1145361Y538520D01*
X1145285Y538300D01*
X1145203Y538081D01*
X1145117Y537865D01*
X1145025Y537650D01*
X1144928Y537438D01*
X1144826Y537229D01*
X1144718Y537022D01*
X1144606Y536817D01*
X1144488Y536616D01*
X1144366Y536418D01*
X1144239Y536222D01*
X1144107Y536030D01*
X1143970Y535841D01*
X1143829Y535655D01*
X1143684Y535473D01*
X1143533Y535295D01*
X1143379Y535120D01*
X1143220Y534949D01*
X1143058Y534782D01*
X1142891Y534620D01*
X1142720Y534461D01*
X1142545Y534307D01*
X1142367Y534156D01*
X1142185Y534011D01*
X1141999Y533870D01*
X1141810Y533733D01*
X1141618Y533601D01*
X1141422Y533474D01*
X1141224Y533352D01*
X1141023Y533234D01*
X1140818Y533122D01*
X1140611Y533014D01*
X1140402Y532912D01*
X1140190Y532815D01*
X1139975Y532723D01*
X1139759Y532637D01*
X1139540Y532555D01*
X1139320Y532479D01*
X1139098Y532409D01*
X1138874Y532344D01*
X1138648Y532285D01*
X1138421Y532231D01*
X1138193Y532183D01*
X1137964Y532140D01*
X1137734Y532103D01*
X1137503Y532071D01*
X1137271Y532046D01*
X1137039Y532026D01*
X1136806Y532011D01*
X1136573Y532003D01*
X1136340Y532000D01*
X1136107Y532003D01*
X1135874Y532011D01*
X1135641Y532026D01*
X1135409Y532046D01*
X1135177Y532071D01*
X1134946Y532103D01*
X1134716Y532140D01*
X1134487Y532183D01*
X1134259Y532231D01*
X1134032Y532285D01*
X1133806Y532344D01*
X1133582Y532409D01*
X1133360Y532479D01*
X1133140Y532555D01*
X1132921Y532637D01*
X1132705Y532723D01*
X1132490Y532815D01*
X1132278Y532912D01*
X1132069Y533014D01*
X1131862Y533122D01*
X1131657Y533234D01*
X1131456Y533352D01*
X1131258Y533474D01*
X1131062Y533601D01*
X1130870Y533733D01*
X1130681Y533870D01*
X1130495Y534011D01*
X1130313Y534156D01*
X1130135Y534307D01*
X1129960Y534461D01*
X1129789Y534620D01*
X1129622Y534782D01*
X1129460Y534949D01*
X1129301Y535120D01*
X1129147Y535295D01*
X1128996Y535473D01*
X1128851Y535655D01*
X1128710Y535841D01*
X1128573Y536030D01*
X1128441Y536222D01*
X1128314Y536418D01*
X1128192Y536616D01*
X1128074Y536817D01*
X1127962Y537022D01*
X1127854Y537229D01*
X1127752Y537438D01*
X1127655Y537650D01*
X1127563Y537865D01*
X1127477Y538081D01*
X1127395Y538300D01*
X1127319Y538520D01*
X1127249Y538742D01*
X1127184Y538966D01*
X1127125Y539192D01*
X1127071Y539419D01*
X1127023Y539647D01*
X1126980Y539876D01*
X1126943Y540106D01*
X1126911Y540337D01*
X1126886Y540569D01*
X1126866Y540801D01*
X1126851Y541034D01*
X1126843Y541267D01*
X1126840Y541500D01*
X1056840Y541500D02*
X1056843Y541733D01*
X1056851Y541966D01*
X1056866Y542199D01*
X1056886Y542431D01*
X1056911Y542663D01*
X1056943Y542894D01*
X1056980Y543124D01*
X1057023Y543353D01*
X1057071Y543581D01*
X1057125Y543808D01*
X1057184Y544034D01*
X1057249Y544258D01*
X1057319Y544480D01*
X1057395Y544700D01*
X1057477Y544919D01*
X1057563Y545135D01*
X1057655Y545350D01*
X1057752Y545562D01*
X1057854Y545771D01*
X1057962Y545978D01*
X1058074Y546183D01*
X1058192Y546384D01*
X1058314Y546582D01*
X1058441Y546778D01*
X1058573Y546970D01*
X1058710Y547159D01*
X1058851Y547345D01*
X1058996Y547527D01*
X1059147Y547705D01*
X1059301Y547880D01*
X1059460Y548051D01*
X1059622Y548218D01*
X1059789Y548380D01*
X1059960Y548539D01*
X1060135Y548693D01*
X1060313Y548844D01*
X1060495Y548989D01*
X1060681Y549130D01*
X1060870Y549267D01*
X1061062Y549399D01*
X1061258Y549526D01*
X1061456Y549648D01*
X1061657Y549766D01*
X1061862Y549878D01*
X1062069Y549986D01*
X1062278Y550088D01*
X1062490Y550185D01*
X1062705Y550277D01*
X1062921Y550363D01*
X1063140Y550445D01*
X1063360Y550521D01*
X1063582Y550591D01*
X1063806Y550656D01*
X1064032Y550715D01*
X1064259Y550769D01*
X1064487Y550817D01*
X1064716Y550860D01*
X1064946Y550897D01*
X1065177Y550929D01*
X1065409Y550954D01*
X1065641Y550974D01*
X1065874Y550989D01*
X1066107Y550997D01*
X1066340Y551000D01*
X1066573Y550997D01*
X1066806Y550989D01*
X1067039Y550974D01*
X1067271Y550954D01*
X1067503Y550929D01*
X1067734Y550897D01*
X1067964Y550860D01*
X1068193Y550817D01*
X1068421Y550769D01*
X1068648Y550715D01*
X1068874Y550656D01*
X1069098Y550591D01*
X1069320Y550521D01*
X1069540Y550445D01*
X1069759Y550363D01*
X1069975Y550277D01*
X1070190Y550185D01*
X1070402Y550088D01*
X1070611Y549986D01*
X1070818Y549878D01*
X1071023Y549766D01*
X1071224Y549648D01*
X1071422Y549526D01*
X1071618Y549399D01*
X1071810Y549267D01*
X1071999Y549130D01*
X1072185Y548989D01*
X1072367Y548844D01*
X1072545Y548693D01*
X1072720Y548539D01*
X1072891Y548380D01*
X1073058Y548218D01*
X1073220Y548051D01*
X1073379Y547880D01*
X1073533Y547705D01*
X1073684Y547527D01*
X1073829Y547345D01*
X1073970Y547159D01*
X1074107Y546970D01*
X1074239Y546778D01*
X1074366Y546582D01*
X1074488Y546384D01*
X1074606Y546183D01*
X1074718Y545978D01*
X1074826Y545771D01*
X1074928Y545562D01*
X1075025Y545350D01*
X1075117Y545135D01*
X1075203Y544919D01*
X1075285Y544700D01*
X1075361Y544480D01*
X1075431Y544258D01*
X1075496Y544034D01*
X1075555Y543808D01*
X1075609Y543581D01*
X1075657Y543353D01*
X1075700Y543124D01*
X1075737Y542894D01*
X1075769Y542663D01*
X1075794Y542431D01*
X1075814Y542199D01*
X1075829Y541966D01*
X1075837Y541733D01*
X1075840Y541500D01*
X1075837Y541267D01*
X1075829Y541034D01*
X1075814Y540801D01*
X1075794Y540569D01*
X1075769Y540337D01*
X1075737Y540106D01*
X1075700Y539876D01*
X1075657Y539647D01*
X1075609Y539419D01*
X1075555Y539192D01*
X1075496Y538966D01*
X1075431Y538742D01*
X1075361Y538520D01*
X1075285Y538300D01*
X1075203Y538081D01*
X1075117Y537865D01*
X1075025Y537650D01*
X1074928Y537438D01*
X1074826Y537229D01*
X1074718Y537022D01*
X1074606Y536817D01*
X1074488Y536616D01*
X1074366Y536418D01*
X1074239Y536222D01*
X1074107Y536030D01*
X1073970Y535841D01*
X1073829Y535655D01*
X1073684Y535473D01*
X1073533Y535295D01*
X1073379Y535120D01*
X1073220Y534949D01*
X1073058Y534782D01*
X1072891Y534620D01*
X1072720Y534461D01*
X1072545Y534307D01*
X1072367Y534156D01*
X1072185Y534011D01*
X1071999Y533870D01*
X1071810Y533733D01*
X1071618Y533601D01*
X1071422Y533474D01*
X1071224Y533352D01*
X1071023Y533234D01*
X1070818Y533122D01*
X1070611Y533014D01*
X1070402Y532912D01*
X1070190Y532815D01*
X1069975Y532723D01*
X1069759Y532637D01*
X1069540Y532555D01*
X1069320Y532479D01*
X1069098Y532409D01*
X1068874Y532344D01*
X1068648Y532285D01*
X1068421Y532231D01*
X1068193Y532183D01*
X1067964Y532140D01*
X1067734Y532103D01*
X1067503Y532071D01*
X1067271Y532046D01*
X1067039Y532026D01*
X1066806Y532011D01*
X1066573Y532003D01*
X1066340Y532000D01*
X1066107Y532003D01*
X1065874Y532011D01*
X1065641Y532026D01*
X1065409Y532046D01*
X1065177Y532071D01*
X1064946Y532103D01*
X1064716Y532140D01*
X1064487Y532183D01*
X1064259Y532231D01*
X1064032Y532285D01*
X1063806Y532344D01*
X1063582Y532409D01*
X1063360Y532479D01*
X1063140Y532555D01*
X1062921Y532637D01*
X1062705Y532723D01*
X1062490Y532815D01*
X1062278Y532912D01*
X1062069Y533014D01*
X1061862Y533122D01*
X1061657Y533234D01*
X1061456Y533352D01*
X1061258Y533474D01*
X1061062Y533601D01*
X1060870Y533733D01*
X1060681Y533870D01*
X1060495Y534011D01*
X1060313Y534156D01*
X1060135Y534307D01*
X1059960Y534461D01*
X1059789Y534620D01*
X1059622Y534782D01*
X1059460Y534949D01*
X1059301Y535120D01*
X1059147Y535295D01*
X1058996Y535473D01*
X1058851Y535655D01*
X1058710Y535841D01*
X1058573Y536030D01*
X1058441Y536222D01*
X1058314Y536418D01*
X1058192Y536616D01*
X1058074Y536817D01*
X1057962Y537022D01*
X1057854Y537229D01*
X1057752Y537438D01*
X1057655Y537650D01*
X1057563Y537865D01*
X1057477Y538081D01*
X1057395Y538300D01*
X1057319Y538520D01*
X1057249Y538742D01*
X1057184Y538966D01*
X1057125Y539192D01*
X1057071Y539419D01*
X1057023Y539647D01*
X1056980Y539876D01*
X1056943Y540106D01*
X1056911Y540337D01*
X1056886Y540569D01*
X1056866Y540801D01*
X1056851Y541034D01*
X1056843Y541267D01*
X1056840Y541500D01*
X1126840Y434820D02*
X1126843Y435053D01*
X1126851Y435286D01*
X1126866Y435519D01*
X1126886Y435751D01*
X1126911Y435983D01*
X1126943Y436214D01*
X1126980Y436444D01*
X1127023Y436673D01*
X1127071Y436901D01*
X1127125Y437128D01*
X1127184Y437354D01*
X1127249Y437578D01*
X1127319Y437800D01*
X1127395Y438020D01*
X1127477Y438239D01*
X1127563Y438455D01*
X1127655Y438670D01*
X1127752Y438882D01*
X1127854Y439091D01*
X1127962Y439298D01*
X1128074Y439503D01*
X1128192Y439704D01*
X1128314Y439902D01*
X1128441Y440098D01*
X1128573Y440290D01*
X1128710Y440479D01*
X1128851Y440665D01*
X1128996Y440847D01*
X1129147Y441025D01*
X1129301Y441200D01*
X1129460Y441371D01*
X1129622Y441538D01*
X1129789Y441700D01*
X1129960Y441859D01*
X1130135Y442013D01*
X1130313Y442164D01*
X1130495Y442309D01*
X1130681Y442450D01*
X1130870Y442587D01*
X1131062Y442719D01*
X1131258Y442846D01*
X1131456Y442968D01*
X1131657Y443086D01*
X1131862Y443198D01*
X1132069Y443306D01*
X1132278Y443408D01*
X1132490Y443505D01*
X1132705Y443597D01*
X1132921Y443683D01*
X1133140Y443765D01*
X1133360Y443841D01*
X1133582Y443911D01*
X1133806Y443976D01*
X1134032Y444035D01*
X1134259Y444089D01*
X1134487Y444137D01*
X1134716Y444180D01*
X1134946Y444217D01*
X1135177Y444249D01*
X1135409Y444274D01*
X1135641Y444294D01*
X1135874Y444309D01*
X1136107Y444317D01*
X1136340Y444320D01*
X1136573Y444317D01*
X1136806Y444309D01*
X1137039Y444294D01*
X1137271Y444274D01*
X1137503Y444249D01*
X1137734Y444217D01*
X1137964Y444180D01*
X1138193Y444137D01*
X1138421Y444089D01*
X1138648Y444035D01*
X1138874Y443976D01*
X1139098Y443911D01*
X1139320Y443841D01*
X1139540Y443765D01*
X1139759Y443683D01*
X1139975Y443597D01*
X1140190Y443505D01*
X1140402Y443408D01*
X1140611Y443306D01*
X1140818Y443198D01*
X1141023Y443086D01*
X1141224Y442968D01*
X1141422Y442846D01*
X1141618Y442719D01*
X1141810Y442587D01*
X1141999Y442450D01*
X1142185Y442309D01*
X1142367Y442164D01*
X1142545Y442013D01*
X1142720Y441859D01*
X1142891Y441700D01*
X1143058Y441538D01*
X1143220Y441371D01*
X1143379Y441200D01*
X1143533Y441025D01*
X1143684Y440847D01*
X1143829Y440665D01*
X1143970Y440479D01*
X1144107Y440290D01*
X1144239Y440098D01*
X1144366Y439902D01*
X1144488Y439704D01*
X1144606Y439503D01*
X1144718Y439298D01*
X1144826Y439091D01*
X1144928Y438882D01*
X1145025Y438670D01*
X1145117Y438455D01*
X1145203Y438239D01*
X1145285Y438020D01*
X1145361Y437800D01*
X1145431Y437578D01*
X1145496Y437354D01*
X1145555Y437128D01*
X1145609Y436901D01*
X1145657Y436673D01*
X1145700Y436444D01*
X1145737Y436214D01*
X1145769Y435983D01*
X1145794Y435751D01*
X1145814Y435519D01*
X1145829Y435286D01*
X1145837Y435053D01*
X1145840Y434820D01*
X1145837Y434587D01*
X1145829Y434354D01*
X1145814Y434121D01*
X1145794Y433889D01*
X1145769Y433657D01*
X1145737Y433426D01*
X1145700Y433196D01*
X1145657Y432967D01*
X1145609Y432739D01*
X1145555Y432512D01*
X1145496Y432286D01*
X1145431Y432062D01*
X1145361Y431840D01*
X1145285Y431620D01*
X1145203Y431401D01*
X1145117Y431185D01*
X1145025Y430970D01*
X1144928Y430758D01*
X1144826Y430549D01*
X1144718Y430342D01*
X1144606Y430137D01*
X1144488Y429936D01*
X1144366Y429738D01*
X1144239Y429542D01*
X1144107Y429350D01*
X1143970Y429161D01*
X1143829Y428975D01*
X1143684Y428793D01*
X1143533Y428615D01*
X1143379Y428440D01*
X1143220Y428269D01*
X1143058Y428102D01*
X1142891Y427940D01*
X1142720Y427781D01*
X1142545Y427627D01*
X1142367Y427476D01*
X1142185Y427331D01*
X1141999Y427190D01*
X1141810Y427053D01*
X1141618Y426921D01*
X1141422Y426794D01*
X1141224Y426672D01*
X1141023Y426554D01*
X1140818Y426442D01*
X1140611Y426334D01*
X1140402Y426232D01*
X1140190Y426135D01*
X1139975Y426043D01*
X1139759Y425957D01*
X1139540Y425875D01*
X1139320Y425799D01*
X1139098Y425729D01*
X1138874Y425664D01*
X1138648Y425605D01*
X1138421Y425551D01*
X1138193Y425503D01*
X1137964Y425460D01*
X1137734Y425423D01*
X1137503Y425391D01*
X1137271Y425366D01*
X1137039Y425346D01*
X1136806Y425331D01*
X1136573Y425323D01*
X1136340Y425320D01*
X1136107Y425323D01*
X1135874Y425331D01*
X1135641Y425346D01*
X1135409Y425366D01*
X1135177Y425391D01*
X1134946Y425423D01*
X1134716Y425460D01*
X1134487Y425503D01*
X1134259Y425551D01*
X1134032Y425605D01*
X1133806Y425664D01*
X1133582Y425729D01*
X1133360Y425799D01*
X1133140Y425875D01*
X1132921Y425957D01*
X1132705Y426043D01*
X1132490Y426135D01*
X1132278Y426232D01*
X1132069Y426334D01*
X1131862Y426442D01*
X1131657Y426554D01*
X1131456Y426672D01*
X1131258Y426794D01*
X1131062Y426921D01*
X1130870Y427053D01*
X1130681Y427190D01*
X1130495Y427331D01*
X1130313Y427476D01*
X1130135Y427627D01*
X1129960Y427781D01*
X1129789Y427940D01*
X1129622Y428102D01*
X1129460Y428269D01*
X1129301Y428440D01*
X1129147Y428615D01*
X1128996Y428793D01*
X1128851Y428975D01*
X1128710Y429161D01*
X1128573Y429350D01*
X1128441Y429542D01*
X1128314Y429738D01*
X1128192Y429936D01*
X1128074Y430137D01*
X1127962Y430342D01*
X1127854Y430549D01*
X1127752Y430758D01*
X1127655Y430970D01*
X1127563Y431185D01*
X1127477Y431401D01*
X1127395Y431620D01*
X1127319Y431840D01*
X1127249Y432062D01*
X1127184Y432286D01*
X1127125Y432512D01*
X1127071Y432739D01*
X1127023Y432967D01*
X1126980Y433196D01*
X1126943Y433426D01*
X1126911Y433657D01*
X1126886Y433889D01*
X1126866Y434121D01*
X1126851Y434354D01*
X1126843Y434587D01*
X1126840Y434820D01*
X1056840Y434820D02*
X1056843Y435053D01*
X1056851Y435286D01*
X1056866Y435519D01*
X1056886Y435751D01*
X1056911Y435983D01*
X1056943Y436214D01*
X1056980Y436444D01*
X1057023Y436673D01*
X1057071Y436901D01*
X1057125Y437128D01*
X1057184Y437354D01*
X1057249Y437578D01*
X1057319Y437800D01*
X1057395Y438020D01*
X1057477Y438239D01*
X1057563Y438455D01*
X1057655Y438670D01*
X1057752Y438882D01*
X1057854Y439091D01*
X1057962Y439298D01*
X1058074Y439503D01*
X1058192Y439704D01*
X1058314Y439902D01*
X1058441Y440098D01*
X1058573Y440290D01*
X1058710Y440479D01*
X1058851Y440665D01*
X1058996Y440847D01*
X1059147Y441025D01*
X1059301Y441200D01*
X1059460Y441371D01*
X1059622Y441538D01*
X1059789Y441700D01*
X1059960Y441859D01*
X1060135Y442013D01*
X1060313Y442164D01*
X1060495Y442309D01*
X1060681Y442450D01*
X1060870Y442587D01*
X1061062Y442719D01*
X1061258Y442846D01*
X1061456Y442968D01*
X1061657Y443086D01*
X1061862Y443198D01*
X1062069Y443306D01*
X1062278Y443408D01*
X1062490Y443505D01*
X1062705Y443597D01*
X1062921Y443683D01*
X1063140Y443765D01*
X1063360Y443841D01*
X1063582Y443911D01*
X1063806Y443976D01*
X1064032Y444035D01*
X1064259Y444089D01*
X1064487Y444137D01*
X1064716Y444180D01*
X1064946Y444217D01*
X1065177Y444249D01*
X1065409Y444274D01*
X1065641Y444294D01*
X1065874Y444309D01*
X1066107Y444317D01*
X1066340Y444320D01*
X1066573Y444317D01*
X1066806Y444309D01*
X1067039Y444294D01*
X1067271Y444274D01*
X1067503Y444249D01*
X1067734Y444217D01*
X1067964Y444180D01*
X1068193Y444137D01*
X1068421Y444089D01*
X1068648Y444035D01*
X1068874Y443976D01*
X1069098Y443911D01*
X1069320Y443841D01*
X1069540Y443765D01*
X1069759Y443683D01*
X1069975Y443597D01*
X1070190Y443505D01*
X1070402Y443408D01*
X1070611Y443306D01*
X1070818Y443198D01*
X1071023Y443086D01*
X1071224Y442968D01*
X1071422Y442846D01*
X1071618Y442719D01*
X1071810Y442587D01*
X1071999Y442450D01*
X1072185Y442309D01*
X1072367Y442164D01*
X1072545Y442013D01*
X1072720Y441859D01*
X1072891Y441700D01*
X1073058Y441538D01*
X1073220Y441371D01*
X1073379Y441200D01*
X1073533Y441025D01*
X1073684Y440847D01*
X1073829Y440665D01*
X1073970Y440479D01*
X1074107Y440290D01*
X1074239Y440098D01*
X1074366Y439902D01*
X1074488Y439704D01*
X1074606Y439503D01*
X1074718Y439298D01*
X1074826Y439091D01*
X1074928Y438882D01*
X1075025Y438670D01*
X1075117Y438455D01*
X1075203Y438239D01*
X1075285Y438020D01*
X1075361Y437800D01*
X1075431Y437578D01*
X1075496Y437354D01*
X1075555Y437128D01*
X1075609Y436901D01*
X1075657Y436673D01*
X1075700Y436444D01*
X1075737Y436214D01*
X1075769Y435983D01*
X1075794Y435751D01*
X1075814Y435519D01*
X1075829Y435286D01*
X1075837Y435053D01*
X1075840Y434820D01*
X1075837Y434587D01*
X1075829Y434354D01*
X1075814Y434121D01*
X1075794Y433889D01*
X1075769Y433657D01*
X1075737Y433426D01*
X1075700Y433196D01*
X1075657Y432967D01*
X1075609Y432739D01*
X1075555Y432512D01*
X1075496Y432286D01*
X1075431Y432062D01*
X1075361Y431840D01*
X1075285Y431620D01*
X1075203Y431401D01*
X1075117Y431185D01*
X1075025Y430970D01*
X1074928Y430758D01*
X1074826Y430549D01*
X1074718Y430342D01*
X1074606Y430137D01*
X1074488Y429936D01*
X1074366Y429738D01*
X1074239Y429542D01*
X1074107Y429350D01*
X1073970Y429161D01*
X1073829Y428975D01*
X1073684Y428793D01*
X1073533Y428615D01*
X1073379Y428440D01*
X1073220Y428269D01*
X1073058Y428102D01*
X1072891Y427940D01*
X1072720Y427781D01*
X1072545Y427627D01*
X1072367Y427476D01*
X1072185Y427331D01*
X1071999Y427190D01*
X1071810Y427053D01*
X1071618Y426921D01*
X1071422Y426794D01*
X1071224Y426672D01*
X1071023Y426554D01*
X1070818Y426442D01*
X1070611Y426334D01*
X1070402Y426232D01*
X1070190Y426135D01*
X1069975Y426043D01*
X1069759Y425957D01*
X1069540Y425875D01*
X1069320Y425799D01*
X1069098Y425729D01*
X1068874Y425664D01*
X1068648Y425605D01*
X1068421Y425551D01*
X1068193Y425503D01*
X1067964Y425460D01*
X1067734Y425423D01*
X1067503Y425391D01*
X1067271Y425366D01*
X1067039Y425346D01*
X1066806Y425331D01*
X1066573Y425323D01*
X1066340Y425320D01*
X1066107Y425323D01*
X1065874Y425331D01*
X1065641Y425346D01*
X1065409Y425366D01*
X1065177Y425391D01*
X1064946Y425423D01*
X1064716Y425460D01*
X1064487Y425503D01*
X1064259Y425551D01*
X1064032Y425605D01*
X1063806Y425664D01*
X1063582Y425729D01*
X1063360Y425799D01*
X1063140Y425875D01*
X1062921Y425957D01*
X1062705Y426043D01*
X1062490Y426135D01*
X1062278Y426232D01*
X1062069Y426334D01*
X1061862Y426442D01*
X1061657Y426554D01*
X1061456Y426672D01*
X1061258Y426794D01*
X1061062Y426921D01*
X1060870Y427053D01*
X1060681Y427190D01*
X1060495Y427331D01*
X1060313Y427476D01*
X1060135Y427627D01*
X1059960Y427781D01*
X1059789Y427940D01*
X1059622Y428102D01*
X1059460Y428269D01*
X1059301Y428440D01*
X1059147Y428615D01*
X1058996Y428793D01*
X1058851Y428975D01*
X1058710Y429161D01*
X1058573Y429350D01*
X1058441Y429542D01*
X1058314Y429738D01*
X1058192Y429936D01*
X1058074Y430137D01*
X1057962Y430342D01*
X1057854Y430549D01*
X1057752Y430758D01*
X1057655Y430970D01*
X1057563Y431185D01*
X1057477Y431401D01*
X1057395Y431620D01*
X1057319Y431840D01*
X1057249Y432062D01*
X1057184Y432286D01*
X1057125Y432512D01*
X1057071Y432739D01*
X1057023Y432967D01*
X1056980Y433196D01*
X1056943Y433426D01*
X1056911Y433657D01*
X1056886Y433889D01*
X1056866Y434121D01*
X1056851Y434354D01*
X1056843Y434587D01*
X1056840Y434820D01*
D11*
X1193800Y1193800D02*
X0Y1193800D01*
X0Y0D01*
X1193800Y0D01*
X1193800Y1193800D01*
D10*
X1135050Y632592D02*
X1135052Y632733D01*
X1135058Y632874D01*
X1135068Y633014D01*
X1135082Y633154D01*
X1135100Y633294D01*
X1135121Y633433D01*
X1135147Y633572D01*
X1135176Y633710D01*
X1135210Y633846D01*
X1135247Y633982D01*
X1135288Y634117D01*
X1135333Y634251D01*
X1135382Y634383D01*
X1135434Y634514D01*
X1135490Y634643D01*
X1135550Y634770D01*
X1135613Y634896D01*
X1135679Y635020D01*
X1135750Y635143D01*
X1135823Y635263D01*
X1135900Y635381D01*
X1135980Y635497D01*
X1136064Y635610D01*
X1136150Y635721D01*
X1136240Y635830D01*
X1136333Y635936D01*
X1136428Y636039D01*
X1136527Y636140D01*
X1136628Y636238D01*
X1136732Y636333D01*
X1136839Y636425D01*
X1136948Y636514D01*
X1137060Y636599D01*
X1137174Y636682D01*
X1137290Y636762D01*
X1137409Y636838D01*
X1137530Y636910D01*
X1137652Y636980D01*
X1137777Y637045D01*
X1137903Y637108D01*
X1138031Y637166D01*
X1138161Y637221D01*
X1138292Y637273D01*
X1138425Y637320D01*
X1138559Y637364D01*
X1138694Y637405D01*
X1138830Y637441D01*
X1138967Y637473D01*
X1139105Y637502D01*
X1139243Y637527D01*
X1139383Y637547D01*
X1139523Y637564D01*
X1139663Y637577D01*
X1139804Y637586D01*
X1139944Y637591D01*
X1140085Y637592D01*
X1140226Y637589D01*
X1140367Y637582D01*
X1140507Y637571D01*
X1140647Y637556D01*
X1140787Y637537D01*
X1140926Y637515D01*
X1141064Y637488D01*
X1141202Y637458D01*
X1141338Y637423D01*
X1141474Y637385D01*
X1141608Y637343D01*
X1141742Y637297D01*
X1141874Y637248D01*
X1142004Y637194D01*
X1142133Y637137D01*
X1142260Y637077D01*
X1142386Y637013D01*
X1142509Y636945D01*
X1142631Y636874D01*
X1142751Y636800D01*
X1142868Y636722D01*
X1142983Y636641D01*
X1143096Y636557D01*
X1143207Y636470D01*
X1143315Y636379D01*
X1143420Y636286D01*
X1143523Y636189D01*
X1143623Y636090D01*
X1143720Y635988D01*
X1143814Y635883D01*
X1143905Y635776D01*
X1143993Y635666D01*
X1144078Y635554D01*
X1144160Y635439D01*
X1144239Y635322D01*
X1144314Y635203D01*
X1144386Y635082D01*
X1144454Y634959D01*
X1144519Y634834D01*
X1144581Y634707D01*
X1144638Y634578D01*
X1144693Y634448D01*
X1144743Y634317D01*
X1144790Y634184D01*
X1144833Y634050D01*
X1144872Y633914D01*
X1144907Y633778D01*
X1144939Y633641D01*
X1144966Y633503D01*
X1144990Y633364D01*
X1145010Y633224D01*
X1145026Y633084D01*
X1145038Y632944D01*
X1145046Y632803D01*
X1145050Y632662D01*
X1145050Y632522D01*
X1145046Y632381D01*
X1145038Y632240D01*
X1145026Y632100D01*
X1145010Y631960D01*
X1144990Y631820D01*
X1144966Y631681D01*
X1144939Y631543D01*
X1144907Y631406D01*
X1144872Y631270D01*
X1144833Y631134D01*
X1144790Y631000D01*
X1144743Y630867D01*
X1144693Y630736D01*
X1144638Y630606D01*
X1144581Y630477D01*
X1144519Y630350D01*
X1144454Y630225D01*
X1144386Y630102D01*
X1144314Y629981D01*
X1144239Y629862D01*
X1144160Y629745D01*
X1144078Y629630D01*
X1143993Y629518D01*
X1143905Y629408D01*
X1143814Y629301D01*
X1143720Y629196D01*
X1143623Y629094D01*
X1143523Y628995D01*
X1143420Y628898D01*
X1143315Y628805D01*
X1143207Y628714D01*
X1143096Y628627D01*
X1142983Y628543D01*
X1142868Y628462D01*
X1142751Y628384D01*
X1142631Y628310D01*
X1142509Y628239D01*
X1142386Y628171D01*
X1142260Y628107D01*
X1142133Y628047D01*
X1142004Y627990D01*
X1141874Y627936D01*
X1141742Y627887D01*
X1141608Y627841D01*
X1141474Y627799D01*
X1141338Y627761D01*
X1141202Y627726D01*
X1141064Y627696D01*
X1140926Y627669D01*
X1140787Y627647D01*
X1140647Y627628D01*
X1140507Y627613D01*
X1140367Y627602D01*
X1140226Y627595D01*
X1140085Y627592D01*
X1139944Y627593D01*
X1139804Y627598D01*
X1139663Y627607D01*
X1139523Y627620D01*
X1139383Y627637D01*
X1139243Y627657D01*
X1139105Y627682D01*
X1138967Y627711D01*
X1138830Y627743D01*
X1138694Y627779D01*
X1138559Y627820D01*
X1138425Y627864D01*
X1138292Y627911D01*
X1138161Y627963D01*
X1138031Y628018D01*
X1137903Y628076D01*
X1137777Y628139D01*
X1137652Y628204D01*
X1137530Y628274D01*
X1137409Y628346D01*
X1137290Y628422D01*
X1137174Y628502D01*
X1137060Y628585D01*
X1136948Y628670D01*
X1136839Y628759D01*
X1136732Y628851D01*
X1136628Y628946D01*
X1136527Y629044D01*
X1136428Y629145D01*
X1136333Y629248D01*
X1136240Y629354D01*
X1136150Y629463D01*
X1136064Y629574D01*
X1135980Y629687D01*
X1135900Y629803D01*
X1135823Y629921D01*
X1135750Y630041D01*
X1135679Y630164D01*
X1135613Y630288D01*
X1135550Y630414D01*
X1135490Y630541D01*
X1135434Y630670D01*
X1135382Y630801D01*
X1135333Y630933D01*
X1135288Y631067D01*
X1135247Y631202D01*
X1135210Y631338D01*
X1135176Y631474D01*
X1135147Y631612D01*
X1135121Y631751D01*
X1135100Y631890D01*
X1135082Y632030D01*
X1135068Y632170D01*
X1135058Y632310D01*
X1135052Y632451D01*
X1135050Y632592D01*
X1135050Y712592D02*
X1135052Y712733D01*
X1135058Y712874D01*
X1135068Y713014D01*
X1135082Y713154D01*
X1135100Y713294D01*
X1135121Y713433D01*
X1135147Y713572D01*
X1135176Y713710D01*
X1135210Y713846D01*
X1135247Y713982D01*
X1135288Y714117D01*
X1135333Y714251D01*
X1135382Y714383D01*
X1135434Y714514D01*
X1135490Y714643D01*
X1135550Y714770D01*
X1135613Y714896D01*
X1135679Y715020D01*
X1135750Y715143D01*
X1135823Y715263D01*
X1135900Y715381D01*
X1135980Y715497D01*
X1136064Y715610D01*
X1136150Y715721D01*
X1136240Y715830D01*
X1136333Y715936D01*
X1136428Y716039D01*
X1136527Y716140D01*
X1136628Y716238D01*
X1136732Y716333D01*
X1136839Y716425D01*
X1136948Y716514D01*
X1137060Y716599D01*
X1137174Y716682D01*
X1137290Y716762D01*
X1137409Y716838D01*
X1137530Y716910D01*
X1137652Y716980D01*
X1137777Y717045D01*
X1137903Y717108D01*
X1138031Y717166D01*
X1138161Y717221D01*
X1138292Y717273D01*
X1138425Y717320D01*
X1138559Y717364D01*
X1138694Y717405D01*
X1138830Y717441D01*
X1138967Y717473D01*
X1139105Y717502D01*
X1139243Y717527D01*
X1139383Y717547D01*
X1139523Y717564D01*
X1139663Y717577D01*
X1139804Y717586D01*
X1139944Y717591D01*
X1140085Y717592D01*
X1140226Y717589D01*
X1140367Y717582D01*
X1140507Y717571D01*
X1140647Y717556D01*
X1140787Y717537D01*
X1140926Y717515D01*
X1141064Y717488D01*
X1141202Y717458D01*
X1141338Y717423D01*
X1141474Y717385D01*
X1141608Y717343D01*
X1141742Y717297D01*
X1141874Y717248D01*
X1142004Y717194D01*
X1142133Y717137D01*
X1142260Y717077D01*
X1142386Y717013D01*
X1142509Y716945D01*
X1142631Y716874D01*
X1142751Y716800D01*
X1142868Y716722D01*
X1142983Y716641D01*
X1143096Y716557D01*
X1143207Y716470D01*
X1143315Y716379D01*
X1143420Y716286D01*
X1143523Y716189D01*
X1143623Y716090D01*
X1143720Y715988D01*
X1143814Y715883D01*
X1143905Y715776D01*
X1143993Y715666D01*
X1144078Y715554D01*
X1144160Y715439D01*
X1144239Y715322D01*
X1144314Y715203D01*
X1144386Y715082D01*
X1144454Y714959D01*
X1144519Y714834D01*
X1144581Y714707D01*
X1144638Y714578D01*
X1144693Y714448D01*
X1144743Y714317D01*
X1144790Y714184D01*
X1144833Y714050D01*
X1144872Y713914D01*
X1144907Y713778D01*
X1144939Y713641D01*
X1144966Y713503D01*
X1144990Y713364D01*
X1145010Y713224D01*
X1145026Y713084D01*
X1145038Y712944D01*
X1145046Y712803D01*
X1145050Y712662D01*
X1145050Y712522D01*
X1145046Y712381D01*
X1145038Y712240D01*
X1145026Y712100D01*
X1145010Y711960D01*
X1144990Y711820D01*
X1144966Y711681D01*
X1144939Y711543D01*
X1144907Y711406D01*
X1144872Y711270D01*
X1144833Y711134D01*
X1144790Y711000D01*
X1144743Y710867D01*
X1144693Y710736D01*
X1144638Y710606D01*
X1144581Y710477D01*
X1144519Y710350D01*
X1144454Y710225D01*
X1144386Y710102D01*
X1144314Y709981D01*
X1144239Y709862D01*
X1144160Y709745D01*
X1144078Y709630D01*
X1143993Y709518D01*
X1143905Y709408D01*
X1143814Y709301D01*
X1143720Y709196D01*
X1143623Y709094D01*
X1143523Y708995D01*
X1143420Y708898D01*
X1143315Y708805D01*
X1143207Y708714D01*
X1143096Y708627D01*
X1142983Y708543D01*
X1142868Y708462D01*
X1142751Y708384D01*
X1142631Y708310D01*
X1142509Y708239D01*
X1142386Y708171D01*
X1142260Y708107D01*
X1142133Y708047D01*
X1142004Y707990D01*
X1141874Y707936D01*
X1141742Y707887D01*
X1141608Y707841D01*
X1141474Y707799D01*
X1141338Y707761D01*
X1141202Y707726D01*
X1141064Y707696D01*
X1140926Y707669D01*
X1140787Y707647D01*
X1140647Y707628D01*
X1140507Y707613D01*
X1140367Y707602D01*
X1140226Y707595D01*
X1140085Y707592D01*
X1139944Y707593D01*
X1139804Y707598D01*
X1139663Y707607D01*
X1139523Y707620D01*
X1139383Y707637D01*
X1139243Y707657D01*
X1139105Y707682D01*
X1138967Y707711D01*
X1138830Y707743D01*
X1138694Y707779D01*
X1138559Y707820D01*
X1138425Y707864D01*
X1138292Y707911D01*
X1138161Y707963D01*
X1138031Y708018D01*
X1137903Y708076D01*
X1137777Y708139D01*
X1137652Y708204D01*
X1137530Y708274D01*
X1137409Y708346D01*
X1137290Y708422D01*
X1137174Y708502D01*
X1137060Y708585D01*
X1136948Y708670D01*
X1136839Y708759D01*
X1136732Y708851D01*
X1136628Y708946D01*
X1136527Y709044D01*
X1136428Y709145D01*
X1136333Y709248D01*
X1136240Y709354D01*
X1136150Y709463D01*
X1136064Y709574D01*
X1135980Y709687D01*
X1135900Y709803D01*
X1135823Y709921D01*
X1135750Y710041D01*
X1135679Y710164D01*
X1135613Y710288D01*
X1135550Y710414D01*
X1135490Y710541D01*
X1135434Y710670D01*
X1135382Y710801D01*
X1135333Y710933D01*
X1135288Y711067D01*
X1135247Y711202D01*
X1135210Y711338D01*
X1135176Y711474D01*
X1135147Y711612D01*
X1135121Y711751D01*
X1135100Y711890D01*
X1135082Y712030D01*
X1135068Y712170D01*
X1135058Y712310D01*
X1135052Y712451D01*
X1135050Y712592D01*
D12*
X0Y0D02*
X1193800Y0D01*
X1193800Y1193800D01*
X0Y1193800D01*
X0Y0D01*
X48180Y708789D02*
X48117Y708231D01*
X47992Y707684D01*
X47807Y707154D01*
X47563Y706648D01*
X47264Y706172D01*
X46914Y705733D01*
X46517Y705336D01*
X46078Y704986D01*
X45602Y704687D01*
X45096Y704443D01*
X44566Y704258D01*
X44019Y704133D01*
X43461Y704070D01*
X42899Y704070D01*
X42341Y704133D01*
X41794Y704258D01*
X41264Y704443D01*
X40758Y704687D01*
X40282Y704986D01*
X39843Y705336D01*
X39446Y705733D01*
X39096Y706172D01*
X38797Y706648D01*
X38553Y707154D01*
X38368Y707684D01*
X38243Y708231D01*
X38180Y708789D01*
X38180Y709351D01*
X38243Y709909D01*
X38368Y710456D01*
X38553Y710986D01*
X38797Y711492D01*
X39096Y711968D01*
X39446Y712407D01*
X39843Y712804D01*
X40282Y713154D01*
X40758Y713453D01*
X41264Y713697D01*
X41794Y713882D01*
X42341Y714007D01*
X42899Y714070D01*
X43461Y714070D01*
X44019Y714007D01*
X44566Y713882D01*
X45096Y713697D01*
X45602Y713453D01*
X46078Y713154D01*
X46517Y712804D01*
X46914Y712407D01*
X47264Y711968D01*
X47563Y711492D01*
X47807Y710986D01*
X47992Y710456D01*
X48117Y709909D01*
X48180Y709351D01*
X48180Y708789D01*
X48180Y664789D02*
X48117Y664231D01*
X47992Y663684D01*
X47807Y663154D01*
X47563Y662648D01*
X47264Y662172D01*
X46914Y661733D01*
X46517Y661336D01*
X46078Y660986D01*
X45602Y660687D01*
X45096Y660443D01*
X44566Y660258D01*
X44019Y660133D01*
X43461Y660070D01*
X42899Y660070D01*
X42341Y660133D01*
X41794Y660258D01*
X41264Y660443D01*
X40758Y660687D01*
X40282Y660986D01*
X39843Y661336D01*
X39446Y661733D01*
X39096Y662172D01*
X38797Y662648D01*
X38553Y663154D01*
X38368Y663684D01*
X38243Y664231D01*
X38180Y664789D01*
X38180Y665351D01*
X38243Y665909D01*
X38368Y666456D01*
X38553Y666986D01*
X38797Y667492D01*
X39096Y667968D01*
X39446Y668407D01*
X39843Y668804D01*
X40282Y669154D01*
X40758Y669453D01*
X41264Y669697D01*
X41794Y669882D01*
X42341Y670007D01*
X42899Y670070D01*
X43461Y670070D01*
X44019Y670007D01*
X44566Y669882D01*
X45096Y669697D01*
X45602Y669453D01*
X46078Y669154D01*
X46517Y668804D01*
X46914Y668407D01*
X47264Y667968D01*
X47563Y667492D01*
X47807Y666986D01*
X47992Y666456D01*
X48117Y665909D01*
X48180Y665351D01*
X48180Y664789D01*
X1126840Y541915D02*
X1126912Y542741D01*
X1127056Y543558D01*
X1127271Y544359D01*
X1127555Y545139D01*
X1127905Y545891D01*
X1128320Y546609D01*
X1128796Y547289D01*
X1129329Y547924D01*
X1129916Y548511D01*
X1130551Y549044D01*
X1131231Y549520D01*
X1131949Y549935D01*
X1132701Y550285D01*
X1133481Y550569D01*
X1134282Y550784D01*
X1135099Y550928D01*
X1135925Y551000D01*
X1136755Y551000D01*
X1137581Y550928D01*
X1138398Y550784D01*
X1139199Y550569D01*
X1139979Y550285D01*
X1140731Y549935D01*
X1141449Y549520D01*
X1142129Y549044D01*
X1142764Y548511D01*
X1143351Y547924D01*
X1143884Y547289D01*
X1144360Y546609D01*
X1144775Y545891D01*
X1145125Y545139D01*
X1145409Y544359D01*
X1145624Y543558D01*
X1145768Y542741D01*
X1145840Y541915D01*
X1145840Y541085D01*
X1145768Y540259D01*
X1145624Y539442D01*
X1145409Y538641D01*
X1145125Y537861D01*
X1144775Y537109D01*
X1144360Y536391D01*
X1143884Y535711D01*
X1143351Y535076D01*
X1142764Y534489D01*
X1142129Y533956D01*
X1141449Y533480D01*
X1140731Y533065D01*
X1139979Y532715D01*
X1139199Y532431D01*
X1138398Y532216D01*
X1137581Y532072D01*
X1136755Y532000D01*
X1135925Y532000D01*
X1135099Y532072D01*
X1134282Y532216D01*
X1133481Y532431D01*
X1132701Y532715D01*
X1131949Y533065D01*
X1131231Y533480D01*
X1130551Y533956D01*
X1129916Y534489D01*
X1129329Y535076D01*
X1128796Y535711D01*
X1128320Y536391D01*
X1127905Y537109D01*
X1127555Y537861D01*
X1127271Y538641D01*
X1127056Y539442D01*
X1126912Y540259D01*
X1126840Y541085D01*
X1126840Y541915D01*
X1056840Y541915D02*
X1056912Y542741D01*
X1057056Y543558D01*
X1057271Y544359D01*
X1057555Y545139D01*
X1057905Y545891D01*
X1058320Y546609D01*
X1058796Y547289D01*
X1059329Y547924D01*
X1059916Y548511D01*
X1060551Y549044D01*
X1061231Y549520D01*
X1061949Y549935D01*
X1062701Y550285D01*
X1063481Y550569D01*
X1064282Y550784D01*
X1065099Y550928D01*
X1065925Y551000D01*
X1066755Y551000D01*
X1067581Y550928D01*
X1068398Y550784D01*
X1069199Y550569D01*
X1069979Y550285D01*
X1070731Y549935D01*
X1071449Y549520D01*
X1072129Y549044D01*
X1072764Y548511D01*
X1073351Y547924D01*
X1073884Y547289D01*
X1074360Y546609D01*
X1074775Y545891D01*
X1075125Y545139D01*
X1075409Y544359D01*
X1075624Y543558D01*
X1075768Y542741D01*
X1075840Y541915D01*
X1075840Y541085D01*
X1075768Y540259D01*
X1075624Y539442D01*
X1075409Y538641D01*
X1075125Y537861D01*
X1074775Y537109D01*
X1074360Y536391D01*
X1073884Y535711D01*
X1073351Y535076D01*
X1072764Y534489D01*
X1072129Y533956D01*
X1071449Y533480D01*
X1070731Y533065D01*
X1069979Y532715D01*
X1069199Y532431D01*
X1068398Y532216D01*
X1067581Y532072D01*
X1066755Y532000D01*
X1065925Y532000D01*
X1065099Y532072D01*
X1064282Y532216D01*
X1063481Y532431D01*
X1062701Y532715D01*
X1061949Y533065D01*
X1061231Y533480D01*
X1060551Y533956D01*
X1059916Y534489D01*
X1059329Y535076D01*
X1058796Y535711D01*
X1058320Y536391D01*
X1057905Y537109D01*
X1057555Y537861D01*
X1057271Y538641D01*
X1057056Y539442D01*
X1056912Y540259D01*
X1056840Y541085D01*
X1056840Y541915D01*
X1126840Y435235D02*
X1126912Y436061D01*
X1127056Y436878D01*
X1127271Y437679D01*
X1127555Y438459D01*
X1127905Y439211D01*
X1128320Y439929D01*
X1128796Y440609D01*
X1129329Y441244D01*
X1129916Y441831D01*
X1130551Y442364D01*
X1131231Y442840D01*
X1131949Y443255D01*
X1132701Y443605D01*
X1133481Y443889D01*
X1134282Y444104D01*
X1135099Y444248D01*
X1135925Y444320D01*
X1136755Y444320D01*
X1137581Y444248D01*
X1138398Y444104D01*
X1139199Y443889D01*
X1139979Y443605D01*
X1140731Y443255D01*
X1141449Y442840D01*
X1142129Y442364D01*
X1142764Y441831D01*
X1143351Y441244D01*
X1143884Y440609D01*
X1144360Y439929D01*
X1144775Y439211D01*
X1145125Y438459D01*
X1145409Y437679D01*
X1145624Y436878D01*
X1145768Y436061D01*
X1145840Y435235D01*
X1145840Y434405D01*
X1145768Y433579D01*
X1145624Y432762D01*
X1145409Y431961D01*
X1145125Y431181D01*
X1144775Y430429D01*
X1144360Y429711D01*
X1143884Y429031D01*
X1143351Y428396D01*
X1142764Y427809D01*
X1142129Y427276D01*
X1141449Y426800D01*
X1140731Y426385D01*
X1139979Y426035D01*
X1139199Y425751D01*
X1138398Y425536D01*
X1137581Y425392D01*
X1136755Y425320D01*
X1135925Y425320D01*
X1135099Y425392D01*
X1134282Y425536D01*
X1133481Y425751D01*
X1132701Y426035D01*
X1131949Y426385D01*
X1131231Y426800D01*
X1130551Y427276D01*
X1129916Y427809D01*
X1129329Y428396D01*
X1128796Y429031D01*
X1128320Y429711D01*
X1127905Y430429D01*
X1127555Y431181D01*
X1127271Y431961D01*
X1127056Y432762D01*
X1126912Y433579D01*
X1126840Y434405D01*
X1126840Y435235D01*
X1056840Y435235D02*
X1056912Y436061D01*
X1057056Y436878D01*
X1057271Y437679D01*
X1057555Y438459D01*
X1057905Y439211D01*
X1058320Y439929D01*
X1058796Y440609D01*
X1059329Y441244D01*
X1059916Y441831D01*
X1060551Y442364D01*
X1061231Y442840D01*
X1061949Y443255D01*
X1062701Y443605D01*
X1063481Y443889D01*
X1064282Y444104D01*
X1065099Y444248D01*
X1065925Y444320D01*
X1066755Y444320D01*
X1067581Y444248D01*
X1068398Y444104D01*
X1069199Y443889D01*
X1069979Y443605D01*
X1070731Y443255D01*
X1071449Y442840D01*
X1072129Y442364D01*
X1072764Y441831D01*
X1073351Y441244D01*
X1073884Y440609D01*
X1074360Y439929D01*
X1074775Y439211D01*
X1075125Y438459D01*
X1075409Y437679D01*
X1075624Y436878D01*
X1075768Y436061D01*
X1075840Y435235D01*
X1075840Y434405D01*
X1075768Y433579D01*
X1075624Y432762D01*
X1075409Y431961D01*
X1075125Y431181D01*
X1074775Y430429D01*
X1074360Y429711D01*
X1073884Y429031D01*
X1073351Y428396D01*
X1072764Y427809D01*
X1072129Y427276D01*
X1071449Y426800D01*
X1070731Y426385D01*
X1069979Y426035D01*
X1069199Y425751D01*
X1068398Y425536D01*
X1067581Y425392D01*
X1066755Y425320D01*
X1065925Y425320D01*
X1065099Y425392D01*
X1064282Y425536D01*
X1063481Y425751D01*
X1062701Y426035D01*
X1061949Y426385D01*
X1061231Y426800D01*
X1060551Y427276D01*
X1059916Y427809D01*
X1059329Y428396D01*
X1058796Y429031D01*
X1058320Y429711D01*
X1057905Y430429D01*
X1057555Y431181D01*
X1057271Y431961D01*
X1057056Y432762D01*
X1056912Y433579D01*
X1056840Y434405D01*
X1056840Y435235D01*
X1145050Y632311D02*
X1144987Y631753D01*
X1144862Y631206D01*
X1144677Y630676D01*
X1144433Y630170D01*
X1144134Y629694D01*
X1143784Y629255D01*
X1143387Y628858D01*
X1142948Y628508D01*
X1142472Y628209D01*
X1141966Y627965D01*
X1141436Y627780D01*
X1140889Y627655D01*
X1140331Y627592D01*
X1139769Y627592D01*
X1139211Y627655D01*
X1138664Y627780D01*
X1138134Y627965D01*
X1137628Y628209D01*
X1137152Y628508D01*
X1136713Y628858D01*
X1136316Y629255D01*
X1135966Y629694D01*
X1135667Y630170D01*
X1135423Y630676D01*
X1135238Y631206D01*
X1135113Y631753D01*
X1135050Y632311D01*
X1135050Y632873D01*
X1135113Y633431D01*
X1135238Y633978D01*
X1135423Y634508D01*
X1135667Y635014D01*
X1135966Y635490D01*
X1136316Y635929D01*
X1136713Y636326D01*
X1137152Y636676D01*
X1137628Y636975D01*
X1138134Y637219D01*
X1138664Y637404D01*
X1139211Y637529D01*
X1139769Y637592D01*
X1140331Y637592D01*
X1140889Y637529D01*
X1141436Y637404D01*
X1141966Y637219D01*
X1142472Y636975D01*
X1142948Y636676D01*
X1143387Y636326D01*
X1143784Y635929D01*
X1144134Y635490D01*
X1144433Y635014D01*
X1144677Y634508D01*
X1144862Y633978D01*
X1144987Y633431D01*
X1145050Y632873D01*
X1145050Y632311D01*
X1145050Y712311D02*
X1144987Y711753D01*
X1144862Y711206D01*
X1144677Y710676D01*
X1144433Y710170D01*
X1144134Y709694D01*
X1143784Y709255D01*
X1143387Y708858D01*
X1142948Y708508D01*
X1142472Y708209D01*
X1141966Y707965D01*
X1141436Y707780D01*
X1140889Y707655D01*
X1140331Y707592D01*
X1139769Y707592D01*
X1139211Y707655D01*
X1138664Y707780D01*
X1138134Y707965D01*
X1137628Y708209D01*
X1137152Y708508D01*
X1136713Y708858D01*
X1136316Y709255D01*
X1135966Y709694D01*
X1135667Y710170D01*
X1135423Y710676D01*
X1135238Y711206D01*
X1135113Y711753D01*
X1135050Y712311D01*
X1135050Y712873D01*
X1135113Y713431D01*
X1135238Y713978D01*
X1135423Y714508D01*
X1135667Y715014D01*
X1135966Y715490D01*
X1136316Y715929D01*
X1136713Y716326D01*
X1137152Y716676D01*
X1137628Y716975D01*
X1138134Y717219D01*
X1138664Y717404D01*
X1139211Y717529D01*
X1139769Y717592D01*
X1140331Y717592D01*
X1140889Y717529D01*
X1141436Y717404D01*
X1141966Y717219D01*
X1142472Y716975D01*
X1142948Y716676D01*
X1143387Y716326D01*
X1143784Y715929D01*
X1144134Y715490D01*
X1144433Y715014D01*
X1144677Y714508D01*
X1144862Y713978D01*
X1144987Y713431D01*
X1145050Y712873D01*
X1145050Y712311D01*
M02*
