M48
;GenerationSoftware,Autodesk,EAGLE,9.6.2*%
;CreationDate,2020-11-19T21:06:08Z*%
FMAT,2
ICI,OFF
METRIC,TZ,000.000
T17C0.254
T16C0.300
T15C0.350
T14C0.400
T13C0.600
T12C0.800
T11C0.864
T10C0.900
T9C1.000
T8C1.016
T7C1.100
T6C1.200
T5C1.500
T4C1.800
T3C1.900
T2C3.302
T1C4.000
%
G90
M71
T1
X2874Y116634
X5984Y32654
X116374Y2874
X116884Y116634
T2
X107620Y81559
X107620Y106553
T3
X106634Y43482
X113634Y43482
X106634Y54150
X113634Y54150
T4
X68910Y61722
T5
X9979Y95412
X9979Y106080
X2979Y95412
X2979Y89712
X9979Y89712
X2979Y100380
X2979Y84744
X2979Y79044
X9979Y100380
X9979Y79044
X9979Y84744
X2979Y106080
T6
X20498Y44044
T7
X86360Y6350
X83820Y115570
X88900Y3810
X83820Y3810
X91440Y6350
X93980Y115570
X91440Y115570
X91440Y113030
X88900Y115570
X88900Y6350
X86360Y115570
X91440Y3810
X93980Y3810
X93980Y6350
X88900Y113030
X93980Y113030
X83820Y113030
X83820Y6350
X86360Y3810
X86360Y113030
T8
X53340Y6350
X55880Y3810
X55880Y6350
X58420Y3810
X58420Y6350
X60960Y3810
X60960Y6350
X63500Y3810
X63500Y6350
X66040Y3810
X66040Y6350
X68580Y3810
X68580Y6350
X71120Y3810
X71120Y6350
X73660Y6350
X73660Y115570
X73660Y113030
X71120Y113030
X68580Y115570
X35560Y6350
X66040Y113030
X66040Y115570
X63500Y115570
X63500Y113030
X60960Y113030
X60960Y115570
X58420Y115570
X58420Y113030
X50800Y6350
X33020Y113030
X30480Y115570
X55880Y115570
X55880Y113030
X53340Y115570
X25400Y3810
X68580Y113030
X43180Y113030
X40640Y115570
X25400Y113030
X40640Y113030
X53340Y113030
X50800Y115570
X50800Y113030
X48260Y115570
X48260Y113030
X45720Y115570
X45720Y113030
X43180Y115570
X38100Y115570
X30480Y113030
X25400Y6350
X99949Y21717
X27940Y113030
X25400Y115570
X38100Y113030
X35560Y115570
X27940Y6350
X27940Y3810
X30480Y3810
X30480Y6350
X33020Y6350
X33020Y3810
X35560Y3810
X35560Y113030
X14478Y13081
X14478Y8001
X73660Y3810
X33020Y115570
X38100Y6350
X38100Y3810
X40640Y3810
X40640Y6350
X43180Y3810
X43180Y6350
X45720Y3810
X45720Y6350
X48260Y3810
X48260Y6350
X5715Y2311
X50800Y3810
X71120Y115570
X53340Y3810
X27940Y115570
T9
X104013Y1905
X101473Y1905
X36195Y96088
X36195Y93548
X36195Y91008
X36195Y88468
X9479Y81894
X7479Y81894
X5479Y81894
X3479Y81894
X99949Y26797
X99949Y29337
X99949Y31877
X99949Y34417
X99949Y36957
X114005Y63259
X9479Y92562
X7479Y92562
X5479Y92562
X3479Y92562
X9479Y103230
X7479Y103230
X5479Y103230
X3479Y103230
X3955Y5024
X4455Y5024
X8255Y7974
X8255Y8474
X8255Y8974
X8255Y10974
X8255Y10474
X8255Y9974
X1755Y7974
X101473Y5715
X101473Y8255
X109093Y117475
X1755Y10974
X106553Y117475
X104013Y117475
X101473Y117475
X99949Y24257
X1755Y8474
X1755Y8974
X1755Y10474
X4318Y66507
X4318Y70907
X1755Y9974
X4955Y5024
X1755Y9474
X6455Y5024
X5955Y5024
X5455Y5024
X3455Y5024
X8255Y9474
X114005Y71259
X109093Y1905
X106553Y1905
T10
X4953Y21117
X107620Y94956
X107620Y97242
X107620Y99528
X107620Y92670
X4953Y19117
X105080Y93813
X105080Y89241
X105080Y91527
X107620Y90384
X110160Y98385
X110160Y96099
X110160Y93813
X110160Y91527
X110160Y89241
X105080Y98385
X105080Y96099
T11
X15240Y92583
X13513Y73584
X10973Y73584
X12700Y92583
X15240Y81915
X12700Y81915
X30582Y27788
X30582Y24232
X33071Y62078
X29515Y62078
X15240Y103251
X12700Y103251
T12
X19685Y16866
X114274Y774
X114274Y4974
X5984Y29654
X774Y114534
X11181Y30734
X3884Y30554
X8084Y30554
X11176Y26670
X2984Y32654
X4974Y118734
X118474Y4974
X116374Y5874
X116374Y-126
X113374Y2874
X119374Y2874
X2874Y119634
X118984Y114534
X114784Y114534
X4974Y114534
X118984Y118734
X116884Y119634
X116884Y113634
X113884Y116634
X119884Y116634
X-126Y116634
X8984Y32654
X114784Y118734
X5874Y116634
X3884Y34754
X8084Y34754
X5984Y35654
X2874Y113634
X15240Y24130
X118474Y774
X774Y118734
T13
X16104Y107696
X28712Y87020
X21692Y87020
X16789Y75514
X23876Y31750
X34290Y54610
X35179Y74397
X37236Y77648
X24638Y80391
X102870Y35712
X29997Y38075
X28473Y17018
X86665Y18745
X32893Y11684
X60046Y13157
X60046Y22758
X7442Y45415
X6452Y40361
X5588Y47041
X19507Y48844
X2413Y46584
X28067Y38151
X36576Y39319
X52375Y52172
X39827Y45009
X51562Y52172
X30861Y49581
X50292Y64821
X31877Y49581
X49378Y64821
X109271Y11455
X104648Y35687
X21717Y63983
X21336Y71120
X16104Y66802
X12040Y62992
X8738Y70307
X19710Y57252
X11252Y59233
X24841Y59487
X14224Y48412
X25121Y45771
X20777Y38049
X5690Y48387
X18034Y115672
X7544Y57531
X18136Y48514
X25756Y61874
X25705Y19939
X15138Y48412
X35103Y43739
X33782Y14783
X79807Y14072
X14834Y46304
X36119Y53848
X34036Y76556
X12421Y36144
X11176Y2540
X15545Y59233
X101143Y97536
X101143Y101549
X101143Y105562
X101143Y109576
X93142Y98755
X14681Y55016
X99619Y51511
X94971Y43028
X93142Y89738
X93142Y80721
X94996Y76810
X22962Y71831
X101854Y33147
X1422Y42799
X11303Y18415
X18161Y18415
X25019Y14478
X16459Y53137
X24333Y52121
X28804Y47752
X15596Y57531
X25095Y56947
X22479Y81280
X22479Y85573
X30251Y85573
X27254Y98603
X29896Y98603
X32944Y98603
X102184Y76810
X94996Y78334
X21666Y89713
X85903Y65888
X20523Y79299
X81585Y82575
X53442Y70028
X39472Y59614
X10363Y46304
X8585Y38583
X20345Y34290
X26543Y34290
X31775Y38075
X21565Y60782
X117983Y35789
X117983Y29693
X117983Y23597
X117983Y17501
X117983Y11405
X28600Y108229
X28575Y81280
X25730Y102413
X31420Y102438
X23317Y97384
X113081Y57650
X87986Y75641
X88925Y62738
X17932Y84887
X4191Y55728
X7468Y59309
X14859Y85039
X19152Y66802
X12040Y66802
X19304Y72365
X8331Y75794
X16789Y77292
X18593Y94386
X23715Y90119
X14859Y94691
X88798Y17577
X87782Y10744
X112367Y116634
X7414Y116634
X111789Y2874
X38989Y83160
X5984Y28042
X29515Y59741
X74066Y17170
X64618Y55296
X70104Y52578
X31699Y92761
X88189Y98146
X88189Y89103
X29515Y66040
X92862Y87655
X92862Y96723
X92862Y105689
X37795Y62078
X100381Y45009
X98806Y78842
X101143Y85242
X101143Y93523
X101244Y74168
X74778Y81585
X104685Y64959
X97917Y68580
X98044Y60452
X101143Y98806
X101143Y102819
X101143Y106832
X90373Y97765
X90373Y88748
X90576Y79731
X17297Y34290
X31064Y32944
X33122Y54153
X20879Y94691
X39472Y61138
X82906Y13056
X99009Y18720
X48717Y61722
X99416Y77800
X97409Y64643
X101143Y94793
X99416Y89383
X99416Y83845
T14
X85649Y57480
X78080Y46584
X73533Y46101
X75819Y46101
X68707Y45593
X104775Y66040
X104648Y69342
X66954Y83210
X102108Y70739
X67259Y84023
X101473Y64643
X104521Y62738
X69799Y69901
X101473Y62738
X69088Y70282
X101473Y63754
X104521Y68199
X83998Y53746
X67767Y71196
X101854Y69494
X33350Y17145
X78359Y59919
X78359Y56337
X60833Y37948
X71907Y52680
X77089Y52248
X69012Y52222
X52527Y36551
X52527Y35027
X52527Y31826
X52527Y30302
X98044Y72644
X72974Y41326
X69342Y42520
X98044Y71120
X43993Y52857
X49378Y25806
X43993Y27534
X39751Y27534
X54280Y66929
X83312Y106172
X82245Y65888
X73482Y76886
X70815Y76886
X60350Y108610
X67259Y70307
X81813Y31775
X68580Y39827
X72974Y39853
X52527Y24206
X52527Y25730
X52527Y27254
X52527Y28778
X52527Y37516
X52527Y39827
X52527Y41453
X59665Y37948
X52527Y42672
X92862Y101422
X92862Y83363
X92862Y92405
X51918Y56286
X60350Y45822
X52959Y46457
X55677Y48743
X54407Y48743
X53365Y49022
X52934Y59385
X51918Y53848
X52934Y61468
X86055Y71425
X67640Y67462
X59436Y67767
X57404Y21133
X14122Y51181
X5334Y51181
X33731Y30378
X25730Y41885
X50394Y103632
X93015Y103632
X93015Y104445
X50800Y104445
X52019Y105664
X87020Y105664
X52019Y104851
X87020Y104851
X52426Y103226
X87020Y103226
X52426Y106375
X52832Y102514
X87020Y102311
X52832Y107086
X53238Y92253
X92939Y94691
X53238Y99365
X53645Y92964
X92939Y95504
X54051Y94590
X87020Y96825
X54458Y93878
X87020Y95910
X54864Y90830
X87020Y94285
X55270Y90119
X87020Y93370
X55677Y86563
X93015Y85573
X55677Y95910
X56083Y87274
X93015Y86385
X55677Y96723
X56490Y88900
X87020Y87706
X56490Y96926
X56896Y88189
X87020Y86792
X56490Y97739
X57302Y85242
X87020Y85166
X57302Y97942
X57709Y84531
X87020Y84252
X57302Y98755
X95199Y81382
X63703Y85649
X64110Y84938
X95199Y80061
X62687Y110439
X63297Y109830
X21336Y48209
X63297Y84023
X66929Y67869
X57404Y20320
X26873Y8128
X29413Y8941
X31953Y9754
X34290Y10566
X35560Y10973
X34849Y11379
X41758Y8839
X41758Y7925
X40945Y7823
X56896Y63246
X56591Y17475
X68986Y81991
X74981Y70206
X66065Y67869
X55778Y21539
X50495Y8941
X50902Y42545
X50902Y9652
X5029Y53975
X51714Y10566
X59334Y71222
X36982Y42367
X34950Y53543
X15342Y40437
X51714Y9550
X77013Y67259
X93472Y67259
X43383Y31496
X40538Y21844
X41148Y31521
X38913Y27432
X56896Y59309
X50089Y25400
X66370Y71196
X52527Y23266
X66142Y70409
X53238Y22860
X65329Y70510
X53340Y22047
X65557Y69698
X53746Y21336
X63094Y68682
X54559Y21438
X64414Y69113
X55270Y22250
X63627Y69291
X55270Y23063
X62890Y69698
X56490Y23165
X18085Y39014
X69875Y17069
X19304Y39014
X70587Y16662
X26340Y44196
X34950Y44704
X34138Y13487
X25476Y44425
X35687Y45110
X34849Y13894
X48565Y66954
X49987Y82398
X69596Y83210
X27610Y92456
X26899Y92050
X28245Y94183
X28245Y93370
X30074Y92761
X29261Y92761
X25806Y97231
X24994Y97231
X77419Y66548
X96012Y49936
X59690Y74016
X15342Y43129
X25121Y41885
X18694Y38405
X8814Y116840
X64516Y74016
X17069Y39726
X102184Y90830
X102184Y93828
X98857Y94183
X98857Y96164
X98654Y100787
X102616Y98501
X59436Y66853
X68377Y67056
X51105Y50902
X49174Y48768
X44399Y46939
X37389Y36881
X48666Y33934
X45415Y33934
X44602Y31598
X77622Y106883
X60350Y81280
X48971Y81280
X71222Y52248
X45009Y52857
X48870Y59131
X72593Y52248
X47752Y25806
X45009Y27534
X58014Y21742
X17501Y40742
X48870Y63500
X70612Y80340
X24486Y41885
X15342Y41046
X15342Y42596
X24790Y44856
X64922Y108712
X65329Y108001
X66142Y107899
X87427Y107493
X66853Y107493
X82804Y83617
X77114Y70510
X82398Y109626
X84836Y109626
X81991Y83617
X78232Y70510
X80366Y83617
X75794Y70358
X68783Y80340
X81178Y83617
X76403Y70917
X81382Y16662
X53746Y19304
X60046Y68478
X82906Y16662
X54153Y20625
X60655Y67869
X20726Y72949
X34950Y52730
X37871Y41148
X36373Y40335
X19863Y38430
X20523Y48209
X74778Y67564
X101473Y61849
X72441Y82804
X79350Y72339
X71222Y82804
X80162Y71933
X71831Y82194
X78029Y74168
X70612Y82194
X78130Y72949
X93777Y48768
X100432Y46533
X94894Y46736
X77419Y65735
X77953Y65126
X98806Y48158
X94920Y47955
X78334Y64414
X99619Y47346
X95453Y47346
X96012Y58064
X78232Y66853
X47854Y69494
X74016Y70714
X48565Y69088
X73355Y71196
X32614Y85649
X73863Y74981
X33325Y86055
X74473Y74371
X72441Y58420
X91846Y16789
X45110Y60757
X73152Y58014
X16967Y41351
X89560Y20320
X40640Y56998
X29667Y49682
X73863Y57607
X86071Y64322
X72339Y76886
X68783Y76886
X73914Y52248
X16535Y46634
X16535Y45999
X15342Y44679
X68377Y70663
X102108Y66040
T15
X27178Y21971
X104140Y110617
X43053Y18415
X31496Y15367
X108331Y114808
X108204Y112649
X103124Y115062
X108331Y113792
X49022Y11684
X47752Y21971
T16
X75743Y49657
X66294Y42926
X76200Y49174
X67031Y42951
X66310Y60722
X68478Y42799
X76987Y49327
X67767Y42951
X71171Y48946
X62586Y42850
X72314Y49581
X70688Y33376
X70688Y36424
X63983Y42850
X72669Y48946
X64821Y42850
X66269Y30861
X19498Y43394
X67110Y60722
X67910Y59122
X67335Y37948
X67335Y34900
X67910Y59922
X67107Y31369
X69910Y59122
X69910Y59922
X71510Y60722
X70710Y60722
X71510Y62722
X70710Y62722
X67910Y64322
X18898Y44694
X19498Y44694
X18898Y43394
X19848Y42444
X19848Y43044
X21148Y42444
X21148Y43044
X22098Y43394
X67335Y33376
X67335Y36424
X70688Y34900
X70688Y37770
X54915Y46736
X21498Y43394
X22098Y44694
X77927Y50190
X66310Y62722
X21498Y44694
X67110Y62722
X21148Y45044
X19848Y45644
X19848Y45044
X67910Y63522
X69910Y64322
X69910Y63522
X54889Y59639
X51765Y43561
X21148Y45644
X52476Y43434
X50825Y59131
X54889Y61671
X53873Y56286
X62332Y46025
X57252Y49962
X55581Y50315
X53803Y50679
X53871Y53848
T17
X77240Y30837
X72822Y31369
X57810Y31902
X90348Y32360
X63754Y24968
X76352Y32385
X62154Y32969
X64311Y29566
X81077Y29845
X63983Y24054
X77572Y24054
X64440Y23597
X78029Y23597
X63511Y28766
X81661Y28397
X66650Y30226
X80975Y31674
X80959Y29235
X63437Y29491
X63511Y27966
X83499Y27407
X78836Y36864
X81305Y30607
X63983Y21311
X77724Y21311
X64311Y27166
X82728Y27788
X63983Y20396
X77724Y20396
X64186Y27841
X82194Y28092
X63983Y22225
X77673Y22225
X64259Y28708
X81051Y28550
X63983Y23139
X77622Y23139
X64440Y22682
X78080Y22682
X78511Y35966
X78511Y34366
X80211Y34766
X80237Y33870
X77611Y31966
X80213Y26187
X63436Y31091
X80311Y28341
X80442Y30150
X73311Y36841
X73711Y35966
X62611Y33966
X58711Y31166
X58711Y32766
X57737Y34816
X59011Y36966
X72837Y35691
X57811Y27566
X72760Y33890
X74511Y32766
X65411Y35966
X64711Y36841
X65411Y33116
X64311Y31966
X65583Y28854
X65888Y27330
X74511Y31166
X72593Y29007
X71755Y27635
X71984Y29007
X73711Y31166
X73711Y32766
X72771Y27330
X74036Y36841
X80311Y29241
X78511Y31166
X80311Y27441
X80299Y33002
X80237Y35641
X77711Y33566
X79711Y36864
X71374Y29007
X65278Y27330
X66497Y27330
X65354Y29693
X65411Y35016
X65461Y34066
X63511Y34366
X63511Y35966
X63911Y36841
X57811Y26766
X57811Y28366
X57811Y29966
X77521Y24968
X63449Y26264
X58311Y36966
X72811Y34793
X57734Y35737
X77851Y26086
X58711Y35966
X63652Y25654
X77927Y25425
X78232Y19050
X64440Y20853
X78130Y20853
X64440Y24511
X77978Y24511
X64440Y21768
X78130Y21768
X63436Y27091
X83109Y26873
X57737Y33916
X59511Y32766
X59511Y31166
X63587Y32042
X61925Y32360
X76411Y31741
X57810Y31166
X63586Y30291
X71069Y30531
X57811Y29166
M30