G04 EAGLE Gerber RS-274X export*
G75*
%MOMM*%
%FSLAX34Y34*%
%LPD*%
%INBottom Silkscreen*%
%IPPOS*%
%AMOC8*
5,1,8,0,0,1.08239X$1,22.5*%
G01*
%ADD10C,0.254000*%
%ADD11C,0.203200*%
%ADD12C,0.508000*%
%ADD13C,0.152400*%
%ADD14C,0.127000*%
%ADD15C,0.609600*%
%ADD16C,0.558800*%
%ADD17C,0.660400*%
%ADD18C,0.355600*%
%ADD19C,0.304800*%
%ADD20C,0.177800*%


D10*
X48269Y71549D02*
X46574Y68160D01*
X43184Y64770D01*
X39795Y64770D01*
X38100Y66465D01*
X38100Y69854D01*
X39795Y71549D01*
X41490Y71549D01*
X43184Y69854D01*
X43184Y64770D01*
X43184Y76464D02*
X43184Y83243D01*
X44879Y88158D02*
X48269Y91548D01*
X38100Y91548D01*
X38100Y94937D02*
X38100Y88158D01*
X46574Y103241D02*
X48269Y106631D01*
X46574Y103241D02*
X43184Y99852D01*
X39795Y99852D01*
X38100Y101547D01*
X38100Y104936D01*
X39795Y106631D01*
X41490Y106631D01*
X43184Y104936D01*
X43184Y99852D01*
X41490Y111546D02*
X48269Y111546D01*
X41490Y111546D02*
X38100Y114935D01*
X41490Y118325D01*
X48269Y118325D01*
X48269Y123240D02*
X38100Y123240D01*
X38100Y128324D01*
X39795Y130019D01*
X46574Y130019D01*
X48269Y128324D01*
X48269Y123240D01*
X48269Y140018D02*
X46574Y141713D01*
X48269Y140018D02*
X48269Y136629D01*
X46574Y134934D01*
X39795Y134934D01*
X38100Y136629D01*
X38100Y140018D01*
X39795Y141713D01*
X34294Y208016D02*
X34294Y214795D01*
X30905Y211406D02*
X37684Y211406D01*
X34294Y194475D02*
X34294Y187696D01*
D11*
X736682Y82811D02*
X739394Y80099D01*
X736682Y82811D02*
X736682Y74676D01*
X733971Y74676D02*
X739394Y74676D01*
X713994Y81455D02*
X712638Y82811D01*
X709927Y82811D01*
X708571Y81455D01*
X708571Y80099D01*
X709927Y78743D01*
X711282Y78743D01*
X709927Y78743D02*
X708571Y77388D01*
X708571Y76032D01*
X709927Y74676D01*
X712638Y74676D01*
X713994Y76032D01*
X688594Y82811D02*
X683171Y82811D01*
X688594Y82811D02*
X688594Y78743D01*
X685882Y80099D01*
X684527Y80099D01*
X683171Y78743D01*
X683171Y76032D01*
X684527Y74676D01*
X687238Y74676D01*
X688594Y76032D01*
X663194Y82811D02*
X657771Y82811D01*
X657771Y81455D01*
X663194Y76032D01*
X663194Y74676D01*
X637794Y76032D02*
X636438Y74676D01*
X633727Y74676D01*
X632371Y76032D01*
X632371Y81455D01*
X633727Y82811D01*
X636438Y82811D01*
X637794Y81455D01*
X637794Y80099D01*
X636438Y78743D01*
X632371Y78743D01*
X617474Y80099D02*
X614762Y82811D01*
X614762Y74676D01*
X612051Y74676D02*
X617474Y74676D01*
X608119Y80099D02*
X605407Y82811D01*
X605407Y74676D01*
X602696Y74676D02*
X608119Y74676D01*
X592074Y80099D02*
X589362Y82811D01*
X589362Y74676D01*
X586651Y74676D02*
X592074Y74676D01*
X582719Y81455D02*
X581363Y82811D01*
X578651Y82811D01*
X577296Y81455D01*
X577296Y80099D01*
X578651Y78743D01*
X580007Y78743D01*
X578651Y78743D02*
X577296Y77388D01*
X577296Y76032D01*
X578651Y74676D01*
X581363Y74676D01*
X582719Y76032D01*
X566674Y80099D02*
X563962Y82811D01*
X563962Y74676D01*
X561251Y74676D02*
X566674Y74676D01*
X557319Y82811D02*
X551896Y82811D01*
X557319Y82811D02*
X557319Y78743D01*
X554607Y80099D01*
X553251Y80099D01*
X551896Y78743D01*
X551896Y76032D01*
X553251Y74676D01*
X555963Y74676D01*
X557319Y76032D01*
X541274Y80099D02*
X538562Y82811D01*
X538562Y74676D01*
X535851Y74676D02*
X541274Y74676D01*
X531919Y82811D02*
X526496Y82811D01*
X526496Y81455D01*
X531919Y76032D01*
X531919Y74676D01*
X515874Y80099D02*
X513162Y82811D01*
X513162Y74676D01*
X510451Y74676D02*
X515874Y74676D01*
X506519Y76032D02*
X505163Y74676D01*
X502451Y74676D01*
X501096Y76032D01*
X501096Y81455D01*
X502451Y82811D01*
X505163Y82811D01*
X506519Y81455D01*
X506519Y80099D01*
X505163Y78743D01*
X501096Y78743D01*
X490474Y74676D02*
X485051Y74676D01*
X490474Y74676D02*
X485051Y80099D01*
X485051Y81455D01*
X486407Y82811D01*
X489118Y82811D01*
X490474Y81455D01*
X481119Y80099D02*
X478407Y82811D01*
X478407Y74676D01*
X475696Y74676D02*
X481119Y74676D01*
X465074Y74676D02*
X459651Y74676D01*
X465074Y74676D02*
X459651Y80099D01*
X459651Y81455D01*
X461007Y82811D01*
X463718Y82811D01*
X465074Y81455D01*
X455719Y81455D02*
X454363Y82811D01*
X451651Y82811D01*
X450296Y81455D01*
X450296Y80099D01*
X451651Y78743D01*
X453007Y78743D01*
X451651Y78743D02*
X450296Y77388D01*
X450296Y76032D01*
X451651Y74676D01*
X454363Y74676D01*
X455719Y76032D01*
X439674Y74676D02*
X434251Y74676D01*
X439674Y74676D02*
X434251Y80099D01*
X434251Y81455D01*
X435607Y82811D01*
X438318Y82811D01*
X439674Y81455D01*
X430319Y82811D02*
X424896Y82811D01*
X430319Y82811D02*
X430319Y78743D01*
X427607Y80099D01*
X426251Y80099D01*
X424896Y78743D01*
X424896Y76032D01*
X426251Y74676D01*
X428963Y74676D01*
X430319Y76032D01*
X414274Y74676D02*
X408851Y74676D01*
X414274Y74676D02*
X408851Y80099D01*
X408851Y81455D01*
X410207Y82811D01*
X412918Y82811D01*
X414274Y81455D01*
X404919Y82811D02*
X399496Y82811D01*
X399496Y81455D01*
X404919Y76032D01*
X404919Y74676D01*
X388874Y74676D02*
X383451Y74676D01*
X388874Y74676D02*
X383451Y80099D01*
X383451Y81455D01*
X384807Y82811D01*
X387518Y82811D01*
X388874Y81455D01*
X379519Y76032D02*
X378163Y74676D01*
X375451Y74676D01*
X374096Y76032D01*
X374096Y81455D01*
X375451Y82811D01*
X378163Y82811D01*
X379519Y81455D01*
X379519Y80099D01*
X378163Y78743D01*
X374096Y78743D01*
X363474Y81455D02*
X362118Y82811D01*
X359407Y82811D01*
X358051Y81455D01*
X358051Y80099D01*
X359407Y78743D01*
X360762Y78743D01*
X359407Y78743D02*
X358051Y77388D01*
X358051Y76032D01*
X359407Y74676D01*
X362118Y74676D01*
X363474Y76032D01*
X354119Y80099D02*
X351407Y82811D01*
X351407Y74676D01*
X348696Y74676D02*
X354119Y74676D01*
X338074Y81455D02*
X336718Y82811D01*
X334007Y82811D01*
X332651Y81455D01*
X332651Y80099D01*
X334007Y78743D01*
X335362Y78743D01*
X334007Y78743D02*
X332651Y77388D01*
X332651Y76032D01*
X334007Y74676D01*
X336718Y74676D01*
X338074Y76032D01*
X328719Y81455D02*
X327363Y82811D01*
X324651Y82811D01*
X323296Y81455D01*
X323296Y80099D01*
X324651Y78743D01*
X326007Y78743D01*
X324651Y78743D02*
X323296Y77388D01*
X323296Y76032D01*
X324651Y74676D01*
X327363Y74676D01*
X328719Y76032D01*
X312674Y81455D02*
X311318Y82811D01*
X308607Y82811D01*
X307251Y81455D01*
X307251Y80099D01*
X308607Y78743D01*
X309962Y78743D01*
X308607Y78743D02*
X307251Y77388D01*
X307251Y76032D01*
X308607Y74676D01*
X311318Y74676D01*
X312674Y76032D01*
X303319Y82811D02*
X297896Y82811D01*
X303319Y82811D02*
X303319Y78743D01*
X300607Y80099D01*
X299251Y80099D01*
X297896Y78743D01*
X297896Y76032D01*
X299251Y74676D01*
X301963Y74676D01*
X303319Y76032D01*
X287274Y81455D02*
X285918Y82811D01*
X283207Y82811D01*
X281851Y81455D01*
X281851Y80099D01*
X283207Y78743D01*
X284562Y78743D01*
X283207Y78743D02*
X281851Y77388D01*
X281851Y76032D01*
X283207Y74676D01*
X285918Y74676D01*
X287274Y76032D01*
X277919Y82811D02*
X272496Y82811D01*
X272496Y81455D01*
X277919Y76032D01*
X277919Y74676D01*
X261874Y81455D02*
X260518Y82811D01*
X257807Y82811D01*
X256451Y81455D01*
X256451Y80099D01*
X257807Y78743D01*
X259162Y78743D01*
X257807Y78743D02*
X256451Y77388D01*
X256451Y76032D01*
X257807Y74676D01*
X260518Y74676D01*
X261874Y76032D01*
X252519Y76032D02*
X251163Y74676D01*
X248451Y74676D01*
X247096Y76032D01*
X247096Y81455D01*
X248451Y82811D01*
X251163Y82811D01*
X252519Y81455D01*
X252519Y80099D01*
X251163Y78743D01*
X247096Y78743D01*
X258737Y26931D02*
X258737Y18796D01*
X262804Y22863D02*
X258737Y26931D01*
X257381Y22863D02*
X262804Y22863D01*
X253449Y20152D02*
X253449Y25575D01*
X252093Y26931D01*
X249382Y26931D01*
X248026Y25575D01*
X248026Y20152D01*
X249382Y18796D01*
X252093Y18796D01*
X253449Y20152D01*
X248026Y25575D01*
X286849Y26931D02*
X288204Y25575D01*
X286849Y26931D02*
X284137Y26931D01*
X282781Y25575D01*
X282781Y24219D01*
X284137Y22863D01*
X285493Y22863D01*
X284137Y22863D02*
X282781Y21508D01*
X282781Y20152D01*
X284137Y18796D01*
X286849Y18796D01*
X288204Y20152D01*
X278849Y25575D02*
X277493Y26931D01*
X274782Y26931D01*
X273426Y25575D01*
X273426Y24219D01*
X274782Y22863D01*
X273426Y21508D01*
X273426Y20152D01*
X274782Y18796D01*
X277493Y18796D01*
X278849Y20152D01*
X278849Y21508D01*
X277493Y22863D01*
X278849Y24219D01*
X278849Y25575D01*
X277493Y22863D02*
X274782Y22863D01*
X312249Y26931D02*
X313604Y25575D01*
X312249Y26931D02*
X309537Y26931D01*
X308181Y25575D01*
X308181Y24219D01*
X309537Y22863D01*
X310893Y22863D01*
X309537Y22863D02*
X308181Y21508D01*
X308181Y20152D01*
X309537Y18796D01*
X312249Y18796D01*
X313604Y20152D01*
X301538Y25575D02*
X298826Y26931D01*
X301538Y25575D02*
X304249Y22863D01*
X304249Y20152D01*
X302893Y18796D01*
X300182Y18796D01*
X298826Y20152D01*
X298826Y21508D01*
X300182Y22863D01*
X304249Y22863D01*
X337649Y26931D02*
X339004Y25575D01*
X337649Y26931D02*
X334937Y26931D01*
X333581Y25575D01*
X333581Y24219D01*
X334937Y22863D01*
X336293Y22863D01*
X334937Y22863D02*
X333581Y21508D01*
X333581Y20152D01*
X334937Y18796D01*
X337649Y18796D01*
X339004Y20152D01*
X325582Y18796D02*
X325582Y26931D01*
X329649Y22863D01*
X324226Y22863D01*
X363049Y26931D02*
X364404Y25575D01*
X363049Y26931D02*
X360337Y26931D01*
X358981Y25575D01*
X358981Y24219D01*
X360337Y22863D01*
X361693Y22863D01*
X360337Y22863D02*
X358981Y21508D01*
X358981Y20152D01*
X360337Y18796D01*
X363049Y18796D01*
X364404Y20152D01*
X355049Y18796D02*
X349626Y18796D01*
X355049Y18796D02*
X349626Y24219D01*
X349626Y25575D01*
X350982Y26931D01*
X353693Y26931D01*
X355049Y25575D01*
X388449Y26931D02*
X389804Y25575D01*
X388449Y26931D02*
X385737Y26931D01*
X384381Y25575D01*
X384381Y24219D01*
X385737Y22863D01*
X387093Y22863D01*
X385737Y22863D02*
X384381Y21508D01*
X384381Y20152D01*
X385737Y18796D01*
X388449Y18796D01*
X389804Y20152D01*
X380449Y20152D02*
X380449Y25575D01*
X379093Y26931D01*
X376382Y26931D01*
X375026Y25575D01*
X375026Y20152D01*
X376382Y18796D01*
X379093Y18796D01*
X380449Y20152D01*
X375026Y25575D01*
X409781Y18796D02*
X415204Y18796D01*
X409781Y24219D01*
X409781Y25575D01*
X411137Y26931D01*
X413849Y26931D01*
X415204Y25575D01*
X405849Y25575D02*
X404493Y26931D01*
X401782Y26931D01*
X400426Y25575D01*
X400426Y24219D01*
X401782Y22863D01*
X400426Y21508D01*
X400426Y20152D01*
X401782Y18796D01*
X404493Y18796D01*
X405849Y20152D01*
X405849Y21508D01*
X404493Y22863D01*
X405849Y24219D01*
X405849Y25575D01*
X404493Y22863D02*
X401782Y22863D01*
X435181Y18796D02*
X440604Y18796D01*
X435181Y24219D01*
X435181Y25575D01*
X436537Y26931D01*
X439249Y26931D01*
X440604Y25575D01*
X428538Y25575D02*
X425826Y26931D01*
X428538Y25575D02*
X431249Y22863D01*
X431249Y20152D01*
X429893Y18796D01*
X427182Y18796D01*
X425826Y20152D01*
X425826Y21508D01*
X427182Y22863D01*
X431249Y22863D01*
X460581Y18796D02*
X466004Y18796D01*
X460581Y24219D01*
X460581Y25575D01*
X461937Y26931D01*
X464649Y26931D01*
X466004Y25575D01*
X452582Y26931D02*
X452582Y18796D01*
X456649Y22863D02*
X452582Y26931D01*
X451226Y22863D02*
X456649Y22863D01*
X485981Y18796D02*
X491404Y18796D01*
X485981Y24219D01*
X485981Y25575D01*
X487337Y26931D01*
X490049Y26931D01*
X491404Y25575D01*
X482049Y18796D02*
X476626Y18796D01*
X482049Y18796D02*
X476626Y24219D01*
X476626Y25575D01*
X477982Y26931D01*
X480693Y26931D01*
X482049Y25575D01*
X511381Y18796D02*
X516804Y18796D01*
X511381Y24219D01*
X511381Y25575D01*
X512737Y26931D01*
X515449Y26931D01*
X516804Y25575D01*
X507449Y25575D02*
X507449Y20152D01*
X507449Y25575D02*
X506093Y26931D01*
X503382Y26931D01*
X502026Y25575D01*
X502026Y20152D01*
X503382Y18796D01*
X506093Y18796D01*
X507449Y20152D01*
X502026Y25575D01*
X539493Y26931D02*
X542204Y24219D01*
X539493Y26931D02*
X539493Y18796D01*
X542204Y18796D02*
X536781Y18796D01*
X532849Y25575D02*
X531493Y26931D01*
X528782Y26931D01*
X527426Y25575D01*
X527426Y24219D01*
X528782Y22863D01*
X527426Y21508D01*
X527426Y20152D01*
X528782Y18796D01*
X531493Y18796D01*
X532849Y20152D01*
X532849Y21508D01*
X531493Y22863D01*
X532849Y24219D01*
X532849Y25575D01*
X531493Y22863D02*
X528782Y22863D01*
X564893Y26931D02*
X567604Y24219D01*
X564893Y26931D02*
X564893Y18796D01*
X567604Y18796D02*
X562181Y18796D01*
X555538Y25575D02*
X552826Y26931D01*
X555538Y25575D02*
X558249Y22863D01*
X558249Y20152D01*
X556893Y18796D01*
X554182Y18796D01*
X552826Y20152D01*
X552826Y21508D01*
X554182Y22863D01*
X558249Y22863D01*
X590293Y26931D02*
X593004Y24219D01*
X590293Y26931D02*
X590293Y18796D01*
X593004Y18796D02*
X587581Y18796D01*
X579582Y18796D02*
X579582Y26931D01*
X583649Y22863D01*
X578226Y22863D01*
X615693Y26931D02*
X618404Y24219D01*
X615693Y26931D02*
X615693Y18796D01*
X618404Y18796D02*
X612981Y18796D01*
X609049Y18796D02*
X603626Y18796D01*
X609049Y18796D02*
X603626Y24219D01*
X603626Y25575D01*
X604982Y26931D01*
X607693Y26931D01*
X609049Y25575D01*
X641093Y26931D02*
X643804Y24219D01*
X641093Y26931D02*
X641093Y18796D01*
X643804Y18796D02*
X638381Y18796D01*
X634449Y20152D02*
X634449Y25575D01*
X633093Y26931D01*
X630382Y26931D01*
X629026Y25575D01*
X629026Y20152D01*
X630382Y18796D01*
X633093Y18796D01*
X634449Y20152D01*
X629026Y25575D01*
X662303Y26931D02*
X663659Y25575D01*
X662303Y26931D02*
X659592Y26931D01*
X658236Y25575D01*
X658236Y24219D01*
X659592Y22863D01*
X658236Y21508D01*
X658236Y20152D01*
X659592Y18796D01*
X662303Y18796D01*
X663659Y20152D01*
X663659Y21508D01*
X662303Y22863D01*
X663659Y24219D01*
X663659Y25575D01*
X662303Y22863D02*
X659592Y22863D01*
X683636Y26931D02*
X686348Y25575D01*
X689059Y22863D01*
X689059Y20152D01*
X687703Y18796D01*
X684992Y18796D01*
X683636Y20152D01*
X683636Y21508D01*
X684992Y22863D01*
X689059Y22863D01*
X710392Y18796D02*
X710392Y26931D01*
X714459Y22863D01*
X709036Y22863D01*
X734436Y18796D02*
X739859Y18796D01*
X734436Y24219D01*
X734436Y25575D01*
X735792Y26931D01*
X738503Y26931D01*
X739859Y25575D01*
X740407Y1166876D02*
X740407Y1175011D01*
X744474Y1170943D01*
X739051Y1170943D01*
X735119Y1168232D02*
X735119Y1173655D01*
X733763Y1175011D01*
X731051Y1175011D01*
X729696Y1173655D01*
X729696Y1168232D01*
X731051Y1166876D01*
X733763Y1166876D01*
X735119Y1168232D01*
X729696Y1173655D01*
X719074Y1173655D02*
X717718Y1175011D01*
X715007Y1175011D01*
X713651Y1173655D01*
X713651Y1172299D01*
X715007Y1170943D01*
X716362Y1170943D01*
X715007Y1170943D02*
X713651Y1169588D01*
X713651Y1168232D01*
X715007Y1166876D01*
X717718Y1166876D01*
X719074Y1168232D01*
X709719Y1173655D02*
X708363Y1175011D01*
X705651Y1175011D01*
X704296Y1173655D01*
X704296Y1172299D01*
X705651Y1170943D01*
X704296Y1169588D01*
X704296Y1168232D01*
X705651Y1166876D01*
X708363Y1166876D01*
X709719Y1168232D01*
X709719Y1169588D01*
X708363Y1170943D01*
X709719Y1172299D01*
X709719Y1173655D01*
X708363Y1170943D02*
X705651Y1170943D01*
X693674Y1173655D02*
X692318Y1175011D01*
X689607Y1175011D01*
X688251Y1173655D01*
X688251Y1172299D01*
X689607Y1170943D01*
X690962Y1170943D01*
X689607Y1170943D02*
X688251Y1169588D01*
X688251Y1168232D01*
X689607Y1166876D01*
X692318Y1166876D01*
X693674Y1168232D01*
X681607Y1173655D02*
X678896Y1175011D01*
X681607Y1173655D02*
X684319Y1170943D01*
X684319Y1168232D01*
X682963Y1166876D01*
X680251Y1166876D01*
X678896Y1168232D01*
X678896Y1169588D01*
X680251Y1170943D01*
X684319Y1170943D01*
X668274Y1173655D02*
X666918Y1175011D01*
X664207Y1175011D01*
X662851Y1173655D01*
X662851Y1172299D01*
X664207Y1170943D01*
X665562Y1170943D01*
X664207Y1170943D02*
X662851Y1169588D01*
X662851Y1168232D01*
X664207Y1166876D01*
X666918Y1166876D01*
X668274Y1168232D01*
X654851Y1166876D02*
X654851Y1175011D01*
X658919Y1170943D01*
X653496Y1170943D01*
X642874Y1173655D02*
X641518Y1175011D01*
X638807Y1175011D01*
X637451Y1173655D01*
X637451Y1172299D01*
X638807Y1170943D01*
X640162Y1170943D01*
X638807Y1170943D02*
X637451Y1169588D01*
X637451Y1168232D01*
X638807Y1166876D01*
X641518Y1166876D01*
X642874Y1168232D01*
X633519Y1166876D02*
X628096Y1166876D01*
X633519Y1166876D02*
X628096Y1172299D01*
X628096Y1173655D01*
X629451Y1175011D01*
X632163Y1175011D01*
X633519Y1173655D01*
X617474Y1173655D02*
X616118Y1175011D01*
X613407Y1175011D01*
X612051Y1173655D01*
X612051Y1172299D01*
X613407Y1170943D01*
X614762Y1170943D01*
X613407Y1170943D02*
X612051Y1169588D01*
X612051Y1168232D01*
X613407Y1166876D01*
X616118Y1166876D01*
X617474Y1168232D01*
X608119Y1168232D02*
X608119Y1173655D01*
X606763Y1175011D01*
X604051Y1175011D01*
X602696Y1173655D01*
X602696Y1168232D01*
X604051Y1166876D01*
X606763Y1166876D01*
X608119Y1168232D01*
X602696Y1173655D01*
X592074Y1166876D02*
X586651Y1166876D01*
X592074Y1166876D02*
X586651Y1172299D01*
X586651Y1173655D01*
X588007Y1175011D01*
X590718Y1175011D01*
X592074Y1173655D01*
X582719Y1173655D02*
X581363Y1175011D01*
X578651Y1175011D01*
X577296Y1173655D01*
X577296Y1172299D01*
X578651Y1170943D01*
X577296Y1169588D01*
X577296Y1168232D01*
X578651Y1166876D01*
X581363Y1166876D01*
X582719Y1168232D01*
X582719Y1169588D01*
X581363Y1170943D01*
X582719Y1172299D01*
X582719Y1173655D01*
X581363Y1170943D02*
X578651Y1170943D01*
X566674Y1166876D02*
X561251Y1166876D01*
X566674Y1166876D02*
X561251Y1172299D01*
X561251Y1173655D01*
X562607Y1175011D01*
X565318Y1175011D01*
X566674Y1173655D01*
X554607Y1173655D02*
X551896Y1175011D01*
X554607Y1173655D02*
X557319Y1170943D01*
X557319Y1168232D01*
X555963Y1166876D01*
X553251Y1166876D01*
X551896Y1168232D01*
X551896Y1169588D01*
X553251Y1170943D01*
X557319Y1170943D01*
X541274Y1166876D02*
X535851Y1166876D01*
X541274Y1166876D02*
X535851Y1172299D01*
X535851Y1173655D01*
X537207Y1175011D01*
X539918Y1175011D01*
X541274Y1173655D01*
X527851Y1175011D02*
X527851Y1166876D01*
X531919Y1170943D02*
X527851Y1175011D01*
X526496Y1170943D02*
X531919Y1170943D01*
X515874Y1166876D02*
X510451Y1166876D01*
X515874Y1166876D02*
X510451Y1172299D01*
X510451Y1173655D01*
X511807Y1175011D01*
X514518Y1175011D01*
X515874Y1173655D01*
X506519Y1166876D02*
X501096Y1166876D01*
X506519Y1166876D02*
X501096Y1172299D01*
X501096Y1173655D01*
X502451Y1175011D01*
X505163Y1175011D01*
X506519Y1173655D01*
X490474Y1166876D02*
X485051Y1166876D01*
X490474Y1166876D02*
X485051Y1172299D01*
X485051Y1173655D01*
X486407Y1175011D01*
X489118Y1175011D01*
X490474Y1173655D01*
X481119Y1173655D02*
X481119Y1168232D01*
X481119Y1173655D02*
X479763Y1175011D01*
X477051Y1175011D01*
X475696Y1173655D01*
X475696Y1168232D01*
X477051Y1166876D01*
X479763Y1166876D01*
X481119Y1168232D01*
X475696Y1173655D01*
X465074Y1172299D02*
X462362Y1175011D01*
X462362Y1166876D01*
X459651Y1166876D02*
X465074Y1166876D01*
X455719Y1173655D02*
X454363Y1175011D01*
X451651Y1175011D01*
X450296Y1173655D01*
X450296Y1172299D01*
X451651Y1170943D01*
X450296Y1169588D01*
X450296Y1168232D01*
X451651Y1166876D01*
X454363Y1166876D01*
X455719Y1168232D01*
X455719Y1169588D01*
X454363Y1170943D01*
X455719Y1172299D01*
X455719Y1173655D01*
X454363Y1170943D02*
X451651Y1170943D01*
X439674Y1172299D02*
X436962Y1175011D01*
X436962Y1166876D01*
X434251Y1166876D02*
X439674Y1166876D01*
X427607Y1173655D02*
X424896Y1175011D01*
X427607Y1173655D02*
X430319Y1170943D01*
X430319Y1168232D01*
X428963Y1166876D01*
X426251Y1166876D01*
X424896Y1168232D01*
X424896Y1169588D01*
X426251Y1170943D01*
X430319Y1170943D01*
X414274Y1172299D02*
X411562Y1175011D01*
X411562Y1166876D01*
X408851Y1166876D02*
X414274Y1166876D01*
X400851Y1166876D02*
X400851Y1175011D01*
X404919Y1170943D01*
X399496Y1170943D01*
X388874Y1172299D02*
X386162Y1175011D01*
X386162Y1166876D01*
X383451Y1166876D02*
X388874Y1166876D01*
X379519Y1166876D02*
X374096Y1166876D01*
X379519Y1166876D02*
X374096Y1172299D01*
X374096Y1173655D01*
X375451Y1175011D01*
X378163Y1175011D01*
X379519Y1173655D01*
X363474Y1172299D02*
X360762Y1175011D01*
X360762Y1166876D01*
X358051Y1166876D02*
X363474Y1166876D01*
X354119Y1168232D02*
X354119Y1173655D01*
X352763Y1175011D01*
X350051Y1175011D01*
X348696Y1173655D01*
X348696Y1168232D01*
X350051Y1166876D01*
X352763Y1166876D01*
X354119Y1168232D01*
X348696Y1173655D01*
X334264Y1173655D02*
X332908Y1175011D01*
X330197Y1175011D01*
X328841Y1173655D01*
X328841Y1172299D01*
X330197Y1170943D01*
X328841Y1169588D01*
X328841Y1168232D01*
X330197Y1166876D01*
X332908Y1166876D01*
X334264Y1168232D01*
X334264Y1169588D01*
X332908Y1170943D01*
X334264Y1172299D01*
X334264Y1173655D01*
X332908Y1170943D02*
X330197Y1170943D01*
X306152Y1173655D02*
X303441Y1175011D01*
X306152Y1173655D02*
X308864Y1170943D01*
X308864Y1168232D01*
X307508Y1166876D01*
X304797Y1166876D01*
X303441Y1168232D01*
X303441Y1169588D01*
X304797Y1170943D01*
X308864Y1170943D01*
X279397Y1166876D02*
X279397Y1175011D01*
X283464Y1170943D01*
X278041Y1170943D01*
X258064Y1166876D02*
X252641Y1166876D01*
X258064Y1166876D02*
X252641Y1172299D01*
X252641Y1173655D01*
X253997Y1175011D01*
X256708Y1175011D01*
X258064Y1173655D01*
X255818Y1119131D02*
X258529Y1116419D01*
X255818Y1119131D02*
X255818Y1110996D01*
X258529Y1110996D02*
X253106Y1110996D01*
X282573Y1119131D02*
X283929Y1117775D01*
X282573Y1119131D02*
X279862Y1119131D01*
X278506Y1117775D01*
X278506Y1116419D01*
X279862Y1115063D01*
X281218Y1115063D01*
X279862Y1115063D02*
X278506Y1113708D01*
X278506Y1112352D01*
X279862Y1110996D01*
X282573Y1110996D01*
X283929Y1112352D01*
X303906Y1119131D02*
X309329Y1119131D01*
X309329Y1115063D01*
X306618Y1116419D01*
X305262Y1116419D01*
X303906Y1115063D01*
X303906Y1112352D01*
X305262Y1110996D01*
X307973Y1110996D01*
X309329Y1112352D01*
X329306Y1119131D02*
X334729Y1119131D01*
X329306Y1119131D02*
X329306Y1117775D01*
X334729Y1112352D01*
X334729Y1110996D01*
X358773Y1110996D02*
X360129Y1112352D01*
X358773Y1110996D02*
X356062Y1110996D01*
X354706Y1112352D01*
X354706Y1117775D01*
X356062Y1119131D01*
X358773Y1119131D01*
X360129Y1117775D01*
X360129Y1116419D01*
X358773Y1115063D01*
X354706Y1115063D01*
X387093Y1119131D02*
X389804Y1116419D01*
X387093Y1119131D02*
X387093Y1110996D01*
X389804Y1110996D02*
X384381Y1110996D01*
X380449Y1116419D02*
X377738Y1119131D01*
X377738Y1110996D01*
X380449Y1110996D02*
X375026Y1110996D01*
X412493Y1119131D02*
X415204Y1116419D01*
X412493Y1119131D02*
X412493Y1110996D01*
X415204Y1110996D02*
X409781Y1110996D01*
X405849Y1117775D02*
X404493Y1119131D01*
X401782Y1119131D01*
X400426Y1117775D01*
X400426Y1116419D01*
X401782Y1115063D01*
X403138Y1115063D01*
X401782Y1115063D02*
X400426Y1113708D01*
X400426Y1112352D01*
X401782Y1110996D01*
X404493Y1110996D01*
X405849Y1112352D01*
X437893Y1119131D02*
X440604Y1116419D01*
X437893Y1119131D02*
X437893Y1110996D01*
X440604Y1110996D02*
X435181Y1110996D01*
X431249Y1119131D02*
X425826Y1119131D01*
X431249Y1119131D02*
X431249Y1115063D01*
X428538Y1116419D01*
X427182Y1116419D01*
X425826Y1115063D01*
X425826Y1112352D01*
X427182Y1110996D01*
X429893Y1110996D01*
X431249Y1112352D01*
X463293Y1119131D02*
X466004Y1116419D01*
X463293Y1119131D02*
X463293Y1110996D01*
X466004Y1110996D02*
X460581Y1110996D01*
X456649Y1119131D02*
X451226Y1119131D01*
X451226Y1117775D01*
X456649Y1112352D01*
X456649Y1110996D01*
X488693Y1119131D02*
X491404Y1116419D01*
X488693Y1119131D02*
X488693Y1110996D01*
X491404Y1110996D02*
X485981Y1110996D01*
X482049Y1112352D02*
X480693Y1110996D01*
X477982Y1110996D01*
X476626Y1112352D01*
X476626Y1117775D01*
X477982Y1119131D01*
X480693Y1119131D01*
X482049Y1117775D01*
X482049Y1116419D01*
X480693Y1115063D01*
X476626Y1115063D01*
X511381Y1110996D02*
X516804Y1110996D01*
X511381Y1116419D01*
X511381Y1117775D01*
X512737Y1119131D01*
X515449Y1119131D01*
X516804Y1117775D01*
X507449Y1116419D02*
X504738Y1119131D01*
X504738Y1110996D01*
X507449Y1110996D02*
X502026Y1110996D01*
X536781Y1110996D02*
X542204Y1110996D01*
X536781Y1116419D01*
X536781Y1117775D01*
X538137Y1119131D01*
X540849Y1119131D01*
X542204Y1117775D01*
X532849Y1117775D02*
X531493Y1119131D01*
X528782Y1119131D01*
X527426Y1117775D01*
X527426Y1116419D01*
X528782Y1115063D01*
X530138Y1115063D01*
X528782Y1115063D02*
X527426Y1113708D01*
X527426Y1112352D01*
X528782Y1110996D01*
X531493Y1110996D01*
X532849Y1112352D01*
X562181Y1110996D02*
X567604Y1110996D01*
X562181Y1116419D01*
X562181Y1117775D01*
X563537Y1119131D01*
X566249Y1119131D01*
X567604Y1117775D01*
X558249Y1119131D02*
X552826Y1119131D01*
X558249Y1119131D02*
X558249Y1115063D01*
X555538Y1116419D01*
X554182Y1116419D01*
X552826Y1115063D01*
X552826Y1112352D01*
X554182Y1110996D01*
X556893Y1110996D01*
X558249Y1112352D01*
X587581Y1110996D02*
X593004Y1110996D01*
X587581Y1116419D01*
X587581Y1117775D01*
X588937Y1119131D01*
X591649Y1119131D01*
X593004Y1117775D01*
X583649Y1119131D02*
X578226Y1119131D01*
X578226Y1117775D01*
X583649Y1112352D01*
X583649Y1110996D01*
X612981Y1110996D02*
X618404Y1110996D01*
X612981Y1116419D01*
X612981Y1117775D01*
X614337Y1119131D01*
X617049Y1119131D01*
X618404Y1117775D01*
X609049Y1112352D02*
X607693Y1110996D01*
X604982Y1110996D01*
X603626Y1112352D01*
X603626Y1117775D01*
X604982Y1119131D01*
X607693Y1119131D01*
X609049Y1117775D01*
X609049Y1116419D01*
X607693Y1115063D01*
X603626Y1115063D01*
X642449Y1119131D02*
X643804Y1117775D01*
X642449Y1119131D02*
X639737Y1119131D01*
X638381Y1117775D01*
X638381Y1116419D01*
X639737Y1115063D01*
X641093Y1115063D01*
X639737Y1115063D02*
X638381Y1113708D01*
X638381Y1112352D01*
X639737Y1110996D01*
X642449Y1110996D01*
X643804Y1112352D01*
X634449Y1116419D02*
X631738Y1119131D01*
X631738Y1110996D01*
X634449Y1110996D02*
X629026Y1110996D01*
X667849Y1119131D02*
X669204Y1117775D01*
X667849Y1119131D02*
X665137Y1119131D01*
X663781Y1117775D01*
X663781Y1116419D01*
X665137Y1115063D01*
X666493Y1115063D01*
X665137Y1115063D02*
X663781Y1113708D01*
X663781Y1112352D01*
X665137Y1110996D01*
X667849Y1110996D01*
X669204Y1112352D01*
X659849Y1117775D02*
X658493Y1119131D01*
X655782Y1119131D01*
X654426Y1117775D01*
X654426Y1116419D01*
X655782Y1115063D01*
X657138Y1115063D01*
X655782Y1115063D02*
X654426Y1113708D01*
X654426Y1112352D01*
X655782Y1110996D01*
X658493Y1110996D01*
X659849Y1112352D01*
X693249Y1119131D02*
X694604Y1117775D01*
X693249Y1119131D02*
X690537Y1119131D01*
X689181Y1117775D01*
X689181Y1116419D01*
X690537Y1115063D01*
X691893Y1115063D01*
X690537Y1115063D02*
X689181Y1113708D01*
X689181Y1112352D01*
X690537Y1110996D01*
X693249Y1110996D01*
X694604Y1112352D01*
X685249Y1119131D02*
X679826Y1119131D01*
X685249Y1119131D02*
X685249Y1115063D01*
X682538Y1116419D01*
X681182Y1116419D01*
X679826Y1115063D01*
X679826Y1112352D01*
X681182Y1110996D01*
X683893Y1110996D01*
X685249Y1112352D01*
X718649Y1119131D02*
X720004Y1117775D01*
X718649Y1119131D02*
X715937Y1119131D01*
X714581Y1117775D01*
X714581Y1116419D01*
X715937Y1115063D01*
X717293Y1115063D01*
X715937Y1115063D02*
X714581Y1113708D01*
X714581Y1112352D01*
X715937Y1110996D01*
X718649Y1110996D01*
X720004Y1112352D01*
X710649Y1119131D02*
X705226Y1119131D01*
X705226Y1117775D01*
X710649Y1112352D01*
X710649Y1110996D01*
X744049Y1119131D02*
X745404Y1117775D01*
X744049Y1119131D02*
X741337Y1119131D01*
X739981Y1117775D01*
X739981Y1116419D01*
X741337Y1115063D01*
X742693Y1115063D01*
X741337Y1115063D02*
X739981Y1113708D01*
X739981Y1112352D01*
X741337Y1110996D01*
X744049Y1110996D01*
X745404Y1112352D01*
X736049Y1112352D02*
X734693Y1110996D01*
X731982Y1110996D01*
X730626Y1112352D01*
X730626Y1117775D01*
X731982Y1119131D01*
X734693Y1119131D01*
X736049Y1117775D01*
X736049Y1116419D01*
X734693Y1115063D01*
X730626Y1115063D01*
X939882Y82811D02*
X942594Y80099D01*
X939882Y82811D02*
X939882Y74676D01*
X937171Y74676D02*
X942594Y74676D01*
X917194Y81455D02*
X915838Y82811D01*
X913127Y82811D01*
X911771Y81455D01*
X911771Y80099D01*
X913127Y78743D01*
X914482Y78743D01*
X913127Y78743D02*
X911771Y77388D01*
X911771Y76032D01*
X913127Y74676D01*
X915838Y74676D01*
X917194Y76032D01*
X891794Y82811D02*
X886371Y82811D01*
X891794Y82811D02*
X891794Y78743D01*
X889082Y80099D01*
X887727Y80099D01*
X886371Y78743D01*
X886371Y76032D01*
X887727Y74676D01*
X890438Y74676D01*
X891794Y76032D01*
X866394Y82811D02*
X860971Y82811D01*
X860971Y81455D01*
X866394Y76032D01*
X866394Y74676D01*
X840994Y76032D02*
X839638Y74676D01*
X836927Y74676D01*
X835571Y76032D01*
X835571Y81455D01*
X836927Y82811D01*
X839638Y82811D01*
X840994Y81455D01*
X840994Y80099D01*
X839638Y78743D01*
X835571Y78743D01*
X841459Y1116419D02*
X838748Y1119131D01*
X838748Y1110996D01*
X841459Y1110996D02*
X836036Y1110996D01*
X865503Y1119131D02*
X866859Y1117775D01*
X865503Y1119131D02*
X862792Y1119131D01*
X861436Y1117775D01*
X861436Y1116419D01*
X862792Y1115063D01*
X864148Y1115063D01*
X862792Y1115063D02*
X861436Y1113708D01*
X861436Y1112352D01*
X862792Y1110996D01*
X865503Y1110996D01*
X866859Y1112352D01*
X886836Y1119131D02*
X892259Y1119131D01*
X892259Y1115063D01*
X889548Y1116419D01*
X888192Y1116419D01*
X886836Y1115063D01*
X886836Y1112352D01*
X888192Y1110996D01*
X890903Y1110996D01*
X892259Y1112352D01*
X912236Y1119131D02*
X917659Y1119131D01*
X912236Y1119131D02*
X912236Y1117775D01*
X917659Y1112352D01*
X917659Y1110996D01*
X941703Y1110996D02*
X943059Y1112352D01*
X941703Y1110996D02*
X938992Y1110996D01*
X937636Y1112352D01*
X937636Y1117775D01*
X938992Y1119131D01*
X941703Y1119131D01*
X943059Y1117775D01*
X943059Y1116419D01*
X941703Y1115063D01*
X937636Y1115063D01*
X844293Y26931D02*
X847004Y24219D01*
X844293Y26931D02*
X844293Y18796D01*
X847004Y18796D02*
X841581Y18796D01*
X837649Y20152D02*
X837649Y25575D01*
X836293Y26931D01*
X833582Y26931D01*
X832226Y25575D01*
X832226Y20152D01*
X833582Y18796D01*
X836293Y18796D01*
X837649Y20152D01*
X832226Y25575D01*
X865503Y26931D02*
X866859Y25575D01*
X865503Y26931D02*
X862792Y26931D01*
X861436Y25575D01*
X861436Y24219D01*
X862792Y22863D01*
X861436Y21508D01*
X861436Y20152D01*
X862792Y18796D01*
X865503Y18796D01*
X866859Y20152D01*
X866859Y21508D01*
X865503Y22863D01*
X866859Y24219D01*
X866859Y25575D01*
X865503Y22863D02*
X862792Y22863D01*
X886836Y26931D02*
X889548Y25575D01*
X892259Y22863D01*
X892259Y20152D01*
X890903Y18796D01*
X888192Y18796D01*
X886836Y20152D01*
X886836Y21508D01*
X888192Y22863D01*
X892259Y22863D01*
X913592Y18796D02*
X913592Y26931D01*
X917659Y22863D01*
X912236Y22863D01*
X937636Y18796D02*
X943059Y18796D01*
X937636Y24219D01*
X937636Y25575D01*
X938992Y26931D01*
X941703Y26931D01*
X943059Y25575D01*
X947674Y1172299D02*
X944962Y1175011D01*
X944962Y1166876D01*
X942251Y1166876D02*
X947674Y1166876D01*
X938319Y1168232D02*
X938319Y1173655D01*
X936963Y1175011D01*
X934251Y1175011D01*
X932896Y1173655D01*
X932896Y1168232D01*
X934251Y1166876D01*
X936963Y1166876D01*
X938319Y1168232D01*
X932896Y1173655D01*
X918464Y1173655D02*
X917108Y1175011D01*
X914397Y1175011D01*
X913041Y1173655D01*
X913041Y1172299D01*
X914397Y1170943D01*
X913041Y1169588D01*
X913041Y1168232D01*
X914397Y1166876D01*
X917108Y1166876D01*
X918464Y1168232D01*
X918464Y1169588D01*
X917108Y1170943D01*
X918464Y1172299D01*
X918464Y1173655D01*
X917108Y1170943D02*
X914397Y1170943D01*
X890352Y1173655D02*
X887641Y1175011D01*
X890352Y1173655D02*
X893064Y1170943D01*
X893064Y1168232D01*
X891708Y1166876D01*
X888997Y1166876D01*
X887641Y1168232D01*
X887641Y1169588D01*
X888997Y1170943D01*
X893064Y1170943D01*
X863597Y1166876D02*
X863597Y1175011D01*
X867664Y1170943D01*
X862241Y1170943D01*
X842264Y1166876D02*
X836841Y1166876D01*
X842264Y1166876D02*
X836841Y1172299D01*
X836841Y1173655D01*
X838197Y1175011D01*
X840908Y1175011D01*
X842264Y1173655D01*
D10*
X1116164Y924814D02*
X1122943Y924814D01*
X1116164Y924814D02*
X1112774Y928204D01*
X1116164Y931593D01*
X1122943Y931593D01*
X1122943Y941592D02*
X1121248Y943287D01*
X1122943Y941592D02*
X1122943Y938203D01*
X1121248Y936508D01*
X1114469Y936508D01*
X1112774Y938203D01*
X1112774Y941592D01*
X1114469Y943287D01*
X1117858Y943287D01*
X1117858Y939898D01*
X1119553Y948202D02*
X1112774Y948202D01*
X1119553Y948202D02*
X1122943Y951592D01*
X1119553Y954981D01*
X1112774Y954981D01*
X1117858Y954981D02*
X1117858Y948202D01*
D12*
X741680Y156989D02*
X741680Y136652D01*
X734901Y143431D01*
X728122Y136652D01*
X728122Y156989D01*
X718292Y156989D02*
X718292Y136652D01*
X711513Y143431D01*
X704734Y136652D01*
X704734Y156989D01*
X694904Y156989D02*
X694904Y136652D01*
X688125Y143431D01*
X681346Y136652D01*
X681346Y156989D01*
X671516Y140042D02*
X671516Y136652D01*
X671516Y140042D02*
X668127Y140042D01*
X668127Y136652D01*
X671516Y136652D01*
X656433Y156989D02*
X649653Y156989D01*
X656433Y156989D02*
X659822Y153600D01*
X659822Y140042D01*
X656433Y136652D01*
X649653Y136652D01*
X646264Y140042D01*
X646264Y153600D01*
X649653Y156989D01*
X636434Y156989D02*
X636434Y136652D01*
X622876Y136652D01*
X613046Y136652D02*
X606267Y136652D01*
X609657Y136652D02*
X609657Y156989D01*
X613046Y156989D02*
X606267Y156989D01*
X597454Y156989D02*
X597454Y136652D01*
X590675Y150210D02*
X597454Y156989D01*
X590675Y150210D02*
X583896Y156989D01*
X583896Y136652D01*
X574066Y156989D02*
X560508Y156989D01*
X574066Y156989D02*
X574066Y136652D01*
X560508Y136652D01*
X567287Y146821D02*
X574066Y146821D01*
X550678Y156989D02*
X537120Y136652D01*
X550678Y136652D02*
X537120Y156989D01*
X527290Y140042D02*
X527290Y136652D01*
X527290Y140042D02*
X523901Y140042D01*
X523901Y136652D01*
X527290Y136652D01*
X505428Y156989D02*
X502038Y153600D01*
X505428Y156989D02*
X512207Y156989D01*
X515596Y153600D01*
X515596Y140042D01*
X512207Y136652D01*
X505428Y136652D01*
X502038Y140042D01*
X488819Y156989D02*
X482040Y156989D01*
X488819Y156989D02*
X492208Y153600D01*
X492208Y140042D01*
X488819Y136652D01*
X482040Y136652D01*
X478650Y140042D01*
X478650Y153600D01*
X482040Y156989D01*
X468820Y156989D02*
X468820Y136652D01*
X462041Y150210D02*
X468820Y156989D01*
X462041Y150210D02*
X455262Y156989D01*
X455262Y136652D01*
X831850Y1007110D02*
X831850Y1027447D01*
X825071Y1020668D01*
X818292Y1027447D01*
X818292Y1007110D01*
X805072Y1020668D02*
X798293Y1020668D01*
X794904Y1017279D01*
X794904Y1007110D01*
X805072Y1007110D01*
X808462Y1010500D01*
X805072Y1013889D01*
X794904Y1013889D01*
X771516Y1007110D02*
X771516Y1027447D01*
X771516Y1007110D02*
X781685Y1007110D01*
X785074Y1010500D01*
X785074Y1017279D01*
X781685Y1020668D01*
X771516Y1020668D01*
X758297Y1007110D02*
X751517Y1007110D01*
X758297Y1007110D02*
X761686Y1010500D01*
X761686Y1017279D01*
X758297Y1020668D01*
X751517Y1020668D01*
X748128Y1017279D01*
X748128Y1013889D01*
X761686Y1013889D01*
X714910Y1020668D02*
X711521Y1020668D01*
X711521Y1007110D01*
X714910Y1007110D02*
X708131Y1007110D01*
X711521Y1027447D02*
X711521Y1030837D01*
X699318Y1020668D02*
X699318Y1007110D01*
X699318Y1020668D02*
X689150Y1020668D01*
X685760Y1017279D01*
X685760Y1007110D01*
X652542Y1007110D02*
X652542Y1027447D01*
X642374Y1027447D01*
X638984Y1024058D01*
X638984Y1020668D01*
X642374Y1017279D01*
X638984Y1013889D01*
X638984Y1010500D01*
X642374Y1007110D01*
X652542Y1007110D01*
X652542Y1017279D02*
X642374Y1017279D01*
X629154Y1020668D02*
X629154Y1010500D01*
X625765Y1007110D01*
X615596Y1007110D01*
X615596Y1020668D01*
X605766Y1027447D02*
X602377Y1027447D01*
X602377Y1007110D01*
X605766Y1007110D02*
X598987Y1007110D01*
X583395Y1000331D02*
X580006Y1000331D01*
X576616Y1003720D01*
X576616Y1020668D01*
X586785Y1020668D01*
X590174Y1017279D01*
X590174Y1010500D01*
X586785Y1007110D01*
X576616Y1007110D01*
X563397Y1020668D02*
X556618Y1020668D01*
X553228Y1017279D01*
X553228Y1007110D01*
X563397Y1007110D01*
X566786Y1010500D01*
X563397Y1013889D01*
X553228Y1013889D01*
X543398Y1007110D02*
X543398Y1020668D01*
X543398Y1013889D02*
X536619Y1020668D01*
X533230Y1020668D01*
X523908Y1020668D02*
X520519Y1020668D01*
X520519Y1007110D01*
X523908Y1007110D02*
X517129Y1007110D01*
X520519Y1027447D02*
X520519Y1030837D01*
X504927Y1020668D02*
X498148Y1020668D01*
X494758Y1017279D01*
X494758Y1007110D01*
X504927Y1007110D01*
X508316Y1010500D01*
X504927Y1013889D01*
X494758Y1013889D01*
X484929Y1000331D02*
X478149Y1007110D01*
X478149Y1010500D01*
X481539Y1010500D01*
X481539Y1007110D01*
X478149Y1007110D01*
X445949Y1007110D02*
X432390Y1007110D01*
X432390Y1020668D02*
X445949Y1007110D01*
X432390Y1020668D02*
X432390Y1024058D01*
X435780Y1027447D01*
X442559Y1027447D01*
X445949Y1024058D01*
X422561Y1024058D02*
X422561Y1010500D01*
X422561Y1024058D02*
X419171Y1027447D01*
X412392Y1027447D01*
X409002Y1024058D01*
X409002Y1010500D01*
X412392Y1007110D01*
X419171Y1007110D01*
X422561Y1010500D01*
X409002Y1024058D01*
X399173Y1020668D02*
X392394Y1027447D01*
X392394Y1007110D01*
X399173Y1007110D02*
X385614Y1007110D01*
X375785Y1027447D02*
X362226Y1027447D01*
X375785Y1027447D02*
X375785Y1017279D01*
X369006Y1020668D01*
X365616Y1020668D01*
X362226Y1017279D01*
X362226Y1010500D01*
X365616Y1007110D01*
X372395Y1007110D01*
X375785Y1010500D01*
X814324Y934229D02*
X814324Y913892D01*
X804155Y913892D01*
X800766Y917282D01*
X800766Y930840D01*
X804155Y934229D01*
X814324Y934229D01*
X787546Y913892D02*
X780767Y913892D01*
X787546Y913892D02*
X790936Y917282D01*
X790936Y924061D01*
X787546Y927450D01*
X780767Y927450D01*
X777378Y924061D01*
X777378Y920671D01*
X790936Y920671D01*
X767548Y913892D02*
X757379Y913892D01*
X753990Y917282D01*
X757379Y920671D01*
X764159Y920671D01*
X767548Y924061D01*
X764159Y927450D01*
X753990Y927450D01*
X744160Y927450D02*
X740771Y927450D01*
X740771Y913892D01*
X744160Y913892D02*
X737381Y913892D01*
X740771Y934229D02*
X740771Y937619D01*
X721789Y907113D02*
X718399Y907113D01*
X715010Y910502D01*
X715010Y927450D01*
X725179Y927450D01*
X728568Y924061D01*
X728568Y917282D01*
X725179Y913892D01*
X715010Y913892D01*
X705180Y913892D02*
X705180Y927450D01*
X695011Y927450D01*
X691622Y924061D01*
X691622Y913892D01*
X678403Y913892D02*
X671624Y913892D01*
X678403Y913892D02*
X681792Y917282D01*
X681792Y924061D01*
X678403Y927450D01*
X671624Y927450D01*
X668234Y924061D01*
X668234Y920671D01*
X681792Y920671D01*
X644846Y913892D02*
X644846Y934229D01*
X644846Y913892D02*
X655015Y913892D01*
X658404Y917282D01*
X658404Y924061D01*
X655015Y927450D01*
X644846Y927450D01*
X611628Y934229D02*
X611628Y913892D01*
X601460Y913892D01*
X598070Y917282D01*
X598070Y924061D01*
X601460Y927450D01*
X611628Y927450D01*
X588240Y927450D02*
X588240Y917282D01*
X584851Y913892D01*
X574682Y913892D01*
X574682Y910502D02*
X574682Y927450D01*
X574682Y910502D02*
X578072Y907113D01*
X581461Y907113D01*
X564852Y927450D02*
X561463Y927450D01*
X561463Y924061D01*
X564852Y924061D01*
X564852Y927450D01*
X564852Y917282D02*
X561463Y917282D01*
X561463Y913892D01*
X564852Y913892D01*
X564852Y917282D01*
D11*
X23377Y187419D02*
X21598Y185639D01*
X23377Y187419D02*
X23377Y190978D01*
X21598Y192757D01*
X19818Y192757D01*
X18039Y190978D01*
X18039Y189198D01*
X18039Y190978D02*
X16259Y192757D01*
X14480Y192757D01*
X12700Y190978D01*
X12700Y187419D01*
X14480Y185639D01*
X14480Y197333D02*
X12700Y197333D01*
X14480Y197333D02*
X14480Y199113D01*
X12700Y199113D01*
X12700Y197333D01*
X23377Y203180D02*
X23377Y210298D01*
X21598Y210298D01*
X14480Y203180D01*
X12700Y203180D01*
X16259Y214874D02*
X23377Y214874D01*
X16259Y214874D02*
X12700Y218433D01*
X16259Y221992D01*
X23377Y221992D01*
X345097Y961819D02*
X346453Y963175D01*
X349164Y963175D01*
X350520Y961819D01*
X350520Y956396D01*
X349164Y955040D01*
X346453Y955040D01*
X345097Y956396D01*
X345097Y959107D01*
X347808Y959107D01*
X341165Y955040D02*
X341165Y963175D01*
X335742Y955040D01*
X335742Y963175D01*
X331810Y963175D02*
X331810Y955040D01*
X327742Y955040D01*
X326386Y956396D01*
X326386Y961819D01*
X327742Y963175D01*
X331810Y963175D01*
X350520Y937775D02*
X350520Y929640D01*
X346453Y929640D01*
X345097Y930996D01*
X345097Y936419D01*
X346453Y937775D01*
X350520Y937775D01*
X341165Y937775D02*
X341165Y929640D01*
X341165Y937775D02*
X337097Y937775D01*
X335742Y936419D01*
X335742Y933707D01*
X337097Y932352D01*
X341165Y932352D01*
X327742Y929640D02*
X327742Y937775D01*
X331810Y933707D01*
X326386Y933707D01*
X350520Y912375D02*
X350520Y904240D01*
X346453Y904240D01*
X345097Y905596D01*
X345097Y911019D01*
X346453Y912375D01*
X350520Y912375D01*
X341165Y912375D02*
X341165Y904240D01*
X338453Y909663D02*
X341165Y912375D01*
X338453Y909663D02*
X335742Y912375D01*
X335742Y904240D01*
X327742Y904240D02*
X327742Y912375D01*
X331810Y908307D01*
X326386Y908307D01*
X349164Y886975D02*
X350520Y885619D01*
X349164Y886975D02*
X346453Y886975D01*
X345097Y885619D01*
X345097Y884263D01*
X346453Y882907D01*
X347808Y882907D01*
X346453Y882907D02*
X345097Y881552D01*
X345097Y880196D01*
X346453Y878840D01*
X349164Y878840D01*
X350520Y880196D01*
X341165Y880196D02*
X341165Y878840D01*
X341165Y880196D02*
X339809Y880196D01*
X339809Y878840D01*
X341165Y878840D01*
X336487Y885619D02*
X335131Y886975D01*
X332420Y886975D01*
X331064Y885619D01*
X331064Y884263D01*
X332420Y882907D01*
X333776Y882907D01*
X332420Y882907D02*
X331064Y881552D01*
X331064Y880196D01*
X332420Y878840D01*
X335131Y878840D01*
X336487Y880196D01*
X327132Y881552D02*
X327132Y886975D01*
X327132Y881552D02*
X324420Y878840D01*
X321709Y881552D01*
X321709Y886975D01*
X317777Y878840D02*
X312354Y886975D01*
X308422Y886975D02*
X302998Y886975D01*
X308422Y886975D02*
X308422Y882907D01*
X305710Y884263D01*
X304354Y884263D01*
X302998Y882907D01*
X302998Y880196D01*
X304354Y878840D01*
X307066Y878840D01*
X308422Y880196D01*
X299066Y881552D02*
X299066Y886975D01*
X299066Y881552D02*
X296355Y878840D01*
X293643Y881552D01*
X293643Y886975D01*
X1026836Y38615D02*
X1028192Y37259D01*
X1026836Y38615D02*
X1024125Y38615D01*
X1022769Y37259D01*
X1022769Y35903D01*
X1024125Y34547D01*
X1025480Y34547D01*
X1024125Y34547D02*
X1022769Y33192D01*
X1022769Y31836D01*
X1024125Y30480D01*
X1026836Y30480D01*
X1028192Y31836D01*
X1018837Y31836D02*
X1018837Y30480D01*
X1018837Y31836D02*
X1017481Y31836D01*
X1017481Y30480D01*
X1018837Y30480D01*
X1014159Y37259D02*
X1012803Y38615D01*
X1010092Y38615D01*
X1008736Y37259D01*
X1008736Y35903D01*
X1010092Y34547D01*
X1011448Y34547D01*
X1010092Y34547D02*
X1008736Y33192D01*
X1008736Y31836D01*
X1010092Y30480D01*
X1012803Y30480D01*
X1014159Y31836D01*
X1004804Y33192D02*
X1004804Y38615D01*
X1004804Y33192D02*
X1002092Y30480D01*
X999381Y33192D01*
X999381Y38615D01*
X1042083Y35903D02*
X1043439Y34547D01*
X1043439Y31836D01*
X1042083Y30480D01*
X1040727Y30480D01*
X1039371Y31836D01*
X1039371Y34547D01*
X1038016Y35903D01*
X1036660Y35903D01*
X1035304Y34547D01*
X1035304Y31836D01*
X1036660Y30480D01*
X1035304Y39835D02*
X1043439Y39835D01*
X1035304Y39835D02*
X1035304Y43903D01*
X1036660Y45258D01*
X1042083Y45258D01*
X1043439Y43903D01*
X1043439Y39835D01*
X1043439Y53258D02*
X1042083Y54614D01*
X1043439Y53258D02*
X1043439Y50546D01*
X1042083Y49190D01*
X1036660Y49190D01*
X1035304Y50546D01*
X1035304Y53258D01*
X1036660Y54614D01*
X1036660Y58546D02*
X1042083Y58546D01*
X1043439Y59901D01*
X1043439Y62613D01*
X1042083Y63969D01*
X1036660Y63969D01*
X1035304Y62613D01*
X1035304Y59901D01*
X1036660Y58546D01*
X1042083Y63969D01*
X1033948Y67901D02*
X1033948Y73324D01*
X1042083Y82679D02*
X1043439Y81323D01*
X1043439Y78612D01*
X1042083Y77256D01*
X1040727Y77256D01*
X1039371Y78612D01*
X1039371Y81323D01*
X1038016Y82679D01*
X1036660Y82679D01*
X1035304Y81323D01*
X1035304Y78612D01*
X1036660Y77256D01*
X1043439Y90679D02*
X1042083Y92034D01*
X1043439Y90679D02*
X1043439Y87967D01*
X1042083Y86611D01*
X1036660Y86611D01*
X1035304Y87967D01*
X1035304Y90679D01*
X1036660Y92034D01*
X1035304Y95966D02*
X1043439Y95966D01*
X1038016Y95966D02*
X1043439Y101390D01*
X1039371Y97322D02*
X1035304Y101390D01*
X1067483Y35903D02*
X1068839Y34547D01*
X1068839Y31836D01*
X1067483Y30480D01*
X1066127Y30480D01*
X1064771Y31836D01*
X1064771Y34547D01*
X1063416Y35903D01*
X1062060Y35903D01*
X1060704Y34547D01*
X1060704Y31836D01*
X1062060Y30480D01*
X1060704Y39835D02*
X1068839Y39835D01*
X1060704Y39835D02*
X1060704Y43903D01*
X1062060Y45258D01*
X1067483Y45258D01*
X1068839Y43903D01*
X1068839Y39835D01*
X1068839Y53258D02*
X1067483Y54614D01*
X1068839Y53258D02*
X1068839Y50546D01*
X1067483Y49190D01*
X1062060Y49190D01*
X1060704Y50546D01*
X1060704Y53258D01*
X1062060Y54614D01*
X1062060Y58546D02*
X1067483Y58546D01*
X1068839Y59901D01*
X1068839Y62613D01*
X1067483Y63969D01*
X1062060Y63969D01*
X1060704Y62613D01*
X1060704Y59901D01*
X1062060Y58546D01*
X1067483Y63969D01*
X1059348Y67901D02*
X1059348Y73324D01*
X1060704Y77256D02*
X1068839Y77256D01*
X1060704Y77256D02*
X1060704Y81323D01*
X1062060Y82679D01*
X1067483Y82679D01*
X1068839Y81323D01*
X1068839Y77256D01*
X1066127Y86611D02*
X1060704Y86611D01*
X1066127Y86611D02*
X1068839Y89323D01*
X1066127Y92034D01*
X1060704Y92034D01*
X1064771Y92034D02*
X1064771Y86611D01*
X1060704Y98678D02*
X1068839Y98678D01*
X1068839Y95966D02*
X1068839Y101390D01*
X1066127Y105322D02*
X1060704Y105322D01*
X1066127Y105322D02*
X1068839Y108033D01*
X1066127Y110745D01*
X1060704Y110745D01*
X1064771Y110745D02*
X1064771Y105322D01*
X1067483Y114677D02*
X1068839Y116033D01*
X1068839Y118744D01*
X1067483Y120100D01*
X1066127Y120100D01*
X1064771Y118744D01*
X1064771Y117388D01*
X1064771Y118744D02*
X1063416Y120100D01*
X1062060Y120100D01*
X1060704Y118744D01*
X1060704Y116033D01*
X1062060Y114677D01*
X1092883Y35903D02*
X1094239Y34547D01*
X1094239Y31836D01*
X1092883Y30480D01*
X1087460Y30480D01*
X1086104Y31836D01*
X1086104Y34547D01*
X1087460Y35903D01*
X1090171Y35903D01*
X1090171Y33192D01*
X1086104Y39835D02*
X1094239Y39835D01*
X1086104Y45258D01*
X1094239Y45258D01*
X1094239Y49190D02*
X1086104Y49190D01*
X1086104Y53258D01*
X1087460Y54614D01*
X1092883Y54614D01*
X1094239Y53258D01*
X1094239Y49190D01*
D13*
X1041654Y985100D02*
X1039451Y987304D01*
X1039451Y980694D01*
X1041654Y980694D02*
X1037248Y980694D01*
X1037248Y957834D02*
X1041654Y957834D01*
X1037248Y962240D01*
X1037248Y963342D01*
X1038349Y964444D01*
X1040552Y964444D01*
X1041654Y963342D01*
X1040552Y941584D02*
X1041654Y940482D01*
X1040552Y941584D02*
X1038349Y941584D01*
X1037248Y940482D01*
X1037248Y939380D01*
X1038349Y938279D01*
X1039451Y938279D01*
X1038349Y938279D02*
X1037248Y937177D01*
X1037248Y936076D01*
X1038349Y934974D01*
X1040552Y934974D01*
X1041654Y936076D01*
X1038349Y918724D02*
X1038349Y912114D01*
X1041654Y915419D02*
X1038349Y918724D01*
X1037248Y915419D02*
X1041654Y915419D01*
X1041654Y895864D02*
X1037248Y895864D01*
X1041654Y895864D02*
X1041654Y892559D01*
X1039451Y893660D01*
X1038349Y893660D01*
X1037248Y892559D01*
X1037248Y890356D01*
X1038349Y889254D01*
X1040552Y889254D01*
X1041654Y890356D01*
X1064851Y997378D02*
X1062648Y998480D01*
X1064851Y997378D02*
X1067054Y995175D01*
X1067054Y992972D01*
X1065952Y991870D01*
X1063749Y991870D01*
X1062648Y992972D01*
X1062648Y994073D01*
X1063749Y995175D01*
X1067054Y995175D01*
X1067054Y975620D02*
X1062648Y975620D01*
X1062648Y974518D01*
X1067054Y970112D01*
X1067054Y969010D01*
X1065952Y952760D02*
X1067054Y951658D01*
X1065952Y952760D02*
X1063749Y952760D01*
X1062648Y951658D01*
X1062648Y950556D01*
X1063749Y949455D01*
X1062648Y948353D01*
X1062648Y947252D01*
X1063749Y946150D01*
X1065952Y946150D01*
X1067054Y947252D01*
X1067054Y948353D01*
X1065952Y949455D01*
X1067054Y950556D01*
X1067054Y951658D01*
X1065952Y949455D02*
X1063749Y949455D01*
X1067054Y924392D02*
X1065952Y923290D01*
X1063749Y923290D01*
X1062648Y924392D01*
X1062648Y928798D01*
X1063749Y929900D01*
X1065952Y929900D01*
X1067054Y928798D01*
X1067054Y927696D01*
X1065952Y926595D01*
X1062648Y926595D01*
X1064851Y907040D02*
X1067054Y904836D01*
X1064851Y907040D02*
X1064851Y900430D01*
X1067054Y900430D02*
X1062648Y900430D01*
X1059570Y901532D02*
X1059570Y905938D01*
X1058468Y907040D01*
X1056265Y907040D01*
X1055163Y905938D01*
X1055163Y901532D01*
X1056265Y900430D01*
X1058468Y900430D01*
X1059570Y901532D01*
X1055163Y905938D01*
X1092454Y984846D02*
X1090251Y987050D01*
X1090251Y980440D01*
X1092454Y980440D02*
X1088048Y980440D01*
X1084970Y984846D02*
X1082767Y987050D01*
X1082767Y980440D01*
X1084970Y980440D02*
X1080563Y980440D01*
X1090251Y964190D02*
X1092454Y961986D01*
X1090251Y964190D02*
X1090251Y957580D01*
X1092454Y957580D02*
X1088048Y957580D01*
X1084970Y957580D02*
X1080563Y957580D01*
X1080563Y961986D02*
X1084970Y957580D01*
X1080563Y961986D02*
X1080563Y963088D01*
X1081665Y964190D01*
X1083868Y964190D01*
X1084970Y963088D01*
X1090251Y941330D02*
X1092454Y939126D01*
X1090251Y941330D02*
X1090251Y934720D01*
X1092454Y934720D02*
X1088048Y934720D01*
X1084970Y940228D02*
X1083868Y941330D01*
X1081665Y941330D01*
X1080563Y940228D01*
X1080563Y939126D01*
X1081665Y938025D01*
X1082767Y938025D01*
X1081665Y938025D02*
X1080563Y936923D01*
X1080563Y935822D01*
X1081665Y934720D01*
X1083868Y934720D01*
X1084970Y935822D01*
X1090251Y918470D02*
X1092454Y916266D01*
X1090251Y918470D02*
X1090251Y911860D01*
X1092454Y911860D02*
X1088048Y911860D01*
X1081665Y911860D02*
X1081665Y918470D01*
X1084970Y915165D01*
X1080563Y915165D01*
X1090251Y895610D02*
X1092454Y893406D01*
X1090251Y895610D02*
X1090251Y889000D01*
X1092454Y889000D02*
X1088048Y889000D01*
X1084970Y895610D02*
X1080563Y895610D01*
X1084970Y895610D02*
X1084970Y892305D01*
X1082767Y893406D01*
X1081665Y893406D01*
X1080563Y892305D01*
X1080563Y890102D01*
X1081665Y889000D01*
X1083868Y889000D01*
X1084970Y890102D01*
D11*
X1065791Y1092034D02*
X1059012Y1092034D01*
X1057656Y1093390D01*
X1057656Y1096102D01*
X1059012Y1097458D01*
X1065791Y1097458D01*
X1063079Y1101390D02*
X1057656Y1101390D01*
X1063079Y1101390D02*
X1065791Y1104101D01*
X1063079Y1106813D01*
X1057656Y1106813D01*
X1061723Y1106813D02*
X1061723Y1101390D01*
X1057656Y1110745D02*
X1065791Y1110745D01*
X1065791Y1114812D01*
X1064435Y1116168D01*
X1061723Y1116168D01*
X1060368Y1114812D01*
X1060368Y1110745D01*
X1060368Y1113456D02*
X1057656Y1116168D01*
X1057656Y1122812D02*
X1065791Y1122812D01*
X1065791Y1125523D02*
X1065791Y1120100D01*
X1063079Y1129455D02*
X1065791Y1132167D01*
X1057656Y1132167D01*
X1057656Y1134878D02*
X1057656Y1129455D01*
X1056300Y1138810D02*
X1056300Y1144234D01*
X1057656Y1148166D02*
X1065791Y1148166D01*
X1065791Y1152233D01*
X1064435Y1153589D01*
X1061723Y1153589D01*
X1060368Y1152233D01*
X1060368Y1148166D01*
X1060368Y1150877D02*
X1057656Y1153589D01*
X1065791Y1157521D02*
X1057656Y1162944D01*
X1057656Y1157521D02*
X1065791Y1162944D01*
X1040391Y1092034D02*
X1033612Y1092034D01*
X1032256Y1093390D01*
X1032256Y1096102D01*
X1033612Y1097458D01*
X1040391Y1097458D01*
X1037679Y1101390D02*
X1032256Y1101390D01*
X1037679Y1101390D02*
X1040391Y1104101D01*
X1037679Y1106813D01*
X1032256Y1106813D01*
X1036323Y1106813D02*
X1036323Y1101390D01*
X1032256Y1110745D02*
X1040391Y1110745D01*
X1040391Y1114812D01*
X1039035Y1116168D01*
X1036323Y1116168D01*
X1034968Y1114812D01*
X1034968Y1110745D01*
X1034968Y1113456D02*
X1032256Y1116168D01*
X1032256Y1122812D02*
X1040391Y1122812D01*
X1040391Y1125523D02*
X1040391Y1120100D01*
X1037679Y1129455D02*
X1040391Y1132167D01*
X1032256Y1132167D01*
X1032256Y1134878D02*
X1032256Y1129455D01*
X1030900Y1138810D02*
X1030900Y1144234D01*
X1032256Y1150877D02*
X1040391Y1150877D01*
X1040391Y1148166D02*
X1040391Y1153589D01*
X1040391Y1157521D02*
X1032256Y1162944D01*
X1032256Y1157521D02*
X1040391Y1162944D01*
X1014991Y1135489D02*
X1013635Y1134133D01*
X1014991Y1135489D02*
X1014991Y1138200D01*
X1013635Y1139556D01*
X1012279Y1139556D01*
X1010923Y1138200D01*
X1010923Y1136844D01*
X1010923Y1138200D02*
X1009568Y1139556D01*
X1008212Y1139556D01*
X1006856Y1138200D01*
X1006856Y1135489D01*
X1008212Y1134133D01*
X1008212Y1143488D02*
X1006856Y1143488D01*
X1008212Y1143488D02*
X1008212Y1144844D01*
X1006856Y1144844D01*
X1006856Y1143488D01*
X1013635Y1148166D02*
X1014991Y1149521D01*
X1014991Y1152233D01*
X1013635Y1153589D01*
X1012279Y1153589D01*
X1010923Y1152233D01*
X1010923Y1150877D01*
X1010923Y1152233D02*
X1009568Y1153589D01*
X1008212Y1153589D01*
X1006856Y1152233D01*
X1006856Y1149521D01*
X1008212Y1148166D01*
X1009568Y1157521D02*
X1014991Y1157521D01*
X1009568Y1157521D02*
X1006856Y1160232D01*
X1009568Y1162944D01*
X1014991Y1162944D01*
X1088565Y1144234D02*
X1089921Y1142878D01*
X1089921Y1140166D01*
X1088565Y1138810D01*
X1083142Y1138810D01*
X1081786Y1140166D01*
X1081786Y1142878D01*
X1083142Y1144234D01*
X1085853Y1144234D01*
X1085853Y1141522D01*
X1081786Y1148166D02*
X1089921Y1148166D01*
X1081786Y1153589D01*
X1089921Y1153589D01*
X1089921Y1157521D02*
X1081786Y1157521D01*
X1081786Y1161588D01*
X1083142Y1162944D01*
X1088565Y1162944D01*
X1089921Y1161588D01*
X1089921Y1157521D01*
X984247Y344431D02*
X982891Y343075D01*
X984247Y344431D02*
X986958Y344431D01*
X988314Y343075D01*
X988314Y341719D01*
X986958Y340363D01*
X984247Y340363D01*
X982891Y339008D01*
X982891Y337652D01*
X984247Y336296D01*
X986958Y336296D01*
X988314Y337652D01*
X978959Y336296D02*
X978959Y344431D01*
X978959Y336296D02*
X974891Y336296D01*
X973536Y337652D01*
X973536Y343075D01*
X974891Y344431D01*
X978959Y344431D01*
X965536Y344431D02*
X964180Y343075D01*
X965536Y344431D02*
X968248Y344431D01*
X969604Y343075D01*
X969604Y337652D01*
X968248Y336296D01*
X965536Y336296D01*
X964180Y337652D01*
X960248Y337652D02*
X960248Y343075D01*
X958893Y344431D01*
X956181Y344431D01*
X954825Y343075D01*
X954825Y337652D01*
X956181Y336296D01*
X958893Y336296D01*
X960248Y337652D01*
X954825Y343075D01*
X950893Y334940D02*
X945470Y334940D01*
X941538Y336296D02*
X941538Y344431D01*
X941538Y336296D02*
X937471Y336296D01*
X936115Y337652D01*
X936115Y343075D01*
X937471Y344431D01*
X941538Y344431D01*
X932183Y341719D02*
X932183Y336296D01*
X932183Y341719D02*
X929471Y344431D01*
X926760Y341719D01*
X926760Y336296D01*
X926760Y340363D02*
X932183Y340363D01*
X920116Y336296D02*
X920116Y344431D01*
X922828Y344431D02*
X917404Y344431D01*
X913473Y341719D02*
X913473Y336296D01*
X913473Y341719D02*
X910761Y344431D01*
X908049Y341719D01*
X908049Y336296D01*
X908049Y340363D02*
X913473Y340363D01*
X904117Y337652D02*
X904117Y343075D01*
X902762Y344431D01*
X900050Y344431D01*
X898694Y343075D01*
X898694Y337652D01*
X900050Y336296D01*
X902762Y336296D01*
X904117Y337652D01*
X898694Y343075D01*
X982891Y317675D02*
X984247Y319031D01*
X986958Y319031D01*
X988314Y317675D01*
X988314Y316319D01*
X986958Y314963D01*
X984247Y314963D01*
X982891Y313608D01*
X982891Y312252D01*
X984247Y310896D01*
X986958Y310896D01*
X988314Y312252D01*
X978959Y310896D02*
X978959Y319031D01*
X978959Y310896D02*
X974891Y310896D01*
X973536Y312252D01*
X973536Y317675D01*
X974891Y319031D01*
X978959Y319031D01*
X965536Y319031D02*
X964180Y317675D01*
X965536Y319031D02*
X968248Y319031D01*
X969604Y317675D01*
X969604Y312252D01*
X968248Y310896D01*
X965536Y310896D01*
X964180Y312252D01*
X960248Y312252D02*
X960248Y317675D01*
X958893Y319031D01*
X956181Y319031D01*
X954825Y317675D01*
X954825Y312252D01*
X956181Y310896D01*
X958893Y310896D01*
X960248Y312252D01*
X954825Y317675D01*
X950893Y309540D02*
X945470Y309540D01*
X941538Y310896D02*
X941538Y319031D01*
X941538Y310896D02*
X937471Y310896D01*
X936115Y312252D01*
X936115Y317675D01*
X937471Y319031D01*
X941538Y319031D01*
X932183Y316319D02*
X932183Y310896D01*
X932183Y316319D02*
X929471Y319031D01*
X926760Y316319D01*
X926760Y310896D01*
X926760Y314963D02*
X932183Y314963D01*
X920116Y310896D02*
X920116Y319031D01*
X922828Y319031D02*
X917404Y319031D01*
X913473Y316319D02*
X913473Y310896D01*
X913473Y316319D02*
X910761Y319031D01*
X908049Y316319D01*
X908049Y310896D01*
X908049Y314963D02*
X913473Y314963D01*
X904117Y316319D02*
X901406Y319031D01*
X901406Y310896D01*
X904117Y310896D02*
X898694Y310896D01*
X982891Y292275D02*
X984247Y293631D01*
X986958Y293631D01*
X988314Y292275D01*
X988314Y290919D01*
X986958Y289563D01*
X984247Y289563D01*
X982891Y288208D01*
X982891Y286852D01*
X984247Y285496D01*
X986958Y285496D01*
X988314Y286852D01*
X978959Y285496D02*
X978959Y293631D01*
X978959Y285496D02*
X974891Y285496D01*
X973536Y286852D01*
X973536Y292275D01*
X974891Y293631D01*
X978959Y293631D01*
X965536Y293631D02*
X964180Y292275D01*
X965536Y293631D02*
X968248Y293631D01*
X969604Y292275D01*
X969604Y286852D01*
X968248Y285496D01*
X965536Y285496D01*
X964180Y286852D01*
X960248Y286852D02*
X960248Y292275D01*
X958893Y293631D01*
X956181Y293631D01*
X954825Y292275D01*
X954825Y286852D01*
X956181Y285496D01*
X958893Y285496D01*
X960248Y286852D01*
X954825Y292275D01*
X950893Y284140D02*
X945470Y284140D01*
X941538Y285496D02*
X941538Y293631D01*
X941538Y285496D02*
X937471Y285496D01*
X936115Y286852D01*
X936115Y292275D01*
X937471Y293631D01*
X941538Y293631D01*
X932183Y290919D02*
X932183Y285496D01*
X932183Y290919D02*
X929471Y293631D01*
X926760Y290919D01*
X926760Y285496D01*
X926760Y289563D02*
X932183Y289563D01*
X920116Y285496D02*
X920116Y293631D01*
X922828Y293631D02*
X917404Y293631D01*
X913473Y290919D02*
X913473Y285496D01*
X913473Y290919D02*
X910761Y293631D01*
X908049Y290919D01*
X908049Y285496D01*
X908049Y289563D02*
X913473Y289563D01*
X904117Y285496D02*
X898694Y285496D01*
X904117Y285496D02*
X898694Y290919D01*
X898694Y292275D01*
X900050Y293631D01*
X902762Y293631D01*
X904117Y292275D01*
X982891Y266875D02*
X984247Y268231D01*
X986958Y268231D01*
X988314Y266875D01*
X988314Y265519D01*
X986958Y264163D01*
X984247Y264163D01*
X982891Y262808D01*
X982891Y261452D01*
X984247Y260096D01*
X986958Y260096D01*
X988314Y261452D01*
X978959Y260096D02*
X978959Y268231D01*
X978959Y260096D02*
X974891Y260096D01*
X973536Y261452D01*
X973536Y266875D01*
X974891Y268231D01*
X978959Y268231D01*
X965536Y268231D02*
X964180Y266875D01*
X965536Y268231D02*
X968248Y268231D01*
X969604Y266875D01*
X969604Y261452D01*
X968248Y260096D01*
X965536Y260096D01*
X964180Y261452D01*
X960248Y261452D02*
X960248Y266875D01*
X958893Y268231D01*
X956181Y268231D01*
X954825Y266875D01*
X954825Y261452D01*
X956181Y260096D01*
X958893Y260096D01*
X960248Y261452D01*
X954825Y266875D01*
X950893Y258740D02*
X945470Y258740D01*
X936115Y266875D02*
X937471Y268231D01*
X940182Y268231D01*
X941538Y266875D01*
X941538Y261452D01*
X940182Y260096D01*
X937471Y260096D01*
X936115Y261452D01*
X932183Y260096D02*
X932183Y268231D01*
X929471Y265519D01*
X926760Y268231D01*
X926760Y260096D01*
X922828Y260096D02*
X922828Y268231D01*
X922828Y260096D02*
X918760Y260096D01*
X917404Y261452D01*
X917404Y266875D01*
X918760Y268231D01*
X922828Y268231D01*
X988314Y368475D02*
X986958Y369831D01*
X984247Y369831D01*
X982891Y368475D01*
X982891Y367119D01*
X984247Y365763D01*
X985602Y365763D01*
X984247Y365763D02*
X982891Y364408D01*
X982891Y363052D01*
X984247Y361696D01*
X986958Y361696D01*
X988314Y363052D01*
X978959Y363052D02*
X978959Y361696D01*
X978959Y363052D02*
X977603Y363052D01*
X977603Y361696D01*
X978959Y361696D01*
X974281Y368475D02*
X972925Y369831D01*
X970214Y369831D01*
X968858Y368475D01*
X968858Y367119D01*
X970214Y365763D01*
X971570Y365763D01*
X970214Y365763D02*
X968858Y364408D01*
X968858Y363052D01*
X970214Y361696D01*
X972925Y361696D01*
X974281Y363052D01*
X964926Y364408D02*
X964926Y369831D01*
X964926Y364408D02*
X962214Y361696D01*
X959503Y364408D01*
X959503Y369831D01*
X984247Y242831D02*
X982891Y241475D01*
X984247Y242831D02*
X986958Y242831D01*
X988314Y241475D01*
X988314Y236052D01*
X986958Y234696D01*
X984247Y234696D01*
X982891Y236052D01*
X982891Y238763D01*
X985602Y238763D01*
X978959Y234696D02*
X978959Y242831D01*
X973536Y234696D01*
X973536Y242831D01*
X969604Y242831D02*
X969604Y234696D01*
X965536Y234696D01*
X964180Y236052D01*
X964180Y241475D01*
X965536Y242831D01*
X969604Y242831D01*
X189233Y249810D02*
X189233Y255234D01*
X186522Y252522D02*
X191945Y252522D01*
X193301Y259166D02*
X193301Y264589D01*
X193301Y259166D02*
X189233Y259166D01*
X190589Y261877D01*
X190589Y263233D01*
X189233Y264589D01*
X186522Y264589D01*
X185166Y263233D01*
X185166Y260521D01*
X186522Y259166D01*
X187878Y268521D02*
X193301Y268521D01*
X187878Y268521D02*
X185166Y271232D01*
X187878Y273944D01*
X193301Y273944D01*
X167901Y246489D02*
X166545Y245133D01*
X167901Y246489D02*
X167901Y249200D01*
X166545Y250556D01*
X165189Y250556D01*
X163833Y249200D01*
X163833Y247844D01*
X163833Y249200D02*
X162478Y250556D01*
X161122Y250556D01*
X159766Y249200D01*
X159766Y246489D01*
X161122Y245133D01*
X161122Y254488D02*
X159766Y254488D01*
X161122Y254488D02*
X161122Y255844D01*
X159766Y255844D01*
X159766Y254488D01*
X166545Y259166D02*
X167901Y260521D01*
X167901Y263233D01*
X166545Y264589D01*
X165189Y264589D01*
X163833Y263233D01*
X163833Y261877D01*
X163833Y263233D02*
X162478Y264589D01*
X161122Y264589D01*
X159766Y263233D01*
X159766Y260521D01*
X161122Y259166D01*
X162478Y268521D02*
X167901Y268521D01*
X162478Y268521D02*
X159766Y271232D01*
X162478Y273944D01*
X167901Y273944D01*
X142501Y252929D02*
X137078Y252929D01*
X134366Y255640D01*
X137078Y258352D01*
X142501Y258352D01*
X134366Y262284D02*
X134366Y264996D01*
X134366Y263640D02*
X142501Y263640D01*
X142501Y262284D02*
X142501Y264996D01*
X142501Y268521D02*
X134366Y268521D01*
X134366Y273944D02*
X142501Y268521D01*
X142501Y273944D02*
X134366Y273944D01*
X117101Y236523D02*
X117101Y231100D01*
X113033Y231100D01*
X114389Y233812D01*
X114389Y235168D01*
X113033Y236523D01*
X110322Y236523D01*
X108966Y235168D01*
X108966Y232456D01*
X110322Y231100D01*
X111678Y240455D02*
X117101Y240455D01*
X111678Y240455D02*
X108966Y243167D01*
X111678Y245879D01*
X117101Y245879D01*
X117101Y249810D02*
X117101Y255234D01*
X117101Y249810D02*
X108966Y249810D01*
X108966Y255234D01*
X113033Y252522D02*
X113033Y249810D01*
X117101Y259166D02*
X108966Y264589D01*
X108966Y259166D02*
X117101Y264589D01*
X117101Y271232D02*
X108966Y271232D01*
X117101Y268521D02*
X117101Y273944D01*
X91701Y249810D02*
X83566Y249810D01*
X91701Y249810D02*
X91701Y253878D01*
X90345Y255234D01*
X88989Y255234D01*
X87633Y253878D01*
X86278Y255234D01*
X84922Y255234D01*
X83566Y253878D01*
X83566Y249810D01*
X87633Y249810D02*
X87633Y253878D01*
X88989Y259166D02*
X83566Y259166D01*
X88989Y259166D02*
X91701Y261877D01*
X88989Y264589D01*
X83566Y264589D01*
X87633Y264589D02*
X87633Y259166D01*
X83566Y271232D02*
X91701Y271232D01*
X91701Y268521D02*
X91701Y273944D01*
X398955Y280634D02*
X400311Y279278D01*
X400311Y276566D01*
X398955Y275210D01*
X393532Y275210D01*
X392176Y276566D01*
X392176Y279278D01*
X393532Y280634D01*
X396243Y280634D01*
X396243Y277922D01*
X392176Y284566D02*
X400311Y284566D01*
X392176Y289989D01*
X400311Y289989D01*
X400311Y293921D02*
X392176Y293921D01*
X392176Y297988D01*
X393532Y299344D01*
X398955Y299344D01*
X400311Y297988D01*
X400311Y293921D01*
X374911Y273244D02*
X372199Y270533D01*
X374911Y273244D02*
X366776Y273244D01*
X366776Y270533D02*
X366776Y275956D01*
X366776Y279888D02*
X368132Y279888D01*
X368132Y281244D01*
X366776Y281244D01*
X366776Y279888D01*
X374911Y284566D02*
X374911Y289989D01*
X374911Y284566D02*
X370843Y284566D01*
X372199Y287277D01*
X372199Y288633D01*
X370843Y289989D01*
X368132Y289989D01*
X366776Y288633D01*
X366776Y285921D01*
X368132Y284566D01*
X369488Y293921D02*
X374911Y293921D01*
X369488Y293921D02*
X366776Y296632D01*
X369488Y299344D01*
X374911Y299344D01*
X324619Y235824D02*
X321907Y233112D01*
X324619Y235824D02*
X316484Y235824D01*
X316484Y238535D02*
X316484Y233112D01*
X316484Y242467D02*
X317840Y242467D01*
X317840Y243823D01*
X316484Y243823D01*
X316484Y242467D01*
X316484Y247145D02*
X316484Y252568D01*
X316484Y247145D02*
X321907Y252568D01*
X323263Y252568D01*
X324619Y251212D01*
X324619Y248501D01*
X323263Y247145D01*
X324619Y256500D02*
X319196Y256500D01*
X316484Y259212D01*
X319196Y261923D01*
X324619Y261923D01*
X315128Y265855D02*
X315128Y271278D01*
X323263Y280634D02*
X324619Y279278D01*
X324619Y276566D01*
X323263Y275210D01*
X317840Y275210D01*
X316484Y276566D01*
X316484Y279278D01*
X317840Y280634D01*
X316484Y284566D02*
X324619Y284566D01*
X324619Y288633D01*
X323263Y289989D01*
X320551Y289989D01*
X319196Y288633D01*
X319196Y284566D01*
X317840Y293921D02*
X324619Y293921D01*
X317840Y293921D02*
X316484Y295277D01*
X316484Y297988D01*
X317840Y299344D01*
X324619Y299344D01*
X407759Y458480D02*
X410471Y461192D01*
X402336Y461192D01*
X402336Y458480D02*
X402336Y463904D01*
X402336Y467836D02*
X403692Y467836D01*
X403692Y469191D01*
X402336Y469191D01*
X402336Y467836D01*
X402336Y472513D02*
X402336Y477937D01*
X407759Y477937D02*
X402336Y472513D01*
X407759Y477937D02*
X409115Y477937D01*
X410471Y476581D01*
X410471Y473869D01*
X409115Y472513D01*
X410471Y481868D02*
X405048Y481868D01*
X402336Y484580D01*
X405048Y487292D01*
X410471Y487292D01*
X400980Y491224D02*
X400980Y496647D01*
X402336Y500579D02*
X402336Y503290D01*
X402336Y501935D02*
X410471Y501935D01*
X410471Y503290D02*
X410471Y500579D01*
X410471Y506816D02*
X402336Y506816D01*
X402336Y512239D02*
X410471Y506816D01*
X410471Y512239D02*
X402336Y512239D01*
X402336Y518882D02*
X410471Y518882D01*
X410471Y516171D02*
X410471Y521594D01*
X294901Y262533D02*
X293545Y261178D01*
X294901Y262533D02*
X294901Y265245D01*
X293545Y266601D01*
X292189Y266601D01*
X290833Y265245D01*
X290833Y263889D01*
X290833Y265245D02*
X289478Y266601D01*
X288122Y266601D01*
X286766Y265245D01*
X286766Y262533D01*
X288122Y261178D01*
X288122Y270533D02*
X286766Y270533D01*
X288122Y270533D02*
X288122Y271889D01*
X286766Y271889D01*
X286766Y270533D01*
X288122Y275210D02*
X293545Y275210D01*
X294901Y276566D01*
X294901Y279278D01*
X293545Y280634D01*
X288122Y280634D01*
X286766Y279278D01*
X286766Y276566D01*
X288122Y275210D01*
X293545Y280634D01*
X294901Y284566D02*
X289478Y284566D01*
X286766Y287277D01*
X289478Y289989D01*
X294901Y289989D01*
X292189Y293921D02*
X286766Y293921D01*
X292189Y293921D02*
X294901Y296632D01*
X292189Y299344D01*
X286766Y299344D01*
X290833Y299344D02*
X290833Y293921D01*
X273311Y227621D02*
X273311Y222198D01*
X269243Y222198D01*
X270599Y224909D01*
X270599Y226265D01*
X269243Y227621D01*
X266532Y227621D01*
X265176Y226265D01*
X265176Y223553D01*
X266532Y222198D01*
X267888Y231553D02*
X273311Y231553D01*
X267888Y231553D02*
X265176Y234264D01*
X267888Y236976D01*
X273311Y236976D01*
X263820Y240908D02*
X263820Y246331D01*
X265176Y250263D02*
X265176Y252975D01*
X265176Y251619D02*
X273311Y251619D01*
X273311Y250263D02*
X273311Y252975D01*
X273311Y256500D02*
X265176Y256500D01*
X273311Y256500D02*
X273311Y260567D01*
X271955Y261923D01*
X269243Y261923D01*
X267888Y260567D01*
X267888Y256500D01*
X273311Y269923D02*
X271955Y271278D01*
X273311Y269923D02*
X273311Y267211D01*
X271955Y265855D01*
X270599Y265855D01*
X269243Y267211D01*
X269243Y269923D01*
X267888Y271278D01*
X266532Y271278D01*
X265176Y269923D01*
X265176Y267211D01*
X266532Y265855D01*
X273311Y276566D02*
X273311Y279278D01*
X273311Y276566D02*
X271955Y275210D01*
X266532Y275210D01*
X265176Y276566D01*
X265176Y279278D01*
X266532Y280634D01*
X271955Y280634D01*
X273311Y279278D01*
X273311Y284566D02*
X266532Y284566D01*
X265176Y285921D01*
X265176Y288633D01*
X266532Y289989D01*
X273311Y289989D01*
X273311Y296632D02*
X265176Y296632D01*
X273311Y293921D02*
X273311Y299344D01*
X177803Y422619D02*
X177803Y428042D01*
X175092Y425331D02*
X180515Y425331D01*
X181871Y431974D02*
X181871Y437397D01*
X181871Y431974D02*
X177803Y431974D01*
X179159Y434686D01*
X179159Y436042D01*
X177803Y437397D01*
X175092Y437397D01*
X173736Y436042D01*
X173736Y433330D01*
X175092Y431974D01*
X176448Y441329D02*
X181871Y441329D01*
X176448Y441329D02*
X173736Y444041D01*
X176448Y446753D01*
X181871Y446753D01*
X172380Y450684D02*
X172380Y456108D01*
X181871Y461395D02*
X181871Y464107D01*
X181871Y461395D02*
X180515Y460040D01*
X175092Y460040D01*
X173736Y461395D01*
X173736Y464107D01*
X175092Y465463D01*
X180515Y465463D01*
X181871Y464107D01*
X181871Y472106D02*
X173736Y472106D01*
X181871Y469395D02*
X181871Y474818D01*
X181871Y482817D02*
X180515Y484173D01*
X181871Y482817D02*
X181871Y480106D01*
X180515Y478750D01*
X175092Y478750D01*
X173736Y480106D01*
X173736Y482817D01*
X175092Y484173D01*
X177803Y484173D01*
X177803Y481462D01*
X172380Y488105D02*
X172380Y493528D01*
X173736Y497460D02*
X181871Y497460D01*
X181871Y501528D01*
X180515Y502884D01*
X177803Y502884D01*
X176448Y501528D01*
X176448Y497460D01*
X173736Y506816D02*
X181871Y506816D01*
X176448Y509527D02*
X173736Y506816D01*
X176448Y509527D02*
X173736Y512239D01*
X181871Y512239D01*
X181871Y516171D02*
X173736Y516171D01*
X181871Y516171D02*
X181871Y520238D01*
X180515Y521594D01*
X177803Y521594D01*
X176448Y520238D01*
X176448Y516171D01*
X176448Y518882D02*
X173736Y521594D01*
X1033410Y348241D02*
X1033410Y340106D01*
X1036121Y348241D02*
X1030698Y348241D01*
X1026766Y348241D02*
X1026766Y340106D01*
X1022699Y340106D01*
X1021343Y341462D01*
X1021343Y346885D01*
X1022699Y348241D01*
X1026766Y348241D01*
X1017411Y340106D02*
X1014699Y340106D01*
X1016055Y340106D02*
X1016055Y348241D01*
X1017411Y348241D02*
X1014699Y348241D01*
X1036528Y322841D02*
X1036528Y314706D01*
X1039240Y322841D02*
X1033816Y322841D01*
X1029884Y322841D02*
X1029884Y314706D01*
X1027173Y320129D02*
X1029884Y322841D01*
X1027173Y320129D02*
X1024461Y322841D01*
X1024461Y314706D01*
X1016462Y322841D02*
X1015106Y321485D01*
X1016462Y322841D02*
X1019173Y322841D01*
X1020529Y321485D01*
X1020529Y320129D01*
X1019173Y318773D01*
X1016462Y318773D01*
X1015106Y317418D01*
X1015106Y316062D01*
X1016462Y314706D01*
X1019173Y314706D01*
X1020529Y316062D01*
X1036528Y297441D02*
X1036528Y289306D01*
X1039240Y297441D02*
X1033816Y297441D01*
X1025817Y297441D02*
X1024461Y296085D01*
X1025817Y297441D02*
X1028529Y297441D01*
X1029884Y296085D01*
X1029884Y290662D01*
X1028529Y289306D01*
X1025817Y289306D01*
X1024461Y290662D01*
X1020529Y289306D02*
X1020529Y297441D01*
X1020529Y292018D02*
X1015106Y297441D01*
X1019173Y293373D02*
X1015106Y289306D01*
X1036528Y272041D02*
X1036528Y263906D01*
X1039240Y272041D02*
X1033816Y272041D01*
X1029884Y272041D02*
X1029884Y263906D01*
X1025817Y263906D01*
X1024461Y265262D01*
X1024461Y270685D01*
X1025817Y272041D01*
X1029884Y272041D01*
X1019173Y272041D02*
X1016462Y272041D01*
X1019173Y272041D02*
X1020529Y270685D01*
X1020529Y265262D01*
X1019173Y263906D01*
X1016462Y263906D01*
X1015106Y265262D01*
X1015106Y270685D01*
X1016462Y272041D01*
D14*
X1003173Y83314D02*
X999953Y83314D01*
X1001563Y84924D02*
X1001563Y81704D01*
X997560Y84924D02*
X996755Y85729D01*
X995145Y85729D01*
X994340Y84924D01*
X994340Y84119D01*
X995145Y83314D01*
X995950Y83314D01*
X995145Y83314D02*
X994340Y82509D01*
X994340Y81704D01*
X995145Y80899D01*
X996755Y80899D01*
X997560Y81704D01*
X991947Y81704D02*
X991947Y80899D01*
X991947Y81704D02*
X991142Y81704D01*
X991142Y80899D01*
X991947Y80899D01*
X989140Y81704D02*
X989140Y84924D01*
X988335Y85729D01*
X986725Y85729D01*
X985920Y84924D01*
X985920Y81704D01*
X986725Y80899D01*
X988335Y80899D01*
X989140Y81704D01*
X985920Y84924D01*
X983527Y85729D02*
X983527Y82509D01*
X981917Y80899D01*
X980307Y82509D01*
X980307Y85729D01*
X977914Y80094D02*
X974694Y80094D01*
X972301Y80899D02*
X972301Y85729D01*
X969886Y85729D01*
X969081Y84924D01*
X969081Y84119D01*
X969886Y83314D01*
X969081Y82509D01*
X969081Y81704D01*
X969886Y80899D01*
X972301Y80899D01*
X972301Y83314D02*
X969886Y83314D01*
X966688Y84119D02*
X966688Y80899D01*
X966688Y84119D02*
X965078Y85729D01*
X963468Y84119D01*
X963468Y80899D01*
X963468Y83314D02*
X966688Y83314D01*
X959465Y80899D02*
X959465Y85729D01*
X961075Y85729D02*
X957855Y85729D01*
X999953Y58508D02*
X1000758Y59313D01*
X1002368Y59313D01*
X1003173Y58508D01*
X1003173Y55288D01*
X1002368Y54483D01*
X1000758Y54483D01*
X999953Y55288D01*
X999953Y56898D01*
X1001563Y56898D01*
X997560Y54483D02*
X997560Y59313D01*
X994340Y54483D01*
X994340Y59313D01*
X991947Y59313D02*
X991947Y54483D01*
X989532Y54483D01*
X988727Y55288D01*
X988727Y58508D01*
X989532Y59313D01*
X991947Y59313D01*
D11*
X350019Y197047D02*
X348663Y195691D01*
X350019Y197047D02*
X350019Y199759D01*
X348663Y201115D01*
X347307Y201115D01*
X345951Y199759D01*
X345951Y198403D01*
X345951Y199759D02*
X344596Y201115D01*
X343240Y201115D01*
X341884Y199759D01*
X341884Y197047D01*
X343240Y195691D01*
X343240Y205046D02*
X341884Y205046D01*
X343240Y205046D02*
X343240Y206402D01*
X341884Y206402D01*
X341884Y205046D01*
X348663Y209724D02*
X350019Y211080D01*
X350019Y213792D01*
X348663Y215147D01*
X347307Y215147D01*
X345951Y213792D01*
X345951Y212436D01*
X345951Y213792D02*
X344596Y215147D01*
X343240Y215147D01*
X341884Y213792D01*
X341884Y211080D01*
X343240Y209724D01*
X344596Y219079D02*
X350019Y219079D01*
X344596Y219079D02*
X341884Y221791D01*
X344596Y224503D01*
X350019Y224503D01*
X340528Y228434D02*
X340528Y233858D01*
X344596Y237790D02*
X350019Y237790D01*
X344596Y237790D02*
X341884Y240501D01*
X344596Y243213D01*
X350019Y243213D01*
X350019Y247145D02*
X341884Y247145D01*
X341884Y251212D01*
X343240Y252568D01*
X348663Y252568D01*
X350019Y251212D01*
X350019Y247145D01*
X350019Y256500D02*
X341884Y256500D01*
X341884Y260567D01*
X343240Y261923D01*
X348663Y261923D01*
X350019Y260567D01*
X350019Y256500D01*
X340528Y265855D02*
X340528Y271278D01*
X341884Y275210D02*
X350019Y275210D01*
X350019Y279278D01*
X348663Y280634D01*
X345951Y280634D01*
X344596Y279278D01*
X344596Y275210D01*
X344596Y277922D02*
X341884Y280634D01*
X341884Y287277D02*
X350019Y287277D01*
X350019Y284566D02*
X350019Y289989D01*
X350019Y297988D02*
X348663Y299344D01*
X350019Y297988D02*
X350019Y295277D01*
X348663Y293921D01*
X343240Y293921D01*
X341884Y295277D01*
X341884Y297988D01*
X343240Y299344D01*
D10*
X63509Y64770D02*
X53340Y64770D01*
X63509Y64770D02*
X63509Y69854D01*
X61814Y71549D01*
X58424Y71549D01*
X56730Y69854D01*
X56730Y64770D01*
X53340Y76464D02*
X63509Y76464D01*
X56730Y79854D02*
X53340Y76464D01*
X56730Y79854D02*
X53340Y83243D01*
X63509Y83243D01*
X63509Y88158D02*
X53340Y88158D01*
X63509Y88158D02*
X63509Y93242D01*
X61814Y94937D01*
X58424Y94937D01*
X56730Y93242D01*
X56730Y88158D01*
X56730Y91548D02*
X53340Y94937D01*
D11*
X816442Y1126915D02*
X823221Y1126915D01*
X816442Y1126915D02*
X815086Y1128271D01*
X815086Y1130983D01*
X816442Y1132339D01*
X823221Y1132339D01*
X823221Y1136270D02*
X823221Y1141694D01*
X823221Y1136270D02*
X815086Y1136270D01*
X815086Y1141694D01*
X819153Y1138982D02*
X819153Y1136270D01*
X823221Y1145626D02*
X815086Y1151049D01*
X815086Y1145626D02*
X823221Y1151049D01*
X823221Y1157692D02*
X815086Y1157692D01*
X823221Y1154981D02*
X823221Y1160404D01*
X68841Y167386D02*
X60706Y167386D01*
X60706Y172809D01*
X60706Y176741D02*
X60706Y179453D01*
X60706Y178097D02*
X68841Y178097D01*
X68841Y176741D02*
X68841Y179453D01*
X68841Y182978D02*
X60706Y182978D01*
X68841Y182978D02*
X68841Y187045D01*
X67485Y188401D01*
X64773Y188401D01*
X63418Y187045D01*
X63418Y182978D01*
X68841Y193689D02*
X68841Y196401D01*
X68841Y193689D02*
X67485Y192333D01*
X62062Y192333D01*
X60706Y193689D01*
X60706Y196401D01*
X62062Y197756D01*
X67485Y197756D01*
X68841Y196401D01*
X59350Y201688D02*
X59350Y207112D01*
X60706Y211044D02*
X68841Y211044D01*
X68841Y215111D01*
X67485Y216467D01*
X66129Y216467D01*
X64773Y215111D01*
X63418Y216467D01*
X62062Y216467D01*
X60706Y215111D01*
X60706Y211044D01*
X64773Y211044D02*
X64773Y215111D01*
X66129Y220399D02*
X60706Y220399D01*
X66129Y220399D02*
X68841Y223110D01*
X66129Y225822D01*
X60706Y225822D01*
X64773Y225822D02*
X64773Y220399D01*
X60706Y232466D02*
X68841Y232466D01*
X68841Y235177D02*
X68841Y229754D01*
X12961Y656336D02*
X6182Y656336D01*
X4826Y657692D01*
X4826Y660403D01*
X6182Y661759D01*
X12961Y661759D01*
X12961Y669759D02*
X11605Y671114D01*
X12961Y669759D02*
X12961Y667047D01*
X11605Y665691D01*
X10249Y665691D01*
X8893Y667047D01*
X8893Y669759D01*
X7538Y671114D01*
X6182Y671114D01*
X4826Y669759D01*
X4826Y667047D01*
X6182Y665691D01*
X4826Y675046D02*
X12961Y675046D01*
X12961Y679114D01*
X11605Y680470D01*
X10249Y680470D01*
X8893Y679114D01*
X7538Y680470D01*
X6182Y680470D01*
X4826Y679114D01*
X4826Y675046D01*
X8893Y675046D02*
X8893Y679114D01*
X3470Y684402D02*
X3470Y689825D01*
X12961Y695113D02*
X12961Y697824D01*
X12961Y695113D02*
X11605Y693757D01*
X6182Y693757D01*
X4826Y695113D01*
X4826Y697824D01*
X6182Y699180D01*
X11605Y699180D01*
X12961Y697824D01*
X12961Y705824D02*
X4826Y705824D01*
X12961Y708535D02*
X12961Y703112D01*
X12961Y716535D02*
X11605Y717890D01*
X12961Y716535D02*
X12961Y713823D01*
X11605Y712467D01*
X6182Y712467D01*
X4826Y713823D01*
X4826Y716535D01*
X6182Y717890D01*
X8893Y717890D01*
X8893Y715179D01*
X6182Y992886D02*
X12961Y992886D01*
X6182Y992886D02*
X4826Y994242D01*
X4826Y996953D01*
X6182Y998309D01*
X12961Y998309D01*
X12961Y1006309D02*
X11605Y1007664D01*
X12961Y1006309D02*
X12961Y1003597D01*
X11605Y1002241D01*
X10249Y1002241D01*
X8893Y1003597D01*
X8893Y1006309D01*
X7538Y1007664D01*
X6182Y1007664D01*
X4826Y1006309D01*
X4826Y1003597D01*
X6182Y1002241D01*
X4826Y1011596D02*
X12961Y1011596D01*
X12961Y1015664D01*
X11605Y1017020D01*
X10249Y1017020D01*
X8893Y1015664D01*
X7538Y1017020D01*
X6182Y1017020D01*
X4826Y1015664D01*
X4826Y1011596D01*
X8893Y1011596D02*
X8893Y1015664D01*
X3470Y1020952D02*
X3470Y1026375D01*
X4826Y1030307D02*
X12961Y1030307D01*
X8893Y1030307D02*
X8893Y1035730D01*
X4826Y1035730D02*
X12961Y1035730D01*
X12961Y1041018D02*
X12961Y1043729D01*
X12961Y1041018D02*
X11605Y1039662D01*
X6182Y1039662D01*
X4826Y1041018D01*
X4826Y1043729D01*
X6182Y1045085D01*
X11605Y1045085D01*
X12961Y1043729D01*
X12961Y1053085D02*
X11605Y1054440D01*
X12961Y1053085D02*
X12961Y1050373D01*
X11605Y1049017D01*
X10249Y1049017D01*
X8893Y1050373D01*
X8893Y1053085D01*
X7538Y1054440D01*
X6182Y1054440D01*
X4826Y1053085D01*
X4826Y1050373D01*
X6182Y1049017D01*
X4826Y1061084D02*
X12961Y1061084D01*
X12961Y1058372D02*
X12961Y1063796D01*
X10249Y1067728D02*
X12961Y1070439D01*
X4826Y1070439D01*
X4826Y1067728D02*
X4826Y1073151D01*
X6182Y886206D02*
X12961Y886206D01*
X6182Y886206D02*
X4826Y887562D01*
X4826Y890273D01*
X6182Y891629D01*
X12961Y891629D01*
X12961Y899629D02*
X11605Y900984D01*
X12961Y899629D02*
X12961Y896917D01*
X11605Y895561D01*
X10249Y895561D01*
X8893Y896917D01*
X8893Y899629D01*
X7538Y900984D01*
X6182Y900984D01*
X4826Y899629D01*
X4826Y896917D01*
X6182Y895561D01*
X4826Y904916D02*
X12961Y904916D01*
X12961Y908984D01*
X11605Y910340D01*
X10249Y910340D01*
X8893Y908984D01*
X7538Y910340D01*
X6182Y910340D01*
X4826Y908984D01*
X4826Y904916D01*
X8893Y904916D02*
X8893Y908984D01*
X3470Y914272D02*
X3470Y919695D01*
X4826Y923627D02*
X12961Y923627D01*
X8893Y923627D02*
X8893Y929050D01*
X4826Y929050D02*
X12961Y929050D01*
X12961Y934338D02*
X12961Y937049D01*
X12961Y934338D02*
X11605Y932982D01*
X6182Y932982D01*
X4826Y934338D01*
X4826Y937049D01*
X6182Y938405D01*
X11605Y938405D01*
X12961Y937049D01*
X12961Y946405D02*
X11605Y947760D01*
X12961Y946405D02*
X12961Y943693D01*
X11605Y942337D01*
X10249Y942337D01*
X8893Y943693D01*
X8893Y946405D01*
X7538Y947760D01*
X6182Y947760D01*
X4826Y946405D01*
X4826Y943693D01*
X6182Y942337D01*
X4826Y954404D02*
X12961Y954404D01*
X12961Y951692D02*
X12961Y957116D01*
X4826Y961048D02*
X4826Y966471D01*
X4826Y961048D02*
X10249Y966471D01*
X11605Y966471D01*
X12961Y965115D01*
X12961Y962403D01*
X11605Y961048D01*
X12961Y779526D02*
X6182Y779526D01*
X4826Y780882D01*
X4826Y783593D01*
X6182Y784949D01*
X12961Y784949D01*
X12961Y792949D02*
X11605Y794304D01*
X12961Y792949D02*
X12961Y790237D01*
X11605Y788881D01*
X10249Y788881D01*
X8893Y790237D01*
X8893Y792949D01*
X7538Y794304D01*
X6182Y794304D01*
X4826Y792949D01*
X4826Y790237D01*
X6182Y788881D01*
X4826Y798236D02*
X12961Y798236D01*
X12961Y802304D01*
X11605Y803660D01*
X10249Y803660D01*
X8893Y802304D01*
X7538Y803660D01*
X6182Y803660D01*
X4826Y802304D01*
X4826Y798236D01*
X8893Y798236D02*
X8893Y802304D01*
X3470Y807592D02*
X3470Y813015D01*
X4826Y816947D02*
X12961Y816947D01*
X8893Y816947D02*
X8893Y822370D01*
X4826Y822370D02*
X12961Y822370D01*
X12961Y827658D02*
X12961Y830369D01*
X12961Y827658D02*
X11605Y826302D01*
X6182Y826302D01*
X4826Y827658D01*
X4826Y830369D01*
X6182Y831725D01*
X11605Y831725D01*
X12961Y830369D01*
X12961Y839725D02*
X11605Y841080D01*
X12961Y839725D02*
X12961Y837013D01*
X11605Y835657D01*
X10249Y835657D01*
X8893Y837013D01*
X8893Y839725D01*
X7538Y841080D01*
X6182Y841080D01*
X4826Y839725D01*
X4826Y837013D01*
X6182Y835657D01*
X4826Y847724D02*
X12961Y847724D01*
X12961Y845012D02*
X12961Y850436D01*
X11605Y854368D02*
X12961Y855723D01*
X12961Y858435D01*
X11605Y859791D01*
X10249Y859791D01*
X8893Y858435D01*
X8893Y857079D01*
X8893Y858435D02*
X7538Y859791D01*
X6182Y859791D01*
X4826Y858435D01*
X4826Y855723D01*
X6182Y854368D01*
X369824Y972312D02*
X369824Y980447D01*
X367112Y975024D02*
X369824Y972312D01*
X367112Y975024D02*
X364401Y972312D01*
X364401Y980447D01*
X360469Y972312D02*
X357757Y972312D01*
X359113Y972312D02*
X359113Y980447D01*
X360469Y980447D02*
X357757Y980447D01*
X354232Y980447D02*
X354232Y972312D01*
X354232Y980447D02*
X348809Y980447D01*
X351520Y976379D02*
X354232Y976379D01*
X344877Y972312D02*
X342165Y972312D01*
X343521Y972312D02*
X343521Y980447D01*
X344877Y980447D02*
X342165Y980447D01*
X1103716Y4826D02*
X1110495Y4826D01*
X1103716Y4826D02*
X1102360Y6182D01*
X1102360Y8893D01*
X1103716Y10249D01*
X1110495Y10249D01*
X1107783Y14181D02*
X1102360Y14181D01*
X1107783Y14181D02*
X1110495Y16893D01*
X1107783Y19604D01*
X1102360Y19604D01*
X1106427Y19604D02*
X1106427Y14181D01*
X1102360Y23536D02*
X1110495Y23536D01*
X1110495Y27604D01*
X1109139Y28960D01*
X1106427Y28960D01*
X1105072Y27604D01*
X1105072Y23536D01*
X1105072Y26248D02*
X1102360Y28960D01*
X1102360Y35603D02*
X1110495Y35603D01*
X1110495Y32892D02*
X1110495Y38315D01*
X1109139Y42247D02*
X1103716Y42247D01*
X1109139Y42247D02*
X1110495Y43603D01*
X1110495Y46314D01*
X1109139Y47670D01*
X1103716Y47670D01*
X1102360Y46314D01*
X1102360Y43603D01*
X1103716Y42247D01*
X1109139Y47670D01*
X239021Y1111550D02*
X230886Y1111550D01*
X230886Y1116973D01*
X239021Y1124972D02*
X237665Y1126328D01*
X239021Y1124972D02*
X239021Y1122261D01*
X237665Y1120905D01*
X232242Y1120905D01*
X230886Y1122261D01*
X230886Y1124972D01*
X232242Y1126328D01*
X230886Y1130260D02*
X239021Y1130260D01*
X230886Y1130260D02*
X230886Y1134328D01*
X232242Y1135683D01*
X237665Y1135683D01*
X239021Y1134328D01*
X239021Y1130260D01*
X229530Y1139615D02*
X229530Y1145039D01*
X237665Y1154394D02*
X239021Y1153038D01*
X239021Y1150326D01*
X237665Y1148970D01*
X232242Y1148970D01*
X230886Y1150326D01*
X230886Y1153038D01*
X232242Y1154394D01*
X239021Y1159681D02*
X239021Y1162393D01*
X239021Y1159681D02*
X237665Y1158326D01*
X232242Y1158326D01*
X230886Y1159681D01*
X230886Y1162393D01*
X232242Y1163749D01*
X237665Y1163749D01*
X239021Y1162393D01*
X239021Y1167681D02*
X230886Y1167681D01*
X230886Y1173104D02*
X239021Y1167681D01*
X239021Y1173104D02*
X230886Y1173104D01*
X961565Y33109D02*
X962921Y31753D01*
X962921Y29042D01*
X961565Y27686D01*
X956142Y27686D01*
X954786Y29042D01*
X954786Y31753D01*
X956142Y33109D01*
X958853Y33109D01*
X958853Y30398D01*
X954786Y37041D02*
X962921Y37041D01*
X962921Y41109D01*
X961565Y42464D01*
X958853Y42464D01*
X957498Y41109D01*
X957498Y37041D01*
X954786Y46396D02*
X954786Y49108D01*
X954786Y47752D02*
X962921Y47752D01*
X962921Y46396D02*
X962921Y49108D01*
X962921Y53989D02*
X962921Y56701D01*
X962921Y53989D02*
X961565Y52633D01*
X956142Y52633D01*
X954786Y53989D01*
X954786Y56701D01*
X956142Y58056D01*
X961565Y58056D01*
X962921Y56701D01*
X958853Y61988D02*
X958853Y67412D01*
X960209Y71344D02*
X962921Y74055D01*
X954786Y74055D01*
X954786Y71344D02*
X954786Y76767D01*
X759721Y31753D02*
X758365Y33109D01*
X759721Y31753D02*
X759721Y29042D01*
X758365Y27686D01*
X752942Y27686D01*
X751586Y29042D01*
X751586Y31753D01*
X752942Y33109D01*
X755653Y33109D01*
X755653Y30398D01*
X751586Y37041D02*
X759721Y37041D01*
X759721Y41109D01*
X758365Y42464D01*
X755653Y42464D01*
X754298Y41109D01*
X754298Y37041D01*
X751586Y46396D02*
X751586Y49108D01*
X751586Y47752D02*
X759721Y47752D01*
X759721Y46396D02*
X759721Y49108D01*
X759721Y53989D02*
X759721Y56701D01*
X759721Y53989D02*
X758365Y52633D01*
X752942Y52633D01*
X751586Y53989D01*
X751586Y56701D01*
X752942Y58056D01*
X758365Y58056D01*
X759721Y56701D01*
X755653Y61988D02*
X755653Y67412D01*
X751586Y71344D02*
X751586Y76767D01*
X751586Y71344D02*
X757009Y76767D01*
X758365Y76767D01*
X759721Y75411D01*
X759721Y72699D01*
X758365Y71344D01*
D13*
X1041654Y985100D02*
X1039451Y987304D01*
X1039451Y980694D01*
X1041654Y980694D02*
X1037248Y980694D01*
X1037248Y957834D02*
X1041654Y957834D01*
X1037248Y962240D01*
X1037248Y963342D01*
X1038349Y964444D01*
X1040552Y964444D01*
X1041654Y963342D01*
X1040552Y941584D02*
X1041654Y940482D01*
X1040552Y941584D02*
X1038349Y941584D01*
X1037248Y940482D01*
X1037248Y939380D01*
X1038349Y938279D01*
X1039451Y938279D01*
X1038349Y938279D02*
X1037248Y937177D01*
X1037248Y936076D01*
X1038349Y934974D01*
X1040552Y934974D01*
X1041654Y936076D01*
X1038349Y918724D02*
X1038349Y912114D01*
X1041654Y915419D02*
X1038349Y918724D01*
X1037248Y915419D02*
X1041654Y915419D01*
X1041654Y895864D02*
X1037248Y895864D01*
X1041654Y895864D02*
X1041654Y892559D01*
X1039451Y893660D01*
X1038349Y893660D01*
X1037248Y892559D01*
X1037248Y890356D01*
X1038349Y889254D01*
X1040552Y889254D01*
X1041654Y890356D01*
X1064851Y997378D02*
X1062648Y998480D01*
X1064851Y997378D02*
X1067054Y995175D01*
X1067054Y992972D01*
X1065952Y991870D01*
X1063749Y991870D01*
X1062648Y992972D01*
X1062648Y994073D01*
X1063749Y995175D01*
X1067054Y995175D01*
X1067054Y975620D02*
X1062648Y975620D01*
X1062648Y974518D01*
X1067054Y970112D01*
X1067054Y969010D01*
X1065952Y952760D02*
X1067054Y951658D01*
X1065952Y952760D02*
X1063749Y952760D01*
X1062648Y951658D01*
X1062648Y950556D01*
X1063749Y949455D01*
X1062648Y948353D01*
X1062648Y947252D01*
X1063749Y946150D01*
X1065952Y946150D01*
X1067054Y947252D01*
X1067054Y948353D01*
X1065952Y949455D01*
X1067054Y950556D01*
X1067054Y951658D01*
X1065952Y949455D02*
X1063749Y949455D01*
X1067054Y924392D02*
X1065952Y923290D01*
X1063749Y923290D01*
X1062648Y924392D01*
X1062648Y928798D01*
X1063749Y929900D01*
X1065952Y929900D01*
X1067054Y928798D01*
X1067054Y927696D01*
X1065952Y926595D01*
X1062648Y926595D01*
X1064851Y907040D02*
X1067054Y904836D01*
X1064851Y907040D02*
X1064851Y900430D01*
X1067054Y900430D02*
X1062648Y900430D01*
X1059570Y901532D02*
X1059570Y905938D01*
X1058468Y907040D01*
X1056265Y907040D01*
X1055163Y905938D01*
X1055163Y901532D01*
X1056265Y900430D01*
X1058468Y900430D01*
X1059570Y901532D01*
X1055163Y905938D01*
X1092454Y984846D02*
X1090251Y987050D01*
X1090251Y980440D01*
X1092454Y980440D02*
X1088048Y980440D01*
X1084970Y984846D02*
X1082767Y987050D01*
X1082767Y980440D01*
X1084970Y980440D02*
X1080563Y980440D01*
X1090251Y964190D02*
X1092454Y961986D01*
X1090251Y964190D02*
X1090251Y957580D01*
X1092454Y957580D02*
X1088048Y957580D01*
X1084970Y957580D02*
X1080563Y957580D01*
X1080563Y961986D02*
X1084970Y957580D01*
X1080563Y961986D02*
X1080563Y963088D01*
X1081665Y964190D01*
X1083868Y964190D01*
X1084970Y963088D01*
X1090251Y941330D02*
X1092454Y939126D01*
X1090251Y941330D02*
X1090251Y934720D01*
X1092454Y934720D02*
X1088048Y934720D01*
X1084970Y940228D02*
X1083868Y941330D01*
X1081665Y941330D01*
X1080563Y940228D01*
X1080563Y939126D01*
X1081665Y938025D01*
X1082767Y938025D01*
X1081665Y938025D02*
X1080563Y936923D01*
X1080563Y935822D01*
X1081665Y934720D01*
X1083868Y934720D01*
X1084970Y935822D01*
X1090251Y918470D02*
X1092454Y916266D01*
X1090251Y918470D02*
X1090251Y911860D01*
X1092454Y911860D02*
X1088048Y911860D01*
X1081665Y911860D02*
X1081665Y918470D01*
X1084970Y915165D01*
X1080563Y915165D01*
X1090251Y895610D02*
X1092454Y893406D01*
X1090251Y895610D02*
X1090251Y889000D01*
X1092454Y889000D02*
X1088048Y889000D01*
X1084970Y895610D02*
X1080563Y895610D01*
X1084970Y895610D02*
X1084970Y892305D01*
X1082767Y893406D01*
X1081665Y893406D01*
X1080563Y892305D01*
X1080563Y890102D01*
X1081665Y889000D01*
X1083868Y889000D01*
X1084970Y890102D01*
D15*
X538988Y943102D02*
X533400Y948690D01*
X538988Y943102D02*
X538988Y941324D01*
X538988Y930910D02*
X538988Y922274D01*
X533400Y916686D01*
X522224Y916686D01*
X516890Y922020D01*
X516890Y942848D01*
X522732Y948690D01*
X533400Y948690D01*
X505206Y948182D02*
X505206Y921258D01*
X500634Y916686D01*
X490728Y916686D01*
D10*
X503428Y949452D02*
X503428Y950214D01*
X506984Y950214D01*
X506984Y949452D01*
D16*
X485902Y943356D02*
X485902Y928624D01*
D10*
X487426Y927608D02*
X487426Y926846D01*
X484378Y926846D01*
X484378Y927608D01*
D17*
X473710Y921766D02*
X473710Y948182D01*
X465074Y948182D01*
X459232Y943356D01*
D15*
X458216Y943356D01*
D17*
X458216Y935990D01*
X441960Y948182D02*
X441960Y921766D01*
X441960Y948182D02*
X450850Y948182D01*
X456946Y943356D01*
D18*
X440436Y948182D02*
X440436Y949960D01*
X475234Y949706D02*
X475234Y946912D01*
D16*
X429260Y932815D02*
X417195Y932815D01*
D17*
X429260Y932815D02*
X429260Y943356D01*
X424434Y948436D01*
X411480Y948436D01*
X400050Y937260D01*
D16*
X399288Y936752D02*
X395732Y936752D01*
D17*
X395478Y937260D02*
X387350Y945388D01*
X429133Y932942D02*
X429133Y921004D01*
X424815Y916686D01*
X411480Y916686D01*
X400050Y928116D01*
D16*
X399542Y928624D01*
X396113Y928624D01*
X395605Y928116D01*
D17*
X387096Y919988D01*
D19*
X535460Y935990D02*
X535462Y936109D01*
X535468Y936227D01*
X535478Y936345D01*
X535492Y936463D01*
X535510Y936580D01*
X535531Y936696D01*
X535557Y936812D01*
X535587Y936927D01*
X535620Y937041D01*
X535657Y937153D01*
X535698Y937264D01*
X535743Y937374D01*
X535791Y937482D01*
X535843Y937589D01*
X535899Y937694D01*
X535958Y937797D01*
X536020Y937897D01*
X536086Y937996D01*
X536155Y938092D01*
X536227Y938186D01*
X536302Y938278D01*
X536381Y938367D01*
X536462Y938453D01*
X536546Y938537D01*
X536633Y938617D01*
X536723Y938695D01*
X536815Y938769D01*
X536910Y938841D01*
X537006Y938909D01*
X537106Y938974D01*
X537207Y939035D01*
X537310Y939094D01*
X537415Y939148D01*
X537522Y939199D01*
X537631Y939247D01*
X537741Y939290D01*
X537853Y939330D01*
X537966Y939367D01*
X538080Y939399D01*
X538195Y939428D01*
X538311Y939452D01*
X538427Y939473D01*
X538545Y939490D01*
X538662Y939503D01*
X538781Y939512D01*
X538899Y939517D01*
X539018Y939518D01*
X539136Y939515D01*
X539254Y939508D01*
X539372Y939497D01*
X539490Y939482D01*
X539607Y939463D01*
X539723Y939440D01*
X539839Y939414D01*
X539953Y939383D01*
X540067Y939349D01*
X540179Y939311D01*
X540290Y939269D01*
X540399Y939223D01*
X540507Y939174D01*
X540613Y939121D01*
X540718Y939065D01*
X540820Y939005D01*
X540920Y938942D01*
X541018Y938875D01*
X541114Y938805D01*
X541207Y938732D01*
X541298Y938656D01*
X541387Y938577D01*
X541472Y938495D01*
X541555Y938410D01*
X541635Y938323D01*
X541712Y938232D01*
X541785Y938140D01*
X541856Y938044D01*
X541923Y937947D01*
X541988Y937847D01*
X542048Y937745D01*
X542106Y937642D01*
X542159Y937536D01*
X542209Y937429D01*
X542256Y937320D01*
X542299Y937209D01*
X542338Y937097D01*
X542373Y936984D01*
X542405Y936870D01*
X542432Y936754D01*
X542456Y936638D01*
X542476Y936521D01*
X542492Y936404D01*
X542504Y936286D01*
X542512Y936168D01*
X542516Y936049D01*
X542516Y935931D01*
X542512Y935812D01*
X542504Y935694D01*
X542492Y935576D01*
X542476Y935459D01*
X542456Y935342D01*
X542432Y935226D01*
X542405Y935110D01*
X542373Y934996D01*
X542338Y934883D01*
X542299Y934771D01*
X542256Y934660D01*
X542209Y934551D01*
X542159Y934444D01*
X542106Y934338D01*
X542048Y934235D01*
X541988Y934133D01*
X541923Y934033D01*
X541856Y933936D01*
X541785Y933840D01*
X541712Y933748D01*
X541635Y933657D01*
X541555Y933570D01*
X541472Y933485D01*
X541387Y933403D01*
X541298Y933324D01*
X541207Y933248D01*
X541114Y933175D01*
X541018Y933105D01*
X540920Y933038D01*
X540820Y932975D01*
X540718Y932915D01*
X540613Y932859D01*
X540507Y932806D01*
X540399Y932757D01*
X540290Y932711D01*
X540179Y932669D01*
X540067Y932631D01*
X539953Y932597D01*
X539839Y932566D01*
X539723Y932540D01*
X539607Y932517D01*
X539490Y932498D01*
X539372Y932483D01*
X539254Y932472D01*
X539136Y932465D01*
X539018Y932462D01*
X538899Y932463D01*
X538781Y932468D01*
X538662Y932477D01*
X538545Y932490D01*
X538427Y932507D01*
X538311Y932528D01*
X538195Y932552D01*
X538080Y932581D01*
X537966Y932613D01*
X537853Y932650D01*
X537741Y932690D01*
X537631Y932733D01*
X537522Y932781D01*
X537415Y932832D01*
X537310Y932886D01*
X537207Y932945D01*
X537106Y933006D01*
X537006Y933071D01*
X536910Y933139D01*
X536815Y933211D01*
X536723Y933285D01*
X536633Y933363D01*
X536546Y933443D01*
X536462Y933527D01*
X536381Y933613D01*
X536302Y933702D01*
X536227Y933794D01*
X536155Y933888D01*
X536086Y933984D01*
X536020Y934083D01*
X535958Y934183D01*
X535899Y934286D01*
X535843Y934391D01*
X535791Y934498D01*
X535743Y934606D01*
X535698Y934716D01*
X535657Y934827D01*
X535620Y934939D01*
X535587Y935053D01*
X535557Y935168D01*
X535531Y935284D01*
X535510Y935400D01*
X535492Y935517D01*
X535478Y935635D01*
X535468Y935753D01*
X535462Y935871D01*
X535460Y935990D01*
D18*
X438350Y916686D02*
X438352Y916806D01*
X438358Y916926D01*
X438368Y917045D01*
X438382Y917165D01*
X438400Y917283D01*
X438422Y917401D01*
X438447Y917519D01*
X438477Y917635D01*
X438510Y917750D01*
X438548Y917864D01*
X438589Y917977D01*
X438633Y918088D01*
X438682Y918198D01*
X438734Y918306D01*
X438790Y918412D01*
X438849Y918517D01*
X438911Y918619D01*
X438977Y918720D01*
X439047Y918818D01*
X439119Y918913D01*
X439195Y919006D01*
X439273Y919097D01*
X439355Y919185D01*
X439439Y919270D01*
X439527Y919353D01*
X439617Y919432D01*
X439709Y919508D01*
X439804Y919582D01*
X439902Y919652D01*
X440001Y919718D01*
X440103Y919782D01*
X440207Y919842D01*
X440313Y919898D01*
X440421Y919951D01*
X440530Y920001D01*
X440641Y920046D01*
X440754Y920088D01*
X440867Y920127D01*
X440982Y920161D01*
X441098Y920192D01*
X441215Y920218D01*
X441333Y920241D01*
X441452Y920260D01*
X441571Y920275D01*
X441690Y920286D01*
X441810Y920293D01*
X441930Y920296D01*
X442050Y920295D01*
X442170Y920290D01*
X442290Y920281D01*
X442409Y920268D01*
X442528Y920251D01*
X442646Y920230D01*
X442763Y920205D01*
X442880Y920177D01*
X442995Y920144D01*
X443110Y920108D01*
X443223Y920068D01*
X443335Y920024D01*
X443445Y919977D01*
X443553Y919925D01*
X443660Y919871D01*
X443765Y919812D01*
X443868Y919751D01*
X443969Y919686D01*
X444067Y919617D01*
X444164Y919545D01*
X444257Y919471D01*
X444349Y919393D01*
X444437Y919312D01*
X444523Y919228D01*
X444606Y919141D01*
X444686Y919052D01*
X444764Y918960D01*
X444838Y918866D01*
X444909Y918769D01*
X444976Y918670D01*
X445040Y918568D01*
X445101Y918465D01*
X445159Y918360D01*
X445212Y918252D01*
X445263Y918143D01*
X445309Y918033D01*
X445352Y917921D01*
X445391Y917807D01*
X445427Y917693D01*
X445458Y917577D01*
X445486Y917460D01*
X445510Y917342D01*
X445530Y917224D01*
X445546Y917105D01*
X445558Y916986D01*
X445566Y916866D01*
X445570Y916746D01*
X445570Y916626D01*
X445566Y916506D01*
X445558Y916386D01*
X445546Y916267D01*
X445530Y916148D01*
X445510Y916030D01*
X445486Y915912D01*
X445458Y915795D01*
X445427Y915679D01*
X445391Y915565D01*
X445352Y915451D01*
X445309Y915339D01*
X445263Y915229D01*
X445212Y915120D01*
X445159Y915012D01*
X445101Y914907D01*
X445040Y914804D01*
X444976Y914702D01*
X444909Y914603D01*
X444838Y914506D01*
X444764Y914412D01*
X444686Y914320D01*
X444606Y914231D01*
X444523Y914144D01*
X444437Y914060D01*
X444349Y913979D01*
X444257Y913901D01*
X444164Y913827D01*
X444067Y913755D01*
X443969Y913686D01*
X443868Y913621D01*
X443765Y913560D01*
X443660Y913501D01*
X443553Y913447D01*
X443445Y913395D01*
X443335Y913348D01*
X443223Y913304D01*
X443110Y913264D01*
X442995Y913228D01*
X442880Y913195D01*
X442763Y913167D01*
X442646Y913142D01*
X442528Y913121D01*
X442409Y913104D01*
X442290Y913091D01*
X442170Y913082D01*
X442050Y913077D01*
X441930Y913076D01*
X441810Y913079D01*
X441690Y913086D01*
X441571Y913097D01*
X441452Y913112D01*
X441333Y913131D01*
X441215Y913154D01*
X441098Y913180D01*
X440982Y913211D01*
X440867Y913245D01*
X440754Y913284D01*
X440641Y913326D01*
X440530Y913371D01*
X440421Y913421D01*
X440313Y913474D01*
X440207Y913530D01*
X440103Y913590D01*
X440001Y913654D01*
X439902Y913720D01*
X439804Y913790D01*
X439709Y913864D01*
X439617Y913940D01*
X439527Y914019D01*
X439439Y914102D01*
X439355Y914187D01*
X439273Y914275D01*
X439195Y914366D01*
X439119Y914459D01*
X439047Y914554D01*
X438977Y914652D01*
X438911Y914753D01*
X438849Y914855D01*
X438790Y914960D01*
X438734Y915066D01*
X438682Y915174D01*
X438633Y915284D01*
X438589Y915395D01*
X438548Y915508D01*
X438510Y915622D01*
X438477Y915737D01*
X438447Y915853D01*
X438422Y915971D01*
X438400Y916089D01*
X438382Y916207D01*
X438368Y916327D01*
X438358Y916446D01*
X438352Y916566D01*
X438350Y916686D01*
X454624Y930910D02*
X454626Y931029D01*
X454632Y931149D01*
X454642Y931268D01*
X454656Y931386D01*
X454674Y931504D01*
X454695Y931622D01*
X454721Y931738D01*
X454750Y931854D01*
X454784Y931969D01*
X454821Y932082D01*
X454862Y932194D01*
X454906Y932305D01*
X454954Y932415D01*
X455006Y932522D01*
X455061Y932628D01*
X455120Y932732D01*
X455183Y932834D01*
X455248Y932933D01*
X455317Y933031D01*
X455389Y933126D01*
X455464Y933219D01*
X455543Y933309D01*
X455624Y933397D01*
X455708Y933481D01*
X455795Y933563D01*
X455884Y933642D01*
X455976Y933718D01*
X456071Y933791D01*
X456168Y933861D01*
X456267Y933927D01*
X456369Y933990D01*
X456472Y934050D01*
X456577Y934106D01*
X456684Y934159D01*
X456793Y934208D01*
X456904Y934254D01*
X457016Y934295D01*
X457129Y934333D01*
X457243Y934368D01*
X457359Y934398D01*
X457475Y934425D01*
X457592Y934447D01*
X457710Y934466D01*
X457829Y934481D01*
X457948Y934492D01*
X458067Y934499D01*
X458186Y934502D01*
X458306Y934501D01*
X458425Y934496D01*
X458544Y934487D01*
X458663Y934474D01*
X458781Y934457D01*
X458898Y934437D01*
X459015Y934412D01*
X459131Y934383D01*
X459246Y934351D01*
X459360Y934315D01*
X459473Y934275D01*
X459584Y934231D01*
X459693Y934184D01*
X459801Y934133D01*
X459908Y934079D01*
X460012Y934021D01*
X460114Y933959D01*
X460215Y933895D01*
X460313Y933826D01*
X460409Y933755D01*
X460502Y933681D01*
X460593Y933603D01*
X460681Y933523D01*
X460766Y933439D01*
X460849Y933353D01*
X460929Y933264D01*
X461006Y933173D01*
X461079Y933079D01*
X461150Y932982D01*
X461217Y932884D01*
X461281Y932783D01*
X461342Y932680D01*
X461399Y932575D01*
X461452Y932469D01*
X461502Y932360D01*
X461549Y932250D01*
X461591Y932139D01*
X461630Y932026D01*
X461666Y931912D01*
X461697Y931796D01*
X461724Y931680D01*
X461748Y931563D01*
X461768Y931445D01*
X461784Y931327D01*
X461796Y931208D01*
X461804Y931089D01*
X461808Y930970D01*
X461808Y930850D01*
X461804Y930731D01*
X461796Y930612D01*
X461784Y930493D01*
X461768Y930375D01*
X461748Y930257D01*
X461724Y930140D01*
X461697Y930024D01*
X461666Y929908D01*
X461630Y929794D01*
X461591Y929681D01*
X461549Y929570D01*
X461502Y929460D01*
X461452Y929351D01*
X461399Y929245D01*
X461342Y929140D01*
X461281Y929037D01*
X461217Y928936D01*
X461150Y928838D01*
X461079Y928741D01*
X461006Y928647D01*
X460929Y928556D01*
X460849Y928467D01*
X460766Y928381D01*
X460681Y928297D01*
X460593Y928217D01*
X460502Y928139D01*
X460409Y928065D01*
X460313Y927994D01*
X460215Y927925D01*
X460114Y927861D01*
X460012Y927799D01*
X459908Y927741D01*
X459801Y927687D01*
X459693Y927636D01*
X459584Y927589D01*
X459473Y927545D01*
X459360Y927505D01*
X459246Y927469D01*
X459131Y927437D01*
X459015Y927408D01*
X458898Y927383D01*
X458781Y927363D01*
X458663Y927346D01*
X458544Y927333D01*
X458425Y927324D01*
X458306Y927319D01*
X458186Y927318D01*
X458067Y927321D01*
X457948Y927328D01*
X457829Y927339D01*
X457710Y927354D01*
X457592Y927373D01*
X457475Y927395D01*
X457359Y927422D01*
X457243Y927452D01*
X457129Y927487D01*
X457016Y927525D01*
X456904Y927566D01*
X456793Y927612D01*
X456684Y927661D01*
X456577Y927714D01*
X456472Y927770D01*
X456369Y927830D01*
X456267Y927893D01*
X456168Y927959D01*
X456071Y928029D01*
X455976Y928102D01*
X455884Y928178D01*
X455795Y928257D01*
X455708Y928339D01*
X455624Y928423D01*
X455543Y928511D01*
X455464Y928601D01*
X455389Y928694D01*
X455317Y928789D01*
X455248Y928887D01*
X455183Y928986D01*
X455120Y929088D01*
X455061Y929192D01*
X455006Y929298D01*
X454954Y929405D01*
X454906Y929515D01*
X454862Y929626D01*
X454821Y929738D01*
X454784Y929851D01*
X454750Y929966D01*
X454721Y930082D01*
X454695Y930198D01*
X454674Y930316D01*
X454656Y930434D01*
X454642Y930552D01*
X454632Y930671D01*
X454626Y930791D01*
X454624Y930910D01*
X470154Y916686D02*
X470156Y916805D01*
X470162Y916924D01*
X470172Y917042D01*
X470186Y917160D01*
X470204Y917277D01*
X470225Y917394D01*
X470251Y917510D01*
X470280Y917625D01*
X470314Y917740D01*
X470351Y917852D01*
X470392Y917964D01*
X470436Y918074D01*
X470484Y918183D01*
X470536Y918290D01*
X470592Y918395D01*
X470650Y918498D01*
X470713Y918599D01*
X470778Y918699D01*
X470847Y918795D01*
X470919Y918890D01*
X470994Y918982D01*
X471073Y919071D01*
X471154Y919158D01*
X471238Y919242D01*
X471325Y919323D01*
X471414Y919402D01*
X471506Y919477D01*
X471601Y919549D01*
X471697Y919618D01*
X471797Y919683D01*
X471898Y919746D01*
X472001Y919804D01*
X472106Y919860D01*
X472213Y919912D01*
X472322Y919960D01*
X472432Y920004D01*
X472544Y920045D01*
X472656Y920082D01*
X472771Y920116D01*
X472886Y920145D01*
X473002Y920171D01*
X473119Y920192D01*
X473236Y920210D01*
X473354Y920224D01*
X473472Y920234D01*
X473591Y920240D01*
X473710Y920242D01*
X473829Y920240D01*
X473948Y920234D01*
X474066Y920224D01*
X474184Y920210D01*
X474301Y920192D01*
X474418Y920171D01*
X474534Y920145D01*
X474649Y920116D01*
X474764Y920082D01*
X474876Y920045D01*
X474988Y920004D01*
X475098Y919960D01*
X475207Y919912D01*
X475314Y919860D01*
X475419Y919804D01*
X475522Y919746D01*
X475623Y919683D01*
X475723Y919618D01*
X475819Y919549D01*
X475914Y919477D01*
X476006Y919402D01*
X476095Y919323D01*
X476182Y919242D01*
X476266Y919158D01*
X476347Y919071D01*
X476426Y918982D01*
X476501Y918890D01*
X476573Y918795D01*
X476642Y918699D01*
X476707Y918599D01*
X476770Y918498D01*
X476828Y918395D01*
X476884Y918290D01*
X476936Y918183D01*
X476984Y918074D01*
X477028Y917964D01*
X477069Y917852D01*
X477106Y917740D01*
X477140Y917625D01*
X477169Y917510D01*
X477195Y917394D01*
X477216Y917277D01*
X477234Y917160D01*
X477248Y917042D01*
X477258Y916924D01*
X477264Y916805D01*
X477266Y916686D01*
X477264Y916567D01*
X477258Y916448D01*
X477248Y916330D01*
X477234Y916212D01*
X477216Y916095D01*
X477195Y915978D01*
X477169Y915862D01*
X477140Y915747D01*
X477106Y915632D01*
X477069Y915520D01*
X477028Y915408D01*
X476984Y915298D01*
X476936Y915189D01*
X476884Y915082D01*
X476828Y914977D01*
X476770Y914874D01*
X476707Y914773D01*
X476642Y914673D01*
X476573Y914577D01*
X476501Y914482D01*
X476426Y914390D01*
X476347Y914301D01*
X476266Y914214D01*
X476182Y914130D01*
X476095Y914049D01*
X476006Y913970D01*
X475914Y913895D01*
X475819Y913823D01*
X475723Y913754D01*
X475623Y913689D01*
X475522Y913626D01*
X475419Y913568D01*
X475314Y913512D01*
X475207Y913460D01*
X475098Y913412D01*
X474988Y913368D01*
X474876Y913327D01*
X474764Y913290D01*
X474649Y913256D01*
X474534Y913227D01*
X474418Y913201D01*
X474301Y913180D01*
X474184Y913162D01*
X474066Y913148D01*
X473948Y913138D01*
X473829Y913132D01*
X473710Y913130D01*
X473591Y913132D01*
X473472Y913138D01*
X473354Y913148D01*
X473236Y913162D01*
X473119Y913180D01*
X473002Y913201D01*
X472886Y913227D01*
X472771Y913256D01*
X472656Y913290D01*
X472544Y913327D01*
X472432Y913368D01*
X472322Y913412D01*
X472213Y913460D01*
X472106Y913512D01*
X472001Y913568D01*
X471898Y913626D01*
X471797Y913689D01*
X471697Y913754D01*
X471601Y913823D01*
X471506Y913895D01*
X471414Y913970D01*
X471325Y914049D01*
X471238Y914130D01*
X471154Y914214D01*
X471073Y914301D01*
X470994Y914390D01*
X470919Y914482D01*
X470847Y914577D01*
X470778Y914673D01*
X470713Y914773D01*
X470650Y914874D01*
X470592Y914977D01*
X470536Y915082D01*
X470484Y915189D01*
X470436Y915298D01*
X470392Y915408D01*
X470351Y915520D01*
X470314Y915632D01*
X470280Y915747D01*
X470251Y915862D01*
X470225Y915978D01*
X470204Y916095D01*
X470186Y916212D01*
X470172Y916330D01*
X470162Y916448D01*
X470156Y916567D01*
X470154Y916686D01*
X380109Y916559D02*
X380111Y916676D01*
X380117Y916792D01*
X380127Y916908D01*
X380141Y917024D01*
X380158Y917139D01*
X380180Y917253D01*
X380206Y917367D01*
X380235Y917480D01*
X380268Y917591D01*
X380305Y917702D01*
X380346Y917811D01*
X380390Y917919D01*
X380438Y918025D01*
X380490Y918130D01*
X380545Y918232D01*
X380603Y918333D01*
X380665Y918432D01*
X380730Y918528D01*
X380799Y918623D01*
X380871Y918714D01*
X380945Y918804D01*
X381023Y918891D01*
X381104Y918975D01*
X381187Y919056D01*
X381273Y919135D01*
X381362Y919210D01*
X381453Y919282D01*
X381547Y919352D01*
X381643Y919418D01*
X381741Y919481D01*
X381841Y919540D01*
X381944Y919596D01*
X382048Y919648D01*
X382153Y919697D01*
X382261Y919743D01*
X382370Y919784D01*
X382480Y919822D01*
X382591Y919856D01*
X382704Y919887D01*
X382817Y919913D01*
X382931Y919936D01*
X383046Y919954D01*
X383162Y919969D01*
X383278Y919980D01*
X383394Y919987D01*
X383511Y919990D01*
X383627Y919989D01*
X383744Y919984D01*
X383860Y919975D01*
X383976Y919962D01*
X384091Y919945D01*
X384206Y919925D01*
X384320Y919900D01*
X384433Y919872D01*
X384545Y919840D01*
X384655Y919804D01*
X384765Y919764D01*
X384873Y919720D01*
X384980Y919673D01*
X385085Y919623D01*
X385188Y919568D01*
X385289Y919511D01*
X385388Y919450D01*
X385485Y919385D01*
X385580Y919318D01*
X385673Y919247D01*
X385763Y919173D01*
X385850Y919096D01*
X385935Y919016D01*
X386017Y918933D01*
X386096Y918848D01*
X386172Y918759D01*
X386246Y918669D01*
X386316Y918576D01*
X386383Y918480D01*
X386446Y918383D01*
X386506Y918283D01*
X386563Y918181D01*
X386617Y918078D01*
X386666Y917972D01*
X386713Y917865D01*
X386755Y917757D01*
X386794Y917647D01*
X386829Y917536D01*
X386860Y917424D01*
X386888Y917310D01*
X386911Y917196D01*
X386931Y917081D01*
X386947Y916966D01*
X386959Y916850D01*
X386967Y916734D01*
X386971Y916617D01*
X386971Y916501D01*
X386967Y916384D01*
X386959Y916268D01*
X386947Y916152D01*
X386931Y916037D01*
X386911Y915922D01*
X386888Y915808D01*
X386860Y915694D01*
X386829Y915582D01*
X386794Y915471D01*
X386755Y915361D01*
X386713Y915253D01*
X386666Y915146D01*
X386617Y915040D01*
X386563Y914937D01*
X386506Y914835D01*
X386446Y914735D01*
X386383Y914638D01*
X386316Y914542D01*
X386246Y914449D01*
X386172Y914359D01*
X386096Y914270D01*
X386017Y914185D01*
X385935Y914102D01*
X385850Y914022D01*
X385763Y913945D01*
X385673Y913871D01*
X385580Y913800D01*
X385485Y913733D01*
X385388Y913668D01*
X385289Y913607D01*
X385188Y913550D01*
X385085Y913495D01*
X384980Y913445D01*
X384873Y913398D01*
X384765Y913354D01*
X384655Y913314D01*
X384545Y913278D01*
X384433Y913246D01*
X384320Y913218D01*
X384206Y913193D01*
X384091Y913173D01*
X383976Y913156D01*
X383860Y913143D01*
X383744Y913134D01*
X383627Y913129D01*
X383511Y913128D01*
X383394Y913131D01*
X383278Y913138D01*
X383162Y913149D01*
X383046Y913164D01*
X382931Y913182D01*
X382817Y913205D01*
X382704Y913231D01*
X382591Y913262D01*
X382480Y913296D01*
X382370Y913334D01*
X382261Y913375D01*
X382153Y913421D01*
X382048Y913470D01*
X381944Y913522D01*
X381841Y913578D01*
X381741Y913637D01*
X381643Y913700D01*
X381547Y913766D01*
X381453Y913836D01*
X381362Y913908D01*
X381273Y913983D01*
X381187Y914062D01*
X381104Y914143D01*
X381023Y914227D01*
X380945Y914314D01*
X380871Y914404D01*
X380799Y914495D01*
X380730Y914590D01*
X380665Y914686D01*
X380603Y914785D01*
X380545Y914886D01*
X380490Y914988D01*
X380438Y915093D01*
X380390Y915199D01*
X380346Y915307D01*
X380305Y915416D01*
X380268Y915527D01*
X380235Y915638D01*
X380206Y915751D01*
X380180Y915865D01*
X380158Y915979D01*
X380141Y916094D01*
X380127Y916210D01*
X380117Y916326D01*
X380111Y916442D01*
X380109Y916559D01*
X380173Y948817D02*
X380175Y948935D01*
X380181Y949053D01*
X380191Y949170D01*
X380205Y949288D01*
X380223Y949404D01*
X380245Y949520D01*
X380270Y949636D01*
X380300Y949750D01*
X380333Y949863D01*
X380370Y949975D01*
X380411Y950086D01*
X380456Y950195D01*
X380505Y950303D01*
X380557Y950408D01*
X380612Y950513D01*
X380671Y950615D01*
X380733Y950715D01*
X380799Y950813D01*
X380868Y950909D01*
X380941Y951002D01*
X381016Y951093D01*
X381094Y951181D01*
X381176Y951267D01*
X381260Y951349D01*
X381347Y951429D01*
X381436Y951506D01*
X381528Y951580D01*
X381623Y951651D01*
X381720Y951718D01*
X381819Y951782D01*
X381920Y951843D01*
X382023Y951900D01*
X382128Y951954D01*
X382235Y952004D01*
X382344Y952051D01*
X382454Y952094D01*
X382565Y952133D01*
X382677Y952168D01*
X382791Y952199D01*
X382906Y952227D01*
X383022Y952251D01*
X383138Y952271D01*
X383255Y952287D01*
X383372Y952299D01*
X383490Y952307D01*
X383608Y952311D01*
X383726Y952311D01*
X383844Y952307D01*
X383962Y952299D01*
X384079Y952287D01*
X384196Y952271D01*
X384312Y952251D01*
X384428Y952227D01*
X384543Y952199D01*
X384657Y952168D01*
X384769Y952133D01*
X384880Y952094D01*
X384990Y952051D01*
X385099Y952004D01*
X385206Y951954D01*
X385311Y951900D01*
X385414Y951843D01*
X385515Y951782D01*
X385614Y951718D01*
X385711Y951651D01*
X385806Y951580D01*
X385898Y951506D01*
X385987Y951429D01*
X386074Y951349D01*
X386158Y951267D01*
X386240Y951181D01*
X386318Y951093D01*
X386393Y951002D01*
X386466Y950909D01*
X386535Y950813D01*
X386601Y950715D01*
X386663Y950615D01*
X386722Y950513D01*
X386777Y950408D01*
X386829Y950303D01*
X386878Y950195D01*
X386923Y950086D01*
X386964Y949975D01*
X387001Y949863D01*
X387034Y949750D01*
X387064Y949636D01*
X387089Y949520D01*
X387111Y949404D01*
X387129Y949288D01*
X387143Y949170D01*
X387153Y949053D01*
X387159Y948935D01*
X387161Y948817D01*
X387159Y948699D01*
X387153Y948581D01*
X387143Y948464D01*
X387129Y948346D01*
X387111Y948230D01*
X387089Y948114D01*
X387064Y947998D01*
X387034Y947884D01*
X387001Y947771D01*
X386964Y947659D01*
X386923Y947548D01*
X386878Y947439D01*
X386829Y947331D01*
X386777Y947226D01*
X386722Y947121D01*
X386663Y947019D01*
X386601Y946919D01*
X386535Y946821D01*
X386466Y946725D01*
X386393Y946632D01*
X386318Y946541D01*
X386240Y946453D01*
X386158Y946367D01*
X386074Y946285D01*
X385987Y946205D01*
X385898Y946128D01*
X385806Y946054D01*
X385711Y945983D01*
X385614Y945916D01*
X385515Y945852D01*
X385414Y945791D01*
X385311Y945734D01*
X385206Y945680D01*
X385099Y945630D01*
X384990Y945583D01*
X384880Y945540D01*
X384769Y945501D01*
X384657Y945466D01*
X384543Y945435D01*
X384428Y945407D01*
X384312Y945383D01*
X384196Y945363D01*
X384079Y945347D01*
X383962Y945335D01*
X383844Y945327D01*
X383726Y945323D01*
X383608Y945323D01*
X383490Y945327D01*
X383372Y945335D01*
X383255Y945347D01*
X383138Y945363D01*
X383022Y945383D01*
X382906Y945407D01*
X382791Y945435D01*
X382677Y945466D01*
X382565Y945501D01*
X382454Y945540D01*
X382344Y945583D01*
X382235Y945630D01*
X382128Y945680D01*
X382023Y945734D01*
X381920Y945791D01*
X381819Y945852D01*
X381720Y945916D01*
X381623Y945983D01*
X381528Y946054D01*
X381436Y946128D01*
X381347Y946205D01*
X381260Y946285D01*
X381176Y946367D01*
X381094Y946453D01*
X381016Y946541D01*
X380941Y946632D01*
X380868Y946725D01*
X380799Y946821D01*
X380733Y946919D01*
X380671Y947019D01*
X380612Y947121D01*
X380557Y947226D01*
X380505Y947331D01*
X380456Y947439D01*
X380411Y947548D01*
X380370Y947659D01*
X380333Y947771D01*
X380300Y947884D01*
X380270Y947998D01*
X380245Y948114D01*
X380223Y948230D01*
X380205Y948346D01*
X380191Y948464D01*
X380181Y948581D01*
X380175Y948699D01*
X380173Y948817D01*
X409423Y932688D02*
X409425Y932805D01*
X409431Y932922D01*
X409441Y933039D01*
X409455Y933156D01*
X409473Y933272D01*
X409494Y933387D01*
X409520Y933501D01*
X409550Y933615D01*
X409583Y933727D01*
X409620Y933839D01*
X409661Y933949D01*
X409706Y934057D01*
X409754Y934164D01*
X409806Y934269D01*
X409862Y934372D01*
X409921Y934474D01*
X409983Y934573D01*
X410049Y934670D01*
X410118Y934765D01*
X410190Y934858D01*
X410265Y934948D01*
X410343Y935035D01*
X410424Y935120D01*
X410508Y935202D01*
X410595Y935281D01*
X410684Y935357D01*
X410776Y935430D01*
X410871Y935499D01*
X410967Y935566D01*
X411066Y935629D01*
X411167Y935689D01*
X411270Y935745D01*
X411375Y935798D01*
X411481Y935847D01*
X411589Y935893D01*
X411699Y935935D01*
X411810Y935973D01*
X411922Y936007D01*
X412035Y936038D01*
X412149Y936064D01*
X412264Y936087D01*
X412380Y936106D01*
X412497Y936121D01*
X412613Y936132D01*
X412730Y936139D01*
X412848Y936142D01*
X412965Y936141D01*
X413082Y936136D01*
X413199Y936127D01*
X413316Y936114D01*
X413432Y936097D01*
X413547Y936076D01*
X413662Y936052D01*
X413776Y936023D01*
X413888Y935991D01*
X414000Y935954D01*
X414110Y935914D01*
X414219Y935871D01*
X414326Y935823D01*
X414432Y935772D01*
X414536Y935718D01*
X414638Y935660D01*
X414738Y935598D01*
X414835Y935533D01*
X414931Y935465D01*
X415024Y935394D01*
X415115Y935319D01*
X415203Y935242D01*
X415288Y935161D01*
X415371Y935078D01*
X415450Y934992D01*
X415527Y934903D01*
X415601Y934812D01*
X415671Y934718D01*
X415739Y934622D01*
X415803Y934524D01*
X415863Y934423D01*
X415921Y934321D01*
X415974Y934217D01*
X416024Y934111D01*
X416071Y934003D01*
X416114Y933894D01*
X416153Y933783D01*
X416188Y933671D01*
X416220Y933558D01*
X416247Y933444D01*
X416271Y933329D01*
X416291Y933214D01*
X416307Y933098D01*
X416319Y932981D01*
X416327Y932864D01*
X416331Y932747D01*
X416331Y932629D01*
X416327Y932512D01*
X416319Y932395D01*
X416307Y932278D01*
X416291Y932162D01*
X416271Y932047D01*
X416247Y931932D01*
X416220Y931818D01*
X416188Y931705D01*
X416153Y931593D01*
X416114Y931482D01*
X416071Y931373D01*
X416024Y931265D01*
X415974Y931159D01*
X415921Y931055D01*
X415863Y930953D01*
X415803Y930852D01*
X415739Y930754D01*
X415671Y930658D01*
X415601Y930564D01*
X415527Y930473D01*
X415450Y930384D01*
X415371Y930298D01*
X415288Y930215D01*
X415203Y930134D01*
X415115Y930057D01*
X415024Y929982D01*
X414931Y929911D01*
X414835Y929843D01*
X414738Y929778D01*
X414638Y929716D01*
X414536Y929658D01*
X414432Y929604D01*
X414326Y929553D01*
X414219Y929505D01*
X414110Y929462D01*
X414000Y929422D01*
X413888Y929385D01*
X413776Y929353D01*
X413662Y929324D01*
X413547Y929300D01*
X413432Y929279D01*
X413316Y929262D01*
X413199Y929249D01*
X413082Y929240D01*
X412965Y929235D01*
X412848Y929234D01*
X412730Y929237D01*
X412613Y929244D01*
X412497Y929255D01*
X412380Y929270D01*
X412264Y929289D01*
X412149Y929312D01*
X412035Y929338D01*
X411922Y929369D01*
X411810Y929403D01*
X411699Y929441D01*
X411589Y929483D01*
X411481Y929529D01*
X411375Y929578D01*
X411270Y929631D01*
X411167Y929687D01*
X411066Y929747D01*
X410967Y929810D01*
X410871Y929877D01*
X410776Y929946D01*
X410684Y930019D01*
X410595Y930095D01*
X410508Y930174D01*
X410424Y930256D01*
X410343Y930341D01*
X410265Y930428D01*
X410190Y930518D01*
X410118Y930611D01*
X410049Y930706D01*
X409983Y930803D01*
X409921Y930902D01*
X409862Y931004D01*
X409806Y931107D01*
X409754Y931212D01*
X409706Y931319D01*
X409661Y931427D01*
X409620Y931537D01*
X409583Y931649D01*
X409550Y931761D01*
X409520Y931875D01*
X409494Y931989D01*
X409473Y932104D01*
X409455Y932220D01*
X409441Y932337D01*
X409431Y932454D01*
X409425Y932571D01*
X409423Y932688D01*
X482409Y916813D02*
X482411Y916932D01*
X482417Y917051D01*
X482427Y917169D01*
X482441Y917287D01*
X482459Y917404D01*
X482480Y917521D01*
X482506Y917637D01*
X482535Y917752D01*
X482569Y917867D01*
X482606Y917979D01*
X482647Y918091D01*
X482691Y918201D01*
X482739Y918310D01*
X482791Y918417D01*
X482847Y918522D01*
X482905Y918625D01*
X482968Y918726D01*
X483033Y918826D01*
X483102Y918922D01*
X483174Y919017D01*
X483249Y919109D01*
X483328Y919198D01*
X483409Y919285D01*
X483493Y919369D01*
X483580Y919450D01*
X483669Y919529D01*
X483761Y919604D01*
X483856Y919676D01*
X483952Y919745D01*
X484052Y919810D01*
X484153Y919873D01*
X484256Y919931D01*
X484361Y919987D01*
X484468Y920039D01*
X484577Y920087D01*
X484687Y920131D01*
X484799Y920172D01*
X484911Y920209D01*
X485026Y920243D01*
X485141Y920272D01*
X485257Y920298D01*
X485374Y920319D01*
X485491Y920337D01*
X485609Y920351D01*
X485727Y920361D01*
X485846Y920367D01*
X485965Y920369D01*
X486084Y920367D01*
X486203Y920361D01*
X486321Y920351D01*
X486439Y920337D01*
X486556Y920319D01*
X486673Y920298D01*
X486789Y920272D01*
X486904Y920243D01*
X487019Y920209D01*
X487131Y920172D01*
X487243Y920131D01*
X487353Y920087D01*
X487462Y920039D01*
X487569Y919987D01*
X487674Y919931D01*
X487777Y919873D01*
X487878Y919810D01*
X487978Y919745D01*
X488074Y919676D01*
X488169Y919604D01*
X488261Y919529D01*
X488350Y919450D01*
X488437Y919369D01*
X488521Y919285D01*
X488602Y919198D01*
X488681Y919109D01*
X488756Y919017D01*
X488828Y918922D01*
X488897Y918826D01*
X488962Y918726D01*
X489025Y918625D01*
X489083Y918522D01*
X489139Y918417D01*
X489191Y918310D01*
X489239Y918201D01*
X489283Y918091D01*
X489324Y917979D01*
X489361Y917867D01*
X489395Y917752D01*
X489424Y917637D01*
X489450Y917521D01*
X489471Y917404D01*
X489489Y917287D01*
X489503Y917169D01*
X489513Y917051D01*
X489519Y916932D01*
X489521Y916813D01*
X489519Y916694D01*
X489513Y916575D01*
X489503Y916457D01*
X489489Y916339D01*
X489471Y916222D01*
X489450Y916105D01*
X489424Y915989D01*
X489395Y915874D01*
X489361Y915759D01*
X489324Y915647D01*
X489283Y915535D01*
X489239Y915425D01*
X489191Y915316D01*
X489139Y915209D01*
X489083Y915104D01*
X489025Y915001D01*
X488962Y914900D01*
X488897Y914800D01*
X488828Y914704D01*
X488756Y914609D01*
X488681Y914517D01*
X488602Y914428D01*
X488521Y914341D01*
X488437Y914257D01*
X488350Y914176D01*
X488261Y914097D01*
X488169Y914022D01*
X488074Y913950D01*
X487978Y913881D01*
X487878Y913816D01*
X487777Y913753D01*
X487674Y913695D01*
X487569Y913639D01*
X487462Y913587D01*
X487353Y913539D01*
X487243Y913495D01*
X487131Y913454D01*
X487019Y913417D01*
X486904Y913383D01*
X486789Y913354D01*
X486673Y913328D01*
X486556Y913307D01*
X486439Y913289D01*
X486321Y913275D01*
X486203Y913265D01*
X486084Y913259D01*
X485965Y913257D01*
X485846Y913259D01*
X485727Y913265D01*
X485609Y913275D01*
X485491Y913289D01*
X485374Y913307D01*
X485257Y913328D01*
X485141Y913354D01*
X485026Y913383D01*
X484911Y913417D01*
X484799Y913454D01*
X484687Y913495D01*
X484577Y913539D01*
X484468Y913587D01*
X484361Y913639D01*
X484256Y913695D01*
X484153Y913753D01*
X484052Y913816D01*
X483952Y913881D01*
X483856Y913950D01*
X483761Y914022D01*
X483669Y914097D01*
X483580Y914176D01*
X483493Y914257D01*
X483409Y914341D01*
X483328Y914428D01*
X483249Y914517D01*
X483174Y914609D01*
X483102Y914704D01*
X483033Y914800D01*
X482968Y914900D01*
X482905Y915001D01*
X482847Y915104D01*
X482791Y915209D01*
X482739Y915316D01*
X482691Y915425D01*
X482647Y915535D01*
X482606Y915647D01*
X482569Y915759D01*
X482535Y915874D01*
X482506Y915989D01*
X482480Y916105D01*
X482459Y916222D01*
X482441Y916339D01*
X482427Y916457D01*
X482417Y916575D01*
X482411Y916694D01*
X482409Y916813D01*
X482600Y949071D02*
X482602Y949190D01*
X482608Y949309D01*
X482618Y949427D01*
X482632Y949545D01*
X482650Y949662D01*
X482671Y949779D01*
X482697Y949895D01*
X482726Y950010D01*
X482760Y950125D01*
X482797Y950237D01*
X482838Y950349D01*
X482882Y950459D01*
X482930Y950568D01*
X482982Y950675D01*
X483038Y950780D01*
X483096Y950883D01*
X483159Y950984D01*
X483224Y951084D01*
X483293Y951180D01*
X483365Y951275D01*
X483440Y951367D01*
X483519Y951456D01*
X483600Y951543D01*
X483684Y951627D01*
X483771Y951708D01*
X483860Y951787D01*
X483952Y951862D01*
X484047Y951934D01*
X484143Y952003D01*
X484243Y952068D01*
X484344Y952131D01*
X484447Y952189D01*
X484552Y952245D01*
X484659Y952297D01*
X484768Y952345D01*
X484878Y952389D01*
X484990Y952430D01*
X485102Y952467D01*
X485217Y952501D01*
X485332Y952530D01*
X485448Y952556D01*
X485565Y952577D01*
X485682Y952595D01*
X485800Y952609D01*
X485918Y952619D01*
X486037Y952625D01*
X486156Y952627D01*
X486275Y952625D01*
X486394Y952619D01*
X486512Y952609D01*
X486630Y952595D01*
X486747Y952577D01*
X486864Y952556D01*
X486980Y952530D01*
X487095Y952501D01*
X487210Y952467D01*
X487322Y952430D01*
X487434Y952389D01*
X487544Y952345D01*
X487653Y952297D01*
X487760Y952245D01*
X487865Y952189D01*
X487968Y952131D01*
X488069Y952068D01*
X488169Y952003D01*
X488265Y951934D01*
X488360Y951862D01*
X488452Y951787D01*
X488541Y951708D01*
X488628Y951627D01*
X488712Y951543D01*
X488793Y951456D01*
X488872Y951367D01*
X488947Y951275D01*
X489019Y951180D01*
X489088Y951084D01*
X489153Y950984D01*
X489216Y950883D01*
X489274Y950780D01*
X489330Y950675D01*
X489382Y950568D01*
X489430Y950459D01*
X489474Y950349D01*
X489515Y950237D01*
X489552Y950125D01*
X489586Y950010D01*
X489615Y949895D01*
X489641Y949779D01*
X489662Y949662D01*
X489680Y949545D01*
X489694Y949427D01*
X489704Y949309D01*
X489710Y949190D01*
X489712Y949071D01*
X489710Y948952D01*
X489704Y948833D01*
X489694Y948715D01*
X489680Y948597D01*
X489662Y948480D01*
X489641Y948363D01*
X489615Y948247D01*
X489586Y948132D01*
X489552Y948017D01*
X489515Y947905D01*
X489474Y947793D01*
X489430Y947683D01*
X489382Y947574D01*
X489330Y947467D01*
X489274Y947362D01*
X489216Y947259D01*
X489153Y947158D01*
X489088Y947058D01*
X489019Y946962D01*
X488947Y946867D01*
X488872Y946775D01*
X488793Y946686D01*
X488712Y946599D01*
X488628Y946515D01*
X488541Y946434D01*
X488452Y946355D01*
X488360Y946280D01*
X488265Y946208D01*
X488169Y946139D01*
X488069Y946074D01*
X487968Y946011D01*
X487865Y945953D01*
X487760Y945897D01*
X487653Y945845D01*
X487544Y945797D01*
X487434Y945753D01*
X487322Y945712D01*
X487210Y945675D01*
X487095Y945641D01*
X486980Y945612D01*
X486864Y945586D01*
X486747Y945565D01*
X486630Y945547D01*
X486512Y945533D01*
X486394Y945523D01*
X486275Y945517D01*
X486156Y945515D01*
X486037Y945517D01*
X485918Y945523D01*
X485800Y945533D01*
X485682Y945547D01*
X485565Y945565D01*
X485448Y945586D01*
X485332Y945612D01*
X485217Y945641D01*
X485102Y945675D01*
X484990Y945712D01*
X484878Y945753D01*
X484768Y945797D01*
X484659Y945845D01*
X484552Y945897D01*
X484447Y945953D01*
X484344Y946011D01*
X484243Y946074D01*
X484143Y946139D01*
X484047Y946208D01*
X483952Y946280D01*
X483860Y946355D01*
X483771Y946434D01*
X483684Y946515D01*
X483600Y946599D01*
X483519Y946686D01*
X483440Y946775D01*
X483365Y946867D01*
X483293Y946962D01*
X483224Y947058D01*
X483159Y947158D01*
X483096Y947259D01*
X483038Y947362D01*
X482982Y947467D01*
X482930Y947574D01*
X482882Y947683D01*
X482838Y947793D01*
X482797Y947905D01*
X482760Y948017D01*
X482726Y948132D01*
X482697Y948247D01*
X482671Y948363D01*
X482650Y948480D01*
X482632Y948597D01*
X482618Y948715D01*
X482608Y948833D01*
X482602Y948952D01*
X482600Y949071D01*
D11*
X1016254Y387944D02*
X1014898Y386588D01*
X1013542Y386588D01*
X1012187Y387944D01*
X1012187Y394723D01*
X1013542Y394723D02*
X1010831Y394723D01*
X1004187Y394723D02*
X1004187Y386588D01*
X1001476Y394723D02*
X1006899Y394723D01*
X997544Y392011D02*
X997544Y386588D01*
X997544Y392011D02*
X994832Y394723D01*
X992120Y392011D01*
X992120Y386588D01*
X992120Y390655D02*
X997544Y390655D01*
X984121Y394723D02*
X982765Y393367D01*
X984121Y394723D02*
X986833Y394723D01*
X988188Y393367D01*
X988188Y387944D01*
X986833Y386588D01*
X984121Y386588D01*
X982765Y387944D01*
X982765Y390655D01*
X985477Y390655D01*
X1103462Y1146556D02*
X1110241Y1146556D01*
X1103462Y1146556D02*
X1102106Y1147912D01*
X1102106Y1150623D01*
X1103462Y1151979D01*
X1110241Y1151979D01*
X1107529Y1155911D02*
X1102106Y1155911D01*
X1107529Y1155911D02*
X1110241Y1158623D01*
X1107529Y1161334D01*
X1102106Y1161334D01*
X1106173Y1161334D02*
X1106173Y1155911D01*
X1102106Y1165266D02*
X1110241Y1165266D01*
X1110241Y1169334D01*
X1108885Y1170690D01*
X1106173Y1170690D01*
X1104818Y1169334D01*
X1104818Y1165266D01*
X1104818Y1167978D02*
X1102106Y1170690D01*
X1102106Y1177333D02*
X1110241Y1177333D01*
X1110241Y1174622D02*
X1110241Y1180045D01*
X1107529Y1183977D02*
X1110241Y1186688D01*
X1102106Y1186688D01*
X1102106Y1183977D02*
X1102106Y1189400D01*
X411741Y305816D02*
X403606Y305816D01*
X411741Y305816D02*
X411741Y309883D01*
X410385Y311239D01*
X407673Y311239D01*
X406318Y309883D01*
X406318Y305816D01*
X404962Y315171D02*
X410385Y315171D01*
X411741Y316527D01*
X411741Y319239D01*
X410385Y320594D01*
X404962Y320594D01*
X403606Y319239D01*
X403606Y316527D01*
X404962Y315171D01*
X410385Y320594D01*
D20*
X127641Y281559D02*
X120269Y281559D01*
X127641Y281559D02*
X127641Y285245D01*
X126413Y286474D01*
X123955Y286474D01*
X122726Y285245D01*
X122726Y281559D01*
X121498Y289979D02*
X120269Y291207D01*
X120269Y293665D01*
X121498Y294894D01*
X126413Y294894D01*
X127641Y293665D01*
X127641Y291207D01*
X126413Y289979D01*
X125184Y289979D01*
X123955Y291207D01*
X123955Y294894D01*
X196469Y281559D02*
X203841Y281559D01*
X203841Y285245D01*
X202613Y286474D01*
X200155Y286474D01*
X198926Y285245D01*
X198926Y281559D01*
X202613Y292436D02*
X203841Y294894D01*
X202613Y292436D02*
X200155Y289979D01*
X197698Y289979D01*
X196469Y291207D01*
X196469Y293665D01*
X197698Y294894D01*
X198926Y294894D01*
X200155Y293665D01*
X200155Y289979D01*
D11*
X276606Y305816D02*
X284741Y305816D01*
X284741Y309883D01*
X283385Y311239D01*
X280673Y311239D01*
X279318Y309883D01*
X279318Y305816D01*
X284741Y315171D02*
X284741Y320594D01*
X284741Y315171D02*
X280673Y315171D01*
X282029Y317883D01*
X282029Y319239D01*
X280673Y320594D01*
X277962Y320594D01*
X276606Y319239D01*
X276606Y316527D01*
X277962Y315171D01*
D20*
X178441Y281559D02*
X171069Y281559D01*
X178441Y281559D02*
X178441Y285245D01*
X177213Y286474D01*
X174755Y286474D01*
X173526Y285245D01*
X173526Y281559D01*
X178441Y289979D02*
X178441Y294894D01*
X177213Y294894D01*
X172298Y289979D01*
X171069Y289979D01*
D11*
X185166Y528066D02*
X193301Y528066D01*
X193301Y532133D01*
X191945Y533489D01*
X189233Y533489D01*
X187878Y532133D01*
X187878Y528066D01*
X190589Y537421D02*
X193301Y540133D01*
X185166Y540133D01*
X185166Y542844D02*
X185166Y537421D01*
X185166Y546776D02*
X185166Y552200D01*
X190589Y552200D02*
X185166Y546776D01*
X190589Y552200D02*
X191945Y552200D01*
X193301Y550844D01*
X193301Y548132D01*
X191945Y546776D01*
D20*
X102241Y281559D02*
X94869Y281559D01*
X102241Y281559D02*
X102241Y285245D01*
X101013Y286474D01*
X98555Y286474D01*
X97326Y285245D01*
X97326Y281559D01*
X99784Y289979D02*
X102241Y292436D01*
X94869Y292436D01*
X94869Y289979D02*
X94869Y294894D01*
X96098Y298398D02*
X101013Y298398D01*
X102241Y299627D01*
X102241Y302084D01*
X101013Y303313D01*
X96098Y303313D01*
X94869Y302084D01*
X94869Y299627D01*
X96098Y298398D01*
X101013Y303313D01*
D11*
X327406Y305816D02*
X335541Y305816D01*
X335541Y309883D01*
X334185Y311239D01*
X331473Y311239D01*
X330118Y309883D01*
X330118Y305816D01*
X334185Y315171D02*
X335541Y316527D01*
X335541Y319239D01*
X334185Y320594D01*
X332829Y320594D01*
X331473Y319239D01*
X331473Y317883D01*
X331473Y319239D02*
X330118Y320594D01*
X328762Y320594D01*
X327406Y319239D01*
X327406Y316527D01*
X328762Y315171D01*
X413766Y528066D02*
X421901Y528066D01*
X421901Y532133D01*
X420545Y533489D01*
X417833Y533489D01*
X416478Y532133D01*
X416478Y528066D01*
X419189Y537421D02*
X421901Y540133D01*
X413766Y540133D01*
X413766Y542844D02*
X413766Y537421D01*
X419189Y546776D02*
X421901Y549488D01*
X413766Y549488D01*
X413766Y546776D02*
X413766Y552200D01*
X310141Y305816D02*
X302006Y305816D01*
X310141Y305816D02*
X310141Y309883D01*
X308785Y311239D01*
X306073Y311239D01*
X304718Y309883D01*
X304718Y305816D01*
X302006Y319239D02*
X310141Y319239D01*
X306073Y315171D01*
X306073Y320594D01*
X379476Y305816D02*
X387611Y305816D01*
X387611Y309883D01*
X386255Y311239D01*
X383543Y311239D01*
X382188Y309883D01*
X382188Y305816D01*
X384899Y315171D02*
X387611Y317883D01*
X379476Y317883D01*
X379476Y320594D02*
X379476Y315171D01*
D20*
X153041Y281559D02*
X145669Y281559D01*
X153041Y281559D02*
X153041Y285245D01*
X151813Y286474D01*
X149355Y286474D01*
X148126Y285245D01*
X148126Y281559D01*
X151813Y289979D02*
X153041Y291207D01*
X153041Y293665D01*
X151813Y294894D01*
X150584Y294894D01*
X149355Y293665D01*
X148126Y294894D01*
X146898Y294894D01*
X145669Y293665D01*
X145669Y291207D01*
X146898Y289979D01*
X148126Y289979D01*
X149355Y291207D01*
X150584Y289979D01*
X151813Y289979D01*
X149355Y291207D02*
X149355Y293665D01*
D11*
X988314Y217431D02*
X988314Y209296D01*
X988314Y217431D02*
X984247Y217431D01*
X982891Y216075D01*
X982891Y213363D01*
X984247Y212008D01*
X988314Y212008D01*
X985602Y212008D02*
X982891Y209296D01*
X978959Y217431D02*
X973536Y217431D01*
X978959Y217431D02*
X978959Y209296D01*
X973536Y209296D01*
X976247Y213363D02*
X978959Y213363D01*
X965536Y217431D02*
X964180Y216075D01*
X965536Y217431D02*
X968248Y217431D01*
X969604Y216075D01*
X969604Y214719D01*
X968248Y213363D01*
X965536Y213363D01*
X964180Y212008D01*
X964180Y210652D01*
X965536Y209296D01*
X968248Y209296D01*
X969604Y210652D01*
X960248Y217431D02*
X954825Y217431D01*
X960248Y217431D02*
X960248Y209296D01*
X954825Y209296D01*
X957537Y213363D02*
X960248Y213363D01*
X948182Y209296D02*
X948182Y217431D01*
X950893Y217431D02*
X945470Y217431D01*
X941538Y207940D02*
X936115Y207940D01*
X932183Y209296D02*
X932183Y217431D01*
X926760Y209296D01*
X926760Y217431D01*
D13*
X1023280Y101352D02*
X1024382Y100250D01*
X1023280Y101352D02*
X1021077Y101352D01*
X1019976Y100250D01*
X1019976Y99148D01*
X1021077Y98047D01*
X1022179Y98047D01*
X1021077Y98047D02*
X1019976Y96945D01*
X1019976Y95844D01*
X1021077Y94742D01*
X1023280Y94742D01*
X1024382Y95844D01*
X1016898Y95844D02*
X1016898Y94742D01*
X1016898Y95844D02*
X1015796Y95844D01*
X1015796Y94742D01*
X1016898Y94742D01*
X1013156Y95844D02*
X1013156Y100250D01*
X1012054Y101352D01*
X1009851Y101352D01*
X1008749Y100250D01*
X1008749Y95844D01*
X1009851Y94742D01*
X1012054Y94742D01*
X1013156Y95844D01*
X1008749Y100250D01*
X1005672Y101352D02*
X1005672Y96945D01*
X1003468Y94742D01*
X1001265Y96945D01*
X1001265Y101352D01*
X998187Y93640D02*
X993781Y93640D01*
X990703Y94742D02*
X990703Y101352D01*
X987399Y101352D01*
X986297Y100250D01*
X986297Y99148D01*
X987399Y98047D01*
X986297Y96945D01*
X986297Y95844D01*
X987399Y94742D01*
X990703Y94742D01*
X990703Y98047D02*
X987399Y98047D01*
X983219Y99148D02*
X983219Y94742D01*
X983219Y99148D02*
X981016Y101352D01*
X978813Y99148D01*
X978813Y94742D01*
X978813Y98047D02*
X983219Y98047D01*
X973532Y94742D02*
X973532Y101352D01*
X975735Y101352D02*
X971329Y101352D01*
D11*
X360941Y305816D02*
X352806Y305816D01*
X360941Y305816D02*
X360941Y309883D01*
X359585Y311239D01*
X356873Y311239D01*
X355518Y309883D01*
X355518Y305816D01*
X352806Y315171D02*
X352806Y320594D01*
X352806Y315171D02*
X358229Y320594D01*
X359585Y320594D01*
X360941Y319239D01*
X360941Y316527D01*
X359585Y315171D01*
M02*
