G04 EAGLE Gerber RS-274X export*
G75*
%MOMM*%
%FSLAX34Y34*%
%LPD*%
%INBottom Solder Mask*%
%IPPOS*%
%AMOC8*
5,1,8,0,0,1.08239X$1,22.5*%
G01*
%ADD10C,1.601600*%
%ADD11R,1.879600X1.879600*%
%ADD12R,1.778000X1.778000*%
%ADD13C,1.778000*%
%ADD14R,1.451600X1.451600*%
%ADD15C,1.451600*%
%ADD16C,2.641600*%
%ADD17R,2.641600X2.641600*%
%ADD18R,0.706400X0.706400*%
%ADD19R,2.801600X2.801600*%
%ADD20R,1.625600X1.625600*%
%ADD21C,1.625600*%
%ADD22C,1.101600*%
%ADD23C,2.351600*%
%ADD24C,1.879600*%
%ADD25R,1.901600X1.901600*%
%ADD26P,1.571197X8X112.500000*%
%ADD27C,5.181600*%
%ADD28C,2.001600*%
%ADD29C,7.701600*%
%ADD30C,1.301600*%
%ADD31C,1.117600*%


D10*
X82550Y94744D03*
X17550Y94744D03*
X49550Y50244D03*
X17550Y99744D03*
X17550Y104744D03*
X17550Y89744D03*
X17550Y84744D03*
X17550Y109744D03*
X17550Y79744D03*
X82550Y99744D03*
X82550Y104744D03*
X82550Y109744D03*
X82550Y89744D03*
X82550Y84744D03*
X82550Y79744D03*
X44550Y50244D03*
X39550Y50244D03*
X34550Y50244D03*
X54550Y50244D03*
X59550Y50244D03*
X64550Y50244D03*
D11*
X57150Y23114D03*
D12*
X838200Y1130300D03*
D13*
X838200Y1155700D03*
X863600Y1130300D03*
X863600Y1155700D03*
X889000Y1130300D03*
X889000Y1155700D03*
X914400Y1130300D03*
X914400Y1155700D03*
X939800Y1130300D03*
X939800Y1155700D03*
D14*
X49530Y211168D03*
D15*
X49530Y191168D03*
D16*
X144780Y130810D03*
D17*
X144780Y80010D03*
D18*
X663102Y607220D03*
X671102Y607220D03*
X679102Y591220D03*
X679102Y599220D03*
X699102Y591220D03*
X699102Y599220D03*
X715102Y607220D03*
X707102Y607220D03*
X663102Y627220D03*
X671102Y627220D03*
X715102Y627220D03*
X707102Y627220D03*
X679102Y643220D03*
X679102Y635220D03*
X699102Y643220D03*
X699102Y635220D03*
D19*
X689102Y617220D03*
D20*
X109728Y735838D03*
D21*
X135128Y735838D03*
D22*
X43180Y709070D03*
X43180Y665070D03*
D20*
X127000Y1032510D03*
D21*
X152400Y1032510D03*
D23*
X29790Y1060800D03*
X29790Y1003800D03*
X99790Y1003800D03*
X99790Y1060800D03*
D10*
X34790Y1032300D03*
X54790Y1032300D03*
X74790Y1032300D03*
X94790Y1032300D03*
D23*
X29790Y954120D03*
X29790Y897120D03*
X99790Y897120D03*
X99790Y954120D03*
D10*
X34790Y925620D03*
X54790Y925620D03*
X74790Y925620D03*
X94790Y925620D03*
D20*
X127000Y925830D03*
D21*
X152400Y925830D03*
D23*
X29790Y847440D03*
X29790Y790440D03*
X99790Y790440D03*
X99790Y847440D03*
D10*
X34790Y818940D03*
X54790Y818940D03*
X74790Y818940D03*
X94790Y818940D03*
D20*
X127000Y819150D03*
D21*
X152400Y819150D03*
D11*
X361950Y884682D03*
D24*
X361950Y910082D03*
X361950Y935482D03*
X361950Y960882D03*
D25*
X204978Y440436D03*
D18*
X188978Y446936D03*
X194978Y446936D03*
X188978Y433936D03*
X194978Y433936D03*
X198478Y424436D03*
X198478Y430436D03*
X211478Y424436D03*
X211478Y430436D03*
X220978Y433936D03*
X214978Y433936D03*
X220978Y446936D03*
X214978Y446936D03*
X211478Y456436D03*
X211478Y450436D03*
X198478Y456436D03*
X198478Y450436D03*
D11*
X1014730Y19050D03*
D24*
X1040130Y19050D03*
X1065530Y19050D03*
X1090930Y19050D03*
D12*
X254000Y1130300D03*
D13*
X254000Y1155700D03*
X279400Y1130300D03*
X279400Y1155700D03*
X304800Y1130300D03*
X304800Y1155700D03*
X330200Y1130300D03*
X330200Y1155700D03*
X355600Y1130300D03*
X355600Y1155700D03*
X381000Y1130300D03*
X381000Y1155700D03*
X406400Y1130300D03*
X406400Y1155700D03*
X431800Y1130300D03*
X431800Y1155700D03*
X457200Y1130300D03*
X457200Y1155700D03*
X482600Y1130300D03*
X482600Y1155700D03*
X508000Y1130300D03*
X508000Y1155700D03*
X533400Y1130300D03*
X533400Y1155700D03*
X558800Y1130300D03*
X558800Y1155700D03*
X584200Y1130300D03*
X584200Y1155700D03*
X609600Y1155700D03*
X609600Y1130300D03*
X635000Y1130300D03*
X635000Y1155700D03*
X660400Y1155700D03*
X660400Y1130300D03*
X685800Y1130300D03*
X685800Y1155700D03*
X711200Y1155700D03*
X711200Y1130300D03*
X736600Y1130300D03*
X736600Y1155700D03*
D12*
X939800Y63500D03*
D13*
X939800Y38100D03*
X914400Y63500D03*
X914400Y38100D03*
X889000Y63500D03*
X889000Y38100D03*
X863600Y63500D03*
X863600Y38100D03*
X838200Y63500D03*
X838200Y38100D03*
D12*
X736600Y63500D03*
D13*
X736600Y38100D03*
X711200Y63500D03*
X711200Y38100D03*
X685800Y63500D03*
X685800Y38100D03*
X660400Y63500D03*
X660400Y38100D03*
X635000Y63500D03*
X635000Y38100D03*
X609600Y63500D03*
X609600Y38100D03*
X584200Y63500D03*
X584200Y38100D03*
X558800Y63500D03*
X558800Y38100D03*
X533400Y63500D03*
X533400Y38100D03*
X508000Y63500D03*
X508000Y38100D03*
X482600Y63500D03*
X482600Y38100D03*
X457200Y63500D03*
X457200Y38100D03*
X431800Y63500D03*
X431800Y38100D03*
X406400Y63500D03*
X406400Y38100D03*
X381000Y38100D03*
X381000Y63500D03*
X355600Y63500D03*
X355600Y38100D03*
X330200Y38100D03*
X330200Y63500D03*
X304800Y63500D03*
X304800Y38100D03*
X279400Y38100D03*
X279400Y63500D03*
X254000Y63500D03*
X254000Y38100D03*
D15*
X1076198Y903842D03*
X1076198Y926702D03*
X1076198Y949562D03*
X1076198Y972422D03*
X1076198Y995282D03*
X1050798Y892412D03*
X1050798Y915272D03*
X1050798Y938132D03*
X1050798Y960992D03*
D26*
X1050798Y983852D03*
D15*
X1101598Y892412D03*
X1101598Y915272D03*
X1101598Y938132D03*
X1101598Y960992D03*
X1101598Y983852D03*
D27*
X1076198Y815594D03*
X1076198Y1065530D03*
D28*
X1136340Y541500D03*
X1066340Y541500D03*
X1136340Y434820D03*
X1066340Y434820D03*
D29*
X1168840Y1166340D03*
D30*
X1198840Y1166340D03*
X1138840Y1166340D03*
X1168840Y1136340D03*
X1168840Y1196340D03*
X1189840Y1187340D03*
X1147840Y1187340D03*
X1147840Y1145340D03*
X1189840Y1145340D03*
D29*
X1163740Y28740D03*
D30*
X1193740Y28740D03*
X1133740Y28740D03*
X1163740Y-1260D03*
X1163740Y58740D03*
X1184740Y49740D03*
X1142740Y49740D03*
X1142740Y7740D03*
X1184740Y7740D03*
D29*
X28740Y1166340D03*
D30*
X58740Y1166340D03*
X-1260Y1166340D03*
X28740Y1136340D03*
X28740Y1196340D03*
X49740Y1187340D03*
X7740Y1187340D03*
X7740Y1145340D03*
X49740Y1145340D03*
D29*
X59840Y326540D03*
D30*
X89840Y326540D03*
X29840Y326540D03*
X59840Y296540D03*
X59840Y356540D03*
X80840Y347540D03*
X38840Y347540D03*
X38840Y305540D03*
X80840Y305540D03*
D12*
X295148Y620776D03*
D13*
X330708Y620776D03*
D12*
X305816Y242316D03*
D13*
X305816Y277876D03*
D12*
X999490Y369570D03*
D13*
X999490Y344170D03*
X999490Y318770D03*
X999490Y293370D03*
X999490Y267970D03*
X999490Y242570D03*
D11*
X1014730Y1174750D03*
D24*
X1040130Y1174750D03*
X1065530Y1174750D03*
X1090930Y1174750D03*
D31*
X396240Y311150D03*
X113030Y285750D03*
X189230Y285750D03*
X269240Y311150D03*
X163830Y285750D03*
X177800Y533400D03*
X87630Y285750D03*
X320040Y311150D03*
X406400Y533400D03*
X294640Y311150D03*
X370840Y311150D03*
X138430Y285750D03*
D24*
X999490Y217170D03*
D11*
X1014730Y82550D03*
D24*
X1014730Y57150D03*
D31*
X345440Y311150D03*
D22*
X1140050Y632592D03*
X1140050Y712592D03*
D30*
X111760Y266700D03*
X196850Y168656D03*
X152400Y241300D03*
X111809Y307340D03*
M02*
