M48
;GenerationSoftware,Autodesk,EAGLE,9.6.2*%
;CreationDate,2020-12-26T01:33:32Z*%
FMAT,2
ICI,OFF
METRIC,TZ,000.000
T2C0.400
T1C0.700
%
G90
M71
T1
X17666Y25095
X25603Y25095
X24016Y25095
X22428Y25095
X20841Y25095
X19253Y25095
T2
X7315Y19609
X16256Y23165
X15240Y8534
X13614Y2235
X19812Y4572
X15138Y12294
X23774Y20218
X23774Y22657
X9652Y20930
X5182Y9855
X4877Y17069
X30480Y14224
X39014Y14224
X19406Y8839
X29058Y25400
X33020Y25298
X37186Y25197
X41148Y25197
X48768Y20828
X45212Y16154
X48768Y5893
X48870Y1422
X44806Y1118
X41046Y1118
X36576Y1118
X31801Y1118
X33528Y5283
X38405Y9957
X30582Y10160
X27330Y5283
X23978Y5588
X17780Y1118
X12903Y8331
X16561Y11481
X28042Y19812
X28143Y23266
X16053Y25705
X8636Y20320
X11786Y2743
X14732Y1016
X16053Y7112
X26924Y1016
X21742Y1118
X11582Y23876
X27026Y8128
X30886Y20828
X37694Y20930
X34442Y18186
X39218Y16764
X38608Y3962
X10668Y12090
X18199Y7023
X13614Y24282
X45212Y10058
X31039Y8534
X15443Y17983
X15443Y16764
X45110Y2946
X45110Y5690
X45110Y4267
X45212Y7925
X45517Y22555
X45517Y19101
X15443Y15545
X6502Y8433
X16967Y12700
X18694Y14427
X13106Y13411
X10871Y15646
X11989Y14529
X25806Y21641
X14732Y18796
X28042Y16358
X18694Y16358
X5994Y15545
X14630Y13614
X7010Y15138
X11481Y8331
X6706Y11074
X46700Y5360
X46700Y21360
X47346Y16662
X45314Y12395
X44907Y24790
X23876Y9144
X28042Y10363
X10160Y5893
M30