G04 EAGLE Gerber RS-274X export*
G75*
%MOMM*%
%FSLAX34Y34*%
%LPD*%
%INTop Silkscreen*%
%IPPOS*%
%AMOC8*
5,1,8,0,0,1.08239X$1,22.5*%
G01*
%ADD10C,0.203200*%
%ADD11C,0.076200*%
%ADD12C,0.127000*%
%ADD13C,0.364000*%
%ADD14C,0.152400*%
%ADD15R,0.457200X0.584200*%
%ADD16C,0.254000*%
%ADD17R,1.200000X0.200000*%
%ADD18R,0.200000X1.200000*%
%ADD19C,0.300000*%
%ADD20R,1.300000X0.365000*%
%ADD21R,0.090000X0.700000*%
%ADD22C,0.050000*%
%ADD23C,0.025400*%
%ADD24R,0.381000X0.609600*%
%ADD25C,0.100000*%


D10*
X268896Y74D02*
X268896Y267104D01*
X461496Y267104D01*
X461496Y104D01*
X268896Y74D01*
X289896Y24884D02*
X289896Y35560D01*
X289896Y45560D02*
X289896Y56237D01*
X289896Y66237D02*
X289896Y76913D01*
X289896Y86913D02*
X289896Y97589D01*
X289896Y107589D02*
X289896Y118266D01*
X289896Y128266D02*
X289896Y138942D01*
X289896Y148942D02*
X289896Y159619D01*
X289896Y169619D02*
X289896Y180295D01*
X289896Y190295D02*
X289896Y200971D01*
X289896Y210971D02*
X289896Y221648D01*
X289896Y231648D02*
X289896Y242324D01*
X303624Y242324D01*
X313624Y242324D02*
X327352Y242324D01*
X337352Y242324D02*
X351080Y242324D01*
X361080Y242324D02*
X374808Y242324D01*
X384808Y242324D02*
X398536Y242324D01*
X398536Y231648D01*
X398536Y221648D02*
X398536Y210971D01*
X398536Y200971D02*
X398536Y190295D01*
X398536Y180295D02*
X398536Y169619D01*
X398536Y159619D02*
X398536Y148942D01*
X398536Y138942D02*
X398536Y128266D01*
X398536Y118266D02*
X398536Y107589D01*
X398536Y97589D02*
X398536Y86913D01*
X398536Y76913D02*
X398536Y66237D01*
X398536Y56237D02*
X398536Y45560D01*
X398536Y35560D02*
X398536Y24884D01*
X384808Y24884D01*
X374808Y24884D02*
X361080Y24884D01*
X351080Y24884D02*
X337352Y24884D01*
X327352Y24884D02*
X313624Y24884D01*
X303624Y24884D02*
X289896Y24884D01*
D11*
X474743Y81985D02*
X482115Y81985D01*
X474743Y81985D02*
X474743Y85671D01*
X475971Y86900D01*
X478429Y86900D01*
X479658Y85671D01*
X479658Y81985D01*
X474743Y93155D02*
X475971Y94384D01*
X474743Y93155D02*
X474743Y90698D01*
X475971Y89469D01*
X480886Y89469D01*
X482115Y90698D01*
X482115Y93155D01*
X480886Y94384D01*
X482115Y96953D02*
X474743Y96953D01*
X474743Y100639D01*
X475971Y101868D01*
X477200Y101868D01*
X478429Y100639D01*
X479658Y101868D01*
X480886Y101868D01*
X482115Y100639D01*
X482115Y96953D01*
X478429Y96953D02*
X478429Y100639D01*
X474743Y111922D02*
X474743Y116836D01*
X474743Y111922D02*
X482115Y111922D01*
X482115Y116836D01*
X478429Y114379D02*
X478429Y111922D01*
X474743Y119406D02*
X482115Y119406D01*
X482115Y123092D01*
X480886Y124321D01*
X475971Y124321D01*
X474743Y123092D01*
X474743Y119406D01*
X474743Y130576D02*
X475971Y131805D01*
X474743Y130576D02*
X474743Y128119D01*
X475971Y126890D01*
X480886Y126890D01*
X482115Y128119D01*
X482115Y130576D01*
X480886Y131805D01*
X478429Y131805D01*
X478429Y129347D01*
X474743Y134374D02*
X474743Y139289D01*
X474743Y134374D02*
X482115Y134374D01*
X482115Y139289D01*
X478429Y136832D02*
X478429Y134374D01*
X479658Y149342D02*
X482115Y151800D01*
X479658Y149342D02*
X477200Y149342D01*
X474743Y151800D01*
X477200Y154332D02*
X474743Y156789D01*
X482115Y156789D01*
X482115Y154332D02*
X482115Y159247D01*
X482115Y161816D02*
X480886Y161816D01*
X480886Y163045D01*
X482115Y163045D01*
X482115Y161816D01*
X475971Y168015D02*
X474743Y170473D01*
X475971Y168015D02*
X478429Y165558D01*
X480886Y165558D01*
X482115Y166787D01*
X482115Y169244D01*
X480886Y170473D01*
X479658Y170473D01*
X478429Y169244D01*
X478429Y165558D01*
X477200Y173042D02*
X482115Y173042D01*
X477200Y173042D02*
X477200Y174271D01*
X478429Y175500D01*
X482115Y175500D01*
X478429Y175500D02*
X477200Y176728D01*
X478429Y177957D01*
X482115Y177957D01*
X482115Y180526D02*
X477200Y180526D01*
X477200Y181755D01*
X478429Y182984D01*
X482115Y182984D01*
X478429Y182984D02*
X477200Y184213D01*
X478429Y185441D01*
X482115Y185441D01*
X482115Y188011D02*
X479658Y190468D01*
X477200Y190468D01*
X474743Y188011D01*
D10*
X487496Y255796D02*
X487496Y267104D01*
X487496Y245796D02*
X487496Y234489D01*
X487496Y224489D02*
X487496Y213181D01*
X487496Y203181D02*
X487496Y191873D01*
X487496Y181873D02*
X487496Y170566D01*
X487496Y160566D02*
X487496Y149258D01*
X487496Y139258D02*
X487496Y127950D01*
X487496Y117950D02*
X487496Y106642D01*
X487496Y96642D02*
X487496Y85335D01*
X487496Y75335D02*
X487496Y64027D01*
X487496Y54027D02*
X487496Y42719D01*
X487496Y32719D02*
X487496Y21412D01*
X487496Y11412D02*
X487496Y104D01*
X226060Y206248D02*
X226064Y206560D01*
X226075Y206871D01*
X226094Y207182D01*
X226121Y207493D01*
X226156Y207803D01*
X226197Y208111D01*
X226247Y208419D01*
X226304Y208726D01*
X226369Y209031D01*
X226441Y209334D01*
X226520Y209635D01*
X226607Y209935D01*
X226701Y210232D01*
X226802Y210527D01*
X226911Y210819D01*
X227027Y211108D01*
X227150Y211395D01*
X227279Y211678D01*
X227416Y211958D01*
X227560Y212235D01*
X227710Y212508D01*
X227867Y212777D01*
X228030Y213042D01*
X228200Y213304D01*
X228377Y213561D01*
X228559Y213813D01*
X228748Y214061D01*
X228943Y214305D01*
X229143Y214543D01*
X229350Y214777D01*
X229562Y215005D01*
X229780Y215228D01*
X230003Y215446D01*
X230231Y215658D01*
X230465Y215865D01*
X230703Y216065D01*
X230947Y216260D01*
X231195Y216449D01*
X231447Y216631D01*
X231704Y216808D01*
X231966Y216978D01*
X232231Y217141D01*
X232500Y217298D01*
X232773Y217448D01*
X233050Y217592D01*
X233330Y217729D01*
X233613Y217858D01*
X233900Y217981D01*
X234189Y218097D01*
X234481Y218206D01*
X234776Y218307D01*
X235073Y218401D01*
X235373Y218488D01*
X235674Y218567D01*
X235977Y218639D01*
X236282Y218704D01*
X236589Y218761D01*
X236897Y218811D01*
X237205Y218852D01*
X237515Y218887D01*
X237826Y218914D01*
X238137Y218933D01*
X238448Y218944D01*
X238760Y218948D01*
X239072Y218944D01*
X239383Y218933D01*
X239694Y218914D01*
X240005Y218887D01*
X240315Y218852D01*
X240623Y218811D01*
X240931Y218761D01*
X241238Y218704D01*
X241543Y218639D01*
X241846Y218567D01*
X242147Y218488D01*
X242447Y218401D01*
X242744Y218307D01*
X243039Y218206D01*
X243331Y218097D01*
X243620Y217981D01*
X243907Y217858D01*
X244190Y217729D01*
X244470Y217592D01*
X244747Y217448D01*
X245020Y217298D01*
X245289Y217141D01*
X245554Y216978D01*
X245816Y216808D01*
X246073Y216631D01*
X246325Y216449D01*
X246573Y216260D01*
X246817Y216065D01*
X247055Y215865D01*
X247289Y215658D01*
X247517Y215446D01*
X247740Y215228D01*
X247958Y215005D01*
X248170Y214777D01*
X248377Y214543D01*
X248577Y214305D01*
X248772Y214061D01*
X248961Y213813D01*
X249143Y213561D01*
X249320Y213304D01*
X249490Y213042D01*
X249653Y212777D01*
X249810Y212508D01*
X249960Y212235D01*
X250104Y211958D01*
X250241Y211678D01*
X250370Y211395D01*
X250493Y211108D01*
X250609Y210819D01*
X250718Y210527D01*
X250819Y210232D01*
X250913Y209935D01*
X251000Y209635D01*
X251079Y209334D01*
X251151Y209031D01*
X251216Y208726D01*
X251273Y208419D01*
X251323Y208111D01*
X251364Y207803D01*
X251399Y207493D01*
X251426Y207182D01*
X251445Y206871D01*
X251456Y206560D01*
X251460Y206248D01*
X251456Y205936D01*
X251445Y205625D01*
X251426Y205314D01*
X251399Y205003D01*
X251364Y204693D01*
X251323Y204385D01*
X251273Y204077D01*
X251216Y203770D01*
X251151Y203465D01*
X251079Y203162D01*
X251000Y202861D01*
X250913Y202561D01*
X250819Y202264D01*
X250718Y201969D01*
X250609Y201677D01*
X250493Y201388D01*
X250370Y201101D01*
X250241Y200818D01*
X250104Y200538D01*
X249960Y200261D01*
X249810Y199988D01*
X249653Y199719D01*
X249490Y199454D01*
X249320Y199192D01*
X249143Y198935D01*
X248961Y198683D01*
X248772Y198435D01*
X248577Y198191D01*
X248377Y197953D01*
X248170Y197719D01*
X247958Y197491D01*
X247740Y197268D01*
X247517Y197050D01*
X247289Y196838D01*
X247055Y196631D01*
X246817Y196431D01*
X246573Y196236D01*
X246325Y196047D01*
X246073Y195865D01*
X245816Y195688D01*
X245554Y195518D01*
X245289Y195355D01*
X245020Y195198D01*
X244747Y195048D01*
X244470Y194904D01*
X244190Y194767D01*
X243907Y194638D01*
X243620Y194515D01*
X243331Y194399D01*
X243039Y194290D01*
X242744Y194189D01*
X242447Y194095D01*
X242147Y194008D01*
X241846Y193929D01*
X241543Y193857D01*
X241238Y193792D01*
X240931Y193735D01*
X240623Y193685D01*
X240315Y193644D01*
X240005Y193609D01*
X239694Y193582D01*
X239383Y193563D01*
X239072Y193552D01*
X238760Y193548D01*
X238448Y193552D01*
X238137Y193563D01*
X237826Y193582D01*
X237515Y193609D01*
X237205Y193644D01*
X236897Y193685D01*
X236589Y193735D01*
X236282Y193792D01*
X235977Y193857D01*
X235674Y193929D01*
X235373Y194008D01*
X235073Y194095D01*
X234776Y194189D01*
X234481Y194290D01*
X234189Y194399D01*
X233900Y194515D01*
X233613Y194638D01*
X233330Y194767D01*
X233050Y194904D01*
X232773Y195048D01*
X232500Y195198D01*
X232231Y195355D01*
X231966Y195518D01*
X231704Y195688D01*
X231447Y195865D01*
X231195Y196047D01*
X230947Y196236D01*
X230703Y196431D01*
X230465Y196631D01*
X230231Y196838D01*
X230003Y197050D01*
X229780Y197268D01*
X229562Y197491D01*
X229350Y197719D01*
X229143Y197953D01*
X228943Y198191D01*
X228748Y198435D01*
X228559Y198683D01*
X228377Y198935D01*
X228200Y199192D01*
X228030Y199454D01*
X227867Y199719D01*
X227710Y199988D01*
X227560Y200261D01*
X227416Y200538D01*
X227279Y200818D01*
X227150Y201101D01*
X227027Y201388D01*
X226911Y201677D01*
X226802Y201969D01*
X226701Y202264D01*
X226607Y202561D01*
X226520Y202861D01*
X226441Y203162D01*
X226369Y203465D01*
X226304Y203770D01*
X226247Y204077D01*
X226197Y204385D01*
X226156Y204693D01*
X226121Y205003D01*
X226094Y205314D01*
X226075Y205625D01*
X226064Y205936D01*
X226060Y206248D01*
X213360Y221648D02*
X223360Y231648D01*
X226360Y231648D02*
X251460Y231648D01*
X254160Y231648D02*
X264160Y221648D01*
X264160Y190848D01*
X254160Y180848D01*
X251160Y180848D02*
X226360Y180848D01*
X223360Y180848D02*
X213360Y190848D01*
X213360Y221648D01*
D12*
X243210Y187198D02*
X251460Y187198D01*
X243210Y187198D02*
X238660Y184648D01*
X236460Y187198D02*
X227610Y187198D01*
D10*
X226060Y60960D02*
X226064Y61272D01*
X226075Y61583D01*
X226094Y61894D01*
X226121Y62205D01*
X226156Y62515D01*
X226197Y62823D01*
X226247Y63131D01*
X226304Y63438D01*
X226369Y63743D01*
X226441Y64046D01*
X226520Y64347D01*
X226607Y64647D01*
X226701Y64944D01*
X226802Y65239D01*
X226911Y65531D01*
X227027Y65820D01*
X227150Y66107D01*
X227279Y66390D01*
X227416Y66670D01*
X227560Y66947D01*
X227710Y67220D01*
X227867Y67489D01*
X228030Y67754D01*
X228200Y68016D01*
X228377Y68273D01*
X228559Y68525D01*
X228748Y68773D01*
X228943Y69017D01*
X229143Y69255D01*
X229350Y69489D01*
X229562Y69717D01*
X229780Y69940D01*
X230003Y70158D01*
X230231Y70370D01*
X230465Y70577D01*
X230703Y70777D01*
X230947Y70972D01*
X231195Y71161D01*
X231447Y71343D01*
X231704Y71520D01*
X231966Y71690D01*
X232231Y71853D01*
X232500Y72010D01*
X232773Y72160D01*
X233050Y72304D01*
X233330Y72441D01*
X233613Y72570D01*
X233900Y72693D01*
X234189Y72809D01*
X234481Y72918D01*
X234776Y73019D01*
X235073Y73113D01*
X235373Y73200D01*
X235674Y73279D01*
X235977Y73351D01*
X236282Y73416D01*
X236589Y73473D01*
X236897Y73523D01*
X237205Y73564D01*
X237515Y73599D01*
X237826Y73626D01*
X238137Y73645D01*
X238448Y73656D01*
X238760Y73660D01*
X239072Y73656D01*
X239383Y73645D01*
X239694Y73626D01*
X240005Y73599D01*
X240315Y73564D01*
X240623Y73523D01*
X240931Y73473D01*
X241238Y73416D01*
X241543Y73351D01*
X241846Y73279D01*
X242147Y73200D01*
X242447Y73113D01*
X242744Y73019D01*
X243039Y72918D01*
X243331Y72809D01*
X243620Y72693D01*
X243907Y72570D01*
X244190Y72441D01*
X244470Y72304D01*
X244747Y72160D01*
X245020Y72010D01*
X245289Y71853D01*
X245554Y71690D01*
X245816Y71520D01*
X246073Y71343D01*
X246325Y71161D01*
X246573Y70972D01*
X246817Y70777D01*
X247055Y70577D01*
X247289Y70370D01*
X247517Y70158D01*
X247740Y69940D01*
X247958Y69717D01*
X248170Y69489D01*
X248377Y69255D01*
X248577Y69017D01*
X248772Y68773D01*
X248961Y68525D01*
X249143Y68273D01*
X249320Y68016D01*
X249490Y67754D01*
X249653Y67489D01*
X249810Y67220D01*
X249960Y66947D01*
X250104Y66670D01*
X250241Y66390D01*
X250370Y66107D01*
X250493Y65820D01*
X250609Y65531D01*
X250718Y65239D01*
X250819Y64944D01*
X250913Y64647D01*
X251000Y64347D01*
X251079Y64046D01*
X251151Y63743D01*
X251216Y63438D01*
X251273Y63131D01*
X251323Y62823D01*
X251364Y62515D01*
X251399Y62205D01*
X251426Y61894D01*
X251445Y61583D01*
X251456Y61272D01*
X251460Y60960D01*
X251456Y60648D01*
X251445Y60337D01*
X251426Y60026D01*
X251399Y59715D01*
X251364Y59405D01*
X251323Y59097D01*
X251273Y58789D01*
X251216Y58482D01*
X251151Y58177D01*
X251079Y57874D01*
X251000Y57573D01*
X250913Y57273D01*
X250819Y56976D01*
X250718Y56681D01*
X250609Y56389D01*
X250493Y56100D01*
X250370Y55813D01*
X250241Y55530D01*
X250104Y55250D01*
X249960Y54973D01*
X249810Y54700D01*
X249653Y54431D01*
X249490Y54166D01*
X249320Y53904D01*
X249143Y53647D01*
X248961Y53395D01*
X248772Y53147D01*
X248577Y52903D01*
X248377Y52665D01*
X248170Y52431D01*
X247958Y52203D01*
X247740Y51980D01*
X247517Y51762D01*
X247289Y51550D01*
X247055Y51343D01*
X246817Y51143D01*
X246573Y50948D01*
X246325Y50759D01*
X246073Y50577D01*
X245816Y50400D01*
X245554Y50230D01*
X245289Y50067D01*
X245020Y49910D01*
X244747Y49760D01*
X244470Y49616D01*
X244190Y49479D01*
X243907Y49350D01*
X243620Y49227D01*
X243331Y49111D01*
X243039Y49002D01*
X242744Y48901D01*
X242447Y48807D01*
X242147Y48720D01*
X241846Y48641D01*
X241543Y48569D01*
X241238Y48504D01*
X240931Y48447D01*
X240623Y48397D01*
X240315Y48356D01*
X240005Y48321D01*
X239694Y48294D01*
X239383Y48275D01*
X239072Y48264D01*
X238760Y48260D01*
X238448Y48264D01*
X238137Y48275D01*
X237826Y48294D01*
X237515Y48321D01*
X237205Y48356D01*
X236897Y48397D01*
X236589Y48447D01*
X236282Y48504D01*
X235977Y48569D01*
X235674Y48641D01*
X235373Y48720D01*
X235073Y48807D01*
X234776Y48901D01*
X234481Y49002D01*
X234189Y49111D01*
X233900Y49227D01*
X233613Y49350D01*
X233330Y49479D01*
X233050Y49616D01*
X232773Y49760D01*
X232500Y49910D01*
X232231Y50067D01*
X231966Y50230D01*
X231704Y50400D01*
X231447Y50577D01*
X231195Y50759D01*
X230947Y50948D01*
X230703Y51143D01*
X230465Y51343D01*
X230231Y51550D01*
X230003Y51762D01*
X229780Y51980D01*
X229562Y52203D01*
X229350Y52431D01*
X229143Y52665D01*
X228943Y52903D01*
X228748Y53147D01*
X228559Y53395D01*
X228377Y53647D01*
X228200Y53904D01*
X228030Y54166D01*
X227867Y54431D01*
X227710Y54700D01*
X227560Y54973D01*
X227416Y55250D01*
X227279Y55530D01*
X227150Y55813D01*
X227027Y56100D01*
X226911Y56389D01*
X226802Y56681D01*
X226701Y56976D01*
X226607Y57273D01*
X226520Y57573D01*
X226441Y57874D01*
X226369Y58177D01*
X226304Y58482D01*
X226247Y58789D01*
X226197Y59097D01*
X226156Y59405D01*
X226121Y59715D01*
X226094Y60026D01*
X226075Y60337D01*
X226064Y60648D01*
X226060Y60960D01*
X213360Y76360D02*
X223360Y86360D01*
X226360Y86360D02*
X251460Y86360D01*
X254160Y86360D02*
X264160Y76360D01*
X264160Y45560D01*
X254160Y35560D01*
X251160Y35560D02*
X226360Y35560D01*
X223360Y35560D02*
X213360Y45560D01*
X213360Y76360D01*
D12*
X243210Y41910D02*
X251460Y41910D01*
X243210Y41910D02*
X238660Y39360D01*
X236460Y41910D02*
X227610Y41910D01*
D10*
X255260Y144104D02*
X255260Y158354D01*
X255260Y144104D02*
X255260Y123104D01*
X255260Y108854D01*
X251010Y104604D02*
X241760Y104604D01*
X235760Y104604D01*
X226510Y104604D01*
X222260Y108854D02*
X222260Y123104D01*
X222260Y144104D01*
X222260Y158354D01*
X226510Y162604D02*
X235760Y162604D01*
X241760Y162604D01*
X251010Y162604D01*
X251013Y162476D01*
X251019Y162348D01*
X251029Y162220D01*
X251043Y162092D01*
X251061Y161965D01*
X251082Y161839D01*
X251108Y161713D01*
X251137Y161589D01*
X251170Y161465D01*
X251207Y161342D01*
X251247Y161220D01*
X251291Y161099D01*
X251338Y160980D01*
X251389Y160863D01*
X251444Y160747D01*
X251502Y160632D01*
X251564Y160520D01*
X251628Y160409D01*
X251697Y160301D01*
X251768Y160194D01*
X251842Y160090D01*
X251920Y159988D01*
X252001Y159888D01*
X252084Y159791D01*
X252171Y159696D01*
X252260Y159604D01*
X252352Y159515D01*
X252447Y159428D01*
X252544Y159345D01*
X252644Y159264D01*
X252746Y159186D01*
X252850Y159112D01*
X252957Y159041D01*
X253065Y158972D01*
X253176Y158908D01*
X253288Y158846D01*
X253403Y158788D01*
X253519Y158733D01*
X253636Y158682D01*
X253755Y158635D01*
X253876Y158591D01*
X253998Y158551D01*
X254121Y158514D01*
X254245Y158481D01*
X254369Y158452D01*
X254495Y158426D01*
X254621Y158405D01*
X254748Y158387D01*
X254876Y158373D01*
X255004Y158363D01*
X255132Y158357D01*
X255260Y158354D01*
X255260Y108854D02*
X255132Y108851D01*
X255004Y108845D01*
X254876Y108835D01*
X254748Y108821D01*
X254621Y108803D01*
X254495Y108782D01*
X254369Y108756D01*
X254245Y108727D01*
X254121Y108694D01*
X253998Y108657D01*
X253876Y108617D01*
X253755Y108573D01*
X253636Y108526D01*
X253519Y108475D01*
X253403Y108420D01*
X253288Y108362D01*
X253176Y108300D01*
X253065Y108236D01*
X252957Y108167D01*
X252850Y108096D01*
X252746Y108022D01*
X252644Y107944D01*
X252544Y107863D01*
X252447Y107780D01*
X252352Y107693D01*
X252260Y107604D01*
X252171Y107512D01*
X252084Y107417D01*
X252001Y107320D01*
X251920Y107220D01*
X251842Y107118D01*
X251768Y107014D01*
X251697Y106907D01*
X251628Y106799D01*
X251564Y106688D01*
X251502Y106576D01*
X251444Y106461D01*
X251389Y106345D01*
X251338Y106228D01*
X251291Y106109D01*
X251247Y105988D01*
X251207Y105866D01*
X251170Y105743D01*
X251137Y105619D01*
X251108Y105495D01*
X251082Y105369D01*
X251061Y105243D01*
X251043Y105116D01*
X251029Y104988D01*
X251019Y104860D01*
X251013Y104732D01*
X251010Y104604D01*
X226510Y104604D02*
X226507Y104732D01*
X226501Y104860D01*
X226491Y104988D01*
X226477Y105116D01*
X226459Y105243D01*
X226438Y105369D01*
X226412Y105495D01*
X226383Y105619D01*
X226350Y105743D01*
X226313Y105866D01*
X226273Y105988D01*
X226229Y106109D01*
X226182Y106228D01*
X226131Y106345D01*
X226076Y106461D01*
X226018Y106576D01*
X225956Y106688D01*
X225892Y106799D01*
X225823Y106907D01*
X225752Y107014D01*
X225678Y107118D01*
X225600Y107220D01*
X225519Y107320D01*
X225436Y107417D01*
X225349Y107512D01*
X225260Y107604D01*
X225168Y107693D01*
X225073Y107780D01*
X224976Y107863D01*
X224876Y107944D01*
X224774Y108022D01*
X224670Y108096D01*
X224563Y108167D01*
X224455Y108236D01*
X224344Y108300D01*
X224232Y108362D01*
X224117Y108420D01*
X224001Y108475D01*
X223884Y108526D01*
X223765Y108573D01*
X223644Y108617D01*
X223522Y108657D01*
X223399Y108694D01*
X223275Y108727D01*
X223151Y108756D01*
X223025Y108782D01*
X222899Y108803D01*
X222772Y108821D01*
X222644Y108835D01*
X222516Y108845D01*
X222388Y108851D01*
X222260Y108854D01*
X222260Y158354D02*
X222388Y158357D01*
X222516Y158363D01*
X222644Y158373D01*
X222772Y158387D01*
X222899Y158405D01*
X223025Y158426D01*
X223151Y158452D01*
X223275Y158481D01*
X223399Y158514D01*
X223522Y158551D01*
X223644Y158591D01*
X223765Y158635D01*
X223884Y158682D01*
X224001Y158733D01*
X224117Y158788D01*
X224232Y158846D01*
X224344Y158908D01*
X224455Y158972D01*
X224563Y159041D01*
X224670Y159112D01*
X224774Y159186D01*
X224876Y159264D01*
X224976Y159345D01*
X225073Y159428D01*
X225168Y159515D01*
X225260Y159604D01*
X225349Y159696D01*
X225436Y159791D01*
X225519Y159888D01*
X225600Y159988D01*
X225678Y160090D01*
X225752Y160194D01*
X225823Y160301D01*
X225892Y160409D01*
X225956Y160520D01*
X226018Y160632D01*
X226076Y160747D01*
X226131Y160863D01*
X226182Y160980D01*
X226229Y161099D01*
X226273Y161220D01*
X226313Y161342D01*
X226350Y161465D01*
X226383Y161589D01*
X226412Y161713D01*
X226438Y161839D01*
X226459Y161965D01*
X226477Y162092D01*
X226491Y162220D01*
X226501Y162348D01*
X226507Y162476D01*
X226510Y162604D01*
D13*
X236760Y154104D03*
D14*
X174748Y51304D02*
X174748Y38104D01*
X146308Y38104D01*
X146308Y51304D01*
X174748Y51304D01*
X146308Y51304D02*
X146308Y43184D01*
X146308Y51304D02*
X151888Y51304D01*
X169168Y51304D02*
X174748Y51304D01*
X174748Y43184D01*
D15*
X160528Y54737D03*
X169926Y34671D03*
X151130Y34671D03*
D10*
X191320Y108464D02*
X195320Y112464D01*
X191320Y108464D02*
X103320Y108464D01*
X99320Y112464D01*
X99320Y200464D01*
X103320Y204464D01*
X191320Y204464D01*
X195320Y200464D01*
X195320Y112464D01*
D16*
X184493Y116464D02*
X184495Y116570D01*
X184501Y116675D01*
X184511Y116781D01*
X184525Y116885D01*
X184542Y116990D01*
X184564Y117093D01*
X184589Y117196D01*
X184619Y117297D01*
X184652Y117398D01*
X184688Y117497D01*
X184729Y117594D01*
X184773Y117691D01*
X184821Y117785D01*
X184872Y117878D01*
X184926Y117968D01*
X184984Y118057D01*
X185045Y118143D01*
X185110Y118227D01*
X185177Y118308D01*
X185248Y118387D01*
X185321Y118463D01*
X185397Y118536D01*
X185476Y118607D01*
X185557Y118674D01*
X185641Y118739D01*
X185727Y118800D01*
X185816Y118858D01*
X185907Y118912D01*
X185999Y118963D01*
X186093Y119011D01*
X186190Y119055D01*
X186287Y119096D01*
X186386Y119132D01*
X186487Y119165D01*
X186588Y119195D01*
X186691Y119220D01*
X186794Y119242D01*
X186899Y119259D01*
X187003Y119273D01*
X187109Y119283D01*
X187214Y119289D01*
X187320Y119291D01*
X187426Y119289D01*
X187531Y119283D01*
X187637Y119273D01*
X187741Y119259D01*
X187846Y119242D01*
X187949Y119220D01*
X188052Y119195D01*
X188153Y119165D01*
X188254Y119132D01*
X188353Y119096D01*
X188450Y119055D01*
X188547Y119011D01*
X188641Y118963D01*
X188734Y118912D01*
X188824Y118858D01*
X188913Y118800D01*
X188999Y118739D01*
X189083Y118674D01*
X189164Y118607D01*
X189243Y118536D01*
X189319Y118463D01*
X189392Y118387D01*
X189463Y118308D01*
X189530Y118227D01*
X189595Y118143D01*
X189656Y118057D01*
X189714Y117968D01*
X189768Y117877D01*
X189819Y117785D01*
X189867Y117691D01*
X189911Y117594D01*
X189952Y117497D01*
X189988Y117398D01*
X190021Y117297D01*
X190051Y117196D01*
X190076Y117093D01*
X190098Y116990D01*
X190115Y116885D01*
X190129Y116781D01*
X190139Y116675D01*
X190145Y116570D01*
X190147Y116464D01*
X190145Y116358D01*
X190139Y116253D01*
X190129Y116147D01*
X190115Y116043D01*
X190098Y115938D01*
X190076Y115835D01*
X190051Y115732D01*
X190021Y115631D01*
X189988Y115530D01*
X189952Y115431D01*
X189911Y115334D01*
X189867Y115237D01*
X189819Y115143D01*
X189768Y115050D01*
X189714Y114960D01*
X189656Y114871D01*
X189595Y114785D01*
X189530Y114701D01*
X189463Y114620D01*
X189392Y114541D01*
X189319Y114465D01*
X189243Y114392D01*
X189164Y114321D01*
X189083Y114254D01*
X188999Y114189D01*
X188913Y114128D01*
X188824Y114070D01*
X188733Y114016D01*
X188641Y113965D01*
X188547Y113917D01*
X188450Y113873D01*
X188353Y113832D01*
X188254Y113796D01*
X188153Y113763D01*
X188052Y113733D01*
X187949Y113708D01*
X187846Y113686D01*
X187741Y113669D01*
X187637Y113655D01*
X187531Y113645D01*
X187426Y113639D01*
X187320Y113637D01*
X187214Y113639D01*
X187109Y113645D01*
X187003Y113655D01*
X186899Y113669D01*
X186794Y113686D01*
X186691Y113708D01*
X186588Y113733D01*
X186487Y113763D01*
X186386Y113796D01*
X186287Y113832D01*
X186190Y113873D01*
X186093Y113917D01*
X185999Y113965D01*
X185906Y114016D01*
X185816Y114070D01*
X185727Y114128D01*
X185641Y114189D01*
X185557Y114254D01*
X185476Y114321D01*
X185397Y114392D01*
X185321Y114465D01*
X185248Y114541D01*
X185177Y114620D01*
X185110Y114701D01*
X185045Y114785D01*
X184984Y114871D01*
X184926Y114960D01*
X184872Y115051D01*
X184821Y115143D01*
X184773Y115237D01*
X184729Y115334D01*
X184688Y115431D01*
X184652Y115530D01*
X184619Y115631D01*
X184589Y115732D01*
X184564Y115835D01*
X184542Y115938D01*
X184525Y116043D01*
X184511Y116147D01*
X184501Y116253D01*
X184495Y116358D01*
X184493Y116464D01*
D17*
X201320Y118964D03*
X201320Y123964D03*
X201320Y128964D03*
X201320Y133964D03*
X201320Y138964D03*
X201320Y143964D03*
X201320Y148964D03*
X201320Y153964D03*
X201320Y158964D03*
X201320Y163964D03*
X201320Y168964D03*
X201320Y173964D03*
X201320Y178964D03*
X201320Y183964D03*
X201320Y188964D03*
X201320Y193964D03*
D18*
X184820Y210464D03*
X179820Y210464D03*
X174820Y210464D03*
X169820Y210464D03*
X164820Y210464D03*
X159820Y210464D03*
X154820Y210464D03*
X149820Y210464D03*
X144820Y210464D03*
X139820Y210464D03*
X134820Y210464D03*
X129820Y210464D03*
X124820Y210464D03*
X119820Y210464D03*
X114820Y210464D03*
X109820Y210464D03*
D17*
X93320Y193964D03*
X93320Y188964D03*
X93320Y183964D03*
X93320Y178964D03*
X93320Y173964D03*
X93320Y168964D03*
X93320Y163964D03*
X93320Y158964D03*
X93320Y153964D03*
X93320Y148964D03*
X93320Y143964D03*
X93320Y138964D03*
X93320Y133964D03*
X93320Y128964D03*
X93320Y123964D03*
X93320Y118964D03*
D18*
X109820Y102464D03*
X114820Y102464D03*
X119820Y102464D03*
X124820Y102464D03*
X129820Y102464D03*
X134820Y102464D03*
X139820Y102464D03*
X144820Y102464D03*
X149820Y102464D03*
X154820Y102464D03*
X159820Y102464D03*
X164820Y102464D03*
X169820Y102464D03*
X174820Y102464D03*
X179820Y102464D03*
X184820Y102464D03*
D12*
X46026Y96104D02*
X-3974Y96104D01*
X46026Y96104D02*
X46026Y171104D01*
X23376Y171104D01*
X-3974Y171104D01*
X-3974Y165604D01*
D19*
X-4824Y96704D02*
X-8474Y94104D01*
X-4824Y170754D02*
X-8474Y173104D01*
D12*
X-7324Y101604D02*
X-4024Y101604D01*
X-7324Y101604D02*
X-7411Y101606D01*
X-7498Y101612D01*
X-7585Y101621D01*
X-7671Y101634D01*
X-7757Y101651D01*
X-7842Y101672D01*
X-7925Y101697D01*
X-8008Y101725D01*
X-8089Y101756D01*
X-8169Y101791D01*
X-8247Y101830D01*
X-8324Y101872D01*
X-8399Y101917D01*
X-8471Y101966D01*
X-8542Y102017D01*
X-8610Y102072D01*
X-8675Y102129D01*
X-8738Y102190D01*
X-8799Y102253D01*
X-8856Y102318D01*
X-8911Y102386D01*
X-8962Y102457D01*
X-9011Y102529D01*
X-9056Y102604D01*
X-9098Y102681D01*
X-9137Y102759D01*
X-9172Y102839D01*
X-9203Y102920D01*
X-9231Y103003D01*
X-9256Y103086D01*
X-9277Y103171D01*
X-9294Y103257D01*
X-9307Y103343D01*
X-9316Y103430D01*
X-9322Y103517D01*
X-9324Y103604D01*
X-9324Y157854D01*
X-7324Y165604D02*
X-3974Y165604D01*
X-7324Y165604D02*
X-7411Y165602D01*
X-7498Y165596D01*
X-7585Y165587D01*
X-7671Y165574D01*
X-7757Y165557D01*
X-7842Y165536D01*
X-7925Y165511D01*
X-8008Y165483D01*
X-8089Y165452D01*
X-8169Y165417D01*
X-8247Y165378D01*
X-8324Y165336D01*
X-8399Y165291D01*
X-8471Y165242D01*
X-8542Y165191D01*
X-8610Y165136D01*
X-8675Y165079D01*
X-8738Y165018D01*
X-8799Y164955D01*
X-8856Y164890D01*
X-8911Y164822D01*
X-8962Y164751D01*
X-9011Y164679D01*
X-9056Y164604D01*
X-9098Y164527D01*
X-9137Y164449D01*
X-9172Y164369D01*
X-9203Y164288D01*
X-9231Y164205D01*
X-9256Y164122D01*
X-9277Y164037D01*
X-9294Y163951D01*
X-9307Y163865D01*
X-9316Y163778D01*
X-9322Y163691D01*
X-9324Y163604D01*
X-9324Y157854D01*
D20*
X17526Y173529D03*
X17526Y173529D03*
X17526Y93679D03*
D21*
X47076Y155854D03*
X47076Y111354D03*
D22*
X3026Y83604D02*
X3026Y183604D01*
D23*
X1999Y118881D02*
X-289Y118881D01*
X-289Y120025D01*
X92Y120406D01*
X855Y120406D01*
X1236Y120025D01*
X1236Y118881D01*
X-289Y122364D02*
X92Y122745D01*
X-289Y122364D02*
X-289Y121601D01*
X92Y121220D01*
X1618Y121220D01*
X1999Y121601D01*
X1999Y122364D01*
X1618Y122745D01*
X1999Y123559D02*
X-289Y123559D01*
X-289Y124703D01*
X92Y125084D01*
X474Y125084D01*
X855Y124703D01*
X1236Y125084D01*
X1618Y125084D01*
X1999Y124703D01*
X1999Y123559D01*
X855Y123559D02*
X855Y124703D01*
X1999Y128236D02*
X-289Y128236D01*
X-289Y129761D01*
X855Y128999D02*
X855Y128236D01*
X1999Y130575D02*
X-289Y130575D01*
X-289Y131719D01*
X92Y132100D01*
X855Y132100D01*
X1236Y131719D01*
X1236Y130575D01*
X1236Y131338D02*
X1999Y132100D01*
X-289Y133295D02*
X-289Y134058D01*
X-289Y133295D02*
X92Y132914D01*
X1618Y132914D01*
X1999Y133295D01*
X1999Y134058D01*
X1618Y134439D01*
X92Y134439D01*
X-289Y134058D01*
X-289Y135252D02*
X1999Y135252D01*
X1999Y136778D02*
X-289Y135252D01*
X-289Y136778D02*
X1999Y136778D01*
X1999Y138354D02*
X-289Y138354D01*
X-289Y137591D02*
X-289Y139117D01*
X-289Y142269D02*
X-289Y143794D01*
X-289Y142269D02*
X1999Y142269D01*
X1999Y143794D01*
X855Y143031D02*
X855Y142269D01*
X-289Y144608D02*
X1999Y144608D01*
X1999Y145752D01*
X1618Y146133D01*
X92Y146133D01*
X-289Y145752D01*
X-289Y144608D01*
X-289Y148090D02*
X92Y148472D01*
X-289Y148090D02*
X-289Y147328D01*
X92Y146946D01*
X1618Y146946D01*
X1999Y147328D01*
X1999Y148090D01*
X1618Y148472D01*
X855Y148472D01*
X855Y147709D01*
X-289Y149285D02*
X-289Y150810D01*
X-289Y149285D02*
X1999Y149285D01*
X1999Y150810D01*
X855Y150048D02*
X855Y149285D01*
D12*
X-4024Y101604D02*
X-4024Y96104D01*
D14*
X143764Y77216D02*
X143764Y46736D01*
X143764Y77216D02*
X128524Y77216D01*
X128524Y46736D01*
X143764Y46736D01*
D12*
X92456Y95758D02*
X92456Y99568D01*
X92456Y95758D02*
X92456Y69088D01*
X82296Y69088D01*
X82296Y95758D01*
X82296Y99568D01*
X92456Y99568D01*
D14*
X92456Y95758D02*
X82296Y95758D01*
D24*
X93091Y74168D03*
X93091Y94488D03*
X81661Y74168D03*
X81661Y94488D03*
X93091Y77978D03*
D12*
X125114Y62404D02*
X125114Y48404D01*
X125114Y62404D02*
X125114Y62904D01*
X125114Y63904D01*
X125114Y66404D01*
X111614Y66404D01*
X111614Y63904D01*
X111614Y62904D01*
X111614Y62404D01*
X111614Y48404D01*
X125114Y48404D01*
X125114Y63904D02*
X111614Y63904D01*
X111614Y62904D02*
X125114Y62904D01*
X125114Y62404D02*
X111614Y62404D01*
D25*
X72644Y156464D02*
X72644Y166624D01*
X67564Y166624D01*
X67564Y156464D01*
X72644Y156464D01*
X68580Y134112D02*
X68580Y123952D01*
X68580Y134112D02*
X63500Y134112D01*
X63500Y123952D01*
X68580Y123952D01*
X78740Y123952D02*
X78740Y134112D01*
X73660Y134112D01*
X73660Y123952D01*
X78740Y123952D01*
X62484Y162560D02*
X62484Y172720D01*
X57404Y172720D01*
X57404Y162560D01*
X62484Y162560D01*
X72644Y178816D02*
X72644Y188976D01*
X67564Y188976D01*
X67564Y178816D01*
X72644Y178816D01*
D14*
X62992Y177292D02*
X32512Y177292D01*
X62992Y177292D02*
X62992Y192532D01*
X32512Y192532D01*
X32512Y177292D01*
X32512Y74676D02*
X62992Y74676D01*
X62992Y89916D01*
X32512Y89916D01*
X32512Y74676D01*
D25*
X264668Y130048D02*
X264668Y140208D01*
X264668Y130048D02*
X269748Y130048D01*
X269748Y140208D01*
X264668Y140208D01*
X269748Y122936D02*
X269748Y112776D01*
X269748Y122936D02*
X264668Y122936D01*
X264668Y112776D01*
X269748Y112776D01*
X153416Y229108D02*
X143256Y229108D01*
X153416Y229108D02*
X153416Y234188D01*
X143256Y234188D01*
X143256Y229108D01*
X94488Y110236D02*
X84328Y110236D01*
X84328Y105156D01*
X94488Y105156D01*
X94488Y110236D01*
X73660Y106680D02*
X73660Y116840D01*
X73660Y106680D02*
X78740Y106680D01*
X78740Y116840D01*
X73660Y116840D01*
X174752Y81788D02*
X184912Y81788D01*
X174752Y81788D02*
X174752Y76708D01*
X184912Y76708D01*
X184912Y81788D01*
X153416Y240284D02*
X143256Y240284D01*
X153416Y240284D02*
X153416Y245364D01*
X143256Y245364D01*
X143256Y240284D01*
X202184Y97028D02*
X212344Y97028D01*
X212344Y102108D01*
X202184Y102108D01*
X202184Y97028D01*
X186944Y234188D02*
X176784Y234188D01*
X186944Y234188D02*
X186944Y239268D01*
X176784Y239268D01*
X176784Y234188D01*
X266700Y240792D02*
X266700Y250952D01*
X266700Y240792D02*
X271780Y240792D01*
X271780Y250952D01*
X266700Y250952D01*
X470916Y153416D02*
X470916Y143256D01*
X475996Y143256D01*
X475996Y153416D01*
X470916Y153416D01*
X475996Y123952D02*
X475996Y113792D01*
X475996Y123952D02*
X470916Y123952D01*
X470916Y113792D01*
X475996Y113792D01*
X470916Y86360D02*
X470916Y76200D01*
X475996Y76200D01*
X475996Y86360D01*
X470916Y86360D01*
X470916Y31496D02*
X470916Y21336D01*
X475996Y21336D01*
X475996Y31496D01*
X470916Y31496D01*
X165608Y15748D02*
X155448Y15748D01*
X165608Y15748D02*
X165608Y20828D01*
X155448Y20828D01*
X155448Y15748D01*
X138684Y30480D02*
X138684Y40640D01*
X133604Y40640D01*
X133604Y30480D01*
X138684Y30480D01*
D14*
X174752Y53340D02*
X205232Y53340D01*
X205232Y68580D01*
X174752Y68580D01*
X174752Y53340D01*
D25*
X470916Y180848D02*
X470916Y191008D01*
X470916Y180848D02*
X475996Y180848D01*
X475996Y191008D01*
X470916Y191008D01*
D14*
X481076Y224536D02*
X481076Y255016D01*
X465836Y255016D01*
X465836Y224536D01*
X481076Y224536D01*
M02*
