G04 EAGLE Gerber RS-274X export*
G75*
%MOMM*%
%FSLAX34Y34*%
%LPD*%
%INBottom Paste*%
%IPPOS*%
%AMOC8*
5,1,8,0,0,1.08239X$1,22.5*%
G01*
%ADD10R,2.200000X0.350000*%
%ADD11C,0.990000*%
%ADD12C,0.950000*%


D10*
X424496Y32104D03*
X424496Y39104D03*
X424496Y46104D03*
X424496Y53104D03*
X424496Y60104D03*
X424496Y67104D03*
X424496Y74104D03*
X424496Y81104D03*
X424496Y88104D03*
X424496Y95104D03*
X424496Y102104D03*
X424496Y109104D03*
X424496Y116104D03*
X424496Y123104D03*
X424496Y130104D03*
X424496Y137104D03*
X424496Y144104D03*
X424496Y151104D03*
X424496Y158104D03*
X424496Y165104D03*
X424496Y172104D03*
X424496Y179104D03*
X424496Y186104D03*
X424496Y193104D03*
X424496Y200104D03*
X424496Y207104D03*
X424496Y214104D03*
X424496Y221104D03*
X424496Y228104D03*
X424496Y235104D03*
D11*
X48826Y110804D02*
X46226Y110804D01*
X46226Y111904D01*
X48826Y111904D01*
X48826Y110804D01*
X48826Y155304D02*
X46226Y155304D01*
X46226Y156404D01*
X48826Y156404D01*
X48826Y155304D01*
D12*
X22276Y175104D02*
X22276Y175604D01*
X22276Y175104D02*
X12776Y175104D01*
X12776Y175604D01*
X22276Y175604D01*
X22276Y92104D02*
X22276Y91604D01*
X12776Y91604D01*
X12776Y92104D01*
X22276Y92104D01*
M02*
