G04 EAGLE Gerber RS-274X export*
G75*
%MOMM*%
%FSLAX34Y34*%
%LPD*%
%INTop Copper*%
%IPPOS*%
%AMOC8*
5,1,8,0,0,1.08239X$1,22.5*%
G01*
%ADD10C,0.254000*%
%ADD11R,0.762000X1.524000*%
%ADD12R,1.400000X1.900000*%
%ADD13R,1.000000X1.400000*%
%ADD14R,1.200000X0.300000*%
%ADD15R,0.300000X1.200000*%
%ADD16R,1.106400X1.106400*%
%ADD17C,1.106400*%
%ADD18R,1.350000X0.400000*%
%ADD19R,1.900000X1.800000*%
%ADD20C,0.950000*%
%ADD21C,0.990000*%
%ADD22R,1.000000X0.800000*%
%ADD23R,1.200000X1.500000*%
%ADD24R,1.200000X1.200000*%
%ADD25R,0.600000X0.500000*%
%ADD26R,0.750000X0.500000*%
%ADD27R,0.800000X1.000000*%
%ADD28R,0.500000X0.750000*%
%ADD29R,1.000000X1.000000*%
%ADD30C,0.609600*%
%ADD31C,0.406400*%
%ADD32C,0.806400*%
%ADD33C,0.203200*%
%ADD34C,0.200000*%

G36*
X484631Y3396D02*
X484631Y3396D01*
X484702Y3397D01*
X489305Y4197D01*
X489352Y4212D01*
X489400Y4218D01*
X489467Y4250D01*
X489576Y4285D01*
X489648Y4333D01*
X489705Y4360D01*
X493081Y6670D01*
X493110Y6696D01*
X493143Y6715D01*
X493195Y6774D01*
X493291Y6862D01*
X493330Y6925D01*
X493367Y6966D01*
X495567Y10450D01*
X495571Y10458D01*
X495576Y10465D01*
X495596Y10515D01*
X495684Y10709D01*
X495689Y10748D01*
X495701Y10777D01*
X496721Y15470D01*
X496731Y15608D01*
X496744Y15685D01*
X496744Y60063D01*
X496704Y60344D01*
X496698Y60358D01*
X496696Y60371D01*
X495484Y64181D01*
X495431Y64291D01*
X495382Y64403D01*
X495370Y64417D01*
X495361Y64437D01*
X495171Y64649D01*
X495166Y64652D01*
X495162Y64657D01*
X491976Y67280D01*
X491918Y67316D01*
X491880Y67351D01*
X489477Y68895D01*
X489385Y68938D01*
X489297Y68987D01*
X489261Y68995D01*
X489219Y69014D01*
X489036Y69042D01*
X488969Y69056D01*
X488800Y69063D01*
X488281Y69626D01*
X488132Y69747D01*
X488084Y69791D01*
X487439Y70206D01*
X487403Y70370D01*
X487368Y70465D01*
X487341Y70562D01*
X487321Y70593D01*
X487304Y70637D01*
X487195Y70785D01*
X487157Y70843D01*
X485556Y72577D01*
X485499Y72623D01*
X485449Y72677D01*
X485398Y72706D01*
X485336Y72757D01*
X485224Y72805D01*
X485157Y72842D01*
X484886Y72941D01*
X484610Y73531D01*
X484455Y73769D01*
X484443Y73779D01*
X484436Y73790D01*
X483995Y74268D01*
X484007Y74557D01*
X483999Y74630D01*
X484002Y74704D01*
X483986Y74761D01*
X483978Y74840D01*
X483933Y74954D01*
X483912Y75027D01*
X482975Y77035D01*
X482938Y77092D01*
X482910Y77153D01*
X482868Y77200D01*
X482820Y77273D01*
X482734Y77347D01*
X482684Y77402D01*
X482439Y77596D01*
X482366Y78220D01*
X482293Y78494D01*
X482282Y78513D01*
X482277Y78530D01*
X482012Y79099D01*
X482119Y79393D01*
X482133Y79460D01*
X482156Y79523D01*
X482159Y79586D01*
X482177Y79671D01*
X482169Y79785D01*
X482173Y79859D01*
X481948Y81772D01*
X481941Y81799D01*
X481940Y81828D01*
X481904Y81937D01*
X481875Y82047D01*
X481861Y82071D01*
X481852Y82098D01*
X481807Y82162D01*
X481758Y82243D01*
X481758Y83323D01*
X481749Y83390D01*
X481751Y83442D01*
X481624Y84520D01*
X481625Y84522D01*
X481683Y84621D01*
X481690Y84648D01*
X481703Y84673D01*
X481716Y84750D01*
X481753Y84896D01*
X481750Y84958D01*
X481758Y85004D01*
X481758Y182204D01*
X481754Y182232D01*
X481757Y182260D01*
X481734Y182372D01*
X481718Y182485D01*
X481707Y182511D01*
X481701Y182539D01*
X481664Y182607D01*
X481625Y182693D01*
X481751Y183766D01*
X481750Y183834D01*
X481758Y183885D01*
X481758Y184971D01*
X481759Y184972D01*
X481828Y185064D01*
X481838Y185090D01*
X481854Y185114D01*
X481876Y185189D01*
X481929Y185329D01*
X481935Y185390D01*
X481948Y185436D01*
X482173Y187349D01*
X482171Y187417D01*
X482180Y187485D01*
X482168Y187547D01*
X482166Y187633D01*
X482132Y187742D01*
X482119Y187815D01*
X482012Y188109D01*
X482277Y188678D01*
X482360Y188950D01*
X482361Y188971D01*
X482366Y188988D01*
X482439Y189612D01*
X482684Y189806D01*
X482731Y189855D01*
X482785Y189897D01*
X482821Y189949D01*
X482881Y190011D01*
X482933Y190112D01*
X482975Y190173D01*
X483912Y192181D01*
X483934Y192251D01*
X483964Y192318D01*
X483972Y192376D01*
X483995Y192453D01*
X483997Y192575D01*
X484007Y192651D01*
X483995Y192940D01*
X484436Y193418D01*
X484598Y193651D01*
X484603Y193666D01*
X484610Y193677D01*
X484886Y194267D01*
X485157Y194366D01*
X485222Y194400D01*
X485291Y194425D01*
X485338Y194462D01*
X485408Y194499D01*
X485496Y194584D01*
X485556Y194631D01*
X487157Y196365D01*
X487214Y196448D01*
X487279Y196526D01*
X487292Y196561D01*
X487319Y196599D01*
X487377Y196774D01*
X487403Y196838D01*
X487439Y197002D01*
X488084Y197417D01*
X488229Y197542D01*
X488281Y197582D01*
X488800Y198145D01*
X488969Y198152D01*
X489068Y198170D01*
X489168Y198180D01*
X489202Y198195D01*
X489248Y198203D01*
X489414Y198285D01*
X489477Y198313D01*
X491880Y199857D01*
X491931Y199902D01*
X491976Y199927D01*
X495162Y202551D01*
X495245Y202641D01*
X495331Y202729D01*
X495339Y202745D01*
X495354Y202761D01*
X495441Y202935D01*
X495448Y202947D01*
X495452Y202958D01*
X495480Y203016D01*
X495482Y203022D01*
X495484Y203027D01*
X496696Y206837D01*
X496744Y207118D01*
X496742Y207133D01*
X496744Y207145D01*
X496744Y251523D01*
X496725Y251660D01*
X496721Y251738D01*
X495701Y256431D01*
X495698Y256440D01*
X495697Y256448D01*
X495677Y256497D01*
X495663Y256533D01*
X495654Y256570D01*
X495643Y256589D01*
X495602Y256698D01*
X495579Y256729D01*
X495567Y256758D01*
X493394Y260199D01*
X493361Y260237D01*
X493336Y260281D01*
X493282Y260331D01*
X493210Y260416D01*
X493136Y260465D01*
X493089Y260508D01*
X489467Y262862D01*
X489437Y262876D01*
X489411Y262896D01*
X489338Y262922D01*
X489210Y262982D01*
X489144Y262992D01*
X489096Y263010D01*
X484694Y263810D01*
X484584Y263814D01*
X484512Y263826D01*
X150372Y263826D01*
X150300Y263816D01*
X150246Y263818D01*
X146967Y263409D01*
X146778Y263357D01*
X146716Y263344D01*
X143716Y262144D01*
X143631Y262095D01*
X143568Y262070D01*
X110196Y241908D01*
X110117Y241844D01*
X110033Y241786D01*
X110008Y241754D01*
X109976Y241728D01*
X109918Y241645D01*
X109853Y241566D01*
X109837Y241528D01*
X109814Y241495D01*
X109782Y241398D01*
X109741Y241304D01*
X109736Y241264D01*
X109723Y241225D01*
X109719Y241123D01*
X109706Y241022D01*
X109713Y240987D01*
X109711Y240941D01*
X109755Y240758D01*
X109767Y240692D01*
X110385Y238993D01*
X110389Y238985D01*
X110391Y238976D01*
X110419Y238929D01*
X110519Y238742D01*
X110546Y238714D01*
X110562Y238687D01*
X110924Y238256D01*
X110891Y237878D01*
X110894Y237826D01*
X110888Y237773D01*
X110901Y237702D01*
X110907Y237594D01*
X110937Y237508D01*
X110949Y237443D01*
X111078Y237087D01*
X110840Y236577D01*
X110837Y236568D01*
X110832Y236561D01*
X110819Y236507D01*
X110757Y236305D01*
X110756Y236266D01*
X110749Y236235D01*
X110389Y232105D01*
X110393Y232037D01*
X110387Y231968D01*
X110400Y231907D01*
X110405Y231821D01*
X110442Y231713D01*
X110458Y231640D01*
X110573Y231353D01*
X110325Y230773D01*
X110250Y230498D01*
X110251Y230478D01*
X110246Y230461D01*
X110192Y229832D01*
X109955Y229633D01*
X109909Y229582D01*
X109856Y229538D01*
X109822Y229486D01*
X109765Y229422D01*
X109715Y229318D01*
X109674Y229256D01*
X109119Y227959D01*
X109095Y227870D01*
X109062Y227784D01*
X109058Y227734D01*
X109045Y227685D01*
X109046Y227593D01*
X109038Y227501D01*
X109048Y227451D01*
X109049Y227401D01*
X109076Y227313D01*
X109094Y227222D01*
X109118Y227177D01*
X109133Y227129D01*
X109183Y227052D01*
X109225Y226970D01*
X109260Y226933D01*
X109288Y226891D01*
X109358Y226831D01*
X109421Y226764D01*
X109465Y226738D01*
X109503Y226705D01*
X109587Y226667D01*
X109666Y226620D01*
X109716Y226608D01*
X109762Y226586D01*
X109853Y226573D01*
X109942Y226550D01*
X109992Y226552D01*
X110043Y226544D01*
X110134Y226556D01*
X110226Y226559D01*
X110274Y226575D01*
X110325Y226581D01*
X110409Y226618D01*
X110497Y226647D01*
X110533Y226672D01*
X110585Y226695D01*
X110707Y226797D01*
X110770Y226841D01*
X125686Y241757D01*
X125686Y241758D01*
X129801Y245873D01*
X130195Y245873D01*
X130282Y245885D01*
X130369Y245888D01*
X130422Y245905D01*
X130477Y245913D01*
X130557Y245948D01*
X130640Y245975D01*
X130679Y246003D01*
X130736Y246029D01*
X130850Y246125D01*
X130913Y246170D01*
X132709Y247965D01*
X134938Y248889D01*
X137350Y248889D01*
X138736Y248315D01*
X138737Y248314D01*
X138739Y248314D01*
X138878Y248278D01*
X139011Y248244D01*
X139013Y248244D01*
X139014Y248244D01*
X139160Y248248D01*
X139295Y248252D01*
X139297Y248253D01*
X139298Y248253D01*
X139433Y248296D01*
X139566Y248339D01*
X139567Y248340D01*
X139569Y248340D01*
X139581Y248349D01*
X139802Y248497D01*
X139822Y248520D01*
X139842Y248535D01*
X139914Y248607D01*
X144523Y248607D01*
X144610Y248619D01*
X144698Y248622D01*
X144750Y248639D01*
X144805Y248647D01*
X144828Y248657D01*
X151678Y248657D01*
X151939Y248396D01*
X152008Y248344D01*
X152072Y248284D01*
X152122Y248258D01*
X152166Y248225D01*
X152248Y248194D01*
X152254Y248191D01*
X152269Y248144D01*
X152297Y248105D01*
X152323Y248048D01*
X152419Y247935D01*
X152464Y247871D01*
X152932Y247403D01*
X152956Y247385D01*
X152975Y247363D01*
X153069Y247300D01*
X153159Y247232D01*
X153187Y247221D01*
X153211Y247205D01*
X153319Y247171D01*
X153425Y247130D01*
X153454Y247128D01*
X153482Y247119D01*
X153595Y247116D01*
X153708Y247107D01*
X153737Y247113D01*
X153766Y247112D01*
X153876Y247140D01*
X153987Y247163D01*
X154013Y247176D01*
X154041Y247184D01*
X154139Y247242D01*
X154239Y247294D01*
X154261Y247314D01*
X154286Y247329D01*
X154363Y247412D01*
X154445Y247490D01*
X154460Y247515D01*
X154480Y247536D01*
X154532Y247637D01*
X154589Y247735D01*
X154596Y247763D01*
X154610Y247789D01*
X154623Y247867D01*
X154659Y248010D01*
X154657Y248073D01*
X154662Y248099D01*
X156219Y248099D01*
X156780Y247867D01*
X157209Y247438D01*
X157441Y246877D01*
X157441Y244073D01*
X153884Y244073D01*
X153826Y244065D01*
X153768Y244067D01*
X153686Y244045D01*
X153602Y244033D01*
X153549Y244010D01*
X153493Y243995D01*
X153420Y243952D01*
X153343Y243917D01*
X153298Y243879D01*
X153248Y243850D01*
X153190Y243788D01*
X153126Y243734D01*
X153094Y243685D01*
X153054Y243642D01*
X153015Y243567D01*
X152968Y243497D01*
X152951Y243441D01*
X152924Y243389D01*
X152913Y243321D01*
X152883Y243226D01*
X152880Y243126D01*
X152869Y243058D01*
X152869Y242590D01*
X152877Y242532D01*
X152875Y242474D01*
X152897Y242392D01*
X152909Y242308D01*
X152932Y242255D01*
X152947Y242199D01*
X152990Y242126D01*
X153025Y242049D01*
X153063Y242004D01*
X153092Y241954D01*
X153154Y241896D01*
X153208Y241832D01*
X153257Y241800D01*
X153300Y241760D01*
X153375Y241721D01*
X153445Y241674D01*
X153501Y241657D01*
X153553Y241630D01*
X153621Y241619D01*
X153716Y241589D01*
X153816Y241586D01*
X153884Y241575D01*
X157441Y241575D01*
X157441Y238771D01*
X157209Y238210D01*
X156952Y237954D01*
X156917Y237907D01*
X156875Y237867D01*
X156832Y237794D01*
X156781Y237727D01*
X156760Y237672D01*
X156731Y237622D01*
X156710Y237540D01*
X156680Y237461D01*
X156675Y237403D01*
X156661Y237346D01*
X156664Y237262D01*
X156656Y237178D01*
X156668Y237120D01*
X156670Y237062D01*
X156696Y236982D01*
X156712Y236899D01*
X156739Y236847D01*
X156757Y236791D01*
X156797Y236735D01*
X156843Y236647D01*
X156912Y236574D01*
X156952Y236518D01*
X157209Y236262D01*
X157441Y235701D01*
X157441Y232897D01*
X153884Y232897D01*
X153826Y232889D01*
X153768Y232891D01*
X153686Y232869D01*
X153602Y232857D01*
X153549Y232834D01*
X153493Y232819D01*
X153420Y232776D01*
X153343Y232741D01*
X153298Y232703D01*
X153248Y232674D01*
X153190Y232612D01*
X153126Y232558D01*
X153094Y232509D01*
X153054Y232466D01*
X153015Y232391D01*
X152968Y232321D01*
X152951Y232265D01*
X152924Y232213D01*
X152913Y232145D01*
X152883Y232050D01*
X152880Y231950D01*
X152869Y231882D01*
X152869Y231414D01*
X152877Y231356D01*
X152875Y231298D01*
X152897Y231216D01*
X152909Y231132D01*
X152932Y231079D01*
X152947Y231023D01*
X152990Y230950D01*
X153025Y230873D01*
X153063Y230828D01*
X153092Y230778D01*
X153154Y230720D01*
X153208Y230656D01*
X153257Y230624D01*
X153300Y230584D01*
X153375Y230545D01*
X153445Y230498D01*
X153501Y230481D01*
X153553Y230454D01*
X153621Y230443D01*
X153716Y230413D01*
X153816Y230410D01*
X153884Y230399D01*
X157441Y230399D01*
X157441Y227595D01*
X157209Y227034D01*
X156780Y226605D01*
X156219Y226373D01*
X154662Y226373D01*
X154661Y226381D01*
X154664Y226410D01*
X154641Y226521D01*
X154625Y226633D01*
X154613Y226660D01*
X154608Y226689D01*
X154556Y226789D01*
X154509Y226892D01*
X154490Y226915D01*
X154477Y226941D01*
X154399Y227023D01*
X154326Y227109D01*
X154301Y227126D01*
X154281Y227147D01*
X154183Y227204D01*
X154089Y227267D01*
X154061Y227276D01*
X154036Y227291D01*
X153926Y227319D01*
X153818Y227353D01*
X153788Y227354D01*
X153760Y227361D01*
X153647Y227357D01*
X153534Y227360D01*
X153505Y227353D01*
X153476Y227352D01*
X153368Y227317D01*
X153259Y227288D01*
X153233Y227273D01*
X153205Y227264D01*
X153142Y227219D01*
X153014Y227143D01*
X152971Y227097D01*
X152932Y227069D01*
X152464Y226601D01*
X152412Y226532D01*
X152352Y226468D01*
X152326Y226418D01*
X152293Y226374D01*
X152262Y226292D01*
X152259Y226286D01*
X152212Y226271D01*
X152173Y226243D01*
X152116Y226217D01*
X152002Y226121D01*
X151939Y226076D01*
X151678Y225815D01*
X144822Y225815D01*
X144807Y225818D01*
X144749Y225840D01*
X144601Y225852D01*
X144523Y225865D01*
X139914Y225865D01*
X138723Y227056D01*
X138723Y227584D01*
X138715Y227642D01*
X138717Y227700D01*
X138695Y227782D01*
X138683Y227866D01*
X138660Y227919D01*
X138645Y227975D01*
X138602Y228048D01*
X138567Y228125D01*
X138529Y228170D01*
X138500Y228220D01*
X138438Y228278D01*
X138384Y228342D01*
X138335Y228374D01*
X138292Y228414D01*
X138217Y228453D01*
X138147Y228500D01*
X138091Y228517D01*
X138039Y228544D01*
X137971Y228555D01*
X137876Y228585D01*
X137776Y228588D01*
X137708Y228599D01*
X127667Y228599D01*
X127581Y228587D01*
X127493Y228584D01*
X127441Y228567D01*
X127386Y228559D01*
X127306Y228524D01*
X127223Y228497D01*
X127184Y228469D01*
X127126Y228443D01*
X127013Y228347D01*
X126949Y228302D01*
X121877Y223230D01*
X121860Y223206D01*
X121837Y223187D01*
X121775Y223093D01*
X121707Y223003D01*
X121696Y222975D01*
X121680Y222951D01*
X121646Y222843D01*
X121605Y222737D01*
X121603Y222708D01*
X121594Y222680D01*
X121591Y222566D01*
X121582Y222454D01*
X121587Y222425D01*
X121587Y222396D01*
X121615Y222286D01*
X121638Y222175D01*
X121651Y222149D01*
X121659Y222121D01*
X121716Y222023D01*
X121769Y221923D01*
X121789Y221901D01*
X121804Y221876D01*
X121886Y221799D01*
X121964Y221717D01*
X121990Y221702D01*
X122011Y221682D01*
X122112Y221630D01*
X122210Y221573D01*
X122238Y221566D01*
X122264Y221552D01*
X122342Y221539D01*
X122485Y221503D01*
X122548Y221505D01*
X122595Y221497D01*
X169672Y221497D01*
X169730Y221505D01*
X169788Y221503D01*
X169870Y221525D01*
X169954Y221537D01*
X170007Y221560D01*
X170063Y221575D01*
X170136Y221618D01*
X170213Y221653D01*
X170258Y221691D01*
X170308Y221720D01*
X170366Y221782D01*
X170430Y221836D01*
X170462Y221885D01*
X170502Y221928D01*
X170541Y222003D01*
X170588Y222073D01*
X170605Y222129D01*
X170632Y222181D01*
X170643Y222249D01*
X170673Y222344D01*
X170676Y222444D01*
X170687Y222512D01*
X170687Y228252D01*
X172422Y229986D01*
X172474Y230056D01*
X172534Y230120D01*
X172560Y230169D01*
X172593Y230214D01*
X172624Y230295D01*
X172664Y230373D01*
X172672Y230421D01*
X172694Y230479D01*
X172706Y230627D01*
X172719Y230704D01*
X172719Y231248D01*
X172707Y231334D01*
X172704Y231422D01*
X172687Y231474D01*
X172679Y231529D01*
X172644Y231609D01*
X172617Y231692D01*
X172589Y231731D01*
X172563Y231788D01*
X172468Y231901D01*
X172422Y231965D01*
X172251Y232136D01*
X172251Y241320D01*
X172295Y241364D01*
X172347Y241433D01*
X172407Y241497D01*
X172433Y241547D01*
X172466Y241591D01*
X172497Y241672D01*
X172537Y241750D01*
X172545Y241798D01*
X172567Y241856D01*
X172579Y242004D01*
X172592Y242081D01*
X172592Y243898D01*
X172580Y243985D01*
X172577Y244072D01*
X172560Y244125D01*
X172552Y244180D01*
X172517Y244259D01*
X172490Y244343D01*
X172462Y244382D01*
X172436Y244439D01*
X172340Y244552D01*
X172295Y244616D01*
X170244Y246667D01*
X169092Y249447D01*
X169092Y252457D01*
X170244Y255237D01*
X172372Y257365D01*
X175152Y258517D01*
X178162Y258517D01*
X180942Y257365D01*
X183070Y255237D01*
X183657Y253821D01*
X183671Y253796D01*
X183680Y253768D01*
X183743Y253674D01*
X183801Y253576D01*
X183822Y253556D01*
X183839Y253532D01*
X183925Y253459D01*
X184008Y253381D01*
X184034Y253368D01*
X184056Y253349D01*
X184160Y253303D01*
X184260Y253251D01*
X184289Y253245D01*
X184316Y253233D01*
X184428Y253218D01*
X184539Y253196D01*
X184569Y253199D01*
X184598Y253194D01*
X184710Y253211D01*
X184823Y253220D01*
X184850Y253231D01*
X184879Y253235D01*
X184982Y253282D01*
X185088Y253322D01*
X185111Y253340D01*
X185138Y253352D01*
X185224Y253426D01*
X185315Y253494D01*
X185332Y253518D01*
X185355Y253537D01*
X185396Y253603D01*
X185485Y253722D01*
X185507Y253780D01*
X185532Y253821D01*
X186119Y255237D01*
X188247Y257365D01*
X191027Y258517D01*
X194037Y258517D01*
X196817Y257365D01*
X198945Y255237D01*
X199532Y253821D01*
X199546Y253796D01*
X199555Y253768D01*
X199618Y253674D01*
X199676Y253576D01*
X199697Y253556D01*
X199714Y253532D01*
X199800Y253459D01*
X199883Y253381D01*
X199909Y253368D01*
X199931Y253349D01*
X200035Y253303D01*
X200135Y253251D01*
X200164Y253245D01*
X200191Y253233D01*
X200303Y253218D01*
X200414Y253196D01*
X200444Y253199D01*
X200473Y253194D01*
X200585Y253211D01*
X200698Y253220D01*
X200725Y253231D01*
X200754Y253235D01*
X200857Y253282D01*
X200963Y253322D01*
X200986Y253340D01*
X201013Y253352D01*
X201099Y253426D01*
X201190Y253494D01*
X201207Y253518D01*
X201230Y253537D01*
X201271Y253603D01*
X201360Y253722D01*
X201382Y253780D01*
X201407Y253821D01*
X201994Y255237D01*
X204122Y257365D01*
X206902Y258517D01*
X209912Y258517D01*
X212692Y257365D01*
X214820Y255237D01*
X215407Y253821D01*
X215421Y253796D01*
X215430Y253768D01*
X215493Y253674D01*
X215551Y253576D01*
X215572Y253556D01*
X215589Y253532D01*
X215675Y253459D01*
X215758Y253381D01*
X215784Y253368D01*
X215806Y253349D01*
X215910Y253303D01*
X216010Y253251D01*
X216039Y253245D01*
X216066Y253233D01*
X216178Y253218D01*
X216289Y253196D01*
X216319Y253199D01*
X216348Y253194D01*
X216460Y253211D01*
X216573Y253220D01*
X216600Y253231D01*
X216629Y253235D01*
X216732Y253282D01*
X216838Y253322D01*
X216861Y253340D01*
X216888Y253352D01*
X216974Y253426D01*
X217065Y253494D01*
X217082Y253518D01*
X217105Y253537D01*
X217146Y253603D01*
X217235Y253722D01*
X217257Y253780D01*
X217282Y253821D01*
X217869Y255237D01*
X219997Y257365D01*
X222777Y258517D01*
X225787Y258517D01*
X228567Y257365D01*
X230695Y255237D01*
X231556Y253158D01*
X231571Y253132D01*
X231580Y253104D01*
X231643Y253010D01*
X231701Y252913D01*
X231722Y252893D01*
X231739Y252868D01*
X231825Y252795D01*
X231908Y252718D01*
X231934Y252704D01*
X231956Y252685D01*
X232060Y252639D01*
X232160Y252587D01*
X232189Y252582D01*
X232216Y252570D01*
X232328Y252554D01*
X232439Y252532D01*
X232468Y252535D01*
X232498Y252531D01*
X232610Y252547D01*
X232723Y252557D01*
X232750Y252567D01*
X232779Y252571D01*
X232882Y252618D01*
X232988Y252659D01*
X233011Y252676D01*
X233038Y252689D01*
X233124Y252762D01*
X233215Y252830D01*
X233232Y252854D01*
X233254Y252873D01*
X233296Y252939D01*
X233385Y253058D01*
X233407Y253117D01*
X233432Y253157D01*
X233903Y254295D01*
X234676Y255451D01*
X235658Y256433D01*
X236814Y257206D01*
X238099Y257738D01*
X238408Y257799D01*
X238408Y251686D01*
X238416Y251628D01*
X238414Y251570D01*
X238436Y251488D01*
X238448Y251405D01*
X238471Y251351D01*
X238486Y251295D01*
X238529Y251222D01*
X238564Y251145D01*
X238602Y251101D01*
X238631Y251050D01*
X238693Y250993D01*
X238730Y250949D01*
X238729Y250948D01*
X238665Y250893D01*
X238633Y250845D01*
X238593Y250802D01*
X238554Y250727D01*
X238507Y250657D01*
X238490Y250601D01*
X238463Y250549D01*
X238452Y250481D01*
X238422Y250386D01*
X238419Y250286D01*
X238408Y250218D01*
X238408Y244105D01*
X238099Y244166D01*
X236814Y244698D01*
X235658Y245471D01*
X234676Y246453D01*
X233903Y247609D01*
X233432Y248747D01*
X233417Y248772D01*
X233409Y248800D01*
X233345Y248894D01*
X233288Y248991D01*
X233267Y249011D01*
X233250Y249036D01*
X233163Y249109D01*
X233081Y249187D01*
X233055Y249200D01*
X233033Y249219D01*
X232929Y249265D01*
X232828Y249317D01*
X232800Y249322D01*
X232773Y249334D01*
X232661Y249350D01*
X232550Y249372D01*
X232520Y249369D01*
X232491Y249373D01*
X232379Y249357D01*
X232266Y249347D01*
X232239Y249337D01*
X232210Y249333D01*
X232107Y249286D01*
X232001Y249245D01*
X231978Y249228D01*
X231951Y249215D01*
X231865Y249142D01*
X231774Y249074D01*
X231757Y249050D01*
X231734Y249031D01*
X231693Y248965D01*
X231604Y248846D01*
X231582Y248787D01*
X231556Y248746D01*
X230695Y246667D01*
X228567Y244539D01*
X225787Y243387D01*
X222777Y243387D01*
X219997Y244539D01*
X217869Y246667D01*
X217282Y248083D01*
X217268Y248108D01*
X217259Y248136D01*
X217196Y248230D01*
X217138Y248328D01*
X217117Y248348D01*
X217100Y248372D01*
X217014Y248445D01*
X216931Y248523D01*
X216905Y248536D01*
X216883Y248555D01*
X216779Y248601D01*
X216679Y248653D01*
X216650Y248659D01*
X216623Y248671D01*
X216511Y248686D01*
X216400Y248708D01*
X216370Y248705D01*
X216341Y248710D01*
X216229Y248693D01*
X216116Y248684D01*
X216089Y248673D01*
X216060Y248669D01*
X215957Y248622D01*
X215851Y248582D01*
X215828Y248564D01*
X215801Y248552D01*
X215715Y248478D01*
X215624Y248410D01*
X215607Y248386D01*
X215585Y248367D01*
X215543Y248301D01*
X215454Y248182D01*
X215432Y248124D01*
X215407Y248083D01*
X214820Y246667D01*
X212692Y244539D01*
X209912Y243387D01*
X206902Y243387D01*
X204122Y244539D01*
X201994Y246667D01*
X201407Y248083D01*
X201393Y248108D01*
X201384Y248136D01*
X201321Y248230D01*
X201263Y248328D01*
X201242Y248348D01*
X201225Y248372D01*
X201139Y248445D01*
X201056Y248523D01*
X201030Y248536D01*
X201008Y248555D01*
X200904Y248601D01*
X200804Y248653D01*
X200775Y248659D01*
X200748Y248671D01*
X200636Y248686D01*
X200525Y248708D01*
X200495Y248705D01*
X200466Y248710D01*
X200354Y248693D01*
X200241Y248684D01*
X200214Y248673D01*
X200185Y248669D01*
X200082Y248622D01*
X199976Y248582D01*
X199953Y248564D01*
X199926Y248552D01*
X199840Y248478D01*
X199749Y248410D01*
X199732Y248386D01*
X199710Y248367D01*
X199668Y248301D01*
X199579Y248182D01*
X199557Y248124D01*
X199532Y248083D01*
X198945Y246667D01*
X196817Y244539D01*
X194037Y243387D01*
X191142Y243387D01*
X191113Y243383D01*
X191084Y243386D01*
X190973Y243363D01*
X190861Y243347D01*
X190834Y243335D01*
X190805Y243330D01*
X190705Y243278D01*
X190601Y243231D01*
X190579Y243212D01*
X190553Y243199D01*
X190471Y243121D01*
X190384Y243048D01*
X190368Y243023D01*
X190347Y243003D01*
X190289Y242905D01*
X190227Y242811D01*
X190218Y242783D01*
X190203Y242758D01*
X190175Y242648D01*
X190141Y242540D01*
X190140Y242511D01*
X190133Y242482D01*
X190136Y242369D01*
X190133Y242256D01*
X190141Y242227D01*
X190142Y242198D01*
X190177Y242090D01*
X190205Y241981D01*
X190220Y241955D01*
X190229Y241927D01*
X190275Y241863D01*
X190351Y241736D01*
X190396Y241693D01*
X190424Y241654D01*
X190737Y241342D01*
X190969Y240781D01*
X190969Y237977D01*
X187412Y237977D01*
X187354Y237969D01*
X187296Y237971D01*
X187214Y237949D01*
X187130Y237937D01*
X187077Y237914D01*
X187021Y237899D01*
X186948Y237856D01*
X186871Y237821D01*
X186826Y237783D01*
X186776Y237754D01*
X186718Y237692D01*
X186654Y237638D01*
X186622Y237589D01*
X186582Y237546D01*
X186543Y237471D01*
X186496Y237401D01*
X186479Y237345D01*
X186452Y237293D01*
X186441Y237225D01*
X186411Y237130D01*
X186408Y237030D01*
X186397Y236962D01*
X186397Y236494D01*
X186405Y236436D01*
X186403Y236378D01*
X186425Y236296D01*
X186437Y236212D01*
X186460Y236159D01*
X186475Y236103D01*
X186518Y236030D01*
X186553Y235953D01*
X186591Y235908D01*
X186620Y235858D01*
X186682Y235800D01*
X186736Y235736D01*
X186785Y235704D01*
X186828Y235664D01*
X186903Y235625D01*
X186973Y235578D01*
X187029Y235561D01*
X187081Y235534D01*
X187149Y235523D01*
X187244Y235493D01*
X187344Y235490D01*
X187412Y235479D01*
X190969Y235479D01*
X190969Y232675D01*
X190737Y232114D01*
X190308Y231685D01*
X189747Y231453D01*
X188190Y231453D01*
X188189Y231461D01*
X188192Y231490D01*
X188169Y231601D01*
X188153Y231713D01*
X188141Y231740D01*
X188136Y231769D01*
X188083Y231869D01*
X188037Y231972D01*
X188018Y231995D01*
X188005Y232021D01*
X187927Y232103D01*
X187854Y232189D01*
X187829Y232206D01*
X187809Y232227D01*
X187711Y232284D01*
X187617Y232347D01*
X187589Y232356D01*
X187564Y232371D01*
X187454Y232399D01*
X187346Y232433D01*
X187316Y232434D01*
X187288Y232441D01*
X187175Y232437D01*
X187062Y232440D01*
X187033Y232433D01*
X187004Y232432D01*
X186896Y232397D01*
X186787Y232368D01*
X186761Y232353D01*
X186733Y232344D01*
X186669Y232299D01*
X186542Y232223D01*
X186499Y232177D01*
X186460Y232149D01*
X185992Y231681D01*
X185939Y231611D01*
X185880Y231548D01*
X185854Y231498D01*
X185821Y231454D01*
X185790Y231372D01*
X185787Y231366D01*
X185740Y231351D01*
X185701Y231323D01*
X185644Y231297D01*
X185530Y231201D01*
X185467Y231156D01*
X185206Y230895D01*
X181864Y230895D01*
X181806Y230887D01*
X181748Y230889D01*
X181666Y230867D01*
X181582Y230855D01*
X181529Y230832D01*
X181473Y230817D01*
X181400Y230774D01*
X181323Y230739D01*
X181278Y230701D01*
X181228Y230672D01*
X181170Y230610D01*
X181106Y230556D01*
X181074Y230507D01*
X181034Y230464D01*
X180995Y230389D01*
X180948Y230319D01*
X180931Y230263D01*
X180904Y230211D01*
X180893Y230143D01*
X180863Y230048D01*
X180860Y229948D01*
X180849Y229880D01*
X180849Y226916D01*
X179114Y225182D01*
X179062Y225112D01*
X179002Y225048D01*
X178976Y224999D01*
X178943Y224954D01*
X178912Y224873D01*
X178872Y224795D01*
X178864Y224747D01*
X178842Y224689D01*
X178830Y224541D01*
X178817Y224464D01*
X178817Y222004D01*
X178825Y221946D01*
X178823Y221888D01*
X178845Y221806D01*
X178857Y221722D01*
X178880Y221669D01*
X178895Y221613D01*
X178938Y221540D01*
X178973Y221463D01*
X179011Y221418D01*
X179040Y221368D01*
X179102Y221310D01*
X179156Y221246D01*
X179205Y221214D01*
X179248Y221174D01*
X179323Y221135D01*
X179393Y221088D01*
X179449Y221071D01*
X179501Y221044D01*
X179569Y221033D01*
X179664Y221003D01*
X179764Y221000D01*
X179832Y220989D01*
X181549Y220989D01*
X181636Y221001D01*
X181724Y221004D01*
X181776Y221021D01*
X181831Y221029D01*
X181911Y221064D01*
X181994Y221091D01*
X182033Y221119D01*
X182090Y221145D01*
X182204Y221241D01*
X182267Y221286D01*
X182478Y221497D01*
X187162Y221497D01*
X188353Y220306D01*
X188353Y206622D01*
X187162Y205431D01*
X182478Y205431D01*
X182267Y205642D01*
X182198Y205694D01*
X182134Y205754D01*
X182084Y205780D01*
X182040Y205813D01*
X181958Y205844D01*
X181881Y205884D01*
X181833Y205892D01*
X181775Y205914D01*
X181627Y205926D01*
X181549Y205939D01*
X179900Y205939D01*
X179842Y205931D01*
X179784Y205933D01*
X179702Y205911D01*
X179618Y205899D01*
X179565Y205876D01*
X179509Y205861D01*
X179436Y205818D01*
X179359Y205783D01*
X179314Y205745D01*
X179264Y205716D01*
X179206Y205654D01*
X179142Y205600D01*
X179110Y205551D01*
X179070Y205508D01*
X179031Y205433D01*
X178984Y205363D01*
X178967Y205307D01*
X178940Y205255D01*
X178929Y205187D01*
X178899Y205092D01*
X178896Y204992D01*
X178885Y204924D01*
X178885Y183028D01*
X178892Y182978D01*
X178891Y182965D01*
X178893Y182960D01*
X178891Y182912D01*
X178913Y182830D01*
X178925Y182746D01*
X178948Y182693D01*
X178963Y182637D01*
X179006Y182564D01*
X179041Y182487D01*
X179079Y182442D01*
X179108Y182392D01*
X179170Y182334D01*
X179224Y182270D01*
X179273Y182238D01*
X179316Y182198D01*
X179391Y182159D01*
X179461Y182112D01*
X179517Y182095D01*
X179569Y182068D01*
X179637Y182057D01*
X179732Y182027D01*
X179832Y182024D01*
X179900Y182013D01*
X195272Y182013D01*
X195330Y182021D01*
X195388Y182019D01*
X195470Y182041D01*
X195554Y182053D01*
X195607Y182076D01*
X195663Y182091D01*
X195736Y182134D01*
X195813Y182169D01*
X195858Y182207D01*
X195908Y182236D01*
X195966Y182298D01*
X196030Y182352D01*
X196062Y182401D01*
X196102Y182444D01*
X196141Y182519D01*
X196188Y182589D01*
X196205Y182645D01*
X196232Y182697D01*
X196243Y182765D01*
X196273Y182860D01*
X196276Y182960D01*
X196287Y183028D01*
X196287Y196306D01*
X197478Y197497D01*
X211162Y197497D01*
X212353Y196306D01*
X212353Y188992D01*
X212365Y188907D01*
X212367Y188821D01*
X212385Y188767D01*
X212393Y188711D01*
X212428Y188633D01*
X212454Y188551D01*
X212486Y188503D01*
X212509Y188452D01*
X212564Y188386D01*
X212612Y188315D01*
X212656Y188278D01*
X212692Y188235D01*
X212764Y188187D01*
X212830Y188132D01*
X212882Y188108D01*
X212929Y188077D01*
X213011Y188051D01*
X213090Y188016D01*
X213146Y188008D01*
X213200Y187991D01*
X213286Y187989D01*
X213371Y187977D01*
X213427Y187985D01*
X213484Y187984D01*
X213567Y188006D01*
X213653Y188018D01*
X213704Y188041D01*
X213759Y188056D01*
X213833Y188099D01*
X213912Y188135D01*
X213955Y188172D01*
X214004Y188201D01*
X214063Y188264D01*
X214128Y188319D01*
X214154Y188361D01*
X214198Y188408D01*
X214264Y188537D01*
X214306Y188604D01*
X214607Y189332D01*
X215036Y189761D01*
X215597Y189993D01*
X217806Y189993D01*
X217806Y181737D01*
X217814Y181679D01*
X217812Y181621D01*
X217834Y181539D01*
X217846Y181456D01*
X217869Y181402D01*
X217884Y181346D01*
X217927Y181273D01*
X217962Y181196D01*
X218000Y181152D01*
X218029Y181101D01*
X218091Y181044D01*
X218145Y180979D01*
X218194Y180947D01*
X218237Y180907D01*
X218312Y180868D01*
X218344Y180847D01*
X218280Y180818D01*
X218235Y180780D01*
X218185Y180750D01*
X218127Y180689D01*
X218063Y180634D01*
X218031Y180586D01*
X217991Y180543D01*
X217952Y180468D01*
X217905Y180398D01*
X217888Y180342D01*
X217861Y180290D01*
X217850Y180222D01*
X217820Y180127D01*
X217817Y180027D01*
X217806Y179959D01*
X217806Y171704D01*
X217814Y171646D01*
X217812Y171588D01*
X217834Y171506D01*
X217846Y171422D01*
X217869Y171369D01*
X217884Y171313D01*
X217927Y171240D01*
X217962Y171163D01*
X218000Y171118D01*
X218029Y171068D01*
X218091Y171010D01*
X218145Y170946D01*
X218194Y170914D01*
X218237Y170874D01*
X218312Y170835D01*
X218382Y170788D01*
X218438Y170771D01*
X218490Y170744D01*
X218558Y170733D01*
X218653Y170703D01*
X218753Y170700D01*
X218821Y170689D01*
X220599Y170689D01*
X220657Y170697D01*
X220715Y170695D01*
X220797Y170717D01*
X220881Y170729D01*
X220934Y170752D01*
X220990Y170767D01*
X221063Y170810D01*
X221140Y170845D01*
X221185Y170883D01*
X221235Y170912D01*
X221293Y170974D01*
X221357Y171028D01*
X221389Y171077D01*
X221429Y171120D01*
X221468Y171195D01*
X221515Y171265D01*
X221532Y171321D01*
X221559Y171373D01*
X221570Y171441D01*
X221600Y171536D01*
X221603Y171636D01*
X221614Y171704D01*
X221614Y178944D01*
X225045Y178944D01*
X225045Y172925D01*
X224800Y172335D01*
X224767Y172285D01*
X224699Y172195D01*
X224689Y172167D01*
X224673Y172143D01*
X224638Y172035D01*
X224598Y171929D01*
X224596Y171900D01*
X224587Y171872D01*
X224584Y171759D01*
X224574Y171646D01*
X224580Y171617D01*
X224579Y171588D01*
X224608Y171478D01*
X224630Y171367D01*
X224644Y171341D01*
X224651Y171313D01*
X224709Y171216D01*
X224761Y171115D01*
X224782Y171093D01*
X224797Y171068D01*
X224879Y170991D01*
X224957Y170909D01*
X224982Y170894D01*
X225004Y170874D01*
X225105Y170822D01*
X225202Y170765D01*
X225231Y170758D01*
X225257Y170744D01*
X225334Y170731D01*
X225478Y170695D01*
X225540Y170697D01*
X225588Y170689D01*
X251214Y170689D01*
X251243Y170693D01*
X251272Y170690D01*
X251383Y170713D01*
X251495Y170729D01*
X251522Y170741D01*
X251551Y170746D01*
X251651Y170798D01*
X251754Y170845D01*
X251777Y170864D01*
X251803Y170877D01*
X251885Y170955D01*
X251971Y171028D01*
X251988Y171053D01*
X252009Y171073D01*
X252066Y171171D01*
X252129Y171265D01*
X252138Y171293D01*
X252153Y171318D01*
X252181Y171428D01*
X252215Y171536D01*
X252216Y171565D01*
X252223Y171594D01*
X252219Y171707D01*
X252222Y171820D01*
X252215Y171849D01*
X252214Y171878D01*
X252179Y171986D01*
X252150Y172095D01*
X252135Y172121D01*
X252126Y172149D01*
X252081Y172212D01*
X252005Y172340D01*
X251967Y172375D01*
X251967Y189310D01*
X253158Y190501D01*
X262462Y190501D01*
X263653Y189310D01*
X263653Y172386D01*
X262375Y171108D01*
X262340Y171062D01*
X262297Y171021D01*
X262255Y170949D01*
X262204Y170881D01*
X262183Y170826D01*
X262154Y170776D01*
X262133Y170694D01*
X262103Y170615D01*
X262098Y170557D01*
X262084Y170501D01*
X262086Y170416D01*
X262079Y170332D01*
X262091Y170275D01*
X262093Y170216D01*
X262119Y170136D01*
X262135Y170053D01*
X262162Y170002D01*
X262180Y169946D01*
X262220Y169890D01*
X262266Y169801D01*
X262335Y169729D01*
X262375Y169673D01*
X263145Y168903D01*
X263145Y148336D01*
X263153Y148278D01*
X263151Y148220D01*
X263173Y148138D01*
X263185Y148054D01*
X263208Y148001D01*
X263223Y147945D01*
X263266Y147872D01*
X263301Y147795D01*
X263339Y147750D01*
X263368Y147700D01*
X263430Y147642D01*
X263484Y147578D01*
X263533Y147546D01*
X263576Y147506D01*
X263651Y147467D01*
X263721Y147420D01*
X263777Y147403D01*
X263829Y147376D01*
X263897Y147365D01*
X263992Y147335D01*
X264092Y147332D01*
X264160Y147321D01*
X273551Y147321D01*
X275337Y145535D01*
X275337Y134881D01*
X273338Y132883D01*
X273286Y132813D01*
X273226Y132749D01*
X273200Y132700D01*
X273167Y132655D01*
X273136Y132574D01*
X273096Y132496D01*
X273088Y132448D01*
X273066Y132390D01*
X273054Y132242D01*
X273041Y132165D01*
X273041Y131786D01*
X272780Y131525D01*
X272728Y131456D01*
X272668Y131392D01*
X272642Y131342D01*
X272609Y131298D01*
X272578Y131216D01*
X272575Y131210D01*
X272528Y131195D01*
X272489Y131167D01*
X272432Y131141D01*
X272319Y131045D01*
X272255Y131000D01*
X271787Y130532D01*
X271769Y130508D01*
X271747Y130489D01*
X271684Y130395D01*
X271616Y130305D01*
X271605Y130277D01*
X271589Y130253D01*
X271555Y130145D01*
X271514Y130039D01*
X271512Y130010D01*
X271503Y129982D01*
X271500Y129869D01*
X271491Y129756D01*
X271497Y129727D01*
X271496Y129698D01*
X271524Y129588D01*
X271547Y129477D01*
X271560Y129451D01*
X271568Y129423D01*
X271625Y129325D01*
X271678Y129225D01*
X271698Y129203D01*
X271713Y129178D01*
X271796Y129101D01*
X271874Y129019D01*
X271899Y129004D01*
X271920Y128984D01*
X272021Y128932D01*
X272119Y128875D01*
X272147Y128868D01*
X272173Y128854D01*
X272251Y128841D01*
X272394Y128805D01*
X272457Y128807D01*
X272483Y128802D01*
X272483Y127245D01*
X272332Y126881D01*
X272310Y126796D01*
X272279Y126714D01*
X272275Y126659D01*
X272261Y126605D01*
X272263Y126518D01*
X272256Y126431D01*
X272267Y126384D01*
X272269Y126321D01*
X272314Y126180D01*
X272332Y126103D01*
X272483Y125739D01*
X272483Y124182D01*
X272475Y124181D01*
X272446Y124184D01*
X272335Y124161D01*
X272223Y124145D01*
X272196Y124133D01*
X272167Y124128D01*
X272067Y124075D01*
X271964Y124029D01*
X271941Y124010D01*
X271915Y123997D01*
X271833Y123919D01*
X271747Y123846D01*
X271730Y123821D01*
X271709Y123801D01*
X271652Y123703D01*
X271589Y123609D01*
X271580Y123581D01*
X271565Y123556D01*
X271537Y123446D01*
X271503Y123338D01*
X271502Y123308D01*
X271495Y123280D01*
X271499Y123167D01*
X271496Y123054D01*
X271503Y123025D01*
X271504Y122996D01*
X271539Y122888D01*
X271568Y122779D01*
X271583Y122753D01*
X271592Y122725D01*
X271637Y122661D01*
X271713Y122534D01*
X271759Y122491D01*
X271787Y122452D01*
X272255Y121984D01*
X272325Y121931D01*
X272388Y121872D01*
X272438Y121846D01*
X272482Y121813D01*
X272564Y121782D01*
X272570Y121779D01*
X272585Y121732D01*
X272613Y121693D01*
X272639Y121636D01*
X272691Y121574D01*
X272717Y121530D01*
X272754Y121496D01*
X272780Y121459D01*
X273041Y121198D01*
X273041Y120819D01*
X273053Y120733D01*
X273056Y120645D01*
X273073Y120593D01*
X273081Y120538D01*
X273116Y120458D01*
X273143Y120375D01*
X273171Y120336D01*
X273197Y120278D01*
X273293Y120165D01*
X273338Y120101D01*
X275337Y118103D01*
X275337Y107449D01*
X273551Y105663D01*
X264160Y105663D01*
X264102Y105655D01*
X264044Y105657D01*
X263962Y105635D01*
X263878Y105623D01*
X263825Y105600D01*
X263769Y105585D01*
X263696Y105542D01*
X263619Y105507D01*
X263574Y105469D01*
X263524Y105440D01*
X263466Y105378D01*
X263402Y105324D01*
X263370Y105275D01*
X263330Y105232D01*
X263291Y105157D01*
X263244Y105087D01*
X263227Y105031D01*
X263200Y104979D01*
X263189Y104911D01*
X263159Y104816D01*
X263156Y104716D01*
X263145Y104648D01*
X263145Y98305D01*
X262375Y97535D01*
X262340Y97489D01*
X262297Y97448D01*
X262255Y97376D01*
X262204Y97308D01*
X262183Y97254D01*
X262154Y97203D01*
X262133Y97122D01*
X262103Y97043D01*
X262098Y96984D01*
X262084Y96928D01*
X262086Y96843D01*
X262079Y96759D01*
X262091Y96702D01*
X262093Y96644D01*
X262119Y96563D01*
X262135Y96481D01*
X262162Y96429D01*
X262180Y96373D01*
X262220Y96317D01*
X262266Y96228D01*
X262322Y96169D01*
X262334Y96149D01*
X262351Y96133D01*
X262375Y96100D01*
X263653Y94822D01*
X263653Y77898D01*
X262462Y76707D01*
X253158Y76707D01*
X251967Y77898D01*
X251967Y94825D01*
X251971Y94829D01*
X252034Y94923D01*
X252102Y95013D01*
X252113Y95041D01*
X252129Y95065D01*
X252163Y95173D01*
X252204Y95279D01*
X252206Y95308D01*
X252215Y95336D01*
X252218Y95449D01*
X252227Y95562D01*
X252221Y95591D01*
X252222Y95620D01*
X252194Y95730D01*
X252171Y95841D01*
X252158Y95867D01*
X252150Y95895D01*
X252093Y95993D01*
X252040Y96093D01*
X252020Y96115D01*
X252005Y96140D01*
X251922Y96217D01*
X251844Y96299D01*
X251819Y96314D01*
X251798Y96334D01*
X251697Y96386D01*
X251599Y96443D01*
X251571Y96450D01*
X251545Y96464D01*
X251467Y96477D01*
X251324Y96513D01*
X251261Y96511D01*
X251214Y96519D01*
X225588Y96519D01*
X225559Y96515D01*
X225530Y96518D01*
X225419Y96495D01*
X225307Y96479D01*
X225280Y96467D01*
X225251Y96462D01*
X225150Y96409D01*
X225047Y96363D01*
X225025Y96344D01*
X224999Y96331D01*
X224917Y96253D01*
X224830Y96180D01*
X224814Y96155D01*
X224793Y96135D01*
X224735Y96037D01*
X224673Y95943D01*
X224664Y95915D01*
X224649Y95889D01*
X224621Y95780D01*
X224587Y95672D01*
X224586Y95642D01*
X224579Y95614D01*
X224582Y95501D01*
X224579Y95388D01*
X224587Y95359D01*
X224588Y95330D01*
X224623Y95222D01*
X224651Y95113D01*
X224666Y95087D01*
X224675Y95059D01*
X224721Y94995D01*
X224797Y94868D01*
X224806Y94859D01*
X225045Y94283D01*
X225045Y88264D01*
X220599Y88264D01*
X220541Y88256D01*
X220483Y88258D01*
X220401Y88236D01*
X220318Y88224D01*
X220264Y88201D01*
X220208Y88186D01*
X220135Y88143D01*
X220058Y88108D01*
X220014Y88070D01*
X219963Y88041D01*
X219906Y87979D01*
X219841Y87925D01*
X219809Y87876D01*
X219769Y87833D01*
X219730Y87758D01*
X219709Y87726D01*
X219680Y87790D01*
X219642Y87835D01*
X219612Y87885D01*
X219551Y87943D01*
X219496Y88007D01*
X219448Y88039D01*
X219405Y88079D01*
X219330Y88118D01*
X219260Y88165D01*
X219204Y88182D01*
X219152Y88209D01*
X219084Y88220D01*
X218989Y88250D01*
X218889Y88253D01*
X218821Y88264D01*
X214375Y88264D01*
X214375Y93278D01*
X214367Y93336D01*
X214369Y93394D01*
X214347Y93476D01*
X214335Y93560D01*
X214312Y93613D01*
X214297Y93669D01*
X214254Y93742D01*
X214219Y93819D01*
X214181Y93864D01*
X214152Y93914D01*
X214090Y93972D01*
X214036Y94036D01*
X213987Y94068D01*
X213944Y94108D01*
X213869Y94147D01*
X213799Y94194D01*
X213743Y94211D01*
X213691Y94238D01*
X213623Y94249D01*
X213593Y94259D01*
X213593Y94272D01*
X213589Y94301D01*
X213592Y94330D01*
X213569Y94441D01*
X213553Y94553D01*
X213541Y94580D01*
X213536Y94609D01*
X213484Y94709D01*
X213437Y94812D01*
X213418Y94835D01*
X213405Y94861D01*
X213327Y94943D01*
X213254Y95029D01*
X213229Y95046D01*
X213209Y95067D01*
X213111Y95124D01*
X213017Y95187D01*
X212989Y95196D01*
X212964Y95211D01*
X212854Y95239D01*
X212746Y95273D01*
X212716Y95274D01*
X212688Y95281D01*
X212575Y95277D01*
X212462Y95280D01*
X212433Y95273D01*
X212404Y95272D01*
X212296Y95237D01*
X212187Y95208D01*
X212161Y95193D01*
X212133Y95184D01*
X212070Y95139D01*
X211942Y95063D01*
X211899Y95017D01*
X211860Y94989D01*
X211392Y94521D01*
X211340Y94452D01*
X211280Y94388D01*
X211254Y94338D01*
X211221Y94294D01*
X211190Y94212D01*
X211187Y94206D01*
X211140Y94191D01*
X211101Y94163D01*
X211044Y94137D01*
X210930Y94041D01*
X210867Y93996D01*
X210606Y93735D01*
X206248Y93735D01*
X206190Y93727D01*
X206132Y93729D01*
X206050Y93707D01*
X205966Y93695D01*
X205913Y93672D01*
X205857Y93657D01*
X205784Y93614D01*
X205707Y93579D01*
X205662Y93541D01*
X205612Y93512D01*
X205554Y93450D01*
X205490Y93396D01*
X205458Y93347D01*
X205418Y93304D01*
X205379Y93229D01*
X205332Y93159D01*
X205315Y93103D01*
X205288Y93051D01*
X205277Y92983D01*
X205247Y92888D01*
X205244Y92788D01*
X205233Y92720D01*
X205233Y83065D01*
X198367Y76199D01*
X190460Y76199D01*
X190402Y76191D01*
X190344Y76193D01*
X190262Y76171D01*
X190178Y76159D01*
X190125Y76136D01*
X190069Y76121D01*
X189996Y76078D01*
X189919Y76043D01*
X189874Y76005D01*
X189824Y75976D01*
X189766Y75914D01*
X189702Y75860D01*
X189670Y75811D01*
X189630Y75768D01*
X189591Y75693D01*
X189544Y75623D01*
X189527Y75567D01*
X189500Y75515D01*
X189489Y75447D01*
X189459Y75352D01*
X189456Y75252D01*
X189445Y75184D01*
X189445Y74656D01*
X189274Y74485D01*
X189222Y74416D01*
X189162Y74352D01*
X189136Y74302D01*
X189103Y74258D01*
X189072Y74176D01*
X189032Y74099D01*
X189024Y74051D01*
X189002Y73993D01*
X188990Y73845D01*
X188977Y73767D01*
X188977Y71468D01*
X188354Y70846D01*
X188302Y70776D01*
X188242Y70712D01*
X188216Y70663D01*
X188183Y70619D01*
X188152Y70537D01*
X188112Y70459D01*
X188104Y70411D01*
X188082Y70353D01*
X188070Y70205D01*
X188057Y70128D01*
X188057Y69026D01*
X187656Y68057D01*
X187655Y68056D01*
X187654Y68054D01*
X187617Y67908D01*
X187585Y67782D01*
X187585Y67781D01*
X187584Y67779D01*
X187589Y67633D01*
X187593Y67498D01*
X187593Y67496D01*
X187593Y67495D01*
X187638Y67357D01*
X187679Y67227D01*
X187680Y67226D01*
X187681Y67224D01*
X187690Y67211D01*
X187838Y66991D01*
X187861Y66971D01*
X187876Y66951D01*
X188025Y66802D01*
X188025Y55118D01*
X186827Y53920D01*
X186746Y53899D01*
X186662Y53887D01*
X186609Y53864D01*
X186553Y53849D01*
X186480Y53806D01*
X186403Y53771D01*
X186358Y53733D01*
X186308Y53704D01*
X186250Y53642D01*
X186186Y53588D01*
X186154Y53539D01*
X186114Y53496D01*
X186075Y53421D01*
X186028Y53351D01*
X186011Y53295D01*
X185984Y53243D01*
X185973Y53175D01*
X185943Y53080D01*
X185940Y52980D01*
X185929Y52912D01*
X185929Y46068D01*
X177358Y37498D01*
X177306Y37428D01*
X177246Y37364D01*
X177220Y37315D01*
X177187Y37270D01*
X177156Y37189D01*
X177116Y37111D01*
X177108Y37063D01*
X177086Y37005D01*
X177074Y36857D01*
X177061Y36780D01*
X177061Y25862D01*
X175870Y24671D01*
X174092Y24671D01*
X174034Y24663D01*
X173976Y24665D01*
X173894Y24643D01*
X173810Y24631D01*
X173757Y24608D01*
X173701Y24593D01*
X173628Y24550D01*
X173551Y24515D01*
X173506Y24477D01*
X173456Y24448D01*
X173398Y24386D01*
X173334Y24332D01*
X173302Y24283D01*
X173262Y24240D01*
X173223Y24165D01*
X173176Y24095D01*
X173159Y24039D01*
X173132Y23987D01*
X173121Y23919D01*
X173091Y23824D01*
X173088Y23724D01*
X173077Y23656D01*
X173077Y21445D01*
X170438Y18807D01*
X170386Y18737D01*
X170326Y18673D01*
X170300Y18624D01*
X170267Y18579D01*
X170236Y18498D01*
X170196Y18420D01*
X170188Y18372D01*
X170166Y18314D01*
X170154Y18166D01*
X170141Y18089D01*
X170141Y13696D01*
X168950Y12505D01*
X164340Y12505D01*
X164254Y12493D01*
X164166Y12490D01*
X164114Y12473D01*
X164059Y12465D01*
X164036Y12455D01*
X157186Y12455D01*
X156925Y12716D01*
X156856Y12768D01*
X156792Y12828D01*
X156742Y12854D01*
X156698Y12887D01*
X156616Y12918D01*
X156613Y12920D01*
X156607Y12930D01*
X156595Y12968D01*
X156567Y13007D01*
X156541Y13064D01*
X156494Y13120D01*
X156474Y13155D01*
X156438Y13188D01*
X156400Y13241D01*
X155932Y13709D01*
X155908Y13727D01*
X155889Y13749D01*
X155795Y13812D01*
X155705Y13880D01*
X155677Y13891D01*
X155653Y13907D01*
X155545Y13941D01*
X155439Y13982D01*
X155410Y13984D01*
X155382Y13993D01*
X155269Y13996D01*
X155156Y14005D01*
X155127Y13999D01*
X155098Y14000D01*
X154988Y13972D01*
X154877Y13949D01*
X154851Y13936D01*
X154823Y13928D01*
X154725Y13871D01*
X154625Y13818D01*
X154603Y13798D01*
X154578Y13783D01*
X154501Y13700D01*
X154419Y13622D01*
X154404Y13597D01*
X154384Y13576D01*
X154332Y13475D01*
X154275Y13377D01*
X154268Y13349D01*
X154254Y13323D01*
X154241Y13245D01*
X154205Y13102D01*
X154207Y13039D01*
X154202Y13013D01*
X152645Y13013D01*
X152084Y13245D01*
X151655Y13674D01*
X151423Y14235D01*
X151423Y17039D01*
X154980Y17039D01*
X155038Y17047D01*
X155096Y17045D01*
X155178Y17067D01*
X155262Y17079D01*
X155315Y17102D01*
X155371Y17117D01*
X155444Y17160D01*
X155521Y17195D01*
X155566Y17233D01*
X155616Y17262D01*
X155674Y17324D01*
X155738Y17378D01*
X155770Y17427D01*
X155810Y17470D01*
X155849Y17545D01*
X155896Y17615D01*
X155913Y17671D01*
X155940Y17723D01*
X155951Y17791D01*
X155981Y17886D01*
X155984Y17986D01*
X155995Y18054D01*
X155995Y18522D01*
X155987Y18580D01*
X155989Y18638D01*
X155967Y18720D01*
X155955Y18804D01*
X155932Y18857D01*
X155917Y18913D01*
X155874Y18986D01*
X155839Y19063D01*
X155801Y19108D01*
X155772Y19158D01*
X155710Y19216D01*
X155656Y19280D01*
X155607Y19312D01*
X155564Y19352D01*
X155489Y19391D01*
X155419Y19438D01*
X155363Y19455D01*
X155311Y19482D01*
X155243Y19493D01*
X155148Y19523D01*
X155048Y19526D01*
X154980Y19537D01*
X151423Y19537D01*
X151423Y22341D01*
X151655Y22902D01*
X152084Y23331D01*
X152432Y23475D01*
X152434Y23476D01*
X152435Y23476D01*
X152551Y23545D01*
X152677Y23619D01*
X152678Y23620D01*
X152680Y23621D01*
X152776Y23724D01*
X152872Y23826D01*
X152873Y23827D01*
X152874Y23829D01*
X152938Y23953D01*
X153003Y24079D01*
X153003Y24080D01*
X153004Y24082D01*
X153006Y24097D01*
X153058Y24358D01*
X153055Y24388D01*
X153059Y24413D01*
X153059Y31673D01*
X157553Y31673D01*
X157553Y26401D01*
X157317Y25830D01*
X157294Y25811D01*
X157231Y25717D01*
X157163Y25627D01*
X157153Y25599D01*
X157137Y25575D01*
X157102Y25467D01*
X157062Y25361D01*
X157060Y25332D01*
X157051Y25304D01*
X157048Y25191D01*
X157038Y25078D01*
X157044Y25049D01*
X157043Y25020D01*
X157072Y24910D01*
X157094Y24799D01*
X157108Y24773D01*
X157115Y24745D01*
X157173Y24648D01*
X157225Y24547D01*
X157246Y24525D01*
X157261Y24500D01*
X157343Y24423D01*
X157421Y24341D01*
X157446Y24326D01*
X157468Y24306D01*
X157569Y24254D01*
X157666Y24197D01*
X157695Y24190D01*
X157721Y24176D01*
X157798Y24163D01*
X157942Y24127D01*
X158004Y24129D01*
X158052Y24121D01*
X162286Y24121D01*
X162315Y24125D01*
X162344Y24122D01*
X162455Y24145D01*
X162567Y24161D01*
X162594Y24173D01*
X162623Y24178D01*
X162723Y24230D01*
X162826Y24277D01*
X162849Y24296D01*
X162875Y24309D01*
X162957Y24387D01*
X163043Y24460D01*
X163060Y24485D01*
X163081Y24505D01*
X163138Y24603D01*
X163201Y24697D01*
X163210Y24725D01*
X163225Y24750D01*
X163253Y24860D01*
X163287Y24968D01*
X163288Y24997D01*
X163295Y25026D01*
X163291Y25139D01*
X163294Y25252D01*
X163287Y25281D01*
X163286Y25310D01*
X163251Y25418D01*
X163222Y25527D01*
X163207Y25553D01*
X163198Y25581D01*
X163153Y25644D01*
X163077Y25772D01*
X163031Y25815D01*
X163003Y25854D01*
X162995Y25862D01*
X162995Y41546D01*
X164186Y42737D01*
X170680Y42737D01*
X170766Y42749D01*
X170854Y42752D01*
X170906Y42769D01*
X170961Y42777D01*
X171041Y42812D01*
X171124Y42839D01*
X171164Y42867D01*
X171221Y42893D01*
X171334Y42989D01*
X171398Y43034D01*
X177502Y49138D01*
X177554Y49208D01*
X177614Y49272D01*
X177640Y49321D01*
X177673Y49366D01*
X177704Y49447D01*
X177744Y49525D01*
X177752Y49573D01*
X177774Y49631D01*
X177786Y49779D01*
X177799Y49856D01*
X177799Y52912D01*
X177791Y52970D01*
X177793Y53028D01*
X177771Y53110D01*
X177759Y53194D01*
X177736Y53247D01*
X177721Y53303D01*
X177678Y53376D01*
X177643Y53453D01*
X177605Y53498D01*
X177576Y53548D01*
X177514Y53606D01*
X177460Y53670D01*
X177411Y53702D01*
X177368Y53742D01*
X177300Y53777D01*
X175959Y55118D01*
X175959Y66802D01*
X176108Y66951D01*
X176109Y66952D01*
X176111Y66953D01*
X176195Y67067D01*
X176279Y67178D01*
X176280Y67180D01*
X176281Y67181D01*
X176330Y67311D01*
X176380Y67444D01*
X176381Y67445D01*
X176381Y67447D01*
X176391Y67575D01*
X176404Y67727D01*
X176404Y67729D01*
X176404Y67730D01*
X176400Y67745D01*
X176348Y68006D01*
X176334Y68033D01*
X176328Y68057D01*
X175927Y69026D01*
X175927Y71438D01*
X176396Y72569D01*
X176424Y72681D01*
X176459Y72790D01*
X176460Y72818D01*
X176467Y72845D01*
X176463Y72959D01*
X176466Y73074D01*
X176459Y73101D01*
X176459Y73129D01*
X176424Y73238D01*
X176395Y73349D01*
X176380Y73373D01*
X176372Y73400D01*
X176308Y73495D01*
X176249Y73594D01*
X176229Y73613D01*
X176214Y73636D01*
X176126Y73710D01*
X176042Y73788D01*
X176017Y73801D01*
X175996Y73819D01*
X175924Y73851D01*
X175899Y73928D01*
X175871Y73967D01*
X175845Y74024D01*
X175749Y74137D01*
X175704Y74201D01*
X175236Y74669D01*
X175212Y74687D01*
X175193Y74709D01*
X175099Y74772D01*
X175009Y74840D01*
X174981Y74851D01*
X174957Y74867D01*
X174849Y74901D01*
X174743Y74942D01*
X174714Y74944D01*
X174686Y74953D01*
X174573Y74956D01*
X174460Y74965D01*
X174431Y74959D01*
X174402Y74960D01*
X174292Y74932D01*
X174181Y74909D01*
X174155Y74896D01*
X174127Y74888D01*
X174029Y74830D01*
X173929Y74778D01*
X173907Y74758D01*
X173882Y74743D01*
X173805Y74660D01*
X173723Y74582D01*
X173708Y74557D01*
X173688Y74536D01*
X173636Y74435D01*
X173579Y74337D01*
X173572Y74309D01*
X173558Y74283D01*
X173545Y74205D01*
X173509Y74062D01*
X173511Y73999D01*
X173506Y73973D01*
X171949Y73973D01*
X171388Y74205D01*
X170959Y74634D01*
X170727Y75195D01*
X170727Y77999D01*
X174284Y77999D01*
X174342Y78007D01*
X174400Y78005D01*
X174482Y78027D01*
X174566Y78039D01*
X174619Y78062D01*
X174675Y78077D01*
X174748Y78120D01*
X174825Y78155D01*
X174870Y78193D01*
X174920Y78222D01*
X174978Y78284D01*
X175042Y78338D01*
X175074Y78387D01*
X175114Y78430D01*
X175153Y78505D01*
X175200Y78575D01*
X175217Y78631D01*
X175244Y78683D01*
X175255Y78751D01*
X175285Y78846D01*
X175288Y78946D01*
X175299Y79014D01*
X175299Y79482D01*
X175291Y79540D01*
X175293Y79598D01*
X175271Y79680D01*
X175259Y79764D01*
X175236Y79817D01*
X175221Y79873D01*
X175178Y79946D01*
X175143Y80023D01*
X175105Y80068D01*
X175076Y80118D01*
X175014Y80176D01*
X174960Y80240D01*
X174911Y80272D01*
X174868Y80312D01*
X174793Y80351D01*
X174723Y80398D01*
X174667Y80415D01*
X174615Y80442D01*
X174547Y80453D01*
X174452Y80483D01*
X174352Y80486D01*
X174284Y80497D01*
X170727Y80497D01*
X170727Y83301D01*
X170959Y83862D01*
X171388Y84291D01*
X171949Y84523D01*
X173506Y84523D01*
X173507Y84515D01*
X173504Y84486D01*
X173527Y84375D01*
X173543Y84263D01*
X173554Y84236D01*
X173560Y84207D01*
X173613Y84107D01*
X173659Y84004D01*
X173678Y83981D01*
X173691Y83955D01*
X173769Y83873D01*
X173842Y83787D01*
X173867Y83770D01*
X173887Y83749D01*
X173985Y83692D01*
X174079Y83629D01*
X174107Y83620D01*
X174132Y83605D01*
X174242Y83577D01*
X174350Y83543D01*
X174380Y83542D01*
X174408Y83535D01*
X174521Y83539D01*
X174634Y83536D01*
X174663Y83543D01*
X174692Y83544D01*
X174800Y83579D01*
X174909Y83608D01*
X174934Y83623D01*
X174963Y83632D01*
X175026Y83677D01*
X175154Y83753D01*
X175197Y83799D01*
X175236Y83827D01*
X175704Y84295D01*
X175757Y84365D01*
X175816Y84428D01*
X175842Y84478D01*
X175875Y84522D01*
X175906Y84604D01*
X175909Y84610D01*
X175956Y84625D01*
X175995Y84653D01*
X176052Y84679D01*
X176166Y84775D01*
X176229Y84820D01*
X176490Y85081D01*
X180848Y85081D01*
X180906Y85089D01*
X180964Y85087D01*
X181046Y85109D01*
X181130Y85121D01*
X181183Y85144D01*
X181239Y85159D01*
X181312Y85202D01*
X181389Y85237D01*
X181434Y85275D01*
X181484Y85304D01*
X181542Y85366D01*
X181606Y85420D01*
X181638Y85469D01*
X181678Y85512D01*
X181717Y85587D01*
X181764Y85657D01*
X181781Y85713D01*
X181808Y85765D01*
X181819Y85833D01*
X181849Y85928D01*
X181852Y86028D01*
X181863Y86096D01*
X181863Y90924D01*
X181855Y90982D01*
X181857Y91040D01*
X181835Y91122D01*
X181823Y91206D01*
X181800Y91259D01*
X181785Y91315D01*
X181742Y91388D01*
X181707Y91465D01*
X181669Y91510D01*
X181640Y91560D01*
X181578Y91618D01*
X181524Y91682D01*
X181475Y91714D01*
X181432Y91754D01*
X181357Y91793D01*
X181287Y91840D01*
X181231Y91857D01*
X181179Y91884D01*
X181111Y91895D01*
X181016Y91925D01*
X180916Y91928D01*
X180848Y91939D01*
X180835Y91939D01*
X180835Y99464D01*
X180835Y106989D01*
X180848Y106989D01*
X180906Y106997D01*
X180964Y106995D01*
X181046Y107017D01*
X181130Y107029D01*
X181183Y107052D01*
X181239Y107067D01*
X181312Y107110D01*
X181389Y107145D01*
X181434Y107183D01*
X181484Y107212D01*
X181542Y107274D01*
X181606Y107328D01*
X181638Y107377D01*
X181678Y107420D01*
X181717Y107495D01*
X181764Y107565D01*
X181781Y107621D01*
X181808Y107673D01*
X181819Y107741D01*
X181849Y107836D01*
X181852Y107936D01*
X181863Y108004D01*
X181863Y122864D01*
X181851Y122950D01*
X181848Y123038D01*
X181831Y123090D01*
X181823Y123145D01*
X181788Y123225D01*
X181761Y123308D01*
X181733Y123348D01*
X181707Y123405D01*
X181611Y123518D01*
X181566Y123582D01*
X177502Y127646D01*
X177470Y127678D01*
X177460Y127685D01*
X177460Y127686D01*
X177457Y127687D01*
X177446Y127695D01*
X177427Y127718D01*
X177333Y127781D01*
X177243Y127849D01*
X177215Y127859D01*
X177191Y127875D01*
X177083Y127910D01*
X176977Y127950D01*
X176948Y127952D01*
X176920Y127961D01*
X176806Y127964D01*
X176694Y127973D01*
X176665Y127968D01*
X176636Y127968D01*
X176526Y127940D01*
X176415Y127918D01*
X176389Y127904D01*
X176361Y127897D01*
X176263Y127839D01*
X176163Y127787D01*
X176141Y127766D01*
X176116Y127751D01*
X176039Y127669D01*
X175957Y127591D01*
X175942Y127565D01*
X175922Y127544D01*
X175870Y127443D01*
X175813Y127345D01*
X175806Y127317D01*
X175792Y127291D01*
X175779Y127214D01*
X175743Y127070D01*
X175745Y127007D01*
X175737Y126960D01*
X175737Y125794D01*
X174813Y123565D01*
X173107Y121859D01*
X170878Y120935D01*
X168466Y120935D01*
X166237Y121859D01*
X164531Y123565D01*
X163607Y125794D01*
X163607Y128333D01*
X163595Y128419D01*
X163592Y128507D01*
X163575Y128559D01*
X163567Y128614D01*
X163532Y128694D01*
X163505Y128777D01*
X163477Y128816D01*
X163451Y128874D01*
X163355Y128987D01*
X163310Y129051D01*
X162559Y129801D01*
X162559Y169005D01*
X162555Y169034D01*
X162558Y169063D01*
X162535Y169174D01*
X162519Y169286D01*
X162507Y169313D01*
X162502Y169342D01*
X162450Y169442D01*
X162403Y169546D01*
X162384Y169568D01*
X162371Y169594D01*
X162293Y169676D01*
X162220Y169763D01*
X162195Y169779D01*
X162175Y169800D01*
X162077Y169857D01*
X161983Y169920D01*
X161955Y169929D01*
X161930Y169944D01*
X161820Y169972D01*
X161712Y170006D01*
X161682Y170007D01*
X161654Y170014D01*
X161541Y170010D01*
X161428Y170013D01*
X161399Y170006D01*
X161370Y170005D01*
X161262Y169970D01*
X161153Y169941D01*
X161127Y169926D01*
X161099Y169917D01*
X161036Y169872D01*
X160908Y169796D01*
X160881Y169767D01*
X160876Y169764D01*
X160859Y169746D01*
X160826Y169723D01*
X160794Y169691D01*
X160742Y169621D01*
X160682Y169557D01*
X160656Y169507D01*
X160623Y169463D01*
X160592Y169382D01*
X160552Y169304D01*
X160544Y169256D01*
X160522Y169198D01*
X160510Y169050D01*
X160497Y168973D01*
X160497Y166434D01*
X159573Y164205D01*
X157867Y162499D01*
X157827Y162482D01*
X157802Y162467D01*
X157774Y162458D01*
X157680Y162395D01*
X157582Y162337D01*
X157562Y162316D01*
X157538Y162300D01*
X157465Y162213D01*
X157387Y162131D01*
X157374Y162105D01*
X157355Y162082D01*
X157309Y161978D01*
X157257Y161878D01*
X157251Y161849D01*
X157239Y161822D01*
X157224Y161710D01*
X157202Y161599D01*
X157205Y161570D01*
X157201Y161541D01*
X157217Y161428D01*
X157227Y161316D01*
X157237Y161289D01*
X157241Y161259D01*
X157288Y161156D01*
X157329Y161051D01*
X157346Y161027D01*
X157358Y161000D01*
X157432Y160914D01*
X157500Y160824D01*
X157524Y160806D01*
X157543Y160784D01*
X157609Y160742D01*
X157728Y160654D01*
X157786Y160632D01*
X157827Y160606D01*
X157867Y160589D01*
X159573Y158883D01*
X160497Y156654D01*
X160497Y154242D01*
X159573Y152013D01*
X157867Y150307D01*
X155638Y149383D01*
X153226Y149383D01*
X150997Y150307D01*
X149291Y152013D01*
X148367Y154242D01*
X148367Y156781D01*
X148355Y156867D01*
X148352Y156955D01*
X148335Y157007D01*
X148327Y157062D01*
X148292Y157142D01*
X148265Y157225D01*
X148237Y157264D01*
X148211Y157322D01*
X148115Y157435D01*
X148070Y157499D01*
X144271Y161297D01*
X144271Y174085D01*
X144259Y174171D01*
X144256Y174259D01*
X144239Y174311D01*
X144231Y174366D01*
X144196Y174446D01*
X144169Y174529D01*
X144141Y174568D01*
X144115Y174626D01*
X144019Y174739D01*
X143974Y174803D01*
X139602Y179175D01*
X139578Y179192D01*
X139559Y179215D01*
X139465Y179277D01*
X139375Y179345D01*
X139347Y179356D01*
X139323Y179372D01*
X139215Y179406D01*
X139109Y179447D01*
X139080Y179449D01*
X139052Y179458D01*
X138938Y179461D01*
X138826Y179470D01*
X138797Y179465D01*
X138768Y179465D01*
X138658Y179437D01*
X138547Y179414D01*
X138521Y179401D01*
X138493Y179393D01*
X138395Y179336D01*
X138295Y179283D01*
X138273Y179263D01*
X138248Y179248D01*
X138171Y179166D01*
X138089Y179088D01*
X138074Y179062D01*
X138054Y179041D01*
X138002Y178940D01*
X137945Y178842D01*
X137938Y178814D01*
X137924Y178788D01*
X137911Y178710D01*
X137875Y178567D01*
X137877Y178504D01*
X137869Y178457D01*
X137869Y158455D01*
X137881Y158369D01*
X137884Y158281D01*
X137901Y158229D01*
X137909Y158174D01*
X137944Y158094D01*
X137971Y158011D01*
X137999Y157972D01*
X138025Y157914D01*
X138121Y157801D01*
X138166Y157737D01*
X149353Y146551D01*
X149353Y142093D01*
X149365Y142006D01*
X149368Y141919D01*
X149385Y141866D01*
X149393Y141811D01*
X149428Y141731D01*
X149455Y141648D01*
X149483Y141609D01*
X149509Y141552D01*
X149605Y141438D01*
X149650Y141375D01*
X151445Y139579D01*
X152369Y137350D01*
X152369Y134938D01*
X151445Y132709D01*
X149739Y131003D01*
X147510Y130079D01*
X145098Y130079D01*
X142869Y131003D01*
X141163Y132709D01*
X140239Y134938D01*
X140239Y137350D01*
X141163Y139579D01*
X142958Y141375D01*
X143010Y141444D01*
X143070Y141508D01*
X143096Y141558D01*
X143129Y141602D01*
X143160Y141684D01*
X143200Y141762D01*
X143208Y141809D01*
X143230Y141868D01*
X143242Y142015D01*
X143255Y142093D01*
X143255Y143605D01*
X143243Y143691D01*
X143240Y143779D01*
X143223Y143831D01*
X143215Y143886D01*
X143180Y143966D01*
X143153Y144049D01*
X143125Y144088D01*
X143099Y144146D01*
X143003Y144259D01*
X142958Y144323D01*
X131771Y155509D01*
X131771Y204416D01*
X131763Y204472D01*
X131765Y204518D01*
X131764Y204519D01*
X131765Y204532D01*
X131743Y204614D01*
X131731Y204698D01*
X131708Y204751D01*
X131693Y204807D01*
X131650Y204880D01*
X131615Y204957D01*
X131577Y205002D01*
X131548Y205052D01*
X131486Y205110D01*
X131432Y205174D01*
X131383Y205206D01*
X131340Y205246D01*
X131265Y205285D01*
X131195Y205332D01*
X131139Y205349D01*
X131087Y205376D01*
X131019Y205387D01*
X130924Y205417D01*
X130824Y205420D01*
X130756Y205431D01*
X107478Y205431D01*
X106287Y206622D01*
X106287Y220306D01*
X106474Y220493D01*
X106526Y220562D01*
X106586Y220626D01*
X106612Y220676D01*
X106645Y220720D01*
X106676Y220802D01*
X106716Y220879D01*
X106724Y220927D01*
X106746Y220985D01*
X106758Y221133D01*
X106771Y221211D01*
X106771Y221288D01*
X106753Y221420D01*
X106733Y221565D01*
X106732Y221567D01*
X106731Y221570D01*
X106675Y221696D01*
X106618Y221825D01*
X106616Y221827D01*
X106615Y221829D01*
X106526Y221935D01*
X106435Y222043D01*
X106433Y222044D01*
X106432Y222046D01*
X106315Y222124D01*
X106199Y222202D01*
X106197Y222202D01*
X106195Y222204D01*
X106061Y222246D01*
X105929Y222289D01*
X105926Y222289D01*
X105924Y222290D01*
X105784Y222293D01*
X105645Y222298D01*
X105642Y222297D01*
X105640Y222297D01*
X105504Y222262D01*
X105369Y222227D01*
X105367Y222226D01*
X105365Y222225D01*
X105120Y222080D01*
X105102Y222061D01*
X105084Y222050D01*
X103614Y220752D01*
X103526Y220649D01*
X103437Y220548D01*
X103434Y220542D01*
X103429Y220536D01*
X103312Y220277D01*
X103308Y220256D01*
X103301Y220240D01*
X103298Y220226D01*
X102516Y219760D01*
X102427Y219689D01*
X102364Y219649D01*
X101682Y219048D01*
X101667Y219048D01*
X101532Y219038D01*
X101397Y219029D01*
X101391Y219027D01*
X101384Y219026D01*
X101118Y218926D01*
X101101Y218914D01*
X101084Y218907D01*
X67466Y198879D01*
X67361Y198795D01*
X67256Y198713D01*
X67251Y198707D01*
X67244Y198701D01*
X67081Y198468D01*
X67075Y198450D01*
X67065Y198436D01*
X67056Y198417D01*
X66207Y198108D01*
X66104Y198054D01*
X66034Y198026D01*
X65258Y197564D01*
X65237Y197569D01*
X65105Y197583D01*
X64971Y197600D01*
X64964Y197599D01*
X64955Y197600D01*
X64675Y197551D01*
X64657Y197542D01*
X64641Y197539D01*
X61026Y196225D01*
X60999Y196210D01*
X60969Y196202D01*
X60903Y196159D01*
X60892Y196153D01*
X60825Y196123D01*
X60808Y196108D01*
X60775Y196091D01*
X60729Y196046D01*
X60687Y196019D01*
X60340Y195701D01*
X59868Y195721D01*
X59838Y195719D01*
X59808Y195722D01*
X59730Y195708D01*
X59586Y195694D01*
X59526Y195670D01*
X59477Y195661D01*
X59033Y195500D01*
X58607Y195699D01*
X58577Y195708D01*
X58550Y195723D01*
X58473Y195740D01*
X58335Y195782D01*
X58270Y195783D01*
X58222Y195793D01*
X54010Y195976D01*
X53983Y195974D01*
X53957Y195977D01*
X53880Y195964D01*
X53727Y195949D01*
X53672Y195927D01*
X53626Y195919D01*
X53165Y195755D01*
X52755Y195950D01*
X52722Y195961D01*
X52691Y195978D01*
X52615Y195994D01*
X52484Y196035D01*
X52415Y196037D01*
X52363Y196048D01*
X51910Y196067D01*
X51579Y196428D01*
X51559Y196445D01*
X51542Y196466D01*
X51479Y196511D01*
X51360Y196609D01*
X51305Y196632D01*
X51267Y196659D01*
X47385Y198508D01*
X47360Y198515D01*
X47338Y198528D01*
X47263Y198546D01*
X47113Y198593D01*
X47055Y198594D01*
X47011Y198604D01*
X46518Y198635D01*
X46221Y198971D01*
X46194Y198995D01*
X46171Y199024D01*
X46107Y199069D01*
X46005Y199156D01*
X45940Y199186D01*
X45896Y199216D01*
X45492Y199409D01*
X45326Y199875D01*
X45314Y199898D01*
X45308Y199922D01*
X45267Y199988D01*
X45195Y200127D01*
X45155Y200169D01*
X45131Y200207D01*
X44132Y201339D01*
X44050Y201409D01*
X43973Y201485D01*
X43942Y201501D01*
X43916Y201524D01*
X43818Y201568D01*
X43722Y201620D01*
X43689Y201627D01*
X43657Y201641D01*
X43550Y201657D01*
X43445Y201680D01*
X43410Y201678D01*
X43376Y201683D01*
X43269Y201668D01*
X43161Y201661D01*
X43132Y201649D01*
X43094Y201644D01*
X42897Y201557D01*
X42848Y201538D01*
X26749Y191879D01*
X26741Y191872D01*
X26731Y191867D01*
X26631Y191783D01*
X26529Y191700D01*
X26522Y191691D01*
X26514Y191683D01*
X26441Y191574D01*
X26366Y191466D01*
X26362Y191456D01*
X26356Y191447D01*
X26316Y191321D01*
X26274Y191197D01*
X26274Y191186D01*
X26270Y191176D01*
X26267Y191044D01*
X26261Y190913D01*
X26263Y190903D01*
X26263Y190892D01*
X26296Y190764D01*
X26327Y190637D01*
X26332Y190627D01*
X26335Y190617D01*
X26402Y190504D01*
X26467Y190389D01*
X26475Y190382D01*
X26480Y190372D01*
X26576Y190282D01*
X26670Y190190D01*
X26680Y190185D01*
X26688Y190178D01*
X26805Y190118D01*
X26920Y190056D01*
X26931Y190053D01*
X26941Y190048D01*
X27000Y190038D01*
X27198Y189995D01*
X27239Y189998D01*
X27272Y189993D01*
X32704Y189993D01*
X32762Y190001D01*
X32820Y189999D01*
X32902Y190021D01*
X32986Y190033D01*
X33039Y190056D01*
X33095Y190071D01*
X33168Y190114D01*
X33245Y190149D01*
X33290Y190187D01*
X33340Y190216D01*
X33398Y190278D01*
X33462Y190332D01*
X33494Y190381D01*
X33534Y190424D01*
X33573Y190499D01*
X33620Y190569D01*
X33637Y190625D01*
X33664Y190677D01*
X33668Y190703D01*
X34910Y191945D01*
X44594Y191945D01*
X45785Y190754D01*
X45785Y179070D01*
X45002Y178287D01*
X44950Y178218D01*
X44890Y178154D01*
X44864Y178104D01*
X44831Y178060D01*
X44800Y177978D01*
X44760Y177901D01*
X44752Y177853D01*
X44730Y177795D01*
X44718Y177647D01*
X44705Y177569D01*
X44705Y164402D01*
X44713Y164344D01*
X44711Y164286D01*
X44733Y164204D01*
X44745Y164120D01*
X44768Y164067D01*
X44783Y164011D01*
X44826Y163938D01*
X44861Y163861D01*
X44899Y163816D01*
X44928Y163766D01*
X44990Y163708D01*
X45044Y163644D01*
X45093Y163612D01*
X45136Y163572D01*
X45211Y163533D01*
X45281Y163486D01*
X45337Y163469D01*
X45389Y163442D01*
X45457Y163431D01*
X45552Y163401D01*
X45652Y163398D01*
X45720Y163387D01*
X50215Y163387D01*
X52757Y162334D01*
X52869Y162305D01*
X52978Y162270D01*
X53006Y162270D01*
X53033Y162263D01*
X53147Y162266D01*
X53262Y162263D01*
X53289Y162270D01*
X53317Y162271D01*
X53426Y162306D01*
X53537Y162335D01*
X53561Y162349D01*
X53588Y162357D01*
X53683Y162421D01*
X53782Y162480D01*
X53801Y162500D01*
X53824Y162516D01*
X53898Y162603D01*
X53976Y162687D01*
X53989Y162712D01*
X54007Y162733D01*
X54053Y162838D01*
X54106Y162940D01*
X54110Y162965D01*
X54122Y162993D01*
X54159Y163257D01*
X54161Y163272D01*
X54161Y163827D01*
X54154Y163880D01*
X54155Y163908D01*
X54148Y163931D01*
X54146Y164002D01*
X54129Y164054D01*
X54121Y164109D01*
X54111Y164132D01*
X54111Y171154D01*
X54114Y171169D01*
X54136Y171227D01*
X54148Y171375D01*
X54161Y171453D01*
X54161Y176062D01*
X54753Y176654D01*
X54771Y176678D01*
X54793Y176697D01*
X54856Y176791D01*
X54924Y176881D01*
X54935Y176909D01*
X54951Y176933D01*
X54985Y177041D01*
X55026Y177147D01*
X55028Y177176D01*
X55037Y177204D01*
X55040Y177318D01*
X55049Y177430D01*
X55043Y177459D01*
X55044Y177488D01*
X55015Y177598D01*
X54993Y177709D01*
X54980Y177735D01*
X54972Y177763D01*
X54914Y177861D01*
X54862Y177961D01*
X54842Y177983D01*
X54827Y178008D01*
X54744Y178085D01*
X54666Y178167D01*
X54641Y178182D01*
X54620Y178202D01*
X54519Y178254D01*
X54421Y178311D01*
X54393Y178318D01*
X54367Y178332D01*
X54289Y178345D01*
X54146Y178381D01*
X54083Y178379D01*
X54036Y178387D01*
X51449Y178387D01*
X50888Y178619D01*
X50459Y179048D01*
X50227Y179609D01*
X50227Y182913D01*
X54768Y182913D01*
X54826Y182921D01*
X54884Y182919D01*
X54966Y182941D01*
X55049Y182953D01*
X55103Y182976D01*
X55159Y182991D01*
X55232Y183034D01*
X55309Y183069D01*
X55353Y183107D01*
X55404Y183136D01*
X55461Y183198D01*
X55526Y183252D01*
X55558Y183301D01*
X55598Y183344D01*
X55637Y183419D01*
X55683Y183489D01*
X55701Y183545D01*
X55728Y183597D01*
X55739Y183665D01*
X55752Y183707D01*
X55761Y183646D01*
X55785Y183593D01*
X55799Y183537D01*
X55843Y183464D01*
X55877Y183387D01*
X55915Y183342D01*
X55945Y183292D01*
X56006Y183234D01*
X56061Y183170D01*
X56109Y183138D01*
X56152Y183098D01*
X56227Y183059D01*
X56297Y183012D01*
X56353Y182995D01*
X56405Y182968D01*
X56473Y182957D01*
X56568Y182927D01*
X56668Y182924D01*
X56736Y182913D01*
X61277Y182913D01*
X61277Y179609D01*
X61045Y179048D01*
X60982Y178986D01*
X60965Y178962D01*
X60942Y178943D01*
X60879Y178849D01*
X60811Y178759D01*
X60801Y178731D01*
X60785Y178707D01*
X60750Y178599D01*
X60710Y178493D01*
X60708Y178464D01*
X60699Y178436D01*
X60696Y178323D01*
X60686Y178210D01*
X60692Y178181D01*
X60691Y178152D01*
X60720Y178042D01*
X60742Y177931D01*
X60756Y177905D01*
X60763Y177877D01*
X60821Y177779D01*
X60873Y177679D01*
X60894Y177657D01*
X60909Y177632D01*
X60991Y177555D01*
X61069Y177473D01*
X61094Y177458D01*
X61116Y177438D01*
X61217Y177386D01*
X61314Y177329D01*
X61343Y177322D01*
X61369Y177308D01*
X61446Y177295D01*
X61590Y177259D01*
X61652Y177261D01*
X61700Y177253D01*
X63306Y177253D01*
X63364Y177261D01*
X63422Y177259D01*
X63504Y177281D01*
X63588Y177293D01*
X63641Y177316D01*
X63697Y177331D01*
X63770Y177374D01*
X63847Y177409D01*
X63892Y177447D01*
X63942Y177476D01*
X64000Y177538D01*
X64064Y177592D01*
X64096Y177641D01*
X64136Y177684D01*
X64175Y177759D01*
X64222Y177829D01*
X64239Y177885D01*
X64266Y177937D01*
X64277Y178005D01*
X64307Y178100D01*
X64310Y178200D01*
X64321Y178268D01*
X64321Y180083D01*
X64314Y180134D01*
X64315Y180152D01*
X64309Y180173D01*
X64306Y180258D01*
X64289Y180310D01*
X64281Y180365D01*
X64271Y180388D01*
X64271Y187238D01*
X64532Y187499D01*
X64584Y187568D01*
X64644Y187632D01*
X64670Y187682D01*
X64703Y187726D01*
X64734Y187808D01*
X64737Y187814D01*
X64784Y187829D01*
X64823Y187857D01*
X64880Y187883D01*
X64993Y187979D01*
X65057Y188024D01*
X65525Y188492D01*
X65543Y188516D01*
X65565Y188535D01*
X65628Y188629D01*
X65696Y188719D01*
X65707Y188747D01*
X65723Y188771D01*
X65757Y188879D01*
X65798Y188985D01*
X65800Y189014D01*
X65809Y189042D01*
X65812Y189155D01*
X65821Y189268D01*
X65815Y189297D01*
X65816Y189326D01*
X65788Y189436D01*
X65765Y189547D01*
X65752Y189573D01*
X65744Y189601D01*
X65686Y189699D01*
X65634Y189799D01*
X65614Y189821D01*
X65599Y189846D01*
X65516Y189923D01*
X65438Y190005D01*
X65413Y190020D01*
X65392Y190040D01*
X65291Y190092D01*
X65193Y190149D01*
X65165Y190156D01*
X65139Y190170D01*
X65061Y190183D01*
X64918Y190219D01*
X64855Y190217D01*
X64829Y190222D01*
X64829Y191779D01*
X65061Y192340D01*
X65490Y192769D01*
X66051Y193001D01*
X68855Y193001D01*
X68855Y189444D01*
X68863Y189386D01*
X68861Y189328D01*
X68883Y189246D01*
X68895Y189162D01*
X68918Y189109D01*
X68933Y189053D01*
X68976Y188980D01*
X69011Y188903D01*
X69049Y188858D01*
X69078Y188808D01*
X69140Y188750D01*
X69194Y188686D01*
X69243Y188654D01*
X69286Y188614D01*
X69361Y188575D01*
X69431Y188528D01*
X69487Y188511D01*
X69539Y188484D01*
X69607Y188473D01*
X69702Y188443D01*
X69802Y188440D01*
X69870Y188429D01*
X70338Y188429D01*
X70396Y188437D01*
X70454Y188435D01*
X70536Y188457D01*
X70620Y188469D01*
X70673Y188492D01*
X70729Y188507D01*
X70802Y188550D01*
X70879Y188585D01*
X70924Y188623D01*
X70974Y188652D01*
X71032Y188714D01*
X71096Y188768D01*
X71128Y188817D01*
X71168Y188860D01*
X71207Y188935D01*
X71254Y189005D01*
X71271Y189061D01*
X71298Y189113D01*
X71309Y189181D01*
X71339Y189276D01*
X71342Y189376D01*
X71353Y189444D01*
X71353Y193001D01*
X74157Y193001D01*
X74718Y192769D01*
X75147Y192340D01*
X75379Y191779D01*
X75379Y190222D01*
X75371Y190221D01*
X75342Y190224D01*
X75231Y190201D01*
X75119Y190185D01*
X75092Y190173D01*
X75063Y190168D01*
X74963Y190115D01*
X74860Y190069D01*
X74837Y190050D01*
X74811Y190037D01*
X74729Y189959D01*
X74643Y189886D01*
X74626Y189861D01*
X74605Y189841D01*
X74548Y189743D01*
X74485Y189649D01*
X74476Y189621D01*
X74461Y189596D01*
X74433Y189486D01*
X74399Y189378D01*
X74398Y189348D01*
X74391Y189320D01*
X74395Y189207D01*
X74392Y189094D01*
X74399Y189065D01*
X74400Y189036D01*
X74435Y188928D01*
X74464Y188819D01*
X74479Y188793D01*
X74488Y188765D01*
X74533Y188701D01*
X74609Y188574D01*
X74643Y188542D01*
X74647Y188537D01*
X74659Y188525D01*
X74683Y188492D01*
X75151Y188024D01*
X75221Y187971D01*
X75284Y187912D01*
X75334Y187886D01*
X75378Y187853D01*
X75460Y187822D01*
X75466Y187819D01*
X75481Y187772D01*
X75509Y187733D01*
X75535Y187676D01*
X75631Y187562D01*
X75676Y187499D01*
X75937Y187238D01*
X75937Y180382D01*
X75934Y180367D01*
X75912Y180309D01*
X75904Y180214D01*
X75901Y180203D01*
X75900Y180160D01*
X75887Y180083D01*
X75887Y176749D01*
X75899Y176663D01*
X75902Y176575D01*
X75919Y176523D01*
X75927Y176468D01*
X75962Y176388D01*
X75989Y176305D01*
X76017Y176266D01*
X76043Y176208D01*
X76139Y176095D01*
X76184Y176031D01*
X80554Y171661D01*
X80578Y171644D01*
X80597Y171621D01*
X80691Y171559D01*
X80781Y171491D01*
X80809Y171480D01*
X80833Y171464D01*
X80941Y171430D01*
X81047Y171389D01*
X81076Y171387D01*
X81104Y171378D01*
X81218Y171375D01*
X81330Y171366D01*
X81359Y171371D01*
X81388Y171371D01*
X81498Y171399D01*
X81609Y171422D01*
X81635Y171435D01*
X81663Y171443D01*
X81761Y171500D01*
X81861Y171553D01*
X81883Y171573D01*
X81908Y171588D01*
X81985Y171670D01*
X82067Y171748D01*
X82082Y171774D01*
X82102Y171795D01*
X82154Y171896D01*
X82211Y171994D01*
X82218Y172022D01*
X82232Y172048D01*
X82245Y172126D01*
X82281Y172269D01*
X82279Y172332D01*
X82287Y172379D01*
X82287Y196306D01*
X83478Y197497D01*
X97162Y197497D01*
X98353Y196306D01*
X98353Y135595D01*
X98357Y135566D01*
X98354Y135537D01*
X98377Y135426D01*
X98393Y135314D01*
X98405Y135287D01*
X98410Y135258D01*
X98463Y135158D01*
X98509Y135054D01*
X98528Y135032D01*
X98541Y135006D01*
X98619Y134924D01*
X98692Y134837D01*
X98717Y134821D01*
X98737Y134800D01*
X98835Y134743D01*
X98929Y134680D01*
X98957Y134671D01*
X98982Y134656D01*
X99092Y134628D01*
X99200Y134594D01*
X99230Y134593D01*
X99258Y134586D01*
X99371Y134590D01*
X99484Y134587D01*
X99513Y134594D01*
X99542Y134595D01*
X99650Y134630D01*
X99759Y134659D01*
X99785Y134673D01*
X99813Y134683D01*
X99877Y134728D01*
X100004Y134804D01*
X100047Y134849D01*
X100086Y134877D01*
X101302Y136093D01*
X101302Y136094D01*
X105366Y140157D01*
X105418Y140227D01*
X105478Y140291D01*
X105504Y140341D01*
X105537Y140385D01*
X105568Y140466D01*
X105608Y140544D01*
X105616Y140592D01*
X105638Y140650D01*
X105650Y140798D01*
X105663Y140875D01*
X105663Y150515D01*
X105651Y150602D01*
X105648Y150689D01*
X105631Y150742D01*
X105623Y150797D01*
X105588Y150877D01*
X105561Y150960D01*
X105533Y150999D01*
X105507Y151056D01*
X105411Y151170D01*
X105366Y151233D01*
X103571Y153029D01*
X102647Y155258D01*
X102647Y157670D01*
X103571Y159899D01*
X105277Y161605D01*
X107506Y162529D01*
X109918Y162529D01*
X112147Y161605D01*
X113853Y159899D01*
X114777Y157670D01*
X114777Y155258D01*
X113853Y153029D01*
X112058Y151233D01*
X112006Y151164D01*
X111946Y151100D01*
X111920Y151050D01*
X111887Y151006D01*
X111856Y150924D01*
X111816Y150846D01*
X111808Y150799D01*
X111786Y150740D01*
X111774Y150593D01*
X111761Y150515D01*
X111761Y137929D01*
X107645Y133814D01*
X107628Y133790D01*
X107605Y133771D01*
X107543Y133677D01*
X107475Y133587D01*
X107464Y133559D01*
X107448Y133535D01*
X107414Y133427D01*
X107373Y133321D01*
X107371Y133292D01*
X107362Y133264D01*
X107359Y133150D01*
X107350Y133038D01*
X107355Y133009D01*
X107355Y132980D01*
X107383Y132870D01*
X107406Y132759D01*
X107419Y132733D01*
X107427Y132705D01*
X107484Y132607D01*
X107537Y132507D01*
X107557Y132485D01*
X107572Y132460D01*
X107654Y132383D01*
X107732Y132301D01*
X107758Y132286D01*
X107779Y132266D01*
X107880Y132214D01*
X107978Y132157D01*
X108006Y132150D01*
X108032Y132136D01*
X108110Y132123D01*
X108253Y132087D01*
X108316Y132089D01*
X108363Y132081D01*
X112007Y132081D01*
X114090Y129998D01*
X114090Y129997D01*
X115106Y128981D01*
X115130Y128964D01*
X115149Y128941D01*
X115243Y128879D01*
X115333Y128811D01*
X115361Y128800D01*
X115385Y128784D01*
X115493Y128750D01*
X115599Y128709D01*
X115628Y128707D01*
X115656Y128698D01*
X115770Y128695D01*
X115882Y128686D01*
X115911Y128691D01*
X115940Y128691D01*
X116050Y128719D01*
X116161Y128742D01*
X116187Y128755D01*
X116215Y128763D01*
X116313Y128820D01*
X116413Y128873D01*
X116435Y128893D01*
X116460Y128908D01*
X116537Y128990D01*
X116619Y129068D01*
X116634Y129094D01*
X116654Y129115D01*
X116706Y129216D01*
X116763Y129314D01*
X116770Y129342D01*
X116784Y129368D01*
X116797Y129446D01*
X116833Y129589D01*
X116831Y129652D01*
X116839Y129699D01*
X116839Y139339D01*
X116827Y139426D01*
X116824Y139513D01*
X116807Y139566D01*
X116799Y139621D01*
X116764Y139701D01*
X116737Y139784D01*
X116709Y139823D01*
X116683Y139880D01*
X116587Y139994D01*
X116542Y140057D01*
X114747Y141853D01*
X113823Y144082D01*
X113823Y146494D01*
X114747Y148723D01*
X116453Y150429D01*
X118682Y151353D01*
X121094Y151353D01*
X123323Y150429D01*
X125029Y148723D01*
X125953Y146494D01*
X125953Y144082D01*
X125029Y141853D01*
X123234Y140057D01*
X123182Y139988D01*
X123122Y139924D01*
X123096Y139874D01*
X123063Y139830D01*
X123032Y139748D01*
X122992Y139670D01*
X122984Y139623D01*
X122962Y139564D01*
X122950Y139417D01*
X122937Y139339D01*
X122937Y114561D01*
X119838Y111462D01*
X119837Y111462D01*
X117605Y109230D01*
X117588Y109206D01*
X117565Y109187D01*
X117503Y109093D01*
X117435Y109003D01*
X117424Y108975D01*
X117408Y108951D01*
X117374Y108843D01*
X117333Y108737D01*
X117331Y108708D01*
X117322Y108680D01*
X117319Y108566D01*
X117310Y108454D01*
X117315Y108425D01*
X117315Y108396D01*
X117343Y108286D01*
X117366Y108175D01*
X117379Y108149D01*
X117387Y108121D01*
X117444Y108023D01*
X117497Y107923D01*
X117517Y107901D01*
X117532Y107876D01*
X117614Y107799D01*
X117692Y107717D01*
X117718Y107702D01*
X117739Y107682D01*
X117840Y107630D01*
X117938Y107573D01*
X117966Y107566D01*
X117992Y107552D01*
X118070Y107539D01*
X118213Y107503D01*
X118276Y107505D01*
X118323Y107497D01*
X135756Y107497D01*
X135814Y107505D01*
X135872Y107503D01*
X135954Y107525D01*
X136038Y107537D01*
X136091Y107560D01*
X136147Y107575D01*
X136220Y107618D01*
X136297Y107653D01*
X136342Y107691D01*
X136392Y107720D01*
X136450Y107782D01*
X136514Y107836D01*
X136546Y107885D01*
X136586Y107928D01*
X136625Y108003D01*
X136672Y108073D01*
X136689Y108129D01*
X136716Y108181D01*
X136727Y108249D01*
X136757Y108344D01*
X136760Y108444D01*
X136771Y108512D01*
X136771Y115157D01*
X136759Y115243D01*
X136756Y115331D01*
X136739Y115383D01*
X136731Y115438D01*
X136696Y115518D01*
X136669Y115601D01*
X136641Y115640D01*
X136615Y115698D01*
X136519Y115811D01*
X136474Y115875D01*
X128015Y124333D01*
X128015Y128163D01*
X128003Y128250D01*
X128000Y128337D01*
X127983Y128390D01*
X127975Y128445D01*
X127940Y128525D01*
X127913Y128608D01*
X127885Y128647D01*
X127859Y128704D01*
X127763Y128818D01*
X127718Y128881D01*
X125923Y130677D01*
X124999Y132906D01*
X124999Y135318D01*
X125923Y137547D01*
X127629Y139253D01*
X129858Y140177D01*
X132270Y140177D01*
X134499Y139253D01*
X136205Y137547D01*
X137129Y135318D01*
X137129Y132906D01*
X136205Y130677D01*
X134410Y128881D01*
X134358Y128812D01*
X134298Y128748D01*
X134272Y128698D01*
X134239Y128654D01*
X134208Y128572D01*
X134168Y128494D01*
X134160Y128447D01*
X134138Y128388D01*
X134126Y128241D01*
X134113Y128163D01*
X134113Y127279D01*
X134125Y127193D01*
X134128Y127105D01*
X134145Y127053D01*
X134153Y126998D01*
X134188Y126918D01*
X134215Y126835D01*
X134243Y126796D01*
X134269Y126738D01*
X134357Y126634D01*
X134374Y126606D01*
X134387Y126594D01*
X134410Y126561D01*
X142869Y118103D01*
X142869Y108512D01*
X142877Y108454D01*
X142875Y108396D01*
X142897Y108314D01*
X142909Y108230D01*
X142932Y108177D01*
X142947Y108121D01*
X142990Y108048D01*
X143025Y107971D01*
X143063Y107926D01*
X143092Y107876D01*
X143154Y107818D01*
X143208Y107754D01*
X143257Y107722D01*
X143300Y107682D01*
X143375Y107643D01*
X143445Y107596D01*
X143501Y107579D01*
X143553Y107552D01*
X143621Y107541D01*
X143716Y107511D01*
X143816Y107508D01*
X143884Y107497D01*
X162162Y107497D01*
X162373Y107286D01*
X162442Y107234D01*
X162506Y107174D01*
X162556Y107148D01*
X162600Y107115D01*
X162682Y107084D01*
X162759Y107044D01*
X162807Y107036D01*
X162865Y107014D01*
X163013Y107002D01*
X163091Y106989D01*
X163805Y106989D01*
X163805Y99464D01*
X163805Y91939D01*
X163090Y91939D01*
X163004Y91927D01*
X162916Y91924D01*
X162864Y91907D01*
X162809Y91899D01*
X162729Y91864D01*
X162646Y91837D01*
X162607Y91809D01*
X162550Y91783D01*
X162436Y91687D01*
X162373Y91642D01*
X162162Y91431D01*
X113872Y91431D01*
X113843Y91427D01*
X113813Y91430D01*
X113702Y91407D01*
X113591Y91391D01*
X113564Y91379D01*
X113535Y91373D01*
X113434Y91321D01*
X113331Y91275D01*
X113309Y91256D01*
X113282Y91242D01*
X113200Y91164D01*
X113114Y91092D01*
X113098Y91067D01*
X113076Y91046D01*
X113019Y90949D01*
X112957Y90855D01*
X112948Y90827D01*
X112933Y90801D01*
X112905Y90692D01*
X112871Y90584D01*
X112870Y90554D01*
X112863Y90525D01*
X112866Y90413D01*
X112864Y90300D01*
X112871Y90271D01*
X112872Y90241D01*
X112907Y90134D01*
X112935Y90025D01*
X112951Y89999D01*
X112960Y89971D01*
X113005Y89907D01*
X113081Y89780D01*
X113103Y89759D01*
X113105Y89756D01*
X113130Y89733D01*
X113155Y89698D01*
X113179Y89674D01*
X113248Y89621D01*
X113312Y89562D01*
X113362Y89536D01*
X113406Y89503D01*
X113488Y89472D01*
X113565Y89432D01*
X113613Y89424D01*
X113672Y89402D01*
X113819Y89390D01*
X113896Y89377D01*
X116014Y89377D01*
X118243Y88453D01*
X119949Y86747D01*
X120873Y84518D01*
X120873Y82106D01*
X119949Y79877D01*
X118243Y78171D01*
X116014Y77247D01*
X113602Y77247D01*
X111373Y78171D01*
X109667Y79877D01*
X108743Y82106D01*
X108743Y82192D01*
X108731Y82278D01*
X108728Y82365D01*
X108711Y82418D01*
X108703Y82473D01*
X108668Y82553D01*
X108641Y82636D01*
X108613Y82675D01*
X108587Y82733D01*
X108492Y82845D01*
X108446Y82909D01*
X108414Y82941D01*
X108404Y82949D01*
X108404Y82950D01*
X108401Y82952D01*
X108391Y82959D01*
X108371Y82982D01*
X108277Y83044D01*
X108187Y83112D01*
X108159Y83123D01*
X108135Y83139D01*
X108027Y83173D01*
X107922Y83214D01*
X107892Y83216D01*
X107864Y83225D01*
X107751Y83228D01*
X107638Y83237D01*
X107609Y83232D01*
X107580Y83232D01*
X107470Y83204D01*
X107359Y83182D01*
X107333Y83168D01*
X107305Y83161D01*
X107208Y83103D01*
X107107Y83051D01*
X107086Y83030D01*
X107060Y83015D01*
X106983Y82933D01*
X106901Y82855D01*
X106886Y82830D01*
X106866Y82808D01*
X106814Y82707D01*
X106757Y82610D01*
X106750Y82581D01*
X106736Y82555D01*
X106723Y82478D01*
X106687Y82334D01*
X106689Y82272D01*
X106681Y82224D01*
X106681Y76879D01*
X101187Y76879D01*
X101187Y83873D01*
X102950Y83873D01*
X102979Y83877D01*
X103008Y83874D01*
X103119Y83897D01*
X103231Y83913D01*
X103258Y83924D01*
X103287Y83930D01*
X103388Y83983D01*
X103491Y84029D01*
X103513Y84048D01*
X103539Y84061D01*
X103621Y84139D01*
X103708Y84212D01*
X103724Y84237D01*
X103745Y84257D01*
X103802Y84355D01*
X103865Y84449D01*
X103874Y84477D01*
X103889Y84502D01*
X103917Y84612D01*
X103951Y84720D01*
X103952Y84749D01*
X103959Y84778D01*
X103956Y84891D01*
X103958Y85004D01*
X103951Y85033D01*
X103950Y85062D01*
X103915Y85170D01*
X103887Y85279D01*
X103872Y85304D01*
X103863Y85333D01*
X103817Y85396D01*
X103741Y85524D01*
X103696Y85567D01*
X103668Y85606D01*
X102246Y87028D01*
X102176Y87080D01*
X102112Y87140D01*
X102063Y87166D01*
X102018Y87199D01*
X101937Y87230D01*
X101859Y87270D01*
X101811Y87278D01*
X101753Y87300D01*
X101605Y87312D01*
X101528Y87325D01*
X92314Y87325D01*
X91123Y88516D01*
X91123Y100848D01*
X91115Y100906D01*
X91117Y100962D01*
X91117Y100964D01*
X91095Y101046D01*
X91083Y101130D01*
X91060Y101183D01*
X91045Y101239D01*
X91002Y101312D01*
X90967Y101389D01*
X90929Y101434D01*
X90900Y101484D01*
X90838Y101542D01*
X90784Y101606D01*
X90735Y101638D01*
X90692Y101678D01*
X90617Y101717D01*
X90547Y101764D01*
X90491Y101781D01*
X90439Y101808D01*
X90371Y101819D01*
X90276Y101849D01*
X90176Y101852D01*
X90108Y101863D01*
X86066Y101863D01*
X85805Y102124D01*
X85736Y102176D01*
X85672Y102236D01*
X85622Y102262D01*
X85578Y102295D01*
X85496Y102326D01*
X85419Y102366D01*
X85371Y102374D01*
X85313Y102396D01*
X85165Y102408D01*
X85087Y102421D01*
X84644Y102421D01*
X84586Y102413D01*
X84528Y102415D01*
X84446Y102393D01*
X84362Y102381D01*
X84309Y102358D01*
X84253Y102343D01*
X84180Y102300D01*
X84103Y102265D01*
X84058Y102227D01*
X84008Y102198D01*
X83950Y102136D01*
X83886Y102082D01*
X83854Y102033D01*
X83814Y101990D01*
X83775Y101915D01*
X83728Y101845D01*
X83711Y101789D01*
X83684Y101737D01*
X83673Y101669D01*
X83643Y101574D01*
X83640Y101474D01*
X83629Y101406D01*
X83629Y88466D01*
X82438Y87275D01*
X68754Y87275D01*
X67563Y88466D01*
X67563Y92892D01*
X67551Y92978D01*
X67548Y93066D01*
X67531Y93118D01*
X67523Y93173D01*
X67488Y93253D01*
X67461Y93336D01*
X67433Y93376D01*
X67407Y93433D01*
X67311Y93546D01*
X67266Y93610D01*
X62991Y97884D01*
X62991Y105811D01*
X62979Y105898D01*
X62976Y105985D01*
X62959Y106038D01*
X62951Y106093D01*
X62916Y106173D01*
X62889Y106256D01*
X62861Y106295D01*
X62835Y106352D01*
X62739Y106466D01*
X62694Y106529D01*
X61915Y107309D01*
X60991Y109538D01*
X60991Y111950D01*
X61898Y114139D01*
X61906Y114169D01*
X61920Y114197D01*
X61933Y114274D01*
X61969Y114415D01*
X61967Y114479D01*
X61975Y114528D01*
X61975Y118471D01*
X61963Y118558D01*
X61960Y118646D01*
X61943Y118698D01*
X61935Y118753D01*
X61900Y118833D01*
X61873Y118916D01*
X61845Y118955D01*
X61819Y119012D01*
X61723Y119126D01*
X61678Y119189D01*
X60244Y120623D01*
X60242Y120692D01*
X60225Y120744D01*
X60217Y120799D01*
X60182Y120879D01*
X60155Y120962D01*
X60127Y121002D01*
X60101Y121059D01*
X60005Y121172D01*
X59960Y121236D01*
X57614Y123582D01*
X54792Y126404D01*
X54768Y126421D01*
X54749Y126444D01*
X54655Y126507D01*
X54565Y126575D01*
X54537Y126585D01*
X54513Y126601D01*
X54405Y126636D01*
X54299Y126676D01*
X54270Y126678D01*
X54242Y126687D01*
X54128Y126690D01*
X54016Y126699D01*
X53987Y126694D01*
X53958Y126694D01*
X53848Y126666D01*
X53737Y126644D01*
X53711Y126630D01*
X53683Y126623D01*
X53585Y126565D01*
X53485Y126513D01*
X53463Y126492D01*
X53438Y126477D01*
X53361Y126395D01*
X53279Y126317D01*
X53264Y126291D01*
X53244Y126270D01*
X53192Y126169D01*
X53135Y126071D01*
X53128Y126043D01*
X53114Y126017D01*
X53101Y125940D01*
X53065Y125796D01*
X53067Y125733D01*
X53059Y125686D01*
X53059Y124262D01*
X52782Y123986D01*
X52782Y123984D01*
X52780Y123983D01*
X52692Y123865D01*
X52612Y123758D01*
X52611Y123757D01*
X52610Y123756D01*
X52561Y123625D01*
X52510Y123493D01*
X52510Y123491D01*
X52510Y123490D01*
X52498Y123351D01*
X52487Y123210D01*
X52487Y123208D01*
X52487Y123206D01*
X52490Y123192D01*
X52543Y122931D01*
X52551Y122915D01*
X52551Y121619D01*
X44276Y121619D01*
X44218Y121611D01*
X44160Y121613D01*
X44078Y121591D01*
X43995Y121580D01*
X43941Y121556D01*
X43885Y121541D01*
X43812Y121498D01*
X43735Y121463D01*
X43691Y121426D01*
X43641Y121396D01*
X43583Y121334D01*
X43518Y121280D01*
X43486Y121231D01*
X43446Y121188D01*
X43408Y121113D01*
X43361Y121043D01*
X43343Y120987D01*
X43317Y120935D01*
X43305Y120867D01*
X43275Y120772D01*
X43272Y120672D01*
X43261Y120604D01*
X43269Y120546D01*
X43268Y120488D01*
X43268Y120487D01*
X43289Y120406D01*
X43301Y120322D01*
X43325Y120269D01*
X43340Y120212D01*
X43383Y120140D01*
X43417Y120063D01*
X43455Y120018D01*
X43485Y119968D01*
X43546Y119910D01*
X43601Y119846D01*
X43649Y119814D01*
X43692Y119773D01*
X43767Y119735D01*
X43837Y119688D01*
X43893Y119671D01*
X43945Y119644D01*
X44013Y119633D01*
X44108Y119603D01*
X44208Y119600D01*
X44276Y119589D01*
X52551Y119589D01*
X52551Y118475D01*
X52563Y118388D01*
X52566Y118301D01*
X52583Y118248D01*
X52591Y118193D01*
X52626Y118114D01*
X52653Y118030D01*
X52681Y117991D01*
X52707Y117934D01*
X52803Y117821D01*
X52848Y117757D01*
X54746Y115859D01*
X55809Y113293D01*
X55809Y109415D01*
X54746Y106849D01*
X52781Y104884D01*
X50215Y103821D01*
X45720Y103821D01*
X45662Y103813D01*
X45604Y103815D01*
X45522Y103793D01*
X45438Y103781D01*
X45385Y103758D01*
X45329Y103743D01*
X45256Y103700D01*
X45179Y103665D01*
X45134Y103627D01*
X45084Y103598D01*
X45026Y103536D01*
X44962Y103482D01*
X44930Y103433D01*
X44890Y103390D01*
X44851Y103315D01*
X44804Y103245D01*
X44787Y103189D01*
X44760Y103137D01*
X44749Y103069D01*
X44719Y102974D01*
X44716Y102874D01*
X44705Y102806D01*
X44705Y89639D01*
X44712Y89587D01*
X44711Y89562D01*
X44717Y89539D01*
X44720Y89464D01*
X44737Y89412D01*
X44745Y89357D01*
X44780Y89277D01*
X44807Y89194D01*
X44835Y89155D01*
X44861Y89098D01*
X44957Y88984D01*
X45002Y88921D01*
X45785Y88138D01*
X45785Y76454D01*
X44594Y75263D01*
X34910Y75263D01*
X33669Y76504D01*
X33656Y76535D01*
X33641Y76591D01*
X33598Y76664D01*
X33563Y76741D01*
X33525Y76786D01*
X33496Y76836D01*
X33434Y76894D01*
X33380Y76958D01*
X33331Y76990D01*
X33288Y77030D01*
X33213Y77069D01*
X33143Y77116D01*
X33087Y77133D01*
X33035Y77160D01*
X32967Y77171D01*
X32872Y77201D01*
X32772Y77204D01*
X32704Y77215D01*
X27272Y77215D01*
X27261Y77214D01*
X27250Y77215D01*
X27120Y77194D01*
X26990Y77175D01*
X26980Y77171D01*
X26969Y77169D01*
X26851Y77113D01*
X26731Y77059D01*
X26722Y77052D01*
X26713Y77047D01*
X26614Y76960D01*
X26514Y76876D01*
X26508Y76866D01*
X26500Y76859D01*
X26429Y76749D01*
X26356Y76639D01*
X26353Y76628D01*
X26347Y76619D01*
X26310Y76493D01*
X26270Y76368D01*
X26270Y76357D01*
X26267Y76346D01*
X26267Y76215D01*
X26263Y76084D01*
X26266Y76073D01*
X26266Y76062D01*
X26302Y75935D01*
X26335Y75809D01*
X26341Y75799D01*
X26344Y75789D01*
X26414Y75676D01*
X26480Y75564D01*
X26488Y75557D01*
X26494Y75547D01*
X26540Y75508D01*
X26688Y75370D01*
X26724Y75351D01*
X26749Y75329D01*
X40308Y67194D01*
X40408Y67152D01*
X40505Y67103D01*
X40539Y67097D01*
X40570Y67083D01*
X40678Y67071D01*
X40784Y67050D01*
X40818Y67054D01*
X40853Y67050D01*
X40960Y67067D01*
X41067Y67077D01*
X41099Y67090D01*
X41133Y67095D01*
X41231Y67142D01*
X41331Y67181D01*
X41355Y67201D01*
X41390Y67217D01*
X41551Y67360D01*
X41592Y67393D01*
X42591Y68525D01*
X42605Y68546D01*
X42623Y68563D01*
X42661Y68631D01*
X42747Y68762D01*
X42764Y68817D01*
X42786Y68857D01*
X42952Y69323D01*
X43356Y69516D01*
X43387Y69536D01*
X43421Y69549D01*
X43481Y69598D01*
X43593Y69673D01*
X43640Y69727D01*
X43681Y69761D01*
X43978Y70097D01*
X44471Y70128D01*
X44496Y70133D01*
X44522Y70132D01*
X44596Y70153D01*
X44750Y70185D01*
X44801Y70212D01*
X44845Y70224D01*
X48727Y72073D01*
X48750Y72088D01*
X48775Y72097D01*
X48836Y72145D01*
X48964Y72230D01*
X49003Y72276D01*
X49039Y72304D01*
X49370Y72665D01*
X49823Y72684D01*
X49858Y72691D01*
X49893Y72690D01*
X49968Y72711D01*
X50103Y72736D01*
X50165Y72767D01*
X50215Y72782D01*
X50625Y72977D01*
X51086Y72813D01*
X51112Y72808D01*
X51136Y72797D01*
X51214Y72787D01*
X51365Y72757D01*
X51424Y72761D01*
X51470Y72756D01*
X55682Y72939D01*
X55712Y72945D01*
X55744Y72943D01*
X55819Y72964D01*
X55961Y72991D01*
X56019Y73020D01*
X56067Y73033D01*
X56493Y73232D01*
X56937Y73071D01*
X56967Y73064D01*
X56995Y73052D01*
X57073Y73042D01*
X57216Y73012D01*
X57280Y73017D01*
X57328Y73011D01*
X57800Y73031D01*
X58147Y72713D01*
X58173Y72696D01*
X58194Y72673D01*
X58262Y72634D01*
X58382Y72552D01*
X58443Y72532D01*
X58486Y72507D01*
X62102Y71193D01*
X62233Y71165D01*
X62363Y71135D01*
X62371Y71136D01*
X62380Y71134D01*
X62664Y71155D01*
X62682Y71161D01*
X62698Y71163D01*
X62719Y71168D01*
X63495Y70705D01*
X63602Y70660D01*
X63668Y70623D01*
X64516Y70315D01*
X64526Y70295D01*
X64599Y70182D01*
X64670Y70069D01*
X64676Y70064D01*
X64681Y70057D01*
X64896Y69871D01*
X64914Y69863D01*
X64926Y69852D01*
X66028Y69195D01*
X66071Y69177D01*
X66109Y69151D01*
X66201Y69122D01*
X66290Y69085D01*
X66336Y69080D01*
X66380Y69066D01*
X66477Y69063D01*
X66573Y69052D01*
X66618Y69059D01*
X66664Y69058D01*
X66758Y69083D01*
X66853Y69099D01*
X66895Y69118D01*
X66939Y69130D01*
X67022Y69179D01*
X67110Y69221D01*
X67144Y69252D01*
X67184Y69275D01*
X67250Y69346D01*
X67322Y69410D01*
X67347Y69449D01*
X67378Y69483D01*
X67422Y69569D01*
X67474Y69650D01*
X67487Y69695D01*
X67508Y69736D01*
X67520Y69810D01*
X67553Y69923D01*
X67553Y70007D01*
X67563Y70067D01*
X67563Y80190D01*
X68754Y81381D01*
X82438Y81381D01*
X83629Y80190D01*
X83629Y73107D01*
X83633Y73079D01*
X83630Y73052D01*
X83652Y72939D01*
X83669Y72825D01*
X83680Y72800D01*
X83685Y72773D01*
X83738Y72671D01*
X83785Y72566D01*
X83803Y72545D01*
X83815Y72520D01*
X83870Y72465D01*
X83968Y72349D01*
X84019Y72315D01*
X84052Y72282D01*
X90024Y67996D01*
X90103Y67954D01*
X90177Y67905D01*
X90228Y67889D01*
X90276Y67864D01*
X90363Y67846D01*
X90448Y67819D01*
X90502Y67818D01*
X90554Y67807D01*
X90643Y67814D01*
X90732Y67812D01*
X90784Y67825D01*
X90838Y67830D01*
X90921Y67861D01*
X91007Y67884D01*
X91054Y67911D01*
X91104Y67930D01*
X91175Y67983D01*
X91252Y68029D01*
X91289Y68068D01*
X91332Y68100D01*
X91385Y68171D01*
X91446Y68236D01*
X91471Y68284D01*
X91503Y68327D01*
X91535Y68410D01*
X91576Y68489D01*
X91584Y68536D01*
X91605Y68592D01*
X91618Y68743D01*
X91631Y68820D01*
X91631Y72817D01*
X98140Y72817D01*
X98198Y72825D01*
X98256Y72823D01*
X98338Y72845D01*
X98421Y72857D01*
X98475Y72881D01*
X98531Y72895D01*
X98604Y72938D01*
X98681Y72973D01*
X98725Y73011D01*
X98776Y73041D01*
X98833Y73102D01*
X98898Y73157D01*
X98930Y73205D01*
X98970Y73248D01*
X99009Y73323D01*
X99055Y73393D01*
X99073Y73449D01*
X99100Y73501D01*
X99111Y73569D01*
X99141Y73664D01*
X99144Y73764D01*
X99155Y73832D01*
X99155Y74849D01*
X99157Y74849D01*
X99157Y73832D01*
X99165Y73774D01*
X99164Y73716D01*
X99185Y73634D01*
X99197Y73551D01*
X99221Y73497D01*
X99235Y73441D01*
X99278Y73368D01*
X99313Y73291D01*
X99351Y73246D01*
X99381Y73196D01*
X99442Y73138D01*
X99497Y73074D01*
X99545Y73042D01*
X99588Y73002D01*
X99663Y72963D01*
X99733Y72917D01*
X99789Y72899D01*
X99841Y72872D01*
X99909Y72861D01*
X100004Y72831D01*
X100104Y72828D01*
X100172Y72817D01*
X106681Y72817D01*
X106681Y67045D01*
X106449Y66484D01*
X106020Y66055D01*
X105323Y65767D01*
X105224Y65708D01*
X105122Y65656D01*
X105102Y65637D01*
X105078Y65622D01*
X104999Y65539D01*
X104916Y65460D01*
X104902Y65436D01*
X104883Y65416D01*
X104831Y65314D01*
X104773Y65215D01*
X104766Y65188D01*
X104753Y65163D01*
X104731Y65050D01*
X104702Y64939D01*
X104703Y64911D01*
X104698Y64884D01*
X104708Y64769D01*
X104711Y64655D01*
X104720Y64629D01*
X104722Y64601D01*
X104764Y64493D01*
X104799Y64384D01*
X104813Y64364D01*
X104824Y64335D01*
X104986Y64123D01*
X104994Y64111D01*
X104996Y64109D01*
X106741Y62363D01*
X107665Y60134D01*
X107665Y59032D01*
X107677Y58946D01*
X107680Y58858D01*
X107697Y58806D01*
X107705Y58751D01*
X107740Y58671D01*
X107767Y58588D01*
X107795Y58548D01*
X107821Y58491D01*
X107917Y58378D01*
X107962Y58314D01*
X115542Y50734D01*
X115612Y50682D01*
X115676Y50622D01*
X115725Y50596D01*
X115770Y50563D01*
X115851Y50532D01*
X115929Y50492D01*
X115977Y50484D01*
X116035Y50462D01*
X116183Y50450D01*
X116260Y50437D01*
X122206Y50437D01*
X123397Y49246D01*
X123397Y42562D01*
X122206Y41371D01*
X114522Y41371D01*
X114351Y41542D01*
X114282Y41594D01*
X114218Y41654D01*
X114168Y41680D01*
X114124Y41713D01*
X114042Y41744D01*
X113965Y41784D01*
X113917Y41792D01*
X113859Y41814D01*
X113711Y41826D01*
X113634Y41839D01*
X112940Y41839D01*
X102214Y52566D01*
X102144Y52618D01*
X102080Y52678D01*
X102031Y52704D01*
X101986Y52737D01*
X101905Y52768D01*
X101827Y52808D01*
X101779Y52816D01*
X101721Y52838D01*
X101573Y52850D01*
X101496Y52863D01*
X100394Y52863D01*
X98165Y53787D01*
X96459Y55493D01*
X95716Y57285D01*
X95715Y57286D01*
X95715Y57287D01*
X95645Y57406D01*
X95572Y57529D01*
X95571Y57530D01*
X95570Y57532D01*
X95466Y57629D01*
X95365Y57725D01*
X95364Y57725D01*
X95363Y57726D01*
X95237Y57791D01*
X95112Y57855D01*
X95111Y57855D01*
X95109Y57856D01*
X95094Y57858D01*
X94833Y57910D01*
X94803Y57907D01*
X94778Y57911D01*
X91855Y57911D01*
X91758Y57898D01*
X91690Y57898D01*
X90438Y57692D01*
X90398Y57721D01*
X90393Y57723D01*
X90390Y57726D01*
X90268Y57789D01*
X90146Y57853D01*
X90141Y57854D01*
X90137Y57856D01*
X90101Y57862D01*
X89867Y57909D01*
X89833Y57907D01*
X89806Y57911D01*
X89756Y57911D01*
X88859Y58809D01*
X88781Y58867D01*
X88733Y58915D01*
X80082Y65125D01*
X80080Y65126D01*
X80079Y65127D01*
X80076Y65128D01*
X80074Y65130D01*
X79952Y65193D01*
X79830Y65257D01*
X79825Y65258D01*
X79821Y65260D01*
X79785Y65266D01*
X79552Y65313D01*
X79517Y65311D01*
X79490Y65315D01*
X76219Y65315D01*
X76207Y65314D01*
X76195Y65315D01*
X76067Y65294D01*
X75938Y65275D01*
X75927Y65270D01*
X75914Y65268D01*
X75797Y65212D01*
X75679Y65159D01*
X75669Y65151D01*
X75658Y65146D01*
X75561Y65060D01*
X75462Y64976D01*
X75455Y64965D01*
X75445Y64957D01*
X75376Y64847D01*
X75304Y64739D01*
X75300Y64727D01*
X75294Y64717D01*
X75257Y64592D01*
X75218Y64468D01*
X75218Y64456D01*
X75214Y64444D01*
X75214Y64314D01*
X75211Y64184D01*
X75214Y64172D01*
X75214Y64159D01*
X75250Y64035D01*
X75283Y63909D01*
X75289Y63898D01*
X75292Y63886D01*
X75362Y63776D01*
X75428Y63664D01*
X75437Y63656D01*
X75444Y63645D01*
X75492Y63604D01*
X75635Y63470D01*
X75640Y63467D01*
X75641Y63466D01*
X75675Y63449D01*
X75700Y63428D01*
X103687Y46740D01*
X103797Y46693D01*
X103905Y46642D01*
X103926Y46640D01*
X103949Y46630D01*
X104232Y46597D01*
X104235Y46597D01*
X104238Y46597D01*
X104324Y46600D01*
X104938Y46022D01*
X105054Y45940D01*
X105114Y45889D01*
X105839Y45457D01*
X105860Y45373D01*
X105905Y45263D01*
X105945Y45150D01*
X105958Y45134D01*
X105967Y45110D01*
X106144Y44887D01*
X106146Y44885D01*
X106148Y44883D01*
X108952Y42244D01*
X108986Y42220D01*
X109015Y42190D01*
X109068Y42160D01*
X109083Y42146D01*
X109111Y42132D01*
X109184Y42080D01*
X109258Y42055D01*
X109308Y42027D01*
X109709Y41884D01*
X109931Y41417D01*
X109942Y41401D01*
X109949Y41382D01*
X109994Y41323D01*
X110088Y41180D01*
X110128Y41147D01*
X110152Y41114D01*
X110529Y40760D01*
X110542Y40335D01*
X110549Y40294D01*
X110548Y40252D01*
X110569Y40178D01*
X110590Y40055D01*
X110624Y39985D01*
X110640Y39929D01*
X112459Y36109D01*
X112474Y36086D01*
X112483Y36061D01*
X112531Y36000D01*
X112616Y35872D01*
X112661Y35833D01*
X112690Y35797D01*
X113051Y35466D01*
X113070Y35013D01*
X113077Y34978D01*
X113076Y34943D01*
X113097Y34868D01*
X113122Y34733D01*
X113153Y34671D01*
X113168Y34621D01*
X113363Y34211D01*
X113199Y33750D01*
X113194Y33724D01*
X113183Y33700D01*
X113173Y33622D01*
X113143Y33471D01*
X113147Y33412D01*
X113142Y33366D01*
X113326Y29122D01*
X113331Y29099D01*
X113329Y29075D01*
X113349Y29001D01*
X113378Y28842D01*
X113403Y28792D01*
X113414Y28750D01*
X113620Y28291D01*
X113464Y27880D01*
X113455Y27843D01*
X113439Y27808D01*
X113429Y27731D01*
X113400Y27603D01*
X113405Y27530D01*
X113398Y27475D01*
X113417Y27036D01*
X113077Y26665D01*
X113064Y26645D01*
X113046Y26630D01*
X113008Y26564D01*
X112916Y26430D01*
X112899Y26378D01*
X112877Y26340D01*
X112358Y24978D01*
X112334Y24871D01*
X112302Y24766D01*
X112302Y24733D01*
X112295Y24701D01*
X112301Y24591D01*
X112300Y24482D01*
X112309Y24450D01*
X112311Y24417D01*
X112348Y24314D01*
X112377Y24208D01*
X112395Y24180D01*
X112406Y24149D01*
X112469Y24060D01*
X112527Y23967D01*
X112549Y23947D01*
X112571Y23917D01*
X112746Y23778D01*
X112781Y23748D01*
X143568Y5138D01*
X143658Y5100D01*
X143716Y5064D01*
X146716Y3864D01*
X146906Y3818D01*
X146967Y3799D01*
X150246Y3390D01*
X150318Y3391D01*
X150372Y3382D01*
X484528Y3382D01*
X484631Y3396D01*
G37*
%LPC*%
G36*
X309182Y79279D02*
X309182Y79279D01*
X306953Y80203D01*
X305247Y81909D01*
X304323Y84138D01*
X304323Y86550D01*
X305247Y88779D01*
X306953Y90485D01*
X309182Y91409D01*
X311594Y91409D01*
X313823Y90485D01*
X314603Y89706D01*
X314672Y89654D01*
X314736Y89594D01*
X314786Y89568D01*
X314830Y89535D01*
X314912Y89504D01*
X314990Y89464D01*
X315037Y89456D01*
X315096Y89434D01*
X315243Y89422D01*
X315321Y89409D01*
X434776Y89409D01*
X434862Y89421D01*
X434950Y89424D01*
X435002Y89441D01*
X435057Y89449D01*
X435137Y89484D01*
X435220Y89511D01*
X435260Y89539D01*
X435317Y89565D01*
X435430Y89661D01*
X435494Y89706D01*
X445758Y99970D01*
X445810Y100040D01*
X445870Y100104D01*
X445896Y100153D01*
X445929Y100198D01*
X445960Y100279D01*
X446000Y100357D01*
X446008Y100405D01*
X446030Y100463D01*
X446042Y100611D01*
X446055Y100688D01*
X446055Y101790D01*
X446979Y104019D01*
X448685Y105725D01*
X450914Y106649D01*
X453326Y106649D01*
X455621Y105698D01*
X455693Y105644D01*
X455721Y105633D01*
X455745Y105617D01*
X455853Y105583D01*
X455959Y105543D01*
X455988Y105540D01*
X456016Y105531D01*
X456129Y105528D01*
X456242Y105519D01*
X456271Y105525D01*
X456300Y105524D01*
X456410Y105553D01*
X456521Y105575D01*
X456547Y105588D01*
X456575Y105596D01*
X456672Y105653D01*
X456773Y105706D01*
X456795Y105726D01*
X456820Y105741D01*
X456897Y105823D01*
X456979Y105901D01*
X456994Y105927D01*
X457014Y105948D01*
X457066Y106049D01*
X457123Y106147D01*
X457130Y106175D01*
X457144Y106201D01*
X457157Y106279D01*
X457193Y106422D01*
X457191Y106485D01*
X457199Y106533D01*
X457199Y121572D01*
X463644Y128017D01*
X467975Y128017D01*
X468062Y128029D01*
X468150Y128032D01*
X468202Y128049D01*
X468257Y128057D01*
X468337Y128092D01*
X468420Y128119D01*
X468459Y128147D01*
X468516Y128173D01*
X468630Y128269D01*
X468693Y128314D01*
X469094Y128715D01*
X469146Y128784D01*
X469206Y128848D01*
X469232Y128898D01*
X469265Y128942D01*
X469296Y129024D01*
X469336Y129101D01*
X469344Y129149D01*
X469366Y129207D01*
X469378Y129355D01*
X469391Y129433D01*
X469391Y137775D01*
X469379Y137862D01*
X469376Y137950D01*
X469359Y138002D01*
X469351Y138057D01*
X469316Y138137D01*
X469289Y138220D01*
X469261Y138259D01*
X469235Y138316D01*
X469139Y138430D01*
X469094Y138493D01*
X467673Y139914D01*
X467673Y144523D01*
X467666Y144578D01*
X467667Y144618D01*
X467660Y144643D01*
X467658Y144698D01*
X467641Y144750D01*
X467633Y144805D01*
X467623Y144828D01*
X467623Y151678D01*
X467884Y151939D01*
X467936Y152008D01*
X467996Y152072D01*
X468022Y152122D01*
X468055Y152166D01*
X468086Y152248D01*
X468089Y152254D01*
X468136Y152269D01*
X468175Y152297D01*
X468232Y152323D01*
X468345Y152419D01*
X468409Y152464D01*
X468877Y152932D01*
X468891Y152951D01*
X468906Y152963D01*
X468909Y152967D01*
X468917Y152975D01*
X468980Y153069D01*
X469048Y153159D01*
X469059Y153187D01*
X469075Y153211D01*
X469109Y153319D01*
X469150Y153425D01*
X469152Y153454D01*
X469161Y153482D01*
X469164Y153595D01*
X469173Y153708D01*
X469167Y153737D01*
X469168Y153766D01*
X469140Y153876D01*
X469117Y153987D01*
X469104Y154013D01*
X469096Y154041D01*
X469038Y154139D01*
X468986Y154239D01*
X468966Y154261D01*
X468951Y154286D01*
X468868Y154363D01*
X468790Y154445D01*
X468765Y154460D01*
X468744Y154480D01*
X468643Y154532D01*
X468545Y154589D01*
X468517Y154596D01*
X468491Y154610D01*
X468413Y154623D01*
X468270Y154659D01*
X468207Y154657D01*
X468181Y154662D01*
X468181Y156219D01*
X468413Y156780D01*
X468842Y157209D01*
X469403Y157441D01*
X472207Y157441D01*
X472207Y153884D01*
X472215Y153826D01*
X472213Y153768D01*
X472235Y153686D01*
X472247Y153602D01*
X472270Y153549D01*
X472285Y153493D01*
X472328Y153420D01*
X472363Y153343D01*
X472401Y153298D01*
X472430Y153248D01*
X472492Y153190D01*
X472546Y153126D01*
X472595Y153094D01*
X472638Y153054D01*
X472713Y153015D01*
X472783Y152968D01*
X472839Y152951D01*
X472891Y152924D01*
X472959Y152913D01*
X473054Y152883D01*
X473154Y152880D01*
X473222Y152869D01*
X473690Y152869D01*
X473748Y152877D01*
X473806Y152875D01*
X473888Y152897D01*
X473972Y152909D01*
X474025Y152932D01*
X474081Y152947D01*
X474154Y152990D01*
X474231Y153025D01*
X474276Y153063D01*
X474326Y153092D01*
X474384Y153154D01*
X474448Y153208D01*
X474480Y153257D01*
X474520Y153300D01*
X474559Y153375D01*
X474606Y153445D01*
X474623Y153501D01*
X474650Y153553D01*
X474661Y153621D01*
X474691Y153716D01*
X474694Y153816D01*
X474705Y153884D01*
X474705Y157441D01*
X477509Y157441D01*
X478070Y157209D01*
X478499Y156780D01*
X478731Y156219D01*
X478731Y154662D01*
X478723Y154661D01*
X478694Y154664D01*
X478583Y154641D01*
X478471Y154625D01*
X478444Y154613D01*
X478415Y154608D01*
X478315Y154555D01*
X478212Y154509D01*
X478189Y154490D01*
X478163Y154477D01*
X478081Y154399D01*
X477995Y154326D01*
X477978Y154301D01*
X477957Y154281D01*
X477900Y154183D01*
X477837Y154089D01*
X477828Y154061D01*
X477813Y154036D01*
X477785Y153926D01*
X477751Y153818D01*
X477750Y153788D01*
X477743Y153760D01*
X477747Y153647D01*
X477744Y153534D01*
X477751Y153505D01*
X477752Y153476D01*
X477787Y153368D01*
X477816Y153259D01*
X477831Y153233D01*
X477840Y153205D01*
X477885Y153141D01*
X477961Y153014D01*
X477971Y153004D01*
X477972Y153003D01*
X478008Y152969D01*
X478035Y152932D01*
X478503Y152464D01*
X478573Y152411D01*
X478636Y152352D01*
X478686Y152326D01*
X478730Y152293D01*
X478812Y152262D01*
X478818Y152259D01*
X478833Y152212D01*
X478861Y152173D01*
X478887Y152116D01*
X478970Y152018D01*
X478988Y151988D01*
X479005Y151972D01*
X479028Y151939D01*
X479289Y151678D01*
X479289Y144822D01*
X479286Y144807D01*
X479264Y144749D01*
X479259Y144689D01*
X479253Y144669D01*
X479251Y144595D01*
X479239Y144523D01*
X479239Y139914D01*
X477818Y138493D01*
X477766Y138424D01*
X477706Y138360D01*
X477680Y138310D01*
X477647Y138266D01*
X477616Y138184D01*
X477576Y138107D01*
X477568Y138059D01*
X477546Y138001D01*
X477534Y137853D01*
X477521Y137775D01*
X477521Y129433D01*
X477533Y129346D01*
X477536Y129258D01*
X477553Y129206D01*
X477561Y129151D01*
X477596Y129071D01*
X477623Y128988D01*
X477651Y128949D01*
X477677Y128892D01*
X477773Y128778D01*
X477818Y128715D01*
X479239Y127294D01*
X479239Y122685D01*
X479251Y122598D01*
X479254Y122510D01*
X479271Y122458D01*
X479279Y122403D01*
X479289Y122380D01*
X479289Y115530D01*
X479028Y115269D01*
X478976Y115200D01*
X478916Y115136D01*
X478890Y115086D01*
X478857Y115042D01*
X478826Y114960D01*
X478823Y114954D01*
X478776Y114939D01*
X478737Y114911D01*
X478680Y114885D01*
X478567Y114789D01*
X478503Y114744D01*
X478035Y114276D01*
X478017Y114252D01*
X477995Y114233D01*
X477932Y114139D01*
X477864Y114049D01*
X477853Y114021D01*
X477837Y113997D01*
X477803Y113889D01*
X477762Y113783D01*
X477760Y113754D01*
X477751Y113726D01*
X477748Y113613D01*
X477739Y113500D01*
X477745Y113471D01*
X477744Y113442D01*
X477772Y113332D01*
X477795Y113221D01*
X477808Y113195D01*
X477816Y113167D01*
X477873Y113069D01*
X477926Y112969D01*
X477946Y112947D01*
X477961Y112922D01*
X478044Y112845D01*
X478122Y112763D01*
X478147Y112748D01*
X478168Y112728D01*
X478269Y112676D01*
X478367Y112619D01*
X478395Y112612D01*
X478421Y112598D01*
X478499Y112585D01*
X478642Y112549D01*
X478705Y112551D01*
X478731Y112546D01*
X478731Y110989D01*
X478499Y110428D01*
X478070Y109999D01*
X477509Y109767D01*
X474705Y109767D01*
X474705Y113324D01*
X474697Y113382D01*
X474699Y113440D01*
X474677Y113522D01*
X474665Y113606D01*
X474642Y113659D01*
X474627Y113715D01*
X474584Y113788D01*
X474549Y113865D01*
X474511Y113910D01*
X474482Y113960D01*
X474420Y114018D01*
X474366Y114082D01*
X474317Y114114D01*
X474274Y114154D01*
X474199Y114193D01*
X474129Y114240D01*
X474073Y114257D01*
X474021Y114284D01*
X473953Y114295D01*
X473858Y114325D01*
X473758Y114328D01*
X473690Y114339D01*
X473222Y114339D01*
X473164Y114331D01*
X473106Y114333D01*
X473024Y114311D01*
X472940Y114299D01*
X472887Y114276D01*
X472831Y114261D01*
X472758Y114218D01*
X472681Y114183D01*
X472636Y114145D01*
X472586Y114116D01*
X472528Y114054D01*
X472464Y114000D01*
X472432Y113951D01*
X472392Y113908D01*
X472353Y113833D01*
X472306Y113763D01*
X472289Y113707D01*
X472262Y113655D01*
X472251Y113587D01*
X472221Y113492D01*
X472218Y113392D01*
X472207Y113324D01*
X472207Y109767D01*
X469403Y109767D01*
X468842Y109999D01*
X468413Y110428D01*
X468181Y110989D01*
X468181Y112546D01*
X468189Y112547D01*
X468218Y112544D01*
X468329Y112567D01*
X468441Y112583D01*
X468468Y112594D01*
X468497Y112600D01*
X468597Y112653D01*
X468700Y112699D01*
X468723Y112718D01*
X468749Y112731D01*
X468831Y112809D01*
X468917Y112882D01*
X468934Y112907D01*
X468955Y112927D01*
X469012Y113025D01*
X469075Y113119D01*
X469084Y113147D01*
X469099Y113172D01*
X469127Y113282D01*
X469161Y113390D01*
X469162Y113420D01*
X469169Y113448D01*
X469165Y113561D01*
X469168Y113674D01*
X469161Y113703D01*
X469160Y113732D01*
X469125Y113840D01*
X469096Y113949D01*
X469081Y113974D01*
X469072Y114003D01*
X469027Y114066D01*
X468951Y114194D01*
X468905Y114237D01*
X468877Y114276D01*
X468409Y114744D01*
X468339Y114797D01*
X468276Y114856D01*
X468226Y114882D01*
X468182Y114915D01*
X468100Y114946D01*
X468094Y114949D01*
X468079Y114996D01*
X468051Y115035D01*
X468025Y115092D01*
X467929Y115206D01*
X467884Y115269D01*
X467623Y115530D01*
X467623Y118048D01*
X467619Y118077D01*
X467622Y118106D01*
X467599Y118217D01*
X467583Y118329D01*
X467571Y118356D01*
X467566Y118385D01*
X467514Y118485D01*
X467467Y118589D01*
X467448Y118611D01*
X467435Y118637D01*
X467357Y118719D01*
X467284Y118806D01*
X467259Y118822D01*
X467239Y118843D01*
X467141Y118901D01*
X467047Y118963D01*
X467019Y118972D01*
X466994Y118987D01*
X466884Y119015D01*
X466776Y119049D01*
X466747Y119050D01*
X466718Y119057D01*
X466605Y119054D01*
X466492Y119056D01*
X466463Y119049D01*
X466434Y119048D01*
X466326Y119013D01*
X466217Y118985D01*
X466191Y118970D01*
X466163Y118961D01*
X466100Y118915D01*
X465972Y118839D01*
X465929Y118794D01*
X465890Y118766D01*
X465626Y118502D01*
X465573Y118432D01*
X465514Y118368D01*
X465488Y118319D01*
X465455Y118274D01*
X465424Y118193D01*
X465384Y118115D01*
X465376Y118067D01*
X465354Y118009D01*
X465342Y117861D01*
X465329Y117784D01*
X465329Y101948D01*
X459900Y96519D01*
X457053Y96519D01*
X456966Y96507D01*
X456879Y96504D01*
X456826Y96487D01*
X456771Y96479D01*
X456691Y96444D01*
X456608Y96417D01*
X456569Y96389D01*
X456512Y96363D01*
X456399Y96267D01*
X456335Y96222D01*
X455555Y95443D01*
X453326Y94519D01*
X452224Y94519D01*
X452138Y94507D01*
X452050Y94504D01*
X451998Y94487D01*
X451943Y94479D01*
X451863Y94444D01*
X451780Y94417D01*
X451740Y94389D01*
X451683Y94363D01*
X451570Y94267D01*
X451506Y94222D01*
X438564Y81279D01*
X315321Y81279D01*
X315234Y81267D01*
X315147Y81264D01*
X315094Y81247D01*
X315039Y81239D01*
X314959Y81204D01*
X314876Y81177D01*
X314837Y81149D01*
X314780Y81123D01*
X314666Y81027D01*
X314603Y80982D01*
X313823Y80203D01*
X311594Y79279D01*
X309182Y79279D01*
G37*
%LPD*%
%LPC*%
G36*
X253158Y25907D02*
X253158Y25907D01*
X251967Y27098D01*
X251967Y44022D01*
X253158Y45213D01*
X262462Y45213D01*
X263653Y44022D01*
X263653Y39624D01*
X263661Y39566D01*
X263659Y39508D01*
X263681Y39426D01*
X263693Y39342D01*
X263716Y39289D01*
X263731Y39233D01*
X263774Y39160D01*
X263809Y39083D01*
X263847Y39038D01*
X263876Y38988D01*
X263938Y38930D01*
X263992Y38866D01*
X264041Y38834D01*
X264084Y38794D01*
X264159Y38755D01*
X264229Y38708D01*
X264285Y38691D01*
X264337Y38664D01*
X264405Y38653D01*
X264500Y38623D01*
X264600Y38620D01*
X264668Y38609D01*
X271621Y38609D01*
X271707Y38621D01*
X271795Y38624D01*
X271847Y38641D01*
X271902Y38649D01*
X271982Y38684D01*
X272065Y38711D01*
X272104Y38739D01*
X272162Y38765D01*
X272275Y38861D01*
X272339Y38906D01*
X285198Y51765D01*
X285250Y51835D01*
X285310Y51899D01*
X285336Y51949D01*
X285369Y51993D01*
X285400Y52074D01*
X285440Y52152D01*
X285448Y52200D01*
X285470Y52258D01*
X285482Y52406D01*
X285495Y52483D01*
X285495Y157627D01*
X285491Y157657D01*
X285494Y157686D01*
X285471Y157797D01*
X285455Y157909D01*
X285443Y157936D01*
X285438Y157965D01*
X285385Y158065D01*
X285339Y158168D01*
X285320Y158191D01*
X285307Y158217D01*
X285229Y158299D01*
X285156Y158385D01*
X285131Y158402D01*
X285111Y158423D01*
X285013Y158480D01*
X284919Y158543D01*
X284891Y158552D01*
X284865Y158567D01*
X284756Y158595D01*
X284648Y158629D01*
X284618Y158629D01*
X284590Y158637D01*
X284477Y158633D01*
X284364Y158636D01*
X284335Y158629D01*
X284306Y158628D01*
X284198Y158593D01*
X284089Y158564D01*
X284063Y158549D01*
X284035Y158540D01*
X283971Y158494D01*
X283914Y158461D01*
X281622Y157511D01*
X279210Y157511D01*
X276981Y158435D01*
X275275Y160141D01*
X274351Y162370D01*
X274351Y164782D01*
X275275Y167011D01*
X276981Y168717D01*
X279210Y169641D01*
X281622Y169641D01*
X283851Y168717D01*
X285647Y166922D01*
X285717Y166870D01*
X285780Y166810D01*
X285830Y166784D01*
X285874Y166751D01*
X285956Y166720D01*
X286034Y166680D01*
X286081Y166672D01*
X286140Y166650D01*
X286287Y166638D01*
X286365Y166625D01*
X287775Y166625D01*
X291593Y162807D01*
X291593Y49537D01*
X274567Y32511D01*
X264668Y32511D01*
X264610Y32503D01*
X264552Y32505D01*
X264470Y32483D01*
X264386Y32471D01*
X264333Y32448D01*
X264277Y32433D01*
X264204Y32390D01*
X264127Y32355D01*
X264082Y32317D01*
X264032Y32288D01*
X263974Y32226D01*
X263910Y32172D01*
X263878Y32123D01*
X263838Y32080D01*
X263799Y32005D01*
X263752Y31935D01*
X263735Y31879D01*
X263708Y31827D01*
X263697Y31759D01*
X263667Y31664D01*
X263664Y31564D01*
X263653Y31496D01*
X263653Y27098D01*
X262462Y25907D01*
X253158Y25907D01*
G37*
%LPD*%
G36*
X195507Y82309D02*
X195507Y82309D01*
X195595Y82312D01*
X195647Y82329D01*
X195702Y82337D01*
X195782Y82372D01*
X195865Y82399D01*
X195904Y82427D01*
X195962Y82453D01*
X196075Y82549D01*
X196139Y82594D01*
X198838Y85293D01*
X198890Y85363D01*
X198950Y85427D01*
X198976Y85477D01*
X199009Y85521D01*
X199040Y85602D01*
X199080Y85680D01*
X199088Y85728D01*
X199110Y85786D01*
X199122Y85934D01*
X199135Y86011D01*
X199135Y93071D01*
X199123Y93158D01*
X199120Y93246D01*
X199103Y93298D01*
X199095Y93353D01*
X199060Y93433D01*
X199033Y93516D01*
X199005Y93555D01*
X198979Y93612D01*
X198883Y93726D01*
X198838Y93789D01*
X197651Y94976D01*
X197651Y104160D01*
X198838Y105347D01*
X198890Y105416D01*
X198950Y105480D01*
X198976Y105530D01*
X199009Y105574D01*
X199040Y105656D01*
X199080Y105733D01*
X199088Y105781D01*
X199110Y105839D01*
X199122Y105987D01*
X199135Y106065D01*
X199135Y107943D01*
X200974Y109781D01*
X201026Y109851D01*
X201086Y109915D01*
X201112Y109965D01*
X201145Y110009D01*
X201176Y110090D01*
X201216Y110168D01*
X201224Y110216D01*
X201246Y110274D01*
X201258Y110422D01*
X201271Y110499D01*
X201271Y114416D01*
X201263Y114474D01*
X201265Y114532D01*
X201243Y114614D01*
X201231Y114698D01*
X201208Y114751D01*
X201193Y114807D01*
X201150Y114880D01*
X201115Y114957D01*
X201077Y115002D01*
X201048Y115052D01*
X200986Y115110D01*
X200932Y115174D01*
X200883Y115206D01*
X200840Y115246D01*
X200765Y115285D01*
X200695Y115332D01*
X200639Y115349D01*
X200587Y115376D01*
X200519Y115387D01*
X200424Y115417D01*
X200324Y115420D01*
X200256Y115431D01*
X197478Y115431D01*
X196287Y116622D01*
X196287Y144900D01*
X196279Y144958D01*
X196281Y145016D01*
X196259Y145098D01*
X196247Y145182D01*
X196224Y145235D01*
X196209Y145291D01*
X196166Y145364D01*
X196131Y145441D01*
X196093Y145486D01*
X196064Y145536D01*
X196002Y145594D01*
X195948Y145658D01*
X195899Y145690D01*
X195856Y145730D01*
X195781Y145769D01*
X195711Y145816D01*
X195655Y145833D01*
X195603Y145860D01*
X195535Y145871D01*
X195440Y145901D01*
X195340Y145904D01*
X195272Y145915D01*
X194024Y145915D01*
X193966Y145907D01*
X193908Y145909D01*
X193826Y145887D01*
X193742Y145875D01*
X193689Y145852D01*
X193633Y145837D01*
X193560Y145794D01*
X193483Y145759D01*
X193438Y145721D01*
X193388Y145692D01*
X193330Y145630D01*
X193266Y145576D01*
X193234Y145527D01*
X193194Y145484D01*
X193155Y145409D01*
X193108Y145339D01*
X193091Y145283D01*
X193064Y145231D01*
X193053Y145163D01*
X193023Y145068D01*
X193020Y144968D01*
X193009Y144900D01*
X193009Y143066D01*
X192085Y140837D01*
X190379Y139131D01*
X188150Y138207D01*
X185738Y138207D01*
X183509Y139131D01*
X181803Y140837D01*
X180879Y143066D01*
X180879Y145478D01*
X181803Y147707D01*
X183509Y149413D01*
X185738Y150337D01*
X188277Y150337D01*
X188363Y150349D01*
X188451Y150352D01*
X188503Y150369D01*
X188558Y150377D01*
X188638Y150412D01*
X188721Y150439D01*
X188760Y150467D01*
X188818Y150493D01*
X188931Y150589D01*
X188995Y150634D01*
X190373Y152013D01*
X195272Y152013D01*
X195330Y152021D01*
X195388Y152019D01*
X195470Y152041D01*
X195554Y152053D01*
X195607Y152076D01*
X195663Y152091D01*
X195736Y152134D01*
X195813Y152169D01*
X195858Y152207D01*
X195908Y152236D01*
X195966Y152298D01*
X196030Y152352D01*
X196062Y152401D01*
X196102Y152444D01*
X196141Y152519D01*
X196188Y152589D01*
X196205Y152645D01*
X196232Y152697D01*
X196243Y152765D01*
X196273Y152860D01*
X196276Y152960D01*
X196287Y153028D01*
X196287Y159900D01*
X196279Y159958D01*
X196281Y160016D01*
X196259Y160098D01*
X196247Y160182D01*
X196224Y160235D01*
X196209Y160291D01*
X196166Y160364D01*
X196131Y160441D01*
X196093Y160486D01*
X196064Y160536D01*
X196002Y160594D01*
X195948Y160658D01*
X195899Y160690D01*
X195856Y160730D01*
X195781Y160769D01*
X195711Y160816D01*
X195655Y160833D01*
X195603Y160860D01*
X195535Y160871D01*
X195440Y160901D01*
X195340Y160904D01*
X195272Y160915D01*
X193085Y160915D01*
X193083Y160915D01*
X193081Y160915D01*
X192939Y160895D01*
X192803Y160875D01*
X192802Y160875D01*
X192800Y160875D01*
X192671Y160816D01*
X192544Y160759D01*
X192542Y160758D01*
X192541Y160757D01*
X192432Y160665D01*
X192327Y160576D01*
X192326Y160574D01*
X192325Y160573D01*
X192316Y160560D01*
X192169Y160339D01*
X192160Y160310D01*
X192147Y160288D01*
X192085Y160141D01*
X190379Y158435D01*
X188150Y157511D01*
X185738Y157511D01*
X183509Y158435D01*
X181803Y160141D01*
X180879Y162370D01*
X180879Y164782D01*
X181803Y167011D01*
X183509Y168717D01*
X185738Y169641D01*
X188150Y169641D01*
X190379Y168717D01*
X191787Y167310D01*
X191857Y167258D01*
X191920Y167198D01*
X191970Y167172D01*
X192014Y167139D01*
X192096Y167108D01*
X192174Y167068D01*
X192221Y167060D01*
X192280Y167038D01*
X192427Y167026D01*
X192505Y167013D01*
X195272Y167013D01*
X195330Y167021D01*
X195388Y167019D01*
X195470Y167041D01*
X195554Y167053D01*
X195607Y167076D01*
X195663Y167091D01*
X195736Y167134D01*
X195813Y167169D01*
X195858Y167207D01*
X195908Y167236D01*
X195966Y167298D01*
X196030Y167352D01*
X196062Y167401D01*
X196102Y167444D01*
X196141Y167519D01*
X196188Y167589D01*
X196205Y167645D01*
X196232Y167697D01*
X196243Y167765D01*
X196273Y167860D01*
X196276Y167960D01*
X196287Y168028D01*
X196287Y171306D01*
X196498Y171517D01*
X196550Y171586D01*
X196610Y171650D01*
X196636Y171700D01*
X196669Y171744D01*
X196700Y171826D01*
X196740Y171903D01*
X196748Y171951D01*
X196770Y172009D01*
X196782Y172157D01*
X196795Y172235D01*
X196795Y172949D01*
X204320Y172949D01*
X211845Y172949D01*
X211845Y172235D01*
X211857Y172148D01*
X211860Y172060D01*
X211877Y172008D01*
X211885Y171953D01*
X211920Y171873D01*
X211947Y171790D01*
X211975Y171751D01*
X212001Y171694D01*
X212097Y171580D01*
X212142Y171517D01*
X212556Y171103D01*
X212576Y171068D01*
X212638Y171010D01*
X212692Y170946D01*
X212741Y170914D01*
X212784Y170874D01*
X212859Y170835D01*
X212929Y170788D01*
X212985Y170771D01*
X213037Y170744D01*
X213105Y170733D01*
X213200Y170703D01*
X213300Y170700D01*
X213368Y170689D01*
X213832Y170689D01*
X213861Y170693D01*
X213890Y170690D01*
X214001Y170713D01*
X214113Y170729D01*
X214140Y170741D01*
X214169Y170746D01*
X214270Y170799D01*
X214373Y170845D01*
X214395Y170864D01*
X214421Y170877D01*
X214503Y170955D01*
X214590Y171028D01*
X214606Y171053D01*
X214627Y171073D01*
X214685Y171171D01*
X214747Y171265D01*
X214756Y171293D01*
X214771Y171319D01*
X214799Y171428D01*
X214833Y171536D01*
X214834Y171566D01*
X214841Y171594D01*
X214838Y171707D01*
X214841Y171820D01*
X214833Y171849D01*
X214832Y171878D01*
X214797Y171986D01*
X214769Y172095D01*
X214754Y172121D01*
X214745Y172149D01*
X214699Y172213D01*
X214623Y172340D01*
X214614Y172349D01*
X214375Y172925D01*
X214375Y176194D01*
X214371Y176223D01*
X214374Y176252D01*
X214351Y176363D01*
X214335Y176475D01*
X214323Y176502D01*
X214318Y176531D01*
X214265Y176631D01*
X214219Y176734D01*
X214200Y176757D01*
X214187Y176783D01*
X214109Y176865D01*
X214036Y176951D01*
X214011Y176968D01*
X213991Y176989D01*
X213893Y177046D01*
X213799Y177109D01*
X213771Y177118D01*
X213746Y177133D01*
X213636Y177161D01*
X213528Y177195D01*
X213498Y177196D01*
X213470Y177203D01*
X213357Y177199D01*
X213244Y177202D01*
X213215Y177195D01*
X213186Y177194D01*
X213078Y177159D01*
X212969Y177130D01*
X212943Y177115D01*
X212915Y177106D01*
X212851Y177061D01*
X212724Y176985D01*
X212681Y176939D01*
X212642Y176911D01*
X212142Y176411D01*
X212089Y176341D01*
X212030Y176278D01*
X212004Y176228D01*
X211971Y176184D01*
X211940Y176102D01*
X211900Y176025D01*
X211892Y175977D01*
X211870Y175918D01*
X211858Y175771D01*
X211845Y175693D01*
X211845Y174979D01*
X204320Y174979D01*
X196788Y174979D01*
X196789Y175016D01*
X196767Y175098D01*
X196755Y175182D01*
X196732Y175235D01*
X196717Y175291D01*
X196674Y175364D01*
X196639Y175441D01*
X196601Y175486D01*
X196572Y175536D01*
X196510Y175594D01*
X196456Y175658D01*
X196407Y175690D01*
X196364Y175730D01*
X196289Y175769D01*
X196219Y175816D01*
X196163Y175833D01*
X196111Y175860D01*
X196043Y175871D01*
X195948Y175901D01*
X195848Y175904D01*
X195780Y175915D01*
X179900Y175915D01*
X179842Y175907D01*
X179784Y175909D01*
X179702Y175887D01*
X179618Y175875D01*
X179565Y175852D01*
X179509Y175837D01*
X179436Y175794D01*
X179359Y175759D01*
X179314Y175721D01*
X179264Y175692D01*
X179206Y175630D01*
X179142Y175576D01*
X179110Y175527D01*
X179070Y175484D01*
X179031Y175409D01*
X178984Y175339D01*
X178967Y175283D01*
X178940Y175231D01*
X178929Y175163D01*
X178899Y175068D01*
X178896Y174968D01*
X178885Y174900D01*
X178885Y167040D01*
X176206Y164362D01*
X176066Y164222D01*
X176014Y164152D01*
X175954Y164088D01*
X175928Y164039D01*
X175895Y163995D01*
X175864Y163913D01*
X175824Y163835D01*
X175816Y163787D01*
X175794Y163729D01*
X175782Y163581D01*
X175769Y163504D01*
X175769Y141296D01*
X175781Y141210D01*
X175784Y141122D01*
X175801Y141070D01*
X175809Y141015D01*
X175844Y140935D01*
X175871Y140852D01*
X175899Y140812D01*
X175925Y140755D01*
X176021Y140642D01*
X176066Y140578D01*
X176206Y140438D01*
X183250Y133394D01*
X183251Y133394D01*
X189993Y126652D01*
X189993Y83312D01*
X190001Y83254D01*
X189999Y83196D01*
X190021Y83114D01*
X190033Y83030D01*
X190056Y82977D01*
X190071Y82921D01*
X190114Y82848D01*
X190149Y82771D01*
X190187Y82726D01*
X190216Y82676D01*
X190278Y82618D01*
X190332Y82554D01*
X190381Y82522D01*
X190424Y82482D01*
X190499Y82443D01*
X190569Y82396D01*
X190625Y82379D01*
X190677Y82352D01*
X190745Y82341D01*
X190840Y82311D01*
X190940Y82308D01*
X191008Y82297D01*
X195421Y82297D01*
X195507Y82309D01*
G37*
%LPC*%
G36*
X256858Y210343D02*
X256858Y210343D01*
X254629Y211267D01*
X252923Y212973D01*
X251999Y215202D01*
X251999Y217614D01*
X252923Y219843D01*
X253398Y220319D01*
X253434Y220366D01*
X253476Y220406D01*
X253519Y220479D01*
X253569Y220546D01*
X253590Y220601D01*
X253620Y220651D01*
X253640Y220733D01*
X253670Y220812D01*
X253675Y220870D01*
X253690Y220927D01*
X253687Y221011D01*
X253694Y221095D01*
X253683Y221153D01*
X253681Y221211D01*
X253655Y221291D01*
X253638Y221374D01*
X253611Y221426D01*
X253593Y221482D01*
X253553Y221538D01*
X253507Y221626D01*
X253438Y221699D01*
X253398Y221755D01*
X251967Y223186D01*
X251967Y240110D01*
X253158Y241301D01*
X262392Y241301D01*
X262450Y241309D01*
X262508Y241307D01*
X262590Y241329D01*
X262674Y241341D01*
X262727Y241364D01*
X262783Y241379D01*
X262856Y241422D01*
X262933Y241457D01*
X262978Y241495D01*
X263028Y241524D01*
X263086Y241586D01*
X263150Y241640D01*
X263182Y241689D01*
X263222Y241732D01*
X263261Y241807D01*
X263308Y241877D01*
X263325Y241933D01*
X263352Y241985D01*
X263363Y242053D01*
X263393Y242148D01*
X263396Y242248D01*
X263407Y242316D01*
X263407Y242372D01*
X263400Y242421D01*
X263401Y242432D01*
X263399Y242437D01*
X263401Y242488D01*
X263379Y242570D01*
X263367Y242654D01*
X263344Y242707D01*
X263329Y242763D01*
X263286Y242836D01*
X263251Y242913D01*
X263213Y242958D01*
X263184Y243008D01*
X263122Y243066D01*
X263068Y243130D01*
X263019Y243162D01*
X262976Y243202D01*
X262901Y243241D01*
X262831Y243288D01*
X262775Y243305D01*
X262723Y243332D01*
X262655Y243343D01*
X262560Y243373D01*
X262460Y243376D01*
X262392Y243387D01*
X249658Y243387D01*
X248467Y244578D01*
X248467Y247471D01*
X248455Y247556D01*
X248453Y247642D01*
X248435Y247696D01*
X248427Y247752D01*
X248392Y247831D01*
X248366Y247912D01*
X248334Y247960D01*
X248311Y248012D01*
X248256Y248077D01*
X248208Y248149D01*
X248164Y248185D01*
X248128Y248229D01*
X248056Y248276D01*
X247990Y248332D01*
X247938Y248355D01*
X247891Y248386D01*
X247809Y248412D01*
X247730Y248447D01*
X247674Y248455D01*
X247620Y248472D01*
X247534Y248474D01*
X247449Y248486D01*
X247393Y248478D01*
X247336Y248479D01*
X247253Y248458D01*
X247167Y248445D01*
X247116Y248422D01*
X247061Y248407D01*
X246987Y248364D01*
X246908Y248328D01*
X246865Y248291D01*
X246816Y248262D01*
X246757Y248200D01*
X246692Y248144D01*
X246666Y248102D01*
X246622Y248055D01*
X246556Y247926D01*
X246514Y247859D01*
X246411Y247609D01*
X245638Y246453D01*
X244656Y245471D01*
X243500Y244698D01*
X242215Y244166D01*
X241906Y244105D01*
X241906Y250218D01*
X241898Y250276D01*
X241900Y250334D01*
X241878Y250416D01*
X241866Y250499D01*
X241843Y250553D01*
X241828Y250609D01*
X241785Y250682D01*
X241750Y250759D01*
X241712Y250803D01*
X241683Y250854D01*
X241621Y250911D01*
X241584Y250955D01*
X241585Y250956D01*
X241649Y251011D01*
X241681Y251059D01*
X241721Y251102D01*
X241760Y251177D01*
X241807Y251247D01*
X241824Y251303D01*
X241851Y251355D01*
X241862Y251423D01*
X241892Y251518D01*
X241895Y251618D01*
X241906Y251686D01*
X241906Y257799D01*
X242215Y257738D01*
X243500Y257206D01*
X244656Y256433D01*
X245638Y255451D01*
X246411Y254295D01*
X246514Y254045D01*
X246558Y253971D01*
X246593Y253892D01*
X246630Y253849D01*
X246659Y253800D01*
X246721Y253741D01*
X246777Y253675D01*
X246824Y253644D01*
X246865Y253605D01*
X246942Y253565D01*
X247013Y253518D01*
X247067Y253501D01*
X247118Y253475D01*
X247202Y253458D01*
X247284Y253432D01*
X247341Y253431D01*
X247397Y253420D01*
X247482Y253427D01*
X247568Y253425D01*
X247623Y253439D01*
X247680Y253444D01*
X247760Y253475D01*
X247843Y253497D01*
X247892Y253526D01*
X247945Y253546D01*
X248014Y253598D01*
X248088Y253642D01*
X248127Y253683D01*
X248172Y253718D01*
X248223Y253786D01*
X248282Y253849D01*
X248308Y253900D01*
X248342Y253945D01*
X248373Y254026D01*
X248412Y254102D01*
X248420Y254151D01*
X248443Y254211D01*
X248454Y254356D01*
X248467Y254433D01*
X248467Y257326D01*
X249658Y258517D01*
X262406Y258517D01*
X263597Y257326D01*
X263597Y256500D01*
X263605Y256442D01*
X263603Y256384D01*
X263625Y256302D01*
X263637Y256218D01*
X263660Y256165D01*
X263675Y256109D01*
X263718Y256036D01*
X263753Y255959D01*
X263791Y255914D01*
X263820Y255864D01*
X263882Y255806D01*
X263936Y255742D01*
X263985Y255710D01*
X264028Y255670D01*
X264103Y255631D01*
X264173Y255584D01*
X264229Y255567D01*
X264281Y255540D01*
X264349Y255529D01*
X264444Y255499D01*
X264544Y255496D01*
X264612Y255485D01*
X273832Y255485D01*
X275023Y254294D01*
X275023Y249685D01*
X275035Y249598D01*
X275038Y249510D01*
X275055Y249458D01*
X275063Y249403D01*
X275073Y249380D01*
X275073Y242530D01*
X274812Y242269D01*
X274760Y242200D01*
X274700Y242136D01*
X274674Y242086D01*
X274641Y242042D01*
X274610Y241960D01*
X274607Y241954D01*
X274560Y241939D01*
X274521Y241911D01*
X274464Y241885D01*
X274351Y241789D01*
X274287Y241744D01*
X273819Y241276D01*
X273801Y241252D01*
X273779Y241233D01*
X273716Y241139D01*
X273648Y241049D01*
X273637Y241021D01*
X273621Y240997D01*
X273587Y240889D01*
X273546Y240783D01*
X273544Y240754D01*
X273535Y240726D01*
X273532Y240613D01*
X273523Y240500D01*
X273529Y240471D01*
X273528Y240442D01*
X273556Y240332D01*
X273579Y240221D01*
X273592Y240195D01*
X273600Y240167D01*
X273657Y240069D01*
X273710Y239969D01*
X273730Y239947D01*
X273745Y239922D01*
X273828Y239845D01*
X273906Y239763D01*
X273931Y239748D01*
X273952Y239728D01*
X274053Y239676D01*
X274151Y239619D01*
X274179Y239612D01*
X274205Y239598D01*
X274283Y239585D01*
X274426Y239549D01*
X274489Y239551D01*
X274515Y239546D01*
X274515Y237989D01*
X274283Y237428D01*
X273854Y236999D01*
X273293Y236767D01*
X270489Y236767D01*
X270489Y240324D01*
X270481Y240382D01*
X270483Y240440D01*
X270461Y240522D01*
X270449Y240606D01*
X270426Y240659D01*
X270411Y240715D01*
X270368Y240788D01*
X270333Y240865D01*
X270295Y240910D01*
X270266Y240960D01*
X270204Y241018D01*
X270150Y241082D01*
X270101Y241114D01*
X270058Y241154D01*
X269983Y241193D01*
X269913Y241240D01*
X269857Y241257D01*
X269805Y241284D01*
X269737Y241295D01*
X269642Y241325D01*
X269542Y241328D01*
X269474Y241339D01*
X269006Y241339D01*
X268948Y241331D01*
X268890Y241333D01*
X268808Y241311D01*
X268724Y241299D01*
X268671Y241276D01*
X268615Y241261D01*
X268542Y241218D01*
X268465Y241183D01*
X268420Y241145D01*
X268370Y241116D01*
X268312Y241054D01*
X268248Y241000D01*
X268216Y240951D01*
X268176Y240908D01*
X268137Y240833D01*
X268090Y240763D01*
X268073Y240707D01*
X268046Y240655D01*
X268035Y240587D01*
X268005Y240492D01*
X268002Y240392D01*
X267991Y240324D01*
X267991Y236767D01*
X265187Y236767D01*
X265057Y236821D01*
X265035Y236827D01*
X265021Y236834D01*
X264983Y236840D01*
X264945Y236850D01*
X264836Y236885D01*
X264808Y236885D01*
X264781Y236892D01*
X264679Y236889D01*
X264668Y236889D01*
X264666Y236889D01*
X264552Y236892D01*
X264525Y236885D01*
X264497Y236884D01*
X264391Y236850D01*
X264386Y236849D01*
X264383Y236848D01*
X264277Y236820D01*
X264253Y236806D01*
X264226Y236797D01*
X264137Y236738D01*
X264127Y236733D01*
X264119Y236727D01*
X264032Y236675D01*
X264013Y236655D01*
X263990Y236639D01*
X263926Y236563D01*
X263910Y236549D01*
X263899Y236533D01*
X263838Y236467D01*
X263825Y236443D01*
X263807Y236422D01*
X263772Y236342D01*
X263752Y236313D01*
X263743Y236281D01*
X263708Y236214D01*
X263704Y236190D01*
X263692Y236162D01*
X263682Y236089D01*
X263667Y236042D01*
X263665Y235967D01*
X263655Y235898D01*
X263653Y235883D01*
X263653Y223186D01*
X262476Y222009D01*
X262440Y221962D01*
X262398Y221922D01*
X262355Y221849D01*
X262305Y221782D01*
X262284Y221727D01*
X262254Y221677D01*
X262234Y221595D01*
X262204Y221516D01*
X262199Y221458D01*
X262184Y221401D01*
X262187Y221317D01*
X262180Y221233D01*
X262191Y221176D01*
X262193Y221117D01*
X262219Y221037D01*
X262236Y220954D01*
X262263Y220902D01*
X262281Y220846D01*
X262321Y220790D01*
X262367Y220702D01*
X262436Y220629D01*
X262476Y220573D01*
X263205Y219843D01*
X264129Y217614D01*
X264129Y215202D01*
X263205Y212973D01*
X261499Y211267D01*
X259270Y210343D01*
X256858Y210343D01*
G37*
%LPD*%
%LPC*%
G36*
X132091Y26455D02*
X132091Y26455D01*
X131530Y26687D01*
X131101Y27116D01*
X130869Y27677D01*
X130869Y29234D01*
X130877Y29235D01*
X130906Y29232D01*
X131017Y29255D01*
X131129Y29271D01*
X131156Y29282D01*
X131185Y29288D01*
X131285Y29341D01*
X131388Y29387D01*
X131411Y29406D01*
X131437Y29419D01*
X131519Y29497D01*
X131605Y29570D01*
X131622Y29595D01*
X131643Y29615D01*
X131700Y29713D01*
X131763Y29807D01*
X131772Y29835D01*
X131787Y29860D01*
X131815Y29970D01*
X131849Y30078D01*
X131850Y30108D01*
X131857Y30136D01*
X131853Y30249D01*
X131856Y30362D01*
X131849Y30391D01*
X131848Y30420D01*
X131813Y30528D01*
X131784Y30637D01*
X131769Y30662D01*
X131760Y30691D01*
X131715Y30754D01*
X131639Y30882D01*
X131593Y30925D01*
X131565Y30964D01*
X131097Y31432D01*
X131027Y31485D01*
X130964Y31544D01*
X130914Y31570D01*
X130870Y31603D01*
X130788Y31634D01*
X130782Y31637D01*
X130767Y31684D01*
X130739Y31723D01*
X130713Y31780D01*
X130617Y31894D01*
X130572Y31957D01*
X130311Y32218D01*
X130311Y39074D01*
X130314Y39089D01*
X130336Y39147D01*
X130348Y39295D01*
X130361Y39373D01*
X130361Y43982D01*
X131552Y45173D01*
X132080Y45173D01*
X132138Y45181D01*
X132196Y45179D01*
X132278Y45201D01*
X132362Y45213D01*
X132415Y45236D01*
X132471Y45251D01*
X132544Y45294D01*
X132621Y45329D01*
X132666Y45367D01*
X132716Y45396D01*
X132774Y45458D01*
X132838Y45512D01*
X132870Y45561D01*
X132910Y45604D01*
X132949Y45679D01*
X132996Y45749D01*
X133013Y45805D01*
X133040Y45857D01*
X133051Y45925D01*
X133081Y46020D01*
X133084Y46120D01*
X133095Y46188D01*
X133095Y46928D01*
X133087Y46986D01*
X133089Y47044D01*
X133067Y47126D01*
X133055Y47210D01*
X133032Y47263D01*
X133017Y47319D01*
X132974Y47392D01*
X132939Y47469D01*
X132901Y47514D01*
X132872Y47564D01*
X132810Y47622D01*
X132756Y47686D01*
X132707Y47718D01*
X132664Y47758D01*
X132589Y47797D01*
X132519Y47844D01*
X132463Y47861D01*
X132411Y47888D01*
X132343Y47899D01*
X132248Y47929D01*
X132148Y47932D01*
X132080Y47943D01*
X130302Y47943D01*
X129111Y49134D01*
X129111Y58818D01*
X130302Y60009D01*
X141986Y60009D01*
X143216Y58779D01*
X143217Y58774D01*
X143240Y58721D01*
X143255Y58665D01*
X143298Y58592D01*
X143333Y58515D01*
X143371Y58470D01*
X143400Y58420D01*
X143462Y58362D01*
X143516Y58298D01*
X143565Y58266D01*
X143608Y58226D01*
X143683Y58187D01*
X143753Y58140D01*
X143809Y58123D01*
X143861Y58096D01*
X143929Y58085D01*
X144024Y58055D01*
X144124Y58052D01*
X144192Y58041D01*
X152480Y58041D01*
X152538Y58049D01*
X152596Y58047D01*
X152678Y58069D01*
X152762Y58081D01*
X152815Y58104D01*
X152871Y58119D01*
X152944Y58162D01*
X153021Y58197D01*
X153066Y58235D01*
X153116Y58264D01*
X153174Y58326D01*
X153238Y58380D01*
X153270Y58429D01*
X153310Y58472D01*
X153349Y58547D01*
X153396Y58617D01*
X153413Y58673D01*
X153440Y58725D01*
X153451Y58793D01*
X153481Y58888D01*
X153484Y58988D01*
X153495Y59056D01*
X153495Y63546D01*
X154686Y64737D01*
X166370Y64737D01*
X167561Y63546D01*
X167561Y47862D01*
X166370Y46671D01*
X154686Y46671D01*
X153495Y47862D01*
X153495Y48896D01*
X153487Y48954D01*
X153489Y49012D01*
X153467Y49094D01*
X153455Y49178D01*
X153432Y49231D01*
X153417Y49287D01*
X153374Y49360D01*
X153339Y49437D01*
X153301Y49482D01*
X153272Y49532D01*
X153210Y49590D01*
X153156Y49654D01*
X153107Y49686D01*
X153064Y49726D01*
X152989Y49765D01*
X152919Y49812D01*
X152863Y49829D01*
X152811Y49856D01*
X152743Y49867D01*
X152648Y49897D01*
X152548Y49900D01*
X152480Y49911D01*
X144192Y49911D01*
X144134Y49903D01*
X144076Y49905D01*
X143994Y49883D01*
X143910Y49871D01*
X143857Y49848D01*
X143801Y49833D01*
X143728Y49790D01*
X143651Y49755D01*
X143606Y49717D01*
X143556Y49688D01*
X143498Y49626D01*
X143434Y49572D01*
X143402Y49523D01*
X143362Y49480D01*
X143323Y49405D01*
X143276Y49335D01*
X143259Y49279D01*
X143232Y49227D01*
X143225Y49182D01*
X141986Y47943D01*
X140208Y47943D01*
X140150Y47935D01*
X140092Y47937D01*
X140010Y47915D01*
X139926Y47903D01*
X139873Y47880D01*
X139817Y47865D01*
X139744Y47822D01*
X139667Y47787D01*
X139622Y47749D01*
X139572Y47720D01*
X139514Y47658D01*
X139450Y47604D01*
X139418Y47555D01*
X139378Y47512D01*
X139339Y47437D01*
X139292Y47367D01*
X139275Y47311D01*
X139248Y47259D01*
X139237Y47191D01*
X139207Y47096D01*
X139204Y46996D01*
X139193Y46928D01*
X139193Y46188D01*
X139201Y46130D01*
X139199Y46072D01*
X139221Y45990D01*
X139233Y45906D01*
X139256Y45853D01*
X139271Y45797D01*
X139314Y45724D01*
X139349Y45647D01*
X139387Y45602D01*
X139416Y45552D01*
X139478Y45494D01*
X139532Y45430D01*
X139581Y45398D01*
X139624Y45358D01*
X139699Y45319D01*
X139769Y45272D01*
X139825Y45255D01*
X139877Y45228D01*
X139945Y45217D01*
X140040Y45187D01*
X140140Y45184D01*
X140208Y45173D01*
X140736Y45173D01*
X141927Y43982D01*
X141927Y39373D01*
X141939Y39286D01*
X141942Y39198D01*
X141959Y39146D01*
X141967Y39091D01*
X141977Y39068D01*
X141977Y32218D01*
X141716Y31957D01*
X141664Y31888D01*
X141604Y31824D01*
X141578Y31774D01*
X141545Y31730D01*
X141514Y31648D01*
X141511Y31642D01*
X141464Y31627D01*
X141425Y31599D01*
X141368Y31573D01*
X141255Y31477D01*
X141191Y31432D01*
X140723Y30964D01*
X140705Y30940D01*
X140683Y30921D01*
X140620Y30827D01*
X140552Y30737D01*
X140541Y30709D01*
X140525Y30685D01*
X140491Y30577D01*
X140450Y30471D01*
X140448Y30442D01*
X140439Y30414D01*
X140436Y30301D01*
X140427Y30188D01*
X140433Y30159D01*
X140432Y30130D01*
X140460Y30020D01*
X140483Y29909D01*
X140496Y29883D01*
X140504Y29855D01*
X140561Y29757D01*
X140614Y29657D01*
X140634Y29635D01*
X140649Y29610D01*
X140732Y29533D01*
X140810Y29451D01*
X140835Y29436D01*
X140856Y29416D01*
X140957Y29364D01*
X141055Y29307D01*
X141083Y29300D01*
X141109Y29286D01*
X141187Y29273D01*
X141330Y29237D01*
X141393Y29239D01*
X141419Y29234D01*
X141419Y27677D01*
X141187Y27116D01*
X140758Y26687D01*
X140197Y26455D01*
X137393Y26455D01*
X137393Y30012D01*
X137385Y30070D01*
X137387Y30128D01*
X137365Y30210D01*
X137353Y30294D01*
X137330Y30347D01*
X137315Y30403D01*
X137272Y30476D01*
X137237Y30553D01*
X137199Y30598D01*
X137170Y30648D01*
X137108Y30706D01*
X137054Y30770D01*
X137005Y30802D01*
X136962Y30842D01*
X136887Y30881D01*
X136817Y30928D01*
X136761Y30945D01*
X136709Y30972D01*
X136641Y30983D01*
X136546Y31013D01*
X136446Y31016D01*
X136378Y31027D01*
X135910Y31027D01*
X135852Y31019D01*
X135794Y31021D01*
X135712Y30999D01*
X135628Y30987D01*
X135575Y30964D01*
X135519Y30949D01*
X135446Y30906D01*
X135369Y30871D01*
X135324Y30833D01*
X135274Y30804D01*
X135216Y30742D01*
X135152Y30688D01*
X135120Y30639D01*
X135080Y30596D01*
X135041Y30521D01*
X134994Y30451D01*
X134977Y30395D01*
X134950Y30343D01*
X134939Y30275D01*
X134909Y30180D01*
X134906Y30080D01*
X134895Y30012D01*
X134895Y26455D01*
X132091Y26455D01*
G37*
%LPD*%
%LPC*%
G36*
X468864Y16803D02*
X468864Y16803D01*
X467677Y17990D01*
X467608Y18042D01*
X467544Y18102D01*
X467494Y18128D01*
X467450Y18161D01*
X467368Y18192D01*
X467291Y18232D01*
X467243Y18240D01*
X467185Y18262D01*
X467037Y18274D01*
X466959Y18287D01*
X457969Y18287D01*
X453155Y23102D01*
X453085Y23154D01*
X453021Y23214D01*
X452971Y23240D01*
X452927Y23273D01*
X452846Y23304D01*
X452768Y23344D01*
X452720Y23352D01*
X452662Y23374D01*
X452514Y23386D01*
X452437Y23399D01*
X449898Y23399D01*
X447669Y24323D01*
X445963Y26029D01*
X445039Y28258D01*
X445039Y30670D01*
X445963Y32899D01*
X447669Y34605D01*
X448935Y35130D01*
X448960Y35145D01*
X448988Y35154D01*
X449082Y35217D01*
X449180Y35274D01*
X449200Y35296D01*
X449224Y35312D01*
X449297Y35399D01*
X449375Y35481D01*
X449389Y35507D01*
X449407Y35530D01*
X449453Y35633D01*
X449505Y35734D01*
X449511Y35763D01*
X449523Y35790D01*
X449538Y35902D01*
X449560Y36013D01*
X449558Y36042D01*
X449562Y36071D01*
X449546Y36183D01*
X449536Y36296D01*
X449525Y36324D01*
X449521Y36352D01*
X449475Y36455D01*
X449434Y36561D01*
X449416Y36585D01*
X449404Y36612D01*
X449331Y36698D01*
X449262Y36788D01*
X449239Y36806D01*
X449220Y36828D01*
X449153Y36870D01*
X449035Y36958D01*
X448976Y36980D01*
X448935Y37006D01*
X447669Y37531D01*
X445963Y39237D01*
X445039Y41466D01*
X445039Y43878D01*
X445963Y46107D01*
X447669Y47813D01*
X449898Y48737D01*
X452310Y48737D01*
X454539Y47813D01*
X456245Y46107D01*
X457169Y43878D01*
X457169Y41339D01*
X457181Y41253D01*
X457184Y41165D01*
X457201Y41113D01*
X457209Y41058D01*
X457244Y40978D01*
X457271Y40895D01*
X457299Y40856D01*
X457325Y40798D01*
X457421Y40685D01*
X457466Y40621D01*
X463245Y34842D01*
X463315Y34790D01*
X463379Y34730D01*
X463429Y34704D01*
X463473Y34671D01*
X463554Y34640D01*
X463632Y34600D01*
X463680Y34592D01*
X463738Y34570D01*
X463886Y34558D01*
X463963Y34545D01*
X466959Y34545D01*
X467046Y34557D01*
X467134Y34560D01*
X467186Y34577D01*
X467241Y34585D01*
X467321Y34620D01*
X467404Y34647D01*
X467443Y34675D01*
X467500Y34701D01*
X467614Y34797D01*
X467677Y34842D01*
X468864Y36029D01*
X478048Y36029D01*
X479239Y34838D01*
X479239Y30229D01*
X479251Y30142D01*
X479254Y30054D01*
X479271Y30002D01*
X479279Y29947D01*
X479289Y29924D01*
X479289Y22902D01*
X479286Y22887D01*
X479264Y22829D01*
X479252Y22681D01*
X479239Y22603D01*
X479239Y17994D01*
X478048Y16803D01*
X468864Y16803D01*
G37*
%LPD*%
%LPC*%
G36*
X449898Y50831D02*
X449898Y50831D01*
X447669Y51755D01*
X445963Y53461D01*
X445039Y55690D01*
X445039Y58102D01*
X445963Y60331D01*
X447669Y62037D01*
X449898Y62961D01*
X452437Y62961D01*
X452523Y62973D01*
X452611Y62976D01*
X452663Y62993D01*
X452718Y63001D01*
X452798Y63036D01*
X452881Y63063D01*
X452920Y63091D01*
X452978Y63117D01*
X453091Y63213D01*
X453155Y63258D01*
X467326Y77429D01*
X467378Y77499D01*
X467438Y77563D01*
X467464Y77612D01*
X467497Y77657D01*
X467528Y77738D01*
X467568Y77816D01*
X467576Y77864D01*
X467598Y77922D01*
X467610Y78070D01*
X467623Y78147D01*
X467623Y82296D01*
X467615Y82354D01*
X467617Y82412D01*
X467595Y82494D01*
X467583Y82578D01*
X467560Y82631D01*
X467545Y82687D01*
X467502Y82760D01*
X467467Y82837D01*
X467429Y82882D01*
X467400Y82932D01*
X467338Y82990D01*
X467284Y83054D01*
X467235Y83086D01*
X467192Y83126D01*
X467117Y83165D01*
X467047Y83212D01*
X466991Y83229D01*
X466939Y83256D01*
X466871Y83267D01*
X466776Y83297D01*
X466676Y83300D01*
X466608Y83311D01*
X458521Y83311D01*
X458407Y83295D01*
X458293Y83285D01*
X458267Y83275D01*
X458239Y83271D01*
X458134Y83224D01*
X458027Y83183D01*
X458005Y83167D01*
X457980Y83155D01*
X457892Y83081D01*
X457801Y83012D01*
X457784Y82989D01*
X457763Y82972D01*
X457699Y82876D01*
X457630Y82784D01*
X457621Y82758D01*
X457605Y82735D01*
X457571Y82625D01*
X457530Y82518D01*
X457528Y82490D01*
X457519Y82464D01*
X457517Y82349D01*
X457507Y82235D01*
X457513Y82210D01*
X457512Y82180D01*
X457579Y81923D01*
X457583Y81907D01*
X458185Y80454D01*
X458185Y78042D01*
X457261Y75813D01*
X455555Y74107D01*
X453326Y73183D01*
X450914Y73183D01*
X448685Y74107D01*
X446979Y75813D01*
X446055Y78042D01*
X446055Y80454D01*
X446979Y82683D01*
X448685Y84389D01*
X448842Y84454D01*
X448868Y84470D01*
X448898Y84480D01*
X448961Y84525D01*
X449086Y84599D01*
X449131Y84646D01*
X449171Y84675D01*
X451822Y87325D01*
X451822Y87326D01*
X453905Y89409D01*
X466959Y89409D01*
X467046Y89421D01*
X467134Y89424D01*
X467186Y89441D01*
X467241Y89449D01*
X467321Y89484D01*
X467404Y89511D01*
X467443Y89539D01*
X467500Y89565D01*
X467614Y89661D01*
X467677Y89706D01*
X468864Y90893D01*
X478048Y90893D01*
X479239Y89702D01*
X479239Y85093D01*
X479251Y85006D01*
X479254Y84918D01*
X479271Y84866D01*
X479279Y84811D01*
X479289Y84788D01*
X479289Y77766D01*
X479286Y77751D01*
X479264Y77693D01*
X479252Y77545D01*
X479239Y77467D01*
X479239Y72858D01*
X478048Y71667D01*
X470607Y71667D01*
X470521Y71655D01*
X470433Y71652D01*
X470381Y71635D01*
X470326Y71627D01*
X470246Y71592D01*
X470163Y71565D01*
X470124Y71537D01*
X470066Y71511D01*
X469953Y71415D01*
X469889Y71370D01*
X457466Y58947D01*
X457414Y58877D01*
X457354Y58813D01*
X457328Y58763D01*
X457295Y58719D01*
X457264Y58638D01*
X457224Y58560D01*
X457216Y58512D01*
X457194Y58454D01*
X457189Y58393D01*
X457183Y58373D01*
X457181Y58301D01*
X457169Y58229D01*
X457169Y55690D01*
X456245Y53461D01*
X454539Y51755D01*
X452310Y50831D01*
X449898Y50831D01*
G37*
%LPD*%
%LPC*%
G36*
X279643Y6095D02*
X279643Y6095D01*
X277709Y8030D01*
X277709Y15249D01*
X277701Y15307D01*
X277702Y15365D01*
X277681Y15447D01*
X277669Y15530D01*
X277645Y15584D01*
X277630Y15640D01*
X277587Y15713D01*
X277553Y15790D01*
X277515Y15834D01*
X277485Y15885D01*
X277424Y15942D01*
X277369Y16007D01*
X277320Y16039D01*
X277278Y16079D01*
X277203Y16117D01*
X277132Y16164D01*
X277077Y16182D01*
X277025Y16208D01*
X276957Y16220D01*
X276861Y16250D01*
X276762Y16253D01*
X276694Y16264D01*
X276254Y16264D01*
X274319Y18199D01*
X274319Y20935D01*
X276254Y22869D01*
X285769Y22869D01*
X286988Y21651D01*
X287035Y21615D01*
X287075Y21573D01*
X287148Y21530D01*
X287215Y21480D01*
X287270Y21459D01*
X287320Y21429D01*
X287402Y21409D01*
X287481Y21378D01*
X287539Y21374D01*
X287596Y21359D01*
X287680Y21362D01*
X287764Y21355D01*
X287821Y21366D01*
X287880Y21368D01*
X287960Y21394D01*
X288043Y21411D01*
X288095Y21438D01*
X288150Y21456D01*
X288207Y21496D01*
X288295Y21542D01*
X288368Y21611D01*
X288424Y21651D01*
X289643Y22869D01*
X295768Y22869D01*
X296987Y21651D01*
X297034Y21615D01*
X297074Y21573D01*
X297147Y21530D01*
X297214Y21480D01*
X297269Y21459D01*
X297319Y21429D01*
X297401Y21409D01*
X297480Y21378D01*
X297538Y21374D01*
X297595Y21359D01*
X297679Y21362D01*
X297763Y21355D01*
X297821Y21366D01*
X297879Y21368D01*
X297959Y21394D01*
X298042Y21411D01*
X298094Y21438D01*
X298150Y21456D01*
X298206Y21496D01*
X298294Y21542D01*
X298367Y21611D01*
X298423Y21651D01*
X299642Y22869D01*
X307462Y22869D01*
X311092Y19240D01*
X311092Y13114D01*
X307462Y9485D01*
X305328Y9485D01*
X305270Y9477D01*
X305212Y9478D01*
X305130Y9457D01*
X305046Y9445D01*
X304993Y9421D01*
X304937Y9406D01*
X304864Y9363D01*
X304787Y9329D01*
X304742Y9291D01*
X304692Y9261D01*
X304634Y9200D01*
X304570Y9145D01*
X304538Y9096D01*
X304498Y9054D01*
X304459Y8979D01*
X304412Y8908D01*
X304395Y8853D01*
X304368Y8801D01*
X304357Y8733D01*
X304327Y8637D01*
X304324Y8538D01*
X304313Y8470D01*
X304313Y8030D01*
X302378Y6095D01*
X299642Y6095D01*
X298423Y7314D01*
X298376Y7349D01*
X298336Y7392D01*
X298263Y7434D01*
X298196Y7485D01*
X298141Y7506D01*
X298091Y7535D01*
X298009Y7556D01*
X297930Y7586D01*
X297872Y7591D01*
X297815Y7606D01*
X297731Y7603D01*
X297647Y7610D01*
X297590Y7598D01*
X297531Y7596D01*
X297451Y7571D01*
X297368Y7554D01*
X297316Y7527D01*
X297261Y7509D01*
X297204Y7469D01*
X297116Y7423D01*
X297043Y7354D01*
X296987Y7314D01*
X295768Y6095D01*
X289643Y6095D01*
X287411Y8327D01*
X286047Y9691D01*
X286024Y9708D01*
X286005Y9731D01*
X285911Y9793D01*
X285820Y9861D01*
X285793Y9872D01*
X285768Y9888D01*
X285660Y9922D01*
X285555Y9963D01*
X285525Y9965D01*
X285497Y9974D01*
X285384Y9977D01*
X285271Y9986D01*
X285243Y9980D01*
X285213Y9981D01*
X285104Y9953D01*
X284993Y9930D01*
X284966Y9917D01*
X284938Y9909D01*
X284841Y9852D01*
X284740Y9799D01*
X284719Y9779D01*
X284694Y9764D01*
X284616Y9682D01*
X284534Y9604D01*
X284519Y9578D01*
X284499Y9557D01*
X284448Y9456D01*
X284390Y9358D01*
X284383Y9330D01*
X284370Y9304D01*
X284357Y9226D01*
X284320Y9083D01*
X284322Y9020D01*
X284314Y8973D01*
X284314Y8030D01*
X282380Y6095D01*
X279643Y6095D01*
G37*
%LPD*%
%LPC*%
G36*
X469403Y176823D02*
X469403Y176823D01*
X468842Y177055D01*
X468413Y177484D01*
X468181Y178045D01*
X468181Y179602D01*
X468189Y179603D01*
X468218Y179600D01*
X468329Y179623D01*
X468441Y179639D01*
X468468Y179650D01*
X468497Y179656D01*
X468597Y179709D01*
X468700Y179755D01*
X468723Y179774D01*
X468749Y179787D01*
X468831Y179865D01*
X468917Y179938D01*
X468934Y179963D01*
X468955Y179983D01*
X469012Y180081D01*
X469075Y180175D01*
X469084Y180203D01*
X469099Y180228D01*
X469127Y180338D01*
X469161Y180446D01*
X469162Y180476D01*
X469169Y180504D01*
X469165Y180617D01*
X469168Y180730D01*
X469161Y180759D01*
X469160Y180788D01*
X469125Y180896D01*
X469096Y181005D01*
X469081Y181030D01*
X469072Y181059D01*
X469027Y181122D01*
X468951Y181250D01*
X468905Y181293D01*
X468877Y181332D01*
X468409Y181800D01*
X468339Y181853D01*
X468276Y181912D01*
X468226Y181938D01*
X468182Y181971D01*
X468100Y182002D01*
X468094Y182005D01*
X468079Y182052D01*
X468051Y182091D01*
X468025Y182148D01*
X467929Y182262D01*
X467884Y182325D01*
X467623Y182586D01*
X467623Y186944D01*
X467615Y187002D01*
X467617Y187060D01*
X467595Y187142D01*
X467583Y187226D01*
X467560Y187279D01*
X467545Y187335D01*
X467502Y187408D01*
X467467Y187485D01*
X467429Y187530D01*
X467400Y187580D01*
X467338Y187638D01*
X467284Y187702D01*
X467235Y187734D01*
X467192Y187774D01*
X467117Y187813D01*
X467047Y187860D01*
X466991Y187877D01*
X466939Y187904D01*
X466871Y187915D01*
X466776Y187945D01*
X466676Y187948D01*
X466608Y187959D01*
X461117Y187959D01*
X461030Y187947D01*
X460943Y187944D01*
X460890Y187927D01*
X460835Y187919D01*
X460755Y187884D01*
X460672Y187857D01*
X460633Y187829D01*
X460576Y187803D01*
X460462Y187707D01*
X460399Y187662D01*
X458603Y185867D01*
X456374Y184943D01*
X453962Y184943D01*
X451733Y185867D01*
X450027Y187573D01*
X449103Y189802D01*
X449103Y192214D01*
X450027Y194443D01*
X451733Y196149D01*
X453962Y197073D01*
X456374Y197073D01*
X458603Y196149D01*
X460399Y194354D01*
X460468Y194302D01*
X460532Y194242D01*
X460582Y194216D01*
X460626Y194183D01*
X460708Y194152D01*
X460786Y194112D01*
X460833Y194104D01*
X460892Y194082D01*
X461039Y194070D01*
X461117Y194057D01*
X466959Y194057D01*
X467046Y194069D01*
X467134Y194072D01*
X467186Y194089D01*
X467241Y194097D01*
X467321Y194132D01*
X467404Y194159D01*
X467443Y194187D01*
X467500Y194213D01*
X467614Y194309D01*
X467677Y194354D01*
X468864Y195541D01*
X478048Y195541D01*
X479239Y194350D01*
X479239Y189741D01*
X479251Y189654D01*
X479254Y189566D01*
X479271Y189514D01*
X479279Y189459D01*
X479289Y189436D01*
X479289Y182586D01*
X479028Y182325D01*
X478976Y182256D01*
X478916Y182192D01*
X478890Y182142D01*
X478857Y182098D01*
X478826Y182016D01*
X478823Y182010D01*
X478776Y181995D01*
X478737Y181967D01*
X478680Y181941D01*
X478567Y181845D01*
X478503Y181800D01*
X478035Y181332D01*
X478017Y181308D01*
X477995Y181289D01*
X477932Y181195D01*
X477864Y181105D01*
X477853Y181077D01*
X477837Y181053D01*
X477803Y180945D01*
X477762Y180839D01*
X477760Y180810D01*
X477751Y180782D01*
X477748Y180669D01*
X477739Y180556D01*
X477745Y180527D01*
X477744Y180498D01*
X477772Y180388D01*
X477795Y180277D01*
X477808Y180251D01*
X477816Y180223D01*
X477873Y180125D01*
X477926Y180025D01*
X477946Y180003D01*
X477961Y179978D01*
X478044Y179901D01*
X478122Y179819D01*
X478147Y179804D01*
X478168Y179784D01*
X478269Y179732D01*
X478367Y179675D01*
X478395Y179668D01*
X478421Y179654D01*
X478499Y179641D01*
X478642Y179605D01*
X478705Y179607D01*
X478731Y179602D01*
X478731Y178045D01*
X478499Y177484D01*
X478070Y177055D01*
X477509Y176823D01*
X474705Y176823D01*
X474705Y180380D01*
X474697Y180438D01*
X474699Y180496D01*
X474677Y180578D01*
X474665Y180662D01*
X474642Y180715D01*
X474627Y180771D01*
X474584Y180844D01*
X474549Y180921D01*
X474511Y180966D01*
X474482Y181016D01*
X474420Y181074D01*
X474366Y181138D01*
X474317Y181170D01*
X474274Y181210D01*
X474199Y181249D01*
X474129Y181296D01*
X474073Y181313D01*
X474021Y181340D01*
X473953Y181351D01*
X473858Y181381D01*
X473758Y181384D01*
X473690Y181395D01*
X473222Y181395D01*
X473164Y181387D01*
X473106Y181389D01*
X473024Y181367D01*
X472940Y181355D01*
X472887Y181332D01*
X472831Y181317D01*
X472758Y181274D01*
X472681Y181239D01*
X472636Y181201D01*
X472586Y181172D01*
X472528Y181110D01*
X472464Y181056D01*
X472432Y181007D01*
X472392Y180964D01*
X472353Y180889D01*
X472306Y180819D01*
X472289Y180763D01*
X472262Y180711D01*
X472251Y180643D01*
X472221Y180548D01*
X472218Y180448D01*
X472207Y180380D01*
X472207Y176823D01*
X469403Y176823D01*
G37*
%LPD*%
%LPC*%
G36*
X453962Y219487D02*
X453962Y219487D01*
X451733Y220411D01*
X450027Y222117D01*
X449103Y224346D01*
X449103Y226758D01*
X450027Y228987D01*
X451733Y230693D01*
X453962Y231617D01*
X455485Y231617D01*
X455571Y231629D01*
X455659Y231632D01*
X455711Y231649D01*
X455766Y231657D01*
X455846Y231692D01*
X455929Y231719D01*
X455968Y231747D01*
X456026Y231773D01*
X456139Y231869D01*
X456203Y231914D01*
X458985Y234697D01*
X465408Y234697D01*
X465466Y234705D01*
X465524Y234703D01*
X465606Y234725D01*
X465690Y234737D01*
X465743Y234760D01*
X465799Y234775D01*
X465872Y234818D01*
X465949Y234853D01*
X465994Y234891D01*
X466044Y234920D01*
X466102Y234982D01*
X466166Y235036D01*
X466198Y235085D01*
X466238Y235128D01*
X466277Y235203D01*
X466324Y235273D01*
X466341Y235329D01*
X466368Y235381D01*
X466379Y235449D01*
X466409Y235544D01*
X466412Y235644D01*
X466423Y235712D01*
X466423Y236618D01*
X467614Y237809D01*
X479298Y237809D01*
X480489Y236618D01*
X480489Y226934D01*
X479298Y225743D01*
X467614Y225743D01*
X466423Y226934D01*
X466423Y227584D01*
X466415Y227642D01*
X466417Y227700D01*
X466395Y227782D01*
X466383Y227866D01*
X466360Y227919D01*
X466345Y227975D01*
X466302Y228048D01*
X466267Y228125D01*
X466229Y228170D01*
X466200Y228220D01*
X466138Y228278D01*
X466084Y228342D01*
X466035Y228374D01*
X465992Y228414D01*
X465917Y228453D01*
X465847Y228500D01*
X465791Y228517D01*
X465739Y228544D01*
X465671Y228555D01*
X465576Y228585D01*
X465476Y228588D01*
X465408Y228599D01*
X461990Y228599D01*
X461876Y228583D01*
X461761Y228573D01*
X461736Y228563D01*
X461708Y228559D01*
X461603Y228512D01*
X461496Y228471D01*
X461474Y228455D01*
X461449Y228443D01*
X461361Y228369D01*
X461269Y228300D01*
X461253Y228277D01*
X461232Y228260D01*
X461168Y228164D01*
X461099Y228072D01*
X461090Y228046D01*
X461074Y228023D01*
X461039Y227913D01*
X460999Y227806D01*
X460997Y227778D01*
X460988Y227752D01*
X460985Y227637D01*
X460976Y227523D01*
X460982Y227498D01*
X460981Y227468D01*
X461048Y227211D01*
X461052Y227195D01*
X461233Y226758D01*
X461233Y224346D01*
X460309Y222117D01*
X458603Y220411D01*
X456374Y219487D01*
X453962Y219487D01*
G37*
%LPD*%
%LPC*%
G36*
X130302Y63943D02*
X130302Y63943D01*
X129671Y64575D01*
X129624Y64610D01*
X129583Y64652D01*
X129511Y64695D01*
X129444Y64745D01*
X129389Y64766D01*
X129338Y64796D01*
X129257Y64817D01*
X129178Y64847D01*
X129119Y64852D01*
X129062Y64866D01*
X128978Y64863D01*
X128895Y64870D01*
X128837Y64859D01*
X128778Y64857D01*
X128724Y64839D01*
X123095Y64839D01*
X123008Y64827D01*
X122920Y64824D01*
X122868Y64807D01*
X122813Y64799D01*
X122733Y64764D01*
X122650Y64737D01*
X122611Y64709D01*
X122554Y64683D01*
X122440Y64587D01*
X122377Y64542D01*
X122206Y64371D01*
X114522Y64371D01*
X113331Y65562D01*
X113331Y72246D01*
X114522Y73437D01*
X122206Y73437D01*
X122377Y73266D01*
X122446Y73214D01*
X122510Y73154D01*
X122560Y73128D01*
X122604Y73095D01*
X122686Y73064D01*
X122763Y73024D01*
X122811Y73016D01*
X122869Y72994D01*
X123017Y72982D01*
X123095Y72969D01*
X124712Y72969D01*
X124798Y72981D01*
X124886Y72984D01*
X124938Y73001D01*
X124993Y73009D01*
X125073Y73044D01*
X125156Y73071D01*
X125196Y73099D01*
X125253Y73125D01*
X125366Y73221D01*
X125430Y73266D01*
X126332Y74169D01*
X128096Y74169D01*
X128154Y74177D01*
X128212Y74175D01*
X128294Y74197D01*
X128378Y74209D01*
X128431Y74232D01*
X128487Y74247D01*
X128560Y74290D01*
X128637Y74325D01*
X128682Y74363D01*
X128732Y74392D01*
X128790Y74454D01*
X128854Y74508D01*
X128886Y74557D01*
X128926Y74600D01*
X128961Y74668D01*
X130302Y76009D01*
X141986Y76009D01*
X143177Y74818D01*
X143177Y65134D01*
X141986Y63943D01*
X130302Y63943D01*
G37*
%LPD*%
%LPC*%
G36*
X167478Y91431D02*
X167478Y91431D01*
X167267Y91642D01*
X167198Y91694D01*
X167134Y91754D01*
X167084Y91780D01*
X167040Y91813D01*
X166958Y91844D01*
X166881Y91884D01*
X166833Y91892D01*
X166775Y91914D01*
X166627Y91926D01*
X166549Y91939D01*
X165835Y91939D01*
X165835Y99464D01*
X165835Y106989D01*
X166549Y106989D01*
X166636Y107001D01*
X166724Y107004D01*
X166776Y107021D01*
X166831Y107029D01*
X166911Y107064D01*
X166994Y107091D01*
X167033Y107119D01*
X167090Y107145D01*
X167204Y107241D01*
X167267Y107286D01*
X167478Y107497D01*
X177162Y107497D01*
X177373Y107286D01*
X177442Y107234D01*
X177506Y107174D01*
X177556Y107148D01*
X177600Y107115D01*
X177682Y107084D01*
X177759Y107044D01*
X177807Y107036D01*
X177865Y107014D01*
X178013Y107002D01*
X178091Y106989D01*
X178805Y106989D01*
X178805Y99464D01*
X178805Y91939D01*
X178091Y91939D01*
X178004Y91927D01*
X177916Y91924D01*
X177864Y91907D01*
X177809Y91899D01*
X177729Y91864D01*
X177646Y91837D01*
X177607Y91809D01*
X177550Y91783D01*
X177436Y91687D01*
X177373Y91642D01*
X177162Y91431D01*
X167478Y91431D01*
G37*
%LPD*%
%LPC*%
G36*
X189230Y7191D02*
X189230Y7191D01*
X188039Y8382D01*
X188039Y20066D01*
X189230Y21257D01*
X200914Y21257D01*
X202105Y20066D01*
X202105Y8382D01*
X200914Y7191D01*
X189230Y7191D01*
G37*
%LPD*%
%LPC*%
G36*
X236279Y6588D02*
X236279Y6588D01*
X232265Y9505D01*
X230732Y14224D01*
X232265Y18943D01*
X236279Y21860D01*
X241241Y21860D01*
X245255Y18943D01*
X246788Y14224D01*
X245255Y9505D01*
X241241Y6588D01*
X236279Y6588D01*
G37*
%LPD*%
%LPC*%
G36*
X464925Y48603D02*
X464925Y48603D01*
X461995Y51533D01*
X461995Y55675D01*
X464925Y58605D01*
X469067Y58605D01*
X471997Y55675D01*
X471997Y51533D01*
X469067Y48603D01*
X464925Y48603D01*
G37*
%LPD*%
%LPC*%
G36*
X464925Y208603D02*
X464925Y208603D01*
X461995Y211533D01*
X461995Y215675D01*
X464925Y218605D01*
X469067Y218605D01*
X471997Y215675D01*
X471997Y211533D01*
X469067Y208603D01*
X464925Y208603D01*
G37*
%LPD*%
%LPC*%
G36*
X91631Y76879D02*
X91631Y76879D01*
X91631Y82651D01*
X91863Y83212D01*
X92292Y83641D01*
X92853Y83873D01*
X97125Y83873D01*
X97125Y76879D01*
X91631Y76879D01*
G37*
%LPD*%
%LPC*%
G36*
X153059Y35735D02*
X153059Y35735D01*
X153059Y42229D01*
X156331Y42229D01*
X156892Y41997D01*
X157321Y41568D01*
X157553Y41007D01*
X157553Y35735D01*
X153059Y35735D01*
G37*
%LPD*%
%LPC*%
G36*
X144503Y35735D02*
X144503Y35735D01*
X144503Y41007D01*
X144735Y41568D01*
X145164Y41997D01*
X145725Y42229D01*
X148997Y42229D01*
X148997Y35735D01*
X144503Y35735D01*
G37*
%LPD*%
%LPC*%
G36*
X145725Y25179D02*
X145725Y25179D01*
X145164Y25411D01*
X144735Y25840D01*
X144503Y26401D01*
X144503Y31673D01*
X148997Y31673D01*
X148997Y25179D01*
X145725Y25179D01*
G37*
%LPD*%
%LPC*%
G36*
X221614Y233552D02*
X221614Y233552D01*
X221614Y240793D01*
X223823Y240793D01*
X224384Y240561D01*
X224813Y240132D01*
X225045Y239571D01*
X225045Y233552D01*
X221614Y233552D01*
G37*
%LPD*%
%LPC*%
G36*
X221614Y182752D02*
X221614Y182752D01*
X221614Y189993D01*
X223823Y189993D01*
X224384Y189761D01*
X224813Y189332D01*
X225045Y188771D01*
X225045Y182752D01*
X221614Y182752D01*
G37*
%LPD*%
%LPC*%
G36*
X221614Y37464D02*
X221614Y37464D01*
X221614Y44705D01*
X223823Y44705D01*
X224384Y44473D01*
X224813Y44044D01*
X225045Y43483D01*
X225045Y37464D01*
X221614Y37464D01*
G37*
%LPD*%
%LPC*%
G36*
X221614Y222503D02*
X221614Y222503D01*
X221614Y229744D01*
X225045Y229744D01*
X225045Y223725D01*
X224813Y223164D01*
X224384Y222735D01*
X223823Y222503D01*
X221614Y222503D01*
G37*
%LPD*%
%LPC*%
G36*
X221614Y77215D02*
X221614Y77215D01*
X221614Y84456D01*
X225045Y84456D01*
X225045Y78437D01*
X224813Y77876D01*
X224384Y77447D01*
X223823Y77215D01*
X221614Y77215D01*
G37*
%LPD*%
%LPC*%
G36*
X221614Y26415D02*
X221614Y26415D01*
X221614Y33656D01*
X225045Y33656D01*
X225045Y27637D01*
X224813Y27076D01*
X224384Y26647D01*
X223823Y26415D01*
X221614Y26415D01*
G37*
%LPD*%
%LPC*%
G36*
X214375Y233552D02*
X214375Y233552D01*
X214375Y239571D01*
X214607Y240132D01*
X215036Y240561D01*
X215597Y240793D01*
X217806Y240793D01*
X217806Y233552D01*
X214375Y233552D01*
G37*
%LPD*%
%LPC*%
G36*
X214375Y37464D02*
X214375Y37464D01*
X214375Y43483D01*
X214607Y44044D01*
X215036Y44473D01*
X215597Y44705D01*
X217806Y44705D01*
X217806Y37464D01*
X214375Y37464D01*
G37*
%LPD*%
%LPC*%
G36*
X215597Y222503D02*
X215597Y222503D01*
X215036Y222735D01*
X214607Y223164D01*
X214375Y223725D01*
X214375Y229744D01*
X217806Y229744D01*
X217806Y222503D01*
X215597Y222503D01*
G37*
%LPD*%
%LPC*%
G36*
X215597Y77215D02*
X215597Y77215D01*
X215036Y77447D01*
X214607Y77876D01*
X214375Y78437D01*
X214375Y84456D01*
X217806Y84456D01*
X217806Y77215D01*
X215597Y77215D01*
G37*
%LPD*%
%LPC*%
G36*
X215597Y26415D02*
X215597Y26415D01*
X215036Y26647D01*
X214607Y27076D01*
X214375Y27637D01*
X214375Y33656D01*
X217806Y33656D01*
X217806Y26415D01*
X215597Y26415D01*
G37*
%LPD*%
G36*
X267500Y122397D02*
X267500Y122397D01*
X267558Y122395D01*
X267640Y122417D01*
X267724Y122429D01*
X267777Y122452D01*
X267833Y122467D01*
X267906Y122510D01*
X267983Y122545D01*
X268028Y122583D01*
X268078Y122612D01*
X268136Y122674D01*
X268200Y122728D01*
X268232Y122777D01*
X268272Y122820D01*
X268311Y122895D01*
X268358Y122965D01*
X268375Y123021D01*
X268402Y123073D01*
X268413Y123141D01*
X268443Y123236D01*
X268446Y123336D01*
X268457Y123404D01*
X268457Y129580D01*
X268449Y129638D01*
X268451Y129696D01*
X268429Y129778D01*
X268417Y129862D01*
X268394Y129915D01*
X268379Y129971D01*
X268336Y130044D01*
X268301Y130121D01*
X268263Y130166D01*
X268234Y130216D01*
X268172Y130274D01*
X268118Y130338D01*
X268069Y130370D01*
X268026Y130410D01*
X267951Y130449D01*
X267881Y130496D01*
X267825Y130513D01*
X267773Y130540D01*
X267705Y130551D01*
X267610Y130581D01*
X267510Y130584D01*
X267442Y130595D01*
X266974Y130595D01*
X266916Y130587D01*
X266858Y130589D01*
X266776Y130567D01*
X266692Y130555D01*
X266639Y130532D01*
X266583Y130517D01*
X266510Y130474D01*
X266433Y130439D01*
X266388Y130401D01*
X266338Y130372D01*
X266280Y130310D01*
X266216Y130256D01*
X266184Y130207D01*
X266144Y130164D01*
X266105Y130089D01*
X266058Y130019D01*
X266041Y129963D01*
X266014Y129911D01*
X266003Y129843D01*
X265973Y129748D01*
X265970Y129648D01*
X265959Y129580D01*
X265959Y123404D01*
X265967Y123346D01*
X265965Y123288D01*
X265987Y123206D01*
X265999Y123122D01*
X266022Y123069D01*
X266037Y123013D01*
X266080Y122940D01*
X266115Y122863D01*
X266153Y122818D01*
X266182Y122768D01*
X266244Y122710D01*
X266298Y122646D01*
X266347Y122614D01*
X266390Y122574D01*
X266465Y122535D01*
X266535Y122488D01*
X266591Y122471D01*
X266643Y122444D01*
X266711Y122433D01*
X266806Y122403D01*
X266906Y122400D01*
X266974Y122389D01*
X267442Y122389D01*
X267500Y122397D01*
G37*
%LPC*%
G36*
X475455Y249775D02*
X475455Y249775D01*
X475455Y253301D01*
X478759Y253301D01*
X479320Y253069D01*
X479749Y252640D01*
X479981Y252079D01*
X479981Y249775D01*
X475455Y249775D01*
G37*
%LPD*%
%LPC*%
G36*
X199991Y62959D02*
X199991Y62959D01*
X199991Y67485D01*
X202295Y67485D01*
X202856Y67253D01*
X203285Y66824D01*
X203517Y66263D01*
X203517Y62959D01*
X199991Y62959D01*
G37*
%LPD*%
%LPC*%
G36*
X57751Y84295D02*
X57751Y84295D01*
X57751Y88821D01*
X60055Y88821D01*
X60616Y88589D01*
X61045Y88160D01*
X61277Y87599D01*
X61277Y84295D01*
X57751Y84295D01*
G37*
%LPD*%
%LPC*%
G36*
X57751Y186911D02*
X57751Y186911D01*
X57751Y191437D01*
X60055Y191437D01*
X60616Y191205D01*
X61045Y190776D01*
X61277Y190215D01*
X61277Y186911D01*
X57751Y186911D01*
G37*
%LPD*%
%LPC*%
G36*
X466931Y249775D02*
X466931Y249775D01*
X466931Y252079D01*
X467163Y252640D01*
X467592Y253069D01*
X468153Y253301D01*
X471457Y253301D01*
X471457Y249775D01*
X466931Y249775D01*
G37*
%LPD*%
%LPC*%
G36*
X57751Y75771D02*
X57751Y75771D01*
X57751Y80297D01*
X61277Y80297D01*
X61277Y76993D01*
X61045Y76432D01*
X60616Y76003D01*
X60055Y75771D01*
X57751Y75771D01*
G37*
%LPD*%
%LPC*%
G36*
X199991Y54435D02*
X199991Y54435D01*
X199991Y58961D01*
X203517Y58961D01*
X203517Y55657D01*
X203285Y55096D01*
X202856Y54667D01*
X202295Y54435D01*
X199991Y54435D01*
G37*
%LPD*%
%LPC*%
G36*
X475455Y242251D02*
X475455Y242251D01*
X475455Y245777D01*
X479981Y245777D01*
X479981Y243473D01*
X479749Y242912D01*
X479320Y242483D01*
X478759Y242251D01*
X475455Y242251D01*
G37*
%LPD*%
%LPC*%
G36*
X50227Y84295D02*
X50227Y84295D01*
X50227Y87599D01*
X50459Y88160D01*
X50888Y88589D01*
X51449Y88821D01*
X53753Y88821D01*
X53753Y84295D01*
X50227Y84295D01*
G37*
%LPD*%
%LPC*%
G36*
X192467Y62959D02*
X192467Y62959D01*
X192467Y66263D01*
X192699Y66824D01*
X193128Y67253D01*
X193689Y67485D01*
X195993Y67485D01*
X195993Y62959D01*
X192467Y62959D01*
G37*
%LPD*%
%LPC*%
G36*
X50227Y186911D02*
X50227Y186911D01*
X50227Y190215D01*
X50459Y190776D01*
X50888Y191205D01*
X51449Y191437D01*
X53753Y191437D01*
X53753Y186911D01*
X50227Y186911D01*
G37*
%LPD*%
%LPC*%
G36*
X51449Y75771D02*
X51449Y75771D01*
X50888Y76003D01*
X50459Y76432D01*
X50227Y76993D01*
X50227Y80297D01*
X53753Y80297D01*
X53753Y75771D01*
X51449Y75771D01*
G37*
%LPD*%
%LPC*%
G36*
X193689Y54435D02*
X193689Y54435D01*
X193128Y54667D01*
X192699Y55096D01*
X192467Y55657D01*
X192467Y58961D01*
X195993Y58961D01*
X195993Y54435D01*
X193689Y54435D01*
G37*
%LPD*%
%LPC*%
G36*
X468153Y242251D02*
X468153Y242251D01*
X467592Y242483D01*
X467163Y242912D01*
X466931Y243473D01*
X466931Y245777D01*
X471457Y245777D01*
X471457Y242251D01*
X468153Y242251D01*
G37*
%LPD*%
%LPC*%
G36*
X151027Y33703D02*
X151027Y33703D01*
X151027Y33705D01*
X151029Y33705D01*
X151029Y33703D01*
X151027Y33703D01*
G37*
%LPD*%
D10*
X281012Y9398D02*
X281012Y19567D01*
X284401Y19567D02*
X277622Y19567D01*
X291011Y19567D02*
X294400Y19567D01*
X291011Y19567D02*
X289316Y17872D01*
X289316Y11093D01*
X291011Y9398D01*
X294400Y9398D01*
X296095Y11093D01*
X296095Y17872D01*
X294400Y19567D01*
X301010Y19567D02*
X301010Y9398D01*
X301010Y19567D02*
X306094Y19567D01*
X307789Y17872D01*
X307789Y14482D01*
X306094Y12788D01*
X301010Y12788D01*
D11*
X257810Y231648D03*
X257810Y180848D03*
X219710Y231648D03*
X219710Y180848D03*
X257810Y86360D03*
X257810Y35560D03*
X219710Y86360D03*
X219710Y35560D03*
D12*
X226260Y156104D03*
X226260Y111104D03*
X251260Y111104D03*
X251260Y156104D03*
D13*
X160528Y55704D03*
X170028Y33704D03*
X151028Y33704D03*
D14*
X204320Y118964D03*
X204320Y123964D03*
X204320Y128964D03*
X204320Y133964D03*
X204320Y138964D03*
X204320Y143964D03*
X204320Y148964D03*
X204320Y153964D03*
X204320Y158964D03*
X204320Y163964D03*
X204320Y168964D03*
X204320Y173964D03*
X204320Y178964D03*
X204320Y183964D03*
X204320Y188964D03*
X204320Y193964D03*
D15*
X184820Y213464D03*
X179820Y213464D03*
X174820Y213464D03*
X169820Y213464D03*
X164820Y213464D03*
X159820Y213464D03*
X154820Y213464D03*
X149820Y213464D03*
X144820Y213464D03*
X139820Y213464D03*
X134820Y213464D03*
X129820Y213464D03*
X124820Y213464D03*
X119820Y213464D03*
X114820Y213464D03*
X109820Y213464D03*
D14*
X90320Y193964D03*
X90320Y188964D03*
X90320Y183964D03*
X90320Y178964D03*
X90320Y173964D03*
X90320Y168964D03*
X90320Y163964D03*
X90320Y158964D03*
X90320Y153964D03*
X90320Y148964D03*
X90320Y143964D03*
X90320Y138964D03*
X90320Y133964D03*
X90320Y128964D03*
X90320Y123964D03*
X90320Y118964D03*
D15*
X109820Y99464D03*
X114820Y99464D03*
X119820Y99464D03*
X124820Y99464D03*
X129820Y99464D03*
X134820Y99464D03*
X139820Y99464D03*
X144820Y99464D03*
X149820Y99464D03*
X154820Y99464D03*
X159820Y99464D03*
X164820Y99464D03*
X169820Y99464D03*
X174820Y99464D03*
X179820Y99464D03*
X184820Y99464D03*
D16*
X256032Y250952D03*
D17*
X240157Y250952D03*
X224282Y250952D03*
X208407Y250952D03*
X192532Y250952D03*
X176657Y250952D03*
D18*
X44276Y133604D03*
X44276Y140104D03*
X44276Y146604D03*
X44276Y127104D03*
X44276Y120604D03*
D19*
X17526Y145104D03*
X17526Y122104D03*
D20*
X22276Y102854D02*
X22276Y91604D01*
X12776Y91604D01*
X12776Y102854D01*
X22276Y102854D01*
X22276Y100629D02*
X12776Y100629D01*
X22276Y164354D02*
X22276Y175604D01*
X22276Y164354D02*
X12776Y164354D01*
X12776Y175604D01*
X22276Y175604D01*
X22276Y173379D02*
X12776Y173379D01*
D21*
X46226Y155304D02*
X48826Y155304D01*
X46226Y155304D02*
X46226Y156404D01*
X48826Y156404D01*
X48826Y155304D01*
X48826Y110804D02*
X46226Y110804D01*
X46226Y111904D01*
X48826Y111904D01*
X48826Y110804D01*
D22*
X136144Y69976D03*
X136144Y53976D03*
D23*
X99156Y74848D03*
D24*
X99156Y95358D03*
X75596Y95308D03*
X75596Y73348D03*
D25*
X118364Y68904D03*
X118364Y45904D03*
D26*
X70104Y166624D03*
X70104Y156464D03*
X66040Y134112D03*
X66040Y123952D03*
X76200Y134112D03*
X76200Y123952D03*
X59944Y172720D03*
X59944Y162560D03*
X70104Y188976D03*
X70104Y178816D03*
D27*
X55752Y184912D03*
X39752Y184912D03*
X55752Y82296D03*
X39752Y82296D03*
D26*
X267208Y130048D03*
X267208Y140208D03*
X267208Y122936D03*
X267208Y112776D03*
D28*
X153416Y231648D03*
X143256Y231648D03*
X84328Y107696D03*
X94488Y107696D03*
D26*
X76200Y106680D03*
X76200Y116840D03*
D28*
X174752Y79248D03*
X184912Y79248D03*
X153416Y242824D03*
X143256Y242824D03*
X212344Y99568D03*
X202184Y99568D03*
X186944Y236728D03*
X176784Y236728D03*
D26*
X269240Y240792D03*
X269240Y250952D03*
X473456Y143256D03*
X473456Y153416D03*
X473456Y123952D03*
X473456Y113792D03*
X473456Y76200D03*
X473456Y86360D03*
X473456Y21336D03*
X473456Y31496D03*
D28*
X165608Y18288D03*
X155448Y18288D03*
D26*
X136144Y40640D03*
X136144Y30480D03*
D27*
X197992Y60960D03*
X181992Y60960D03*
D26*
X473456Y180848D03*
X473456Y191008D03*
D29*
X195072Y14224D03*
D30*
X235760Y14224D02*
X235762Y14333D01*
X235768Y14442D01*
X235778Y14550D01*
X235792Y14658D01*
X235809Y14766D01*
X235831Y14873D01*
X235856Y14979D01*
X235886Y15083D01*
X235919Y15187D01*
X235956Y15290D01*
X235996Y15391D01*
X236040Y15490D01*
X236088Y15588D01*
X236140Y15685D01*
X236194Y15779D01*
X236252Y15871D01*
X236314Y15961D01*
X236379Y16048D01*
X236446Y16134D01*
X236517Y16217D01*
X236591Y16297D01*
X236668Y16374D01*
X236747Y16449D01*
X236829Y16520D01*
X236914Y16589D01*
X237001Y16654D01*
X237090Y16717D01*
X237182Y16775D01*
X237276Y16831D01*
X237371Y16883D01*
X237469Y16932D01*
X237568Y16977D01*
X237669Y17019D01*
X237771Y17056D01*
X237874Y17090D01*
X237979Y17121D01*
X238085Y17147D01*
X238191Y17170D01*
X238299Y17188D01*
X238407Y17203D01*
X238515Y17214D01*
X238624Y17221D01*
X238733Y17224D01*
X238842Y17223D01*
X238951Y17218D01*
X239059Y17209D01*
X239167Y17196D01*
X239275Y17179D01*
X239382Y17159D01*
X239488Y17134D01*
X239593Y17106D01*
X239697Y17074D01*
X239800Y17038D01*
X239902Y16998D01*
X240002Y16955D01*
X240100Y16908D01*
X240197Y16858D01*
X240291Y16804D01*
X240384Y16746D01*
X240475Y16686D01*
X240563Y16622D01*
X240649Y16555D01*
X240732Y16485D01*
X240813Y16412D01*
X240891Y16336D01*
X240966Y16257D01*
X241039Y16175D01*
X241108Y16091D01*
X241174Y16005D01*
X241237Y15916D01*
X241297Y15825D01*
X241354Y15732D01*
X241407Y15637D01*
X241456Y15540D01*
X241502Y15441D01*
X241544Y15341D01*
X241583Y15239D01*
X241618Y15135D01*
X241649Y15031D01*
X241677Y14926D01*
X241700Y14819D01*
X241720Y14712D01*
X241736Y14604D01*
X241748Y14496D01*
X241756Y14387D01*
X241760Y14278D01*
X241760Y14170D01*
X241756Y14061D01*
X241748Y13952D01*
X241736Y13844D01*
X241720Y13736D01*
X241700Y13629D01*
X241677Y13522D01*
X241649Y13417D01*
X241618Y13313D01*
X241583Y13209D01*
X241544Y13107D01*
X241502Y13007D01*
X241456Y12908D01*
X241407Y12811D01*
X241354Y12716D01*
X241297Y12623D01*
X241237Y12532D01*
X241174Y12443D01*
X241108Y12357D01*
X241039Y12273D01*
X240966Y12191D01*
X240891Y12112D01*
X240813Y12036D01*
X240732Y11963D01*
X240649Y11893D01*
X240563Y11826D01*
X240475Y11762D01*
X240384Y11702D01*
X240291Y11644D01*
X240197Y11590D01*
X240100Y11540D01*
X240002Y11493D01*
X239902Y11450D01*
X239800Y11410D01*
X239697Y11374D01*
X239593Y11342D01*
X239488Y11314D01*
X239382Y11289D01*
X239275Y11269D01*
X239167Y11252D01*
X239059Y11239D01*
X238951Y11230D01*
X238842Y11225D01*
X238733Y11224D01*
X238624Y11227D01*
X238515Y11234D01*
X238407Y11245D01*
X238299Y11260D01*
X238191Y11278D01*
X238085Y11301D01*
X237979Y11327D01*
X237874Y11358D01*
X237771Y11392D01*
X237669Y11429D01*
X237568Y11471D01*
X237469Y11516D01*
X237371Y11565D01*
X237276Y11617D01*
X237182Y11673D01*
X237090Y11731D01*
X237001Y11794D01*
X236914Y11859D01*
X236829Y11928D01*
X236747Y11999D01*
X236668Y12074D01*
X236591Y12151D01*
X236517Y12231D01*
X236446Y12314D01*
X236379Y12400D01*
X236314Y12487D01*
X236252Y12577D01*
X236194Y12669D01*
X236140Y12763D01*
X236088Y12860D01*
X236040Y12958D01*
X235996Y13057D01*
X235956Y13158D01*
X235919Y13261D01*
X235886Y13365D01*
X235856Y13469D01*
X235831Y13575D01*
X235809Y13682D01*
X235792Y13790D01*
X235778Y13898D01*
X235768Y14006D01*
X235762Y14115D01*
X235760Y14224D01*
X235762Y14333D01*
X235768Y14442D01*
X235778Y14550D01*
X235792Y14658D01*
X235809Y14766D01*
X235831Y14873D01*
X235856Y14979D01*
X235886Y15083D01*
X235919Y15187D01*
X235956Y15290D01*
X235996Y15391D01*
X236040Y15490D01*
X236088Y15588D01*
X236140Y15685D01*
X236194Y15779D01*
X236252Y15871D01*
X236314Y15961D01*
X236379Y16048D01*
X236446Y16134D01*
X236517Y16217D01*
X236591Y16297D01*
X236668Y16374D01*
X236747Y16449D01*
X236829Y16520D01*
X236914Y16589D01*
X237001Y16654D01*
X237090Y16717D01*
X237182Y16775D01*
X237276Y16831D01*
X237371Y16883D01*
X237469Y16932D01*
X237568Y16977D01*
X237669Y17019D01*
X237771Y17056D01*
X237874Y17090D01*
X237979Y17121D01*
X238085Y17147D01*
X238191Y17170D01*
X238299Y17188D01*
X238407Y17203D01*
X238515Y17214D01*
X238624Y17221D01*
X238733Y17224D01*
X238842Y17223D01*
X238951Y17218D01*
X239059Y17209D01*
X239167Y17196D01*
X239275Y17179D01*
X239382Y17159D01*
X239488Y17134D01*
X239593Y17106D01*
X239697Y17074D01*
X239800Y17038D01*
X239902Y16998D01*
X240002Y16955D01*
X240100Y16908D01*
X240197Y16858D01*
X240291Y16804D01*
X240384Y16746D01*
X240475Y16686D01*
X240563Y16622D01*
X240649Y16555D01*
X240732Y16485D01*
X240813Y16412D01*
X240891Y16336D01*
X240966Y16257D01*
X241039Y16175D01*
X241108Y16091D01*
X241174Y16005D01*
X241237Y15916D01*
X241297Y15825D01*
X241354Y15732D01*
X241407Y15637D01*
X241456Y15540D01*
X241502Y15441D01*
X241544Y15341D01*
X241583Y15239D01*
X241618Y15135D01*
X241649Y15031D01*
X241677Y14926D01*
X241700Y14819D01*
X241720Y14712D01*
X241736Y14604D01*
X241748Y14496D01*
X241756Y14387D01*
X241760Y14278D01*
X241760Y14170D01*
X241756Y14061D01*
X241748Y13952D01*
X241736Y13844D01*
X241720Y13736D01*
X241700Y13629D01*
X241677Y13522D01*
X241649Y13417D01*
X241618Y13313D01*
X241583Y13209D01*
X241544Y13107D01*
X241502Y13007D01*
X241456Y12908D01*
X241407Y12811D01*
X241354Y12716D01*
X241297Y12623D01*
X241237Y12532D01*
X241174Y12443D01*
X241108Y12357D01*
X241039Y12273D01*
X240966Y12191D01*
X240891Y12112D01*
X240813Y12036D01*
X240732Y11963D01*
X240649Y11893D01*
X240563Y11826D01*
X240475Y11762D01*
X240384Y11702D01*
X240291Y11644D01*
X240197Y11590D01*
X240100Y11540D01*
X240002Y11493D01*
X239902Y11450D01*
X239800Y11410D01*
X239697Y11374D01*
X239593Y11342D01*
X239488Y11314D01*
X239382Y11289D01*
X239275Y11269D01*
X239167Y11252D01*
X239059Y11239D01*
X238951Y11230D01*
X238842Y11225D01*
X238733Y11224D01*
X238624Y11227D01*
X238515Y11234D01*
X238407Y11245D01*
X238299Y11260D01*
X238191Y11278D01*
X238085Y11301D01*
X237979Y11327D01*
X237874Y11358D01*
X237771Y11392D01*
X237669Y11429D01*
X237568Y11471D01*
X237469Y11516D01*
X237371Y11565D01*
X237276Y11617D01*
X237182Y11673D01*
X237090Y11731D01*
X237001Y11794D01*
X236914Y11859D01*
X236829Y11928D01*
X236747Y11999D01*
X236668Y12074D01*
X236591Y12151D01*
X236517Y12231D01*
X236446Y12314D01*
X236379Y12400D01*
X236314Y12487D01*
X236252Y12577D01*
X236194Y12669D01*
X236140Y12763D01*
X236088Y12860D01*
X236040Y12958D01*
X235996Y13057D01*
X235956Y13158D01*
X235919Y13261D01*
X235886Y13365D01*
X235856Y13469D01*
X235831Y13575D01*
X235809Y13682D01*
X235792Y13790D01*
X235778Y13898D01*
X235768Y14006D01*
X235762Y14115D01*
X235760Y14224D01*
D22*
X473456Y247776D03*
X473456Y231776D03*
D31*
X57912Y82296D02*
X55752Y82296D01*
D32*
X65024Y84328D03*
D33*
X85344Y106680D02*
X84328Y107696D01*
X85344Y106680D02*
X76200Y106680D01*
X85344Y106680D02*
X85344Y103632D01*
X87376Y101600D01*
X87376Y84328D01*
X87376Y77216D01*
D31*
X65024Y84328D02*
X57784Y84328D01*
X55752Y82296D01*
D33*
X212344Y86360D02*
X212344Y99568D01*
X212344Y86360D02*
X219710Y86360D01*
X219710Y60960D02*
X219710Y35560D01*
X219710Y60960D02*
X219710Y86360D01*
X219710Y60960D02*
X197992Y60960D01*
X164820Y85344D02*
X164820Y99464D01*
X164820Y85344D02*
X164820Y82068D01*
X167640Y79248D01*
X174752Y79248D01*
X179820Y90412D02*
X179820Y99464D01*
X179820Y90412D02*
X175768Y86360D01*
X174752Y85344D01*
X174752Y79248D01*
X155448Y18288D02*
X149352Y18288D01*
X141884Y30480D02*
X136144Y30480D01*
X141884Y30480D02*
X143256Y30480D01*
X143256Y33528D01*
X60832Y184912D02*
X55752Y184912D01*
X60832Y184912D02*
X62992Y184912D01*
X62992Y188976D01*
X70104Y188976D01*
X129032Y85344D02*
X152400Y85344D01*
X164820Y85344D01*
X87376Y84328D02*
X65024Y84328D01*
X99156Y74848D02*
X118536Y74848D01*
X129032Y85344D01*
X89744Y74848D02*
X87376Y77216D01*
X89744Y74848D02*
X99156Y74848D01*
X204320Y173964D02*
X219710Y173964D01*
X219710Y180848D01*
X153416Y231648D02*
X153416Y242824D01*
X240157Y236093D02*
X240157Y250952D01*
X240157Y236093D02*
X235712Y231648D01*
X219710Y231648D01*
X201168Y231648D01*
X196088Y236728D01*
X186944Y236728D01*
X179820Y222492D02*
X179820Y213464D01*
X179820Y222492D02*
X186944Y229616D01*
X186944Y236728D01*
X240157Y250952D02*
X240157Y259715D01*
X237744Y262128D01*
X163576Y262128D01*
X153416Y251968D01*
X153416Y242824D01*
X267208Y130048D02*
X267208Y122936D01*
X219710Y180848D02*
X219710Y231648D01*
D32*
X473456Y166624D03*
D33*
X473456Y180848D01*
D32*
X453136Y123952D03*
X449072Y247904D03*
D33*
X473328Y247904D01*
X473456Y247776D01*
D32*
X238760Y91440D03*
D33*
X238760Y90424D01*
X238760Y89408D01*
X235712Y86360D01*
X219710Y86360D01*
X267208Y122936D02*
X276352Y122936D01*
X280416Y118872D01*
X280416Y103632D01*
D32*
X280416Y103632D03*
D33*
X269240Y169672D02*
X269240Y240792D01*
X269240Y169672D02*
X269240Y168656D01*
X70104Y188976D02*
X70104Y193040D01*
X73152Y196088D01*
D32*
X73152Y196088D03*
X162560Y231648D03*
D33*
X153416Y231648D01*
D32*
X152400Y85344D03*
X136144Y22352D03*
D33*
X136144Y30480D01*
X197992Y45848D02*
X197992Y60960D01*
X197992Y45848D02*
X198120Y45720D01*
D32*
X198120Y45720D03*
D31*
X55164Y120604D02*
X44276Y120604D01*
X55164Y120604D02*
X58928Y116840D01*
X58928Y97536D01*
X65024Y91440D01*
X65024Y84328D01*
D33*
X267208Y130048D02*
X275336Y130048D01*
X280416Y135128D01*
X280416Y150368D01*
X269240Y161544D01*
X269240Y168656D01*
D32*
X151384Y122936D03*
X237744Y202184D03*
X237744Y226568D03*
X96520Y209296D03*
X51816Y98552D03*
X48768Y170688D03*
X304800Y142240D03*
X390144Y142240D03*
X194056Y88392D03*
D33*
X269240Y240792D02*
X275336Y240792D01*
X153416Y231648D02*
X153416Y225552D01*
X174752Y79248D02*
X174752Y73152D01*
X136144Y30480D02*
X131064Y30480D01*
X76200Y188976D02*
X70104Y188976D01*
X472440Y180848D02*
X473456Y180848D01*
X472440Y180848D02*
X468376Y180848D01*
X155448Y18288D02*
X155448Y11176D01*
X155448Y18288D02*
X155448Y24384D01*
X151384Y24384D01*
X157480Y24384D01*
X473456Y153416D02*
X479552Y153416D01*
X480568Y152400D01*
X480568Y114808D01*
X479552Y113792D01*
X473456Y113792D01*
X467360Y113792D01*
X467360Y153416D02*
X473456Y153416D01*
X151028Y33704D02*
X150852Y33528D01*
X143256Y33528D01*
D32*
X290576Y254000D03*
X330200Y252984D03*
X371856Y251968D03*
X411480Y251968D03*
X487680Y208280D03*
X452120Y161544D03*
X487680Y58928D03*
X488696Y14224D03*
X448056Y11176D03*
X410464Y11176D03*
X365760Y11176D03*
X318008Y11176D03*
X335280Y52832D03*
X384048Y99568D03*
X305816Y101600D03*
X273304Y52832D03*
X239776Y55880D03*
X177800Y11176D03*
X129032Y83312D03*
X165608Y114808D03*
X280416Y198120D03*
X281432Y232664D03*
X160528Y257048D03*
X86360Y203200D03*
X117856Y27432D03*
X147320Y10160D03*
X160528Y71120D03*
X269240Y10160D03*
X217424Y11176D03*
X115824Y238760D03*
X270256Y81280D03*
X308864Y208280D03*
X376936Y209296D03*
X344424Y181864D03*
X392176Y167640D03*
X386080Y39624D03*
D34*
X472440Y180848D02*
X479552Y180848D01*
D33*
X238760Y90424D02*
X227584Y90424D01*
X227584Y112776D01*
X237744Y202184D02*
X249936Y202184D01*
X249936Y156464D01*
X76200Y123952D02*
X76200Y116840D01*
X81280Y116840D01*
X105248Y119472D02*
X106680Y120904D01*
D32*
X106680Y120904D03*
D33*
X90320Y118964D02*
X83404Y118964D01*
X81280Y116840D01*
X90320Y118964D02*
X104740Y118964D01*
X106680Y120904D01*
D31*
X170028Y35916D02*
X170028Y33704D01*
X170028Y35916D02*
X181864Y47752D01*
X181864Y60832D01*
X181992Y60960D01*
X181992Y66040D01*
X181992Y70232D01*
X184912Y73152D01*
X184912Y79248D01*
D33*
X202184Y84328D02*
X202184Y99568D01*
X202184Y84328D02*
X197104Y79248D01*
X184912Y79248D01*
X170028Y33704D02*
X170028Y22708D01*
X165608Y18288D01*
X109820Y213464D02*
X109820Y221580D01*
X129032Y240792D01*
X131064Y242824D01*
X136144Y242824D01*
X143256Y242824D01*
D31*
X176657Y236855D02*
X176657Y250952D01*
D33*
X176657Y236855D02*
X176784Y236728D01*
D31*
X176784Y228600D01*
D32*
X181992Y70232D03*
D33*
X181992Y66040D01*
D32*
X136144Y242824D03*
D33*
X131064Y242824D01*
X174820Y213464D02*
X174820Y204148D01*
D31*
X174820Y178816D01*
X174820Y170756D01*
X174820Y168724D01*
X171704Y165608D01*
X171704Y139192D01*
X174820Y136076D01*
X181864Y129032D01*
D33*
X174968Y178964D02*
X204320Y178964D01*
X174968Y178964D02*
X174820Y178816D01*
D32*
X452120Y100584D03*
D33*
X204320Y108816D02*
X204320Y118964D01*
X204320Y108816D02*
X202184Y106680D01*
X202184Y99568D01*
D31*
X184820Y126076D02*
X181864Y129032D01*
X184820Y126076D02*
X185928Y124968D01*
X185928Y107696D01*
X185928Y99568D01*
X185928Y80264D01*
X184912Y79248D01*
D33*
X184820Y99464D02*
X185824Y99464D01*
X185928Y99568D01*
D32*
X310388Y85344D03*
D31*
X436880Y85344D01*
X452120Y100584D01*
X473456Y123952D02*
X473456Y143256D01*
X473456Y123952D02*
X465328Y123952D01*
X461264Y119888D01*
X461264Y103632D01*
X458216Y100584D01*
X452120Y100584D01*
D33*
X174820Y213464D02*
X174820Y223452D01*
X174752Y222504D01*
D31*
X174752Y226568D01*
X176784Y228600D01*
D32*
X154432Y179832D03*
D33*
X154820Y180220D02*
X154820Y213464D01*
X154820Y180220D02*
X154432Y179832D01*
X162560Y175768D02*
X162560Y189992D01*
D32*
X154432Y167640D03*
D33*
X162560Y175768D01*
X164820Y192252D02*
X164820Y213464D01*
X164820Y192252D02*
X162560Y189992D01*
D32*
X451104Y29464D03*
D33*
X453136Y27432D01*
X459232Y21336D01*
X473456Y21336D01*
D32*
X451104Y56896D03*
D33*
X470408Y76200D02*
X473456Y76200D01*
X470408Y76200D02*
X451104Y56896D01*
D32*
X451104Y42672D03*
D33*
X462280Y31496D01*
X473456Y31496D01*
X473456Y86360D02*
X460470Y86360D01*
D32*
X452120Y79248D03*
D33*
X452120Y83312D01*
X455168Y86360D01*
X460470Y86360D01*
D32*
X455168Y225552D03*
D33*
X455168Y226568D01*
X460248Y231648D01*
X473328Y231648D01*
X473456Y231776D01*
D32*
X455168Y191008D03*
D33*
X473456Y191008D01*
D31*
X160528Y53976D02*
X136144Y53976D01*
X160528Y53976D02*
X160528Y55704D01*
D33*
X136144Y53976D02*
X136144Y40640D01*
X204320Y143964D02*
X217116Y143964D01*
X226260Y153108D02*
X226260Y156104D01*
X219764Y143964D02*
X217116Y143964D01*
X219764Y143964D02*
X223520Y140208D01*
X230632Y140208D01*
X245872Y140208D01*
X267208Y140208D01*
X226260Y140208D02*
X226260Y153108D01*
X226260Y140208D02*
X230632Y140208D01*
X213588Y138964D02*
X204320Y138964D01*
X213588Y138964D02*
X222504Y130048D01*
X235712Y130048D01*
X245872Y119888D01*
X249936Y115824D01*
X251260Y114500D01*
X251260Y111104D01*
X252932Y112776D02*
X267208Y112776D01*
X252932Y112776D02*
X251260Y111104D01*
X139820Y192412D02*
X139820Y213464D01*
D32*
X154432Y155448D03*
D33*
X139820Y183268D02*
X139820Y192412D01*
X139820Y183268D02*
X147320Y175768D01*
X147320Y162560D01*
X154432Y155448D01*
X134820Y191316D02*
X134820Y213464D01*
D32*
X146304Y136144D03*
D33*
X146304Y145288D01*
X134820Y156772D02*
X134820Y191316D01*
X134820Y156772D02*
X146304Y145288D01*
D32*
X169672Y127000D03*
D33*
X165608Y131064D02*
X165608Y169672D01*
X165608Y131064D02*
X169524Y127148D01*
X169820Y127148D01*
X169672Y127000D01*
X169820Y173884D02*
X169820Y213464D01*
X169820Y173884D02*
X165608Y169672D01*
X114820Y213464D02*
X114820Y220484D01*
X125984Y231648D01*
X143256Y231648D01*
X101600Y110744D02*
X98552Y107696D01*
X94488Y107696D01*
X101600Y110744D02*
X103632Y112776D01*
X107696Y112776D01*
X109728Y112776D01*
X114808Y117856D01*
X114808Y124968D01*
X110744Y129032D01*
X106680Y129032D01*
X104648Y129032D01*
X101600Y125984D01*
X100088Y124472D01*
X99580Y123964D02*
X90320Y123964D01*
X99580Y123964D02*
X100088Y124472D01*
X76200Y134112D02*
X66040Y134112D01*
X76348Y133964D02*
X90320Y133964D01*
X76348Y133964D02*
X76200Y134112D01*
X191636Y148964D02*
X204320Y148964D01*
X191636Y148964D02*
X186944Y144272D01*
D32*
X186944Y144272D03*
D33*
X256032Y250952D02*
X269240Y250952D01*
D32*
X131064Y134112D03*
D33*
X139820Y116840D02*
X139820Y99464D01*
X131064Y125596D02*
X131064Y134112D01*
X131064Y125596D02*
X139820Y116840D01*
D32*
X108712Y156464D03*
D33*
X104648Y135128D02*
X98992Y129472D01*
X98484Y128964D02*
X90320Y128964D01*
X98484Y128964D02*
X98992Y129472D01*
X108712Y139192D02*
X108712Y156464D01*
X108712Y139192D02*
X104648Y135128D01*
X109820Y105756D02*
X109820Y99464D01*
X109820Y105756D02*
X118872Y114808D01*
X119888Y115824D01*
X119888Y125984D01*
X119888Y133096D01*
X119888Y135128D01*
D32*
X119888Y145288D03*
D33*
X119888Y143256D01*
X119888Y133096D01*
X144820Y198588D02*
X144820Y213464D01*
X144820Y198588D02*
X147320Y196088D01*
D32*
X258064Y216408D03*
X147320Y187960D03*
D33*
X147320Y196088D01*
X257810Y216662D02*
X258064Y216408D01*
X257810Y216662D02*
X257810Y231648D01*
D32*
X280416Y163576D03*
X186944Y163576D03*
D33*
X288544Y149352D02*
X288544Y99568D01*
X288544Y149352D02*
X288544Y161544D01*
X286512Y163576D01*
X280416Y163576D01*
X288544Y99568D02*
X288544Y50800D01*
X273304Y35560D01*
X257810Y35560D01*
X204320Y163964D02*
X187332Y163964D01*
X186944Y163576D01*
X77216Y154432D02*
X77216Y146304D01*
X77216Y154432D02*
X77216Y164592D01*
X75184Y166624D01*
X70104Y166624D01*
X82524Y138964D02*
X90320Y138964D01*
X82524Y138964D02*
X81280Y140208D01*
X77216Y144272D01*
X77216Y146304D01*
D31*
X55164Y146604D02*
X44276Y146604D01*
X55164Y146604D02*
X59944Y151384D01*
X59944Y155448D01*
D32*
X59944Y155448D03*
X101600Y58928D03*
D31*
X91440Y61976D02*
X75596Y73348D01*
D33*
X59944Y155448D02*
X59944Y162560D01*
D31*
X116656Y45904D02*
X118364Y45904D01*
X114624Y45904D02*
X101600Y58928D01*
X114624Y45904D02*
X118364Y45904D01*
X98552Y61976D02*
X91440Y61976D01*
X98552Y61976D02*
X101600Y58928D01*
X136144Y69976D02*
X136144Y70104D01*
X126816Y68904D02*
X118364Y68904D01*
X126816Y68904D02*
X128016Y70104D01*
X136016Y70104D01*
X136144Y69976D01*
X58824Y140104D02*
X44276Y140104D01*
X58824Y140104D02*
X70104Y151384D01*
D32*
X70104Y151384D03*
X114808Y83312D03*
D31*
X113792Y83312D01*
X109728Y87376D01*
X107646Y87376D01*
D33*
X70104Y151384D02*
X70104Y156464D01*
X70104Y151384D02*
X70104Y149352D01*
D31*
X99156Y95358D02*
X99664Y95358D01*
X107646Y87376D01*
X67056Y114808D02*
X66040Y115824D01*
X67056Y114808D02*
X67056Y110744D01*
X67056Y104648D01*
X67056Y102616D01*
X66040Y115824D02*
X66040Y123952D01*
X53340Y133604D02*
X44276Y133604D01*
X53340Y133604D02*
X61976Y124968D01*
X62992Y123952D01*
X66040Y123952D01*
D32*
X67056Y110744D03*
D31*
X71316Y95308D02*
X75596Y95308D01*
X71316Y95308D02*
X67056Y99568D01*
X67056Y104648D01*
D30*
X17526Y111354D02*
X17526Y91854D01*
X17526Y111354D02*
X17526Y122104D01*
X17526Y145104D01*
X17526Y151384D01*
X17526Y164592D01*
X17526Y175354D01*
X27084Y184912D02*
X39752Y184912D01*
X27084Y184912D02*
X17526Y175354D01*
X17526Y164592D02*
X17526Y155854D01*
X17526Y111354D02*
X17526Y91854D01*
X27084Y82296D02*
X39752Y82296D01*
X27084Y82296D02*
X17526Y91854D01*
X17526Y111354D02*
X47526Y111354D01*
X47526Y155854D02*
X17526Y155854D01*
X17526Y151384D01*
D33*
X81280Y151384D02*
X81280Y166624D01*
X77216Y170688D01*
X70104Y172720D02*
X59944Y172720D01*
X70104Y172720D02*
X75184Y172720D01*
X77216Y170688D01*
X70104Y172720D02*
X70104Y178816D01*
X83700Y148964D02*
X90320Y148964D01*
X83700Y148964D02*
X81280Y151384D01*
M02*
