G04 EAGLE Gerber RS-274X export*
G75*
%MOMM*%
%FSLAX34Y34*%
%LPD*%
%INTop Solder Mask*%
%IPPOS*%
%AMOC8*
5,1,8,0,0,1.08239X$1,22.5*%
G01*
%ADD10C,0.603200*%
%ADD11R,0.965200X1.727200*%
%ADD12R,1.603200X2.103200*%
%ADD13R,1.203200X1.603200*%
%ADD14R,1.403200X0.503200*%
%ADD15R,0.503200X1.403200*%
%ADD16R,1.309600X1.309600*%
%ADD17C,1.309600*%
%ADD18R,1.553200X0.603200*%
%ADD19R,2.103200X2.003200*%
%ADD20C,1.156759*%
%ADD21C,1.198944*%
%ADD22R,1.203200X1.003200*%
%ADD23R,1.403200X1.703200*%
%ADD24R,1.403200X1.403200*%
%ADD25R,0.803200X0.703200*%
%ADD26R,0.953200X0.703200*%
%ADD27R,1.003200X1.203200*%
%ADD28R,0.703200X0.953200*%
%ADD29R,1.400000X1.400000*%
%ADD30C,1.600000*%


D10*
X466996Y53604D03*
X466996Y213604D03*
D11*
X257810Y231648D03*
X257810Y180848D03*
X219710Y231648D03*
X219710Y180848D03*
X257810Y86360D03*
X257810Y35560D03*
X219710Y86360D03*
X219710Y35560D03*
D12*
X226260Y156104D03*
X226260Y111104D03*
X251260Y111104D03*
X251260Y156104D03*
D13*
X160528Y55704D03*
X170028Y33704D03*
X151028Y33704D03*
D14*
X204320Y118964D03*
X204320Y123964D03*
X204320Y128964D03*
X204320Y133964D03*
X204320Y138964D03*
X204320Y143964D03*
X204320Y148964D03*
X204320Y153964D03*
X204320Y158964D03*
X204320Y163964D03*
X204320Y168964D03*
X204320Y173964D03*
X204320Y178964D03*
X204320Y183964D03*
X204320Y188964D03*
X204320Y193964D03*
D15*
X184820Y213464D03*
X179820Y213464D03*
X174820Y213464D03*
X169820Y213464D03*
X164820Y213464D03*
X159820Y213464D03*
X154820Y213464D03*
X149820Y213464D03*
X144820Y213464D03*
X139820Y213464D03*
X134820Y213464D03*
X129820Y213464D03*
X124820Y213464D03*
X119820Y213464D03*
X114820Y213464D03*
X109820Y213464D03*
D14*
X90320Y193964D03*
X90320Y188964D03*
X90320Y183964D03*
X90320Y178964D03*
X90320Y173964D03*
X90320Y168964D03*
X90320Y163964D03*
X90320Y158964D03*
X90320Y153964D03*
X90320Y148964D03*
X90320Y143964D03*
X90320Y138964D03*
X90320Y133964D03*
X90320Y128964D03*
X90320Y123964D03*
X90320Y118964D03*
D15*
X109820Y99464D03*
X114820Y99464D03*
X119820Y99464D03*
X124820Y99464D03*
X129820Y99464D03*
X134820Y99464D03*
X139820Y99464D03*
X144820Y99464D03*
X149820Y99464D03*
X154820Y99464D03*
X159820Y99464D03*
X164820Y99464D03*
X169820Y99464D03*
X174820Y99464D03*
X179820Y99464D03*
X184820Y99464D03*
D16*
X256032Y250952D03*
D17*
X240157Y250952D03*
X224282Y250952D03*
X208407Y250952D03*
X192532Y250952D03*
X176657Y250952D03*
D18*
X44276Y133604D03*
X44276Y140104D03*
X44276Y146604D03*
X44276Y127104D03*
X44276Y120604D03*
D19*
X17526Y145104D03*
X17526Y122104D03*
D20*
X22258Y102836D02*
X22258Y91622D01*
X12794Y91622D01*
X12794Y102836D01*
X22258Y102836D01*
X22258Y102612D02*
X12794Y102612D01*
X22258Y164372D02*
X22258Y175586D01*
X22258Y164372D02*
X12794Y164372D01*
X12794Y175586D01*
X22258Y175586D01*
X22258Y175362D02*
X12794Y175362D01*
D21*
X46254Y155332D02*
X48798Y155332D01*
X46254Y155332D02*
X46254Y156376D01*
X48798Y156376D01*
X48798Y155332D01*
X48798Y110832D02*
X46254Y110832D01*
X46254Y111876D01*
X48798Y111876D01*
X48798Y110832D01*
D22*
X136144Y69976D03*
X136144Y53976D03*
D23*
X99156Y74848D03*
D24*
X99156Y95358D03*
X75596Y95308D03*
X75596Y73348D03*
D25*
X118364Y68904D03*
X118364Y45904D03*
D26*
X70104Y166624D03*
X70104Y156464D03*
X66040Y134112D03*
X66040Y123952D03*
X76200Y134112D03*
X76200Y123952D03*
X59944Y172720D03*
X59944Y162560D03*
X70104Y188976D03*
X70104Y178816D03*
D27*
X55752Y184912D03*
X39752Y184912D03*
X55752Y82296D03*
X39752Y82296D03*
D26*
X267208Y130048D03*
X267208Y140208D03*
X267208Y122936D03*
X267208Y112776D03*
D28*
X153416Y231648D03*
X143256Y231648D03*
X84328Y107696D03*
X94488Y107696D03*
D26*
X76200Y106680D03*
X76200Y116840D03*
D28*
X174752Y79248D03*
X184912Y79248D03*
X153416Y242824D03*
X143256Y242824D03*
X212344Y99568D03*
X202184Y99568D03*
X186944Y236728D03*
X176784Y236728D03*
D26*
X269240Y240792D03*
X269240Y250952D03*
X473456Y143256D03*
X473456Y153416D03*
X473456Y123952D03*
X473456Y113792D03*
X473456Y76200D03*
X473456Y86360D03*
X473456Y21336D03*
X473456Y31496D03*
D28*
X165608Y18288D03*
X155448Y18288D03*
D26*
X136144Y40640D03*
X136144Y30480D03*
D27*
X197992Y60960D03*
X181992Y60960D03*
D26*
X473456Y180848D03*
X473456Y191008D03*
D29*
X195072Y14224D03*
D30*
X238760Y14224D03*
D22*
X473456Y247776D03*
X473456Y231776D03*
M02*
