G04 EAGLE Gerber RS-274X export*
G75*
%MOMM*%
%FSLAX34Y34*%
%LPD*%
%INMechanical*%
%IPPOS*%
%AMOC8*
5,1,8,0,0,1.08239X$1,22.5*%
G01*
%ADD10C,0.025400*%
%ADD11C,0.000000*%
%ADD12C,0.600000*%
%ADD13C,0.700000*%
%ADD14C,0.254000*%


D10*
X44196Y205994D02*
X7366Y183896D01*
X105664Y242824D02*
X142240Y264922D01*
X150114Y266954D02*
X484886Y266954D01*
X499872Y251968D02*
X499872Y206502D01*
X499872Y60706D02*
X499872Y15240D01*
X484886Y254D02*
X150114Y254D01*
X142240Y2286D02*
X108204Y22860D01*
X103124Y43434D02*
X62230Y67818D01*
X41656Y62738D02*
X7366Y83312D01*
X254Y96012D02*
X254Y170942D01*
X484886Y183642D02*
X484886Y83566D01*
X100584Y222250D02*
X64770Y200914D01*
X7366Y183896D02*
X2032Y178562D01*
X254Y170942D01*
X100584Y222250D02*
X104902Y226060D01*
X107188Y231394D01*
X107696Y237236D01*
X105664Y242824D01*
X146050Y266446D02*
X150114Y266954D01*
X146050Y266446D02*
X142240Y264922D01*
X498602Y257810D02*
X499872Y251968D01*
X498602Y257810D02*
X495554Y262636D01*
X490474Y265938D01*
X484886Y266954D01*
X484886Y83566D02*
X485394Y79248D01*
X487172Y75438D01*
X490220Y72136D01*
X493776Y69850D01*
X490728Y1270D02*
X484886Y254D01*
X490728Y1270D02*
X495554Y4572D01*
X498602Y9398D01*
X499872Y15240D01*
X146050Y762D02*
X142240Y2286D01*
X146050Y762D02*
X150114Y254D01*
X108204Y22860D02*
X110236Y28194D01*
X109982Y34036D01*
X107442Y39370D01*
X103124Y43434D01*
X62230Y67818D02*
X56642Y69850D01*
X50800Y69596D01*
X45466Y67056D01*
X41656Y62738D01*
X498094Y66294D02*
X499872Y60706D01*
X498094Y66294D02*
X493776Y69850D01*
X2032Y88646D02*
X254Y96012D01*
X2032Y88646D02*
X7366Y83312D01*
X493776Y197358D02*
X498094Y200914D01*
X499872Y206502D01*
X493776Y197358D02*
X490220Y195072D01*
X487172Y191770D01*
X485394Y187960D01*
X484886Y183642D01*
X48006Y201676D02*
X44196Y205994D01*
X48006Y201676D02*
X53340Y199136D01*
X59182Y198882D01*
X64770Y200914D01*
D11*
X464996Y53604D02*
X464998Y53693D01*
X465004Y53782D01*
X465014Y53871D01*
X465028Y53959D01*
X465045Y54046D01*
X465067Y54132D01*
X465093Y54218D01*
X465122Y54302D01*
X465155Y54385D01*
X465191Y54466D01*
X465232Y54546D01*
X465275Y54623D01*
X465322Y54699D01*
X465373Y54772D01*
X465426Y54843D01*
X465483Y54912D01*
X465543Y54978D01*
X465606Y55042D01*
X465671Y55102D01*
X465739Y55160D01*
X465810Y55214D01*
X465883Y55265D01*
X465958Y55313D01*
X466035Y55358D01*
X466114Y55399D01*
X466195Y55436D01*
X466277Y55470D01*
X466361Y55501D01*
X466446Y55527D01*
X466532Y55550D01*
X466619Y55568D01*
X466707Y55583D01*
X466796Y55594D01*
X466885Y55601D01*
X466974Y55604D01*
X467063Y55603D01*
X467152Y55598D01*
X467240Y55589D01*
X467329Y55576D01*
X467416Y55559D01*
X467503Y55539D01*
X467589Y55514D01*
X467673Y55486D01*
X467756Y55454D01*
X467838Y55418D01*
X467918Y55379D01*
X467996Y55336D01*
X468072Y55290D01*
X468146Y55240D01*
X468218Y55187D01*
X468287Y55131D01*
X468354Y55072D01*
X468418Y55010D01*
X468479Y54946D01*
X468538Y54878D01*
X468593Y54808D01*
X468645Y54736D01*
X468694Y54661D01*
X468739Y54585D01*
X468781Y54506D01*
X468819Y54426D01*
X468854Y54344D01*
X468885Y54260D01*
X468913Y54175D01*
X468936Y54089D01*
X468956Y54002D01*
X468972Y53915D01*
X468984Y53826D01*
X468992Y53738D01*
X468996Y53649D01*
X468996Y53559D01*
X468992Y53470D01*
X468984Y53382D01*
X468972Y53293D01*
X468956Y53206D01*
X468936Y53119D01*
X468913Y53033D01*
X468885Y52948D01*
X468854Y52864D01*
X468819Y52782D01*
X468781Y52702D01*
X468739Y52623D01*
X468694Y52547D01*
X468645Y52472D01*
X468593Y52400D01*
X468538Y52330D01*
X468479Y52262D01*
X468418Y52198D01*
X468354Y52136D01*
X468287Y52077D01*
X468218Y52021D01*
X468146Y51968D01*
X468072Y51918D01*
X467996Y51872D01*
X467918Y51829D01*
X467838Y51790D01*
X467756Y51754D01*
X467673Y51722D01*
X467589Y51694D01*
X467503Y51669D01*
X467416Y51649D01*
X467329Y51632D01*
X467240Y51619D01*
X467152Y51610D01*
X467063Y51605D01*
X466974Y51604D01*
X466885Y51607D01*
X466796Y51614D01*
X466707Y51625D01*
X466619Y51640D01*
X466532Y51658D01*
X466446Y51681D01*
X466361Y51707D01*
X466277Y51738D01*
X466195Y51772D01*
X466114Y51809D01*
X466035Y51850D01*
X465958Y51895D01*
X465883Y51943D01*
X465810Y51994D01*
X465739Y52048D01*
X465671Y52106D01*
X465606Y52166D01*
X465543Y52230D01*
X465483Y52296D01*
X465426Y52365D01*
X465373Y52436D01*
X465322Y52509D01*
X465275Y52585D01*
X465232Y52662D01*
X465191Y52742D01*
X465155Y52823D01*
X465122Y52906D01*
X465093Y52990D01*
X465067Y53076D01*
X465045Y53162D01*
X465028Y53249D01*
X465014Y53337D01*
X465004Y53426D01*
X464998Y53515D01*
X464996Y53604D01*
X464996Y213604D02*
X464998Y213693D01*
X465004Y213782D01*
X465014Y213871D01*
X465028Y213959D01*
X465045Y214046D01*
X465067Y214132D01*
X465093Y214218D01*
X465122Y214302D01*
X465155Y214385D01*
X465191Y214466D01*
X465232Y214546D01*
X465275Y214623D01*
X465322Y214699D01*
X465373Y214772D01*
X465426Y214843D01*
X465483Y214912D01*
X465543Y214978D01*
X465606Y215042D01*
X465671Y215102D01*
X465739Y215160D01*
X465810Y215214D01*
X465883Y215265D01*
X465958Y215313D01*
X466035Y215358D01*
X466114Y215399D01*
X466195Y215436D01*
X466277Y215470D01*
X466361Y215501D01*
X466446Y215527D01*
X466532Y215550D01*
X466619Y215568D01*
X466707Y215583D01*
X466796Y215594D01*
X466885Y215601D01*
X466974Y215604D01*
X467063Y215603D01*
X467152Y215598D01*
X467240Y215589D01*
X467329Y215576D01*
X467416Y215559D01*
X467503Y215539D01*
X467589Y215514D01*
X467673Y215486D01*
X467756Y215454D01*
X467838Y215418D01*
X467918Y215379D01*
X467996Y215336D01*
X468072Y215290D01*
X468146Y215240D01*
X468218Y215187D01*
X468287Y215131D01*
X468354Y215072D01*
X468418Y215010D01*
X468479Y214946D01*
X468538Y214878D01*
X468593Y214808D01*
X468645Y214736D01*
X468694Y214661D01*
X468739Y214585D01*
X468781Y214506D01*
X468819Y214426D01*
X468854Y214344D01*
X468885Y214260D01*
X468913Y214175D01*
X468936Y214089D01*
X468956Y214002D01*
X468972Y213915D01*
X468984Y213826D01*
X468992Y213738D01*
X468996Y213649D01*
X468996Y213559D01*
X468992Y213470D01*
X468984Y213382D01*
X468972Y213293D01*
X468956Y213206D01*
X468936Y213119D01*
X468913Y213033D01*
X468885Y212948D01*
X468854Y212864D01*
X468819Y212782D01*
X468781Y212702D01*
X468739Y212623D01*
X468694Y212547D01*
X468645Y212472D01*
X468593Y212400D01*
X468538Y212330D01*
X468479Y212262D01*
X468418Y212198D01*
X468354Y212136D01*
X468287Y212077D01*
X468218Y212021D01*
X468146Y211968D01*
X468072Y211918D01*
X467996Y211872D01*
X467918Y211829D01*
X467838Y211790D01*
X467756Y211754D01*
X467673Y211722D01*
X467589Y211694D01*
X467503Y211669D01*
X467416Y211649D01*
X467329Y211632D01*
X467240Y211619D01*
X467152Y211610D01*
X467063Y211605D01*
X466974Y211604D01*
X466885Y211607D01*
X466796Y211614D01*
X466707Y211625D01*
X466619Y211640D01*
X466532Y211658D01*
X466446Y211681D01*
X466361Y211707D01*
X466277Y211738D01*
X466195Y211772D01*
X466114Y211809D01*
X466035Y211850D01*
X465958Y211895D01*
X465883Y211943D01*
X465810Y211994D01*
X465739Y212048D01*
X465671Y212106D01*
X465606Y212166D01*
X465543Y212230D01*
X465483Y212296D01*
X465426Y212365D01*
X465373Y212436D01*
X465322Y212509D01*
X465275Y212585D01*
X465232Y212662D01*
X465191Y212742D01*
X465155Y212823D01*
X465122Y212906D01*
X465093Y212990D01*
X465067Y213076D01*
X465045Y213162D01*
X465028Y213249D01*
X465014Y213337D01*
X465004Y213426D01*
X464998Y213515D01*
X464996Y213604D01*
D12*
X21026Y91904D02*
X14026Y91904D01*
X14026Y175304D02*
X21026Y175304D01*
D13*
X46776Y155854D02*
X48276Y155854D01*
X48276Y111354D02*
X46776Y111354D01*
D14*
X254Y96012D02*
X2032Y88646D01*
X7366Y83312D01*
X41656Y62738D01*
X45466Y67056D01*
X50800Y69596D01*
X56642Y69850D01*
X62230Y67818D01*
X103124Y43434D01*
X107442Y39370D01*
X109982Y34036D01*
X110236Y28194D01*
X108204Y22860D01*
X142240Y2286D01*
X146050Y762D01*
X150114Y254D01*
X484886Y254D01*
X490728Y1270D01*
X495554Y4572D01*
X498602Y9398D01*
X499872Y15240D01*
X499872Y60706D01*
X498094Y66294D01*
X493776Y69850D01*
X490220Y72136D01*
X487172Y75438D01*
X485394Y79248D01*
X484886Y83566D01*
X484886Y183642D01*
X485394Y187960D01*
X487172Y191770D01*
X490220Y195072D01*
X493776Y197358D01*
X498094Y200914D01*
X499872Y206502D01*
X499872Y251968D01*
X498602Y257810D01*
X495554Y262636D01*
X490474Y265938D01*
X484886Y266954D01*
X150114Y266954D01*
X146050Y266446D01*
X142240Y264922D01*
X105664Y242824D01*
X107696Y237236D01*
X107188Y231394D01*
X104902Y226060D01*
X100584Y222250D01*
X64770Y200914D01*
X59182Y198882D01*
X53340Y199136D01*
X48006Y201676D01*
X44196Y205994D01*
X7366Y183896D01*
X2032Y178562D01*
X254Y170942D01*
X254Y96012D01*
X467193Y55604D02*
X467579Y55527D01*
X467943Y55376D01*
X468271Y55158D01*
X468550Y54879D01*
X468768Y54551D01*
X468919Y54187D01*
X468996Y53801D01*
X468996Y53407D01*
X468919Y53021D01*
X468768Y52657D01*
X468550Y52329D01*
X468271Y52051D01*
X467943Y51832D01*
X467579Y51681D01*
X467193Y51604D01*
X466799Y51604D01*
X466413Y51681D01*
X466049Y51832D01*
X465721Y52051D01*
X465443Y52329D01*
X465224Y52657D01*
X465073Y53021D01*
X464996Y53407D01*
X464996Y53801D01*
X465073Y54187D01*
X465224Y54551D01*
X465443Y54879D01*
X465721Y55158D01*
X466049Y55376D01*
X466413Y55527D01*
X466799Y55604D01*
X467193Y55604D01*
X467193Y215604D02*
X467579Y215527D01*
X467943Y215376D01*
X468271Y215158D01*
X468550Y214879D01*
X468768Y214551D01*
X468919Y214187D01*
X468996Y213801D01*
X468996Y213407D01*
X468919Y213021D01*
X468768Y212657D01*
X468550Y212329D01*
X468271Y212051D01*
X467943Y211832D01*
X467579Y211681D01*
X467193Y211604D01*
X466799Y211604D01*
X466413Y211681D01*
X466049Y211832D01*
X465721Y212051D01*
X465443Y212329D01*
X465224Y212657D01*
X465073Y213021D01*
X464996Y213407D01*
X464996Y213801D01*
X465073Y214187D01*
X465224Y214551D01*
X465443Y214879D01*
X465721Y215158D01*
X466049Y215376D01*
X466413Y215527D01*
X466799Y215604D01*
X467193Y215604D01*
M02*
