G04 EAGLE Gerber RS-274X export*
G75*
%MOMM*%
%FSLAX34Y34*%
%LPD*%
%INBottom Silkscreen*%
%IPPOS*%
%AMOC8*
5,1,8,0,0,1.08239X$1,22.5*%
G01*
%ADD10C,0.076200*%


D10*
X400273Y31272D02*
X402730Y33729D01*
X402730Y26357D01*
X400273Y26357D02*
X405188Y26357D01*
X393789Y94272D02*
X396246Y96729D01*
X396246Y89357D01*
X393789Y89357D02*
X398704Y89357D01*
X401273Y90586D02*
X401273Y95501D01*
X402502Y96729D01*
X404959Y96729D01*
X406188Y95501D01*
X406188Y90586D01*
X404959Y89357D01*
X402502Y89357D01*
X401273Y90586D01*
X406188Y95501D01*
X398704Y158857D02*
X393789Y158857D01*
X398704Y163772D01*
X398704Y165001D01*
X397475Y166229D01*
X395017Y166229D01*
X393789Y165001D01*
X401273Y165001D02*
X401273Y160086D01*
X401273Y165001D02*
X402502Y166229D01*
X404959Y166229D01*
X406188Y165001D01*
X406188Y160086D01*
X404959Y158857D01*
X402502Y158857D01*
X401273Y160086D01*
X406188Y165001D01*
X393789Y236501D02*
X395017Y237729D01*
X397475Y237729D01*
X398704Y236501D01*
X398704Y235272D01*
X397475Y234043D01*
X396246Y234043D01*
X397475Y234043D02*
X398704Y232814D01*
X398704Y231586D01*
X397475Y230357D01*
X395017Y230357D01*
X393789Y231586D01*
X401273Y231586D02*
X401273Y236501D01*
X402502Y237729D01*
X404959Y237729D01*
X406188Y236501D01*
X406188Y231586D01*
X404959Y230357D01*
X402502Y230357D01*
X401273Y231586D01*
X406188Y236501D01*
M02*
